<svg width="50mm" height="20mm" viewBox="0 0 1820 572" xmlns="http://www.w3.org/2000/svg">
<rect width="100%" height="100%" fill="#FFFFFF" />
<path stroke="#000000" stroke-width="20" d="M30 475L30 20M220 475L220 20M510 475L510 20M650 475L650 20M760 475L760 20M910 475L910 20M1050 475L1050 20M1130 475L1130 20M1380 475L1380 20M1460 475L1460 20M1570 475L1570 20M1680 475L1680 20M1790 475L1790 20" />
<path stroke="#000000" stroke-width="10" d="M55 475L55 20M135 475L135 20M245 475L245 20M335 475L335 20M355 475L355 20M435 475L435 20M465 475L465 20M545 475L545 20M625 475L625 20M685 475L685 20M795 475L795 20M985 475L985 20M1015 475L1015 20M1205 475L1205 20M1235 475L1235 20M1345 475L1345 20M1435 475L1435 20M1495 475L1495 20M1635 475L1635 20M1765 475L1765 20" />
<path stroke="#000000" stroke-width="30" d="M95 475L95 20M175 475L175 20M585 475L585 20M715 475L715 20M875 475L875 20M945 475L945 20M1085 475L1085 20M1165 475L1165 20M1265 475L1265 20M1525 475L1525 20M1605 475L1605 20M1735 475L1735 20" />
<path stroke="#000000" stroke-width="40" d="M300 475L300 20M390 475L390 20M830 475L830 20M1310 475L1310 20" />
<path d="M324.67 503.65Q323.50 502.43 323.50 500.87Q323.50 499.05 324.67 498.18L341.22 484.55Q342.40 483.60 343.84 483.60L346.74 483.60Q348.36 483.60 349.54 484.81Q350.80 485.94 350.80 487.50L350.80 546.53Q350.80 548.09 349.54 549.31Q348.36 550.43 346.74 550.43Q345.11 550.43 343.84 549.31Q342.67 548.18 342.67 546.53L342.67 493.67L330.28 503.82Q329.10 504.78 327.57 504.78Q325.85 504.78 324.67 503.65ZM385.87 490.46Q384.70 489.24 384.70 487.59Q384.70 485.94 385.87 484.81Q387.05 483.69 388.76 483.69L424.03 483.69Q425.75 483.69 426.92 484.90Q428.10 486.03 428.10 487.59Q428.10 494.19 422.76 501.91Q421.13 504.34 416.43 509.99Q411.73 515.71 409.74 519.27Q403.86 529.69 403.86 546.44Q403.86 548.09 402.69 549.31Q401.51 550.43 399.98 550.43Q398.44 550.43 397.26 549.31Q396.09 548.18 396.09 546.44Q396.09 527.52 402.96 515.28Q405.04 511.72 409.74 505.73Q414.53 499.66 416.07 497.40Q418.24 493.93 419.05 492.19L419.24 491.58L388.76 491.58Q387.14 491.58 385.87 490.46ZM448.87 490.46Q447.70 489.24 447.70 487.59Q447.70 485.94 448.87 484.81Q450.05 483.69 451.76 483.69L487.03 483.69Q488.75 483.69 489.92 484.90Q491.10 486.03 491.10 487.59Q491.10 494.19 485.76 501.91Q484.13 504.34 479.43 509.99Q474.73 515.71 472.74 519.27Q466.86 529.69 466.86 546.44Q466.86 548.09 465.69 549.31Q464.51 550.43 462.98 550.43Q461.44 550.43 460.26 549.31Q459.09 548.18 459.09 546.44Q459.09 527.52 465.96 515.28Q468.04 511.72 472.74 505.73Q477.53 499.66 479.07 497.40Q481.24 493.93 482.05 492.19L482.24 491.58L451.76 491.58Q450.14 491.58 448.87 490.46ZM522.81 495.40Q518.83 499.57 518.83 505.39Q518.83 511.03 522.63 514.59Q526.25 518.06 532.40 518.06Q543.16 518.06 545.05 511.72Q545.96 508.86 545.96 505.39Q545.96 498.88 542.16 495.06Q538.45 491.15 532.40 491.15Q526.70 491.15 522.81 495.40M516.84 519.97Q510.70 514.15 510.70 505.39Q510.70 496.36 517.21 489.85Q523.54 483.34 532.40 483.34Q541.53 483.34 547.77 489.41Q554.10 495.49 554.10 505.39Q554.10 511.55 552.20 516.50Q550.30 521.44 546.86 527.17Q539.36 539.76 528.51 549.39Q527.33 550.43 525.98 550.43Q524.44 550.43 523.26 549.31Q522.09 548.18 522.09 546.53Q522.09 544.88 523.35 543.66Q531.94 535.76 538.09 526.22L538.54 525.35L537.64 525.52Q535.29 525.87 532.40 525.87Q522.81 525.87 516.84 519.97ZM588.34 492.89Q584.91 494.62 584.91 497.92Q584.91 500.09 585.72 501.74Q586.54 503.39 588.43 504.78Q590.24 506.08 591.42 506.77Q592.68 507.47 595.22 508.68L595.40 508.68L595.58 508.68Q598.11 507.56 599.37 506.86Q600.64 506.17 602.45 504.86Q604.26 503.48 605.07 501.83Q605.88 500.09 605.88 497.92Q605.88 494.62 602.45 492.89Q599.10 491.15 595.40 491.15Q591.69 491.15 588.34 492.89M595.40 517.62Q581.74 524.48 581.74 532.64Q581.74 537.50 585.81 540.19Q589.61 542.88 595.40 542.88L597.20 542.88Q602.00 542.88 605.43 539.84Q608.96 536.81 608.96 532.64Q608.96 524.39 595.76 517.62L595.58 517.45L595.40 517.62M579.93 545.66Q573.70 540.63 573.70 532.64Q573.70 522.14 586.54 513.63L587.08 513.28L586.54 512.94Q576.77 507.21 576.77 497.92Q576.77 491.58 582.56 487.50Q588.25 483.34 595.40 483.34Q602.45 483.34 608.24 487.50Q614.02 491.67 614.02 497.92Q614.02 503.04 611.49 506.60Q608.87 510.07 604.26 512.94L603.71 513.28L604.26 513.63Q617.10 522.14 617.10 532.64Q617.10 539.50 611.85 544.79Q606.61 550.09 599.19 550.69L595.40 550.69Q586.08 550.69 579.93 545.66ZM638.59 547.40Q636.70 546.01 636.70 543.92Q636.70 542.27 637.87 541.15Q639.14 539.93 640.76 539.93Q641.31 539.93 642.30 540.28Q648.09 542.80 654.42 542.80Q661.29 542.80 665.99 539.50Q670.78 536.11 671.14 529.69L671.14 528.82Q671.14 524.39 668.25 521.27Q665.54 518.23 661.56 516.93Q657.67 515.71 652.88 515.71Q651.34 515.71 650.17 514.59Q648.99 513.37 648.99 511.72Q648.99 510.16 649.81 509.29L666.44 491.58L641.04 491.58Q639.41 491.58 638.14 490.46Q636.97 489.24 636.97 487.59Q636.97 485.94 638.14 484.81Q639.32 483.69 641.04 483.69L672.95 483.69Q674.58 483.69 675.76 484.90Q677.02 486.03 677.02 487.59L677.02 490.72Q677.02 492.10 675.76 493.32L661.20 508.68L661.92 508.86Q669.61 510.77 674.49 515.89Q679.28 521.01 679.28 528.73L679.28 530.12Q678.83 539.58 671.60 545.14Q664.54 550.69 654.42 550.69Q651.89 550.69 649.35 550.43Q646.82 550.17 643.66 549.57Q640.49 548.87 638.59 547.40ZM721.76 550.69L721.40 550.69Q716.06 550.61 712.08 548.96Q708.10 547.40 705.75 544.88Q703.40 542.27 702.05 538.20Q700.60 534.12 700.15 529.95Q699.70 525.87 699.70 520.31Q699.70 515.37 699.79 511.90Q699.97 508.34 700.51 504.26Q701.05 500.09 701.96 497.31Q702.95 494.45 704.58 491.58Q706.21 488.81 708.47 487.16Q710.73 485.51 713.98 484.47Q717.24 483.42 721.40 483.42Q725.46 483.42 728.72 484.47Q731.97 485.51 734.24 487.16Q736.50 488.81 738.21 491.58Q739.84 494.45 740.75 497.31Q741.74 500.18 742.28 504.26Q742.82 508.34 742.92 511.90Q743.10 515.45 743.10 520.31Q743.10 523.79 742.92 526.65Q742.73 529.43 742.10 532.73Q741.56 536.03 740.65 538.54Q739.75 540.97 738.03 543.32Q736.31 545.66 734.14 547.22Q731.97 548.78 728.81 549.74Q725.65 550.69 721.76 550.69M707.83 513.20L707.83 520.31Q707.83 524.22 708.01 527.00Q708.29 529.78 709.10 532.99Q709.82 536.20 711.27 538.20Q712.72 540.28 715.25 541.67Q717.78 542.97 721.40 542.97L723.29 542.97Q725.83 542.97 727.82 542.01Q729.80 540.97 730.98 539.06Q732.25 537.24 733.06 535.16Q733.87 532.99 734.24 530.30Q734.69 527.52 734.78 525.26Q734.96 523.01 734.96 520.31L734.96 516.32Q734.96 513.63 734.87 512.07Q734.87 510.42 734.78 507.99Q734.69 505.47 734.42 504.08Q734.14 502.61 733.69 500.61Q733.24 498.61 732.52 497.40Q731.79 496.18 730.80 494.88Q729.71 493.58 728.45 492.89Q727.09 492.10 725.28 491.67Q723.57 491.24 721.40 491.24Q719.14 491.24 717.33 491.76Q715.61 492.19 714.25 493.06Q712.90 493.93 711.81 495.23Q710.82 496.44 710.09 498.01Q709.37 499.48 708.92 501.31Q708.47 503.04 708.29 505.04Q708.10 506.95 707.92 509.03Q707.83 511.03 707.83 513.20ZM777.34 492.89Q773.91 494.62 773.91 497.92Q773.91 500.09 774.72 501.74Q775.54 503.39 777.43 504.78Q779.24 506.08 780.42 506.77Q781.68 507.47 784.22 508.68L784.40 508.68L784.58 508.68Q787.11 507.56 788.37 506.86Q789.64 506.17 791.45 504.86Q793.26 503.48 794.07 501.83Q794.88 500.09 794.88 497.92Q794.88 494.62 791.45 492.89Q788.10 491.15 784.40 491.15Q780.69 491.15 777.34 492.89M784.40 517.62Q770.74 524.48 770.74 532.64Q770.74 537.50 774.81 540.19Q778.61 542.88 784.40 542.88L786.20 542.88Q791.00 542.88 794.43 539.84Q797.96 536.81 797.96 532.64Q797.96 524.39 784.76 517.62L784.58 517.45L784.40 517.62M768.93 545.66Q762.70 540.63 762.70 532.64Q762.70 522.14 775.54 513.63L776.08 513.28L775.54 512.94Q765.77 507.21 765.77 497.92Q765.77 491.58 771.56 487.50Q777.25 483.34 784.40 483.34Q791.45 483.34 797.24 487.50Q803.02 491.67 803.02 497.92Q803.02 503.04 800.49 506.60Q797.87 510.07 793.26 512.94L792.71 513.28L793.26 513.63Q806.10 522.14 806.10 532.64Q806.10 539.50 800.85 544.79Q795.61 550.09 788.19 550.69L784.40 550.69Q775.08 550.69 768.93 545.66ZM828.41 494.54Q827.23 493.32 827.23 491.84Q827.23 489.67 828.95 488.55Q837.18 483.34 847.40 483.34Q855.62 483.34 861.14 488.37Q866.75 493.32 866.75 501.39Q866.75 504.60 865.57 507.56Q864.39 510.59 862.86 512.50Q861.41 514.41 858.52 516.76Q855.62 519.10 854.09 520.14Q852.64 521.18 849.48 523.18Q846.04 525.35 844.50 526.48Q842.97 527.61 840.80 529.86Q838.63 532.03 837.63 534.81Q836.64 537.50 836.46 541.23L836.46 541.67L863.22 541.67Q864.94 541.67 866.11 542.88Q867.29 544.01 867.29 545.57Q867.29 547.14 866.02 548.35Q864.85 549.48 863.22 549.48L832.30 549.48Q830.67 549.48 829.40 548.35Q828.23 547.14 828.23 545.57L828.23 543.75Q828.23 536.98 829.13 534.03Q830.67 528.82 834.92 524.74Q839.17 520.58 845.32 516.58Q853.82 511.11 856.08 507.99Q858.61 504.86 858.61 501.39Q858.61 496.79 855.26 493.93Q852.10 491.15 847.40 491.15Q839.26 491.15 833.65 494.97Q832.66 495.66 831.30 495.66Q829.67 495.66 828.41 494.54ZM892.22 549.57Q891.05 548.44 891.05 546.79Q891.05 545.05 892.22 543.92Q893.49 542.80 895.12 542.80Q913.38 542.80 918.71 532.99Q920.34 530.04 920.34 527.35Q920.34 521.01 917.27 517.80Q913.20 513.20 902.98 513.20Q900.18 513.20 897.29 513.46L896.92 513.46Q895.30 513.46 894.03 512.42Q892.86 511.29 892.86 509.73L892.86 509.46L894.12 487.33Q894.30 485.77 895.39 484.73Q896.56 483.69 898.19 483.69L923.87 483.69Q925.59 483.69 926.76 484.90Q927.94 486.03 927.94 487.59Q927.94 489.15 926.67 490.37Q925.50 491.58 923.87 491.58L901.99 491.58L901.26 505.21L902.98 505.21Q914.46 505.21 921.43 510.85Q928.48 516.41 928.48 527.35Q928.48 531.95 926.40 535.94Q924.23 540.02 920.97 542.88Q912.29 550.69 895.12 550.69Q893.49 550.69 892.22 549.57M897.20 513.46Q897.20 513.46 897.29 513.46Q897.29 513.46 897.20 513.46ZM955.67 503.65Q954.50 502.43 954.50 500.87Q954.50 499.05 955.67 498.18L972.22 484.55Q973.40 483.60 974.84 483.60L977.74 483.60Q979.36 483.60 980.54 484.81Q981.80 485.94 981.80 487.50L981.80 546.53Q981.80 548.09 980.54 549.31Q979.36 550.43 977.74 550.43Q976.11 550.43 974.84 549.31Q973.67 548.18 973.67 546.53L973.67 493.67L961.28 503.82Q960.10 504.78 958.57 504.78Q956.85 504.78 955.67 503.65ZM1019.22 549.57Q1018.05 548.44 1018.05 546.79Q1018.05 545.05 1019.22 543.92Q1020.49 542.80 1022.12 542.80Q1040.38 542.80 1045.71 532.99Q1047.34 530.04 1047.34 527.35Q1047.34 521.01 1044.27 517.80Q1040.20 513.20 1029.98 513.20Q1027.18 513.20 1024.29 513.46L1023.92 513.46Q1022.30 513.46 1021.03 512.42Q1019.86 511.29 1019.86 509.73L1019.86 509.46L1021.12 487.33Q1021.30 485.77 1022.39 484.73Q1023.56 483.69 1025.19 483.69L1050.87 483.69Q1052.59 483.69 1053.76 484.90Q1054.94 486.03 1054.94 487.59Q1054.94 489.15 1053.67 490.37Q1052.50 491.58 1050.87 491.58L1028.99 491.58L1028.26 505.21L1029.98 505.21Q1041.46 505.21 1048.43 510.85Q1055.48 516.41 1055.48 527.35Q1055.48 531.95 1053.40 535.94Q1051.23 540.02 1047.97 542.88Q1039.29 550.69 1022.12 550.69Q1020.49 550.69 1019.22 549.57M1024.20 513.46Q1024.20 513.46 1024.29 513.46Q1024.29 513.46 1024.20 513.46ZM1082.22 549.57Q1081.05 548.44 1081.05 546.79Q1081.05 545.05 1082.22 543.92Q1083.49 542.80 1085.12 542.80Q1103.38 542.80 1108.71 532.99Q1110.34 530.04 1110.34 527.35Q1110.34 521.01 1107.27 517.80Q1103.20 513.20 1092.98 513.20Q1090.18 513.20 1087.29 513.46L1086.92 513.46Q1085.30 513.46 1084.03 512.42Q1082.86 511.29 1082.86 509.73L1082.86 509.46L1084.12 487.33Q1084.30 485.77 1085.39 484.73Q1086.56 483.69 1088.19 483.69L1113.87 483.69Q1115.59 483.69 1116.76 484.90Q1117.94 486.03 1117.94 487.59Q1117.94 489.15 1116.67 490.37Q1115.50 491.58 1113.87 491.58L1091.99 491.58L1091.26 505.21L1092.98 505.21Q1104.46 505.21 1111.43 510.85Q1118.48 516.41 1118.48 527.35Q1118.48 531.95 1116.40 535.94Q1114.23 540.02 1110.97 542.88Q1102.29 550.69 1085.12 550.69Q1083.49 550.69 1082.22 549.57M1087.20 513.46Q1087.20 513.46 1087.29 513.46Q1087.29 513.46 1087.20 513.46ZM1142.15 518.23L1142.15 515.80Q1142.15 514.15 1143.32 513.02Q1144.50 511.90 1146.22 511.90L1182.38 511.90Q1184.10 511.90 1185.28 513.11Q1186.45 514.24 1186.45 515.80L1186.45 518.23Q1186.45 519.79 1185.28 521.01Q1184.10 522.14 1182.38 522.14L1146.22 522.14Q1144.50 522.14 1143.32 521.01Q1142.15 519.88 1142.15 518.23ZM1210.22 549.57Q1209.05 548.44 1209.05 546.79Q1209.05 545.05 1210.22 543.92Q1211.49 542.80 1213.12 542.80Q1231.38 542.80 1236.71 532.99Q1238.34 530.04 1238.34 527.35Q1238.34 521.01 1235.27 517.80Q1231.20 513.20 1220.98 513.20Q1218.18 513.20 1215.29 513.46L1214.92 513.46Q1213.30 513.46 1212.03 512.42Q1210.86 511.29 1210.86 509.73L1210.86 509.46L1212.12 487.33Q1212.30 485.77 1213.39 484.73Q1214.56 483.69 1216.19 483.69L1241.87 483.69Q1243.59 483.69 1244.76 484.90Q1245.94 486.03 1245.94 487.59Q1245.94 489.15 1244.67 490.37Q1243.50 491.58 1241.87 491.58L1219.99 491.58L1219.26 505.21L1220.98 505.21Q1232.46 505.21 1239.43 510.85Q1246.48 516.41 1246.48 527.35Q1246.48 531.95 1244.40 535.94Q1242.23 540.02 1238.97 542.88Q1230.29 550.69 1213.12 550.69Q1211.49 550.69 1210.22 549.57M1215.20 513.46Q1215.20 513.46 1215.29 513.46Q1215.29 513.46 1215.20 513.46ZM1270.87 490.46Q1269.70 489.24 1269.70 487.59Q1269.70 485.94 1270.87 484.81Q1272.05 483.69 1273.76 483.69L1309.03 483.69Q1310.75 483.69 1311.92 484.90Q1313.10 486.03 1313.10 487.59Q1313.10 494.19 1307.76 501.91Q1306.13 504.34 1301.43 509.99Q1296.73 515.71 1294.74 519.27Q1288.86 529.69 1288.86 546.44Q1288.86 548.09 1287.69 549.31Q1286.51 550.43 1284.98 550.43Q1283.44 550.43 1282.26 549.31Q1281.09 548.18 1281.09 546.44Q1281.09 527.52 1287.96 515.28Q1290.04 511.72 1294.74 505.73Q1299.53 499.66 1301.07 497.40Q1303.24 493.93 1304.05 492.19L1304.24 491.58L1273.76 491.58Q1272.14 491.58 1270.87 490.46ZM1335.41 494.54Q1334.23 493.32 1334.23 491.84Q1334.23 489.67 1335.95 488.55Q1344.18 483.34 1354.40 483.34Q1362.62 483.34 1368.14 488.37Q1373.75 493.32 1373.75 501.39Q1373.75 504.60 1372.57 507.56Q1371.39 510.59 1369.86 512.50Q1368.41 514.41 1365.52 516.76Q1362.62 519.10 1361.09 520.14Q1359.64 521.18 1356.48 523.18Q1353.04 525.35 1351.50 526.48Q1349.97 527.61 1347.80 529.86Q1345.63 532.03 1344.63 534.81Q1343.64 537.50 1343.46 541.23L1343.46 541.67L1370.22 541.67Q1371.94 541.67 1373.11 542.88Q1374.29 544.01 1374.29 545.57Q1374.29 547.14 1373.02 548.35Q1371.85 549.48 1370.22 549.48L1339.30 549.48Q1337.67 549.48 1336.40 548.35Q1335.23 547.14 1335.23 545.57L1335.23 543.75Q1335.23 536.98 1336.13 534.03Q1337.67 528.82 1341.92 524.74Q1346.17 520.58 1352.32 516.58Q1360.82 511.11 1363.08 507.99Q1365.61 504.86 1365.61 501.39Q1365.61 496.79 1362.26 493.93Q1359.10 491.15 1354.40 491.15Q1346.26 491.15 1340.65 494.97Q1339.66 495.66 1338.30 495.66Q1336.67 495.66 1335.41 494.54ZM1399.67 503.65Q1398.50 502.43 1398.50 500.87Q1398.50 499.05 1399.67 498.18L1416.22 484.55Q1417.40 483.60 1418.84 483.60L1421.74 483.60Q1423.36 483.60 1424.54 484.81Q1425.80 485.94 1425.80 487.50L1425.80 546.53Q1425.80 548.09 1424.54 549.31Q1423.36 550.43 1421.74 550.43Q1420.11 550.43 1418.84 549.31Q1417.67 548.18 1417.67 546.53L1417.67 493.67L1405.28 503.82Q1404.10 504.78 1402.57 504.78Q1400.85 504.78 1399.67 503.65ZM1471.81 495.40Q1467.83 499.57 1467.83 505.39Q1467.83 511.03 1471.63 514.59Q1475.25 518.06 1481.40 518.06Q1492.16 518.06 1494.05 511.72Q1494.96 508.86 1494.96 505.39Q1494.96 498.88 1491.16 495.06Q1487.45 491.15 1481.40 491.15Q1475.70 491.15 1471.81 495.40M1465.84 519.97Q1459.70 514.15 1459.70 505.39Q1459.70 496.36 1466.21 489.85Q1472.54 483.34 1481.40 483.34Q1490.53 483.34 1496.77 489.41Q1503.10 495.49 1503.10 505.39Q1503.10 511.55 1501.20 516.50Q1499.30 521.44 1495.86 527.17Q1488.36 539.76 1477.51 549.39Q1476.33 550.43 1474.98 550.43Q1473.44 550.43 1472.26 549.31Q1471.09 548.18 1471.09 546.53Q1471.09 544.88 1472.35 543.66Q1480.94 535.76 1487.09 526.22L1487.54 525.35L1486.64 525.52Q1484.29 525.87 1481.40 525.87Q1471.81 525.87 1465.84 519.97Z" fill="#000000" />
</svg>
