<svg viewBox="0 0 759 431" xmlns="http://www.w3.org/2000/svg">
<rect width="100%" height="100%" fill="#FFFFFF" />
<path stroke="#000000" stroke-width="6" d="M33 371L33 30M66 371L66 30M123 371L123 30M150 371L150 30M174 371L174 30M222 371L222 30M330 371L330 30M363 371L363 30M378 371L378 30M387 371L387 30M453 371L453 30M504 371L504 30M528 371L528 30M603 371L603 30M651 371L651 30M660 371L660 30M693 371L693 30M726 371L726 30" />
<path stroke="#000000" stroke-width="3" d="M40.50 371L40.50 30M49.50 371L49.50 30M79.50 371L79.50 30M91.50 371L91.50 30M97.50 371L97.50 30M142.50 371L142.50 30M163.50 371L163.50 30M196.50 371L196.50 30M229.50 371L229.50 30M289.50 371L289.50 30M310.50 371L310.50 30M322.50 371L322.50 30M340.50 371L340.50 30M394.50 371L394.50 30M403.50 371L403.50 30M427.50 371L427.50 30M460.50 371L460.50 30M493.50 371L493.50 30M550.50 371L550.50 30M559.50 371L559.50 30M592.50 371L592.50 30M619.50 371L619.50 30M625.50 371L625.50 30M637.50 371L637.50 30M685.50 371L685.50 30M718.50 371L718.50 30" />
<path stroke="#000000" stroke-width="9" d="M106.50 371L106.50 30M133.50 371L133.50 30M184.50 371L184.50 30M208.50 371L208.50 30M238.50 371L238.50 30M280.50 371L280.50 30M352.50 371L352.50 30M436.50 371L436.50 30M484.50 371L484.50 30M514.50 371L514.50 30M538.50 371L538.50 30M568.50 371L568.50 30M670.50 371L670.50 30M709.50 371L709.50 30" />
<path stroke="#000000" stroke-width="12" d="M252 371L252 30M267 371L267 30M300 371L300 30M414 371L414 30M471 371L471 30M582 371L582 30" />
<path d="M108.73 398.29Q108.23 397.78 108.23 397.10Q108.23 396.39 108.69 395.89Q109.15 395.41 109.82 395.41L113.20 395.41L113.20 376.59L110.52 376.59Q109.89 376.59 109.43 376.08Q108.94 375.57 108.94 374.90Q108.94 374.22 109.40 373.71Q109.85 373.20 110.52 373.20L118.85 373.20Q119.52 373.20 119.97 373.71Q120.43 374.22 120.43 374.90Q120.43 375.57 119.94 376.08Q119.48 376.59 118.85 376.59L116.17 376.59L116.17 395.41L119.55 395.41Q120.22 395.41 120.68 395.89Q121.14 396.39 121.14 397.10Q121.14 397.78 120.64 398.29Q120.19 398.80 119.55 398.80L109.82 398.80Q109.18 398.80 108.73 398.29ZM131.21 398.86Q130.72 398.36 130.72 397.65L130.72 374.46Q130.72 373.75 131.17 373.27Q131.67 372.76 132.30 372.76L133.61 372.76Q134.03 372.76 134.42 373.04Q134.84 373.27 135.02 373.71L143.48 392.91L143.48 374.39Q143.48 373.71 143.94 373.24Q144.43 372.73 145.07 372.73Q145.70 372.73 146.16 373.24Q146.65 373.71 146.65 374.42L146.65 397.61Q146.65 398.32 146.16 398.83Q145.70 399.34 145.07 399.34L143.73 399.34Q142.74 399.34 142.32 398.42L133.89 379.23L133.89 397.68Q133.89 398.36 133.40 398.86Q132.94 399.37 132.30 399.37Q131.67 399.37 131.21 398.86ZM160.00 398.15L154.19 374.46Q154.19 373.78 154.68 373.31Q155.17 372.80 155.81 372.80Q156.34 372.80 156.76 373.17Q157.22 373.51 157.32 373.98L162.68 395.65L168.01 373.98Q168.22 373.48 168.61 373.14Q169.03 372.80 169.56 372.80Q170.20 372.80 170.69 373.31Q171.18 373.81 171.18 374.46L165.29 398.15Q165.19 398.66 164.76 399.03Q164.34 399.37 163.85 399.37L161.52 399.37Q161.03 399.37 160.57 399Q160.11 398.63 160.00 398.15ZM178.40 386.61L178.40 385.66Q178.40 385.02 178.86 384.58Q179.31 384.14 179.98 384.14L194.09 384.14Q194.76 384.14 195.22 384.61Q195.68 385.05 195.68 385.66L195.68 386.61Q195.68 387.22 195.22 387.69Q194.76 388.13 194.09 388.13L179.98 388.13Q179.31 388.13 178.86 387.69Q178.40 387.25 178.40 386.61ZM204.77 380.92Q204.31 380.45 204.31 379.84Q204.31 379.13 204.77 378.79L211.23 373.48Q211.68 373.10 212.25 373.10L213.38 373.10Q214.01 373.10 214.47 373.58Q214.96 374.02 214.96 374.63L214.96 397.65Q214.96 398.26 214.47 398.73Q214.01 399.17 213.38 399.17Q212.74 399.17 212.25 398.73Q211.79 398.29 211.79 397.65L211.79 377.03L206.96 380.99Q206.50 381.36 205.90 381.36Q205.23 381.36 204.77 380.92ZM228.68 375.78Q228.22 375.30 228.22 374.66Q228.22 374.02 228.68 373.58Q229.14 373.14 229.81 373.14L243.56 373.14Q244.23 373.14 244.69 373.61Q245.15 374.05 245.15 374.66Q245.15 377.23 243.07 380.25Q242.43 381.19 240.60 383.39Q238.76 385.63 237.99 387.02Q235.70 391.08 235.70 397.61Q235.70 398.26 235.24 398.73Q234.78 399.17 234.18 399.17Q233.58 399.17 233.12 398.73Q232.66 398.29 232.66 397.61Q232.66 390.23 235.34 385.46Q236.16 384.07 237.99 381.74Q239.86 379.37 240.46 378.49Q241.30 377.13 241.62 376.45L241.69 376.22L229.81 376.22Q229.17 376.22 228.68 375.78ZM252.68 375.78Q252.22 375.30 252.22 374.66Q252.22 374.02 252.68 373.58Q253.14 373.14 253.81 373.14L267.56 373.14Q268.23 373.14 268.69 373.61Q269.15 374.05 269.15 374.66Q269.15 377.23 267.07 380.25Q266.43 381.19 264.60 383.39Q262.76 385.63 261.99 387.02Q259.70 391.08 259.70 397.61Q259.70 398.26 259.24 398.73Q258.78 399.17 258.18 399.17Q257.58 399.17 257.12 398.73Q256.66 398.29 256.66 397.61Q256.66 390.23 259.34 385.46Q260.16 384.07 261.99 381.74Q263.86 379.37 264.46 378.49Q265.30 377.13 265.62 376.45L265.69 376.22L253.81 376.22Q253.17 376.22 252.68 375.78ZM280.95 377.71Q279.40 379.33 279.40 381.60Q279.40 383.80 280.88 385.19Q282.29 386.54 284.68 386.54Q288.88 386.54 289.62 384.07Q289.97 382.95 289.97 381.60Q289.97 379.06 288.49 377.57Q287.05 376.05 284.68 376.05Q282.46 376.05 280.95 377.71M278.62 387.29Q276.22 385.02 276.22 381.60Q276.22 378.08 278.76 375.54Q281.23 373.00 284.68 373.00Q288.25 373.00 290.68 375.37Q293.15 377.74 293.15 381.60Q293.15 384.00 292.41 385.93Q291.67 387.86 290.33 390.10Q287.40 395.01 283.17 398.76Q282.71 399.17 282.18 399.17Q281.58 399.17 281.12 398.73Q280.66 398.29 280.66 397.65Q280.66 397.00 281.16 396.53Q284.51 393.45 286.91 389.72L287.08 389.39L286.73 389.45Q285.81 389.59 284.68 389.59Q280.95 389.59 278.62 387.29ZM305.93 376.73Q304.59 377.40 304.59 378.69Q304.59 379.54 304.91 380.18Q305.23 380.82 305.97 381.36Q306.67 381.87 307.13 382.14Q307.63 382.41 308.61 382.89L308.68 382.89L308.75 382.89Q309.74 382.45 310.24 382.18Q310.73 381.90 311.43 381.40Q312.14 380.86 312.46 380.21Q312.77 379.54 312.77 378.69Q312.77 377.40 311.43 376.73Q310.13 376.05 308.68 376.05Q307.24 376.05 305.93 376.73M308.68 386.37Q303.36 389.05 303.36 392.23Q303.36 394.13 304.95 395.17Q306.43 396.22 308.68 396.22L309.39 396.22Q311.26 396.22 312.60 395.04Q313.97 393.85 313.97 392.23Q313.97 389.01 308.83 386.37L308.75 386.31L308.68 386.37M302.65 397.31Q300.22 395.34 300.22 392.23Q300.22 388.13 305.23 384.82L305.44 384.68L305.23 384.55Q301.42 382.31 301.42 378.69Q301.42 376.22 303.68 374.63Q305.90 373.00 308.68 373.00Q311.43 373.00 313.69 374.63Q315.95 376.25 315.95 378.69Q315.95 380.69 314.96 382.07Q313.94 383.43 312.14 384.55L311.93 384.68L312.14 384.82Q317.15 388.13 317.15 392.23Q317.15 394.90 315.10 396.97Q313.06 399.03 310.17 399.27L308.68 399.27Q305.05 399.27 302.65 397.31ZM325.28 377.37Q324.82 376.89 324.82 376.32Q324.82 375.47 325.49 375.03Q328.70 373.00 332.68 373.00Q335.89 373.00 338.04 374.97Q340.23 376.89 340.23 380.04Q340.23 381.30 339.77 382.45Q339.31 383.63 338.71 384.38Q338.15 385.12 337.02 386.03Q335.89 386.95 335.29 387.36Q334.73 387.76 333.50 388.54Q332.16 389.39 331.56 389.83Q330.96 390.27 330.11 391.15Q329.26 391.99 328.88 393.08Q328.49 394.13 328.42 395.58L328.42 395.75L338.86 395.75Q339.53 395.75 339.98 396.22Q340.44 396.66 340.44 397.27Q340.44 397.88 339.95 398.36Q339.49 398.80 338.86 398.80L326.80 398.80Q326.16 398.80 325.67 398.36Q325.21 397.88 325.21 397.27L325.21 396.56Q325.21 393.92 325.56 392.77Q326.16 390.74 327.82 389.15Q329.48 387.52 331.87 385.97Q335.19 383.83 336.07 382.62Q337.06 381.40 337.06 380.04Q337.06 378.25 335.75 377.13Q334.52 376.05 332.68 376.05Q329.51 376.05 327.32 377.54Q326.94 377.81 326.41 377.81Q325.77 377.81 325.28 377.37ZM356.83 399.27L356.68 399.27Q354.60 399.24 353.05 398.59Q351.50 397.98 350.58 397.00Q349.67 395.99 349.14 394.40Q348.57 392.81 348.40 391.18Q348.22 389.59 348.22 387.42Q348.22 385.49 348.26 384.14Q348.33 382.75 348.54 381.16Q348.75 379.54 349.10 378.45Q349.49 377.33 350.13 376.22Q350.76 375.13 351.64 374.49Q352.52 373.85 353.79 373.44Q355.06 373.04 356.68 373.04Q358.27 373.04 359.54 373.44Q360.81 373.85 361.69 374.49Q362.57 375.13 363.24 376.22Q363.88 377.33 364.23 378.45Q364.62 379.57 364.83 381.16Q365.04 382.75 365.08 384.14Q365.15 385.53 365.15 387.42Q365.15 388.78 365.08 389.89Q365.01 390.98 364.76 392.26Q364.55 393.55 364.20 394.53Q363.84 395.48 363.17 396.39Q362.50 397.31 361.66 397.92Q360.81 398.53 359.58 398.90Q358.34 399.27 356.83 399.27M351.40 384.65L351.40 387.42Q351.40 388.95 351.47 390.03Q351.57 391.11 351.89 392.37Q352.17 393.62 352.74 394.40Q353.30 395.21 354.29 395.75Q355.27 396.26 356.68 396.26L357.42 396.26Q358.41 396.26 359.19 395.89Q359.96 395.48 360.42 394.73Q360.92 394.02 361.23 393.21Q361.55 392.37 361.69 391.32Q361.87 390.23 361.90 389.35Q361.97 388.47 361.97 387.42L361.97 385.87Q361.97 384.82 361.94 384.21Q361.94 383.56 361.90 382.62Q361.87 381.63 361.76 381.09Q361.66 380.52 361.48 379.74Q361.30 378.96 361.02 378.49Q360.74 378.01 360.35 377.50Q359.93 377.00 359.43 376.73Q358.91 376.42 358.20 376.25Q357.53 376.08 356.68 376.08Q355.80 376.08 355.10 376.29Q354.43 376.45 353.90 376.79Q353.37 377.13 352.95 377.64Q352.56 378.11 352.28 378.72Q351.99 379.30 351.82 380.01Q351.64 380.69 351.57 381.46Q351.50 382.21 351.43 383.02Q351.40 383.80 351.40 384.65ZM372.96 397.98Q372.22 397.44 372.22 396.63Q372.22 395.99 372.68 395.55Q373.17 395.07 373.81 395.07Q374.02 395.07 374.41 395.21Q376.66 396.19 379.13 396.19Q381.81 396.19 383.65 394.90Q385.52 393.58 385.66 391.08L385.66 390.74Q385.66 389.01 384.53 387.80Q383.47 386.61 381.92 386.10Q380.40 385.63 378.53 385.63Q377.93 385.63 377.48 385.19Q377.02 384.71 377.02 384.07Q377.02 383.46 377.33 383.12L383.82 376.22L373.91 376.22Q373.28 376.22 372.79 375.78Q372.33 375.30 372.33 374.66Q372.33 374.02 372.79 373.58Q373.24 373.14 373.91 373.14L386.36 373.14Q387.00 373.14 387.45 373.61Q387.95 374.05 387.95 374.66L387.95 375.88Q387.95 376.42 387.45 376.89L381.78 382.89L382.06 382.95Q385.06 383.70 386.96 385.70Q388.83 387.69 388.83 390.71L388.83 391.25Q388.65 394.94 385.83 397.10Q383.08 399.27 379.13 399.27Q378.15 399.27 377.16 399.17Q376.17 399.07 374.94 398.83Q373.70 398.56 372.96 397.98ZM397.28 377.37Q396.82 376.89 396.82 376.32Q396.82 375.47 397.49 375.03Q400.70 373.00 404.68 373.00Q407.89 373.00 410.04 374.97Q412.23 376.89 412.23 380.04Q412.23 381.30 411.77 382.45Q411.31 383.63 410.71 384.38Q410.15 385.12 409.02 386.03Q407.89 386.95 407.29 387.36Q406.73 387.76 405.50 388.54Q404.16 389.39 403.56 389.83Q402.96 390.27 402.11 391.15Q401.26 391.99 400.88 393.08Q400.49 394.13 400.42 395.58L400.42 395.75L410.86 395.75Q411.53 395.75 411.98 396.22Q412.44 396.66 412.44 397.27Q412.44 397.88 411.95 398.36Q411.49 398.80 410.86 398.80L398.80 398.80Q398.16 398.80 397.67 398.36Q397.21 397.88 397.21 397.27L397.21 396.56Q397.21 393.92 397.56 392.77Q398.16 390.74 399.82 389.15Q401.48 387.52 403.87 385.97Q407.19 383.83 408.07 382.62Q409.06 381.40 409.06 380.04Q409.06 378.25 407.75 377.13Q406.52 376.05 404.68 376.05Q401.51 376.05 399.32 377.54Q398.94 377.81 398.41 377.81Q397.77 377.81 397.28 377.37ZM425.93 376.73Q424.59 377.40 424.59 378.69Q424.59 379.54 424.91 380.18Q425.23 380.82 425.97 381.36Q426.67 381.87 427.13 382.14Q427.63 382.41 428.61 382.89L428.68 382.89L428.75 382.89Q429.74 382.45 430.24 382.18Q430.73 381.90 431.43 381.40Q432.14 380.86 432.46 380.21Q432.77 379.54 432.77 378.69Q432.77 377.40 431.43 376.73Q430.13 376.05 428.68 376.05Q427.24 376.05 425.93 376.73M428.68 386.37Q423.36 389.05 423.36 392.23Q423.36 394.13 424.95 395.17Q426.43 396.22 428.68 396.22L429.39 396.22Q431.26 396.22 432.60 395.04Q433.97 393.85 433.97 392.23Q433.97 389.01 428.83 386.37L428.75 386.31L428.68 386.37M422.65 397.31Q420.22 395.34 420.22 392.23Q420.22 388.13 425.23 384.82L425.44 384.68L425.23 384.55Q421.42 382.31 421.42 378.69Q421.42 376.22 423.68 374.63Q425.90 373.00 428.68 373.00Q431.43 373.00 433.69 374.63Q435.95 376.25 435.95 378.69Q435.95 380.69 434.96 382.07Q433.94 383.43 432.14 384.55L431.93 384.68L432.14 384.82Q437.15 388.13 437.15 392.23Q437.15 394.90 435.10 396.97Q433.06 399.03 430.17 399.27L428.68 399.27Q425.05 399.27 422.65 397.31ZM445.77 380.92Q445.31 380.45 445.31 379.84Q445.31 379.13 445.77 378.79L452.23 373.48Q452.68 373.10 453.25 373.10L454.38 373.10Q455.01 373.10 455.47 373.58Q455.96 374.02 455.96 374.63L455.96 397.65Q455.96 398.26 455.47 398.73Q455.01 399.17 454.38 399.17Q453.74 399.17 453.25 398.73Q452.79 398.29 452.79 397.65L452.79 377.03L447.96 380.99Q447.50 381.36 446.90 381.36Q446.23 381.36 445.77 380.92ZM469.68 392.84Q469.22 392.40 469.22 391.76L469.22 390.30Q469.22 390.03 469.40 389.66L476.91 373.98Q477.05 373.61 477.44 373.37Q477.83 373.10 478.25 373.10Q478.88 373.10 479.34 373.58Q479.80 374.02 479.80 374.63Q479.80 374.97 479.62 375.27L472.57 390.23L479.45 390.23L479.45 386.14Q479.45 385.53 479.91 385.09Q480.36 384.61 480.96 384.61Q481.56 384.61 482.02 385.09Q482.52 385.53 482.52 386.14L482.52 390.23L484.56 390.23Q485.23 390.23 485.69 390.71Q486.15 391.15 486.15 391.76Q486.15 392.37 485.65 392.84Q485.20 393.28 484.56 393.28L482.52 393.28L482.52 397.65Q482.52 398.26 482.02 398.70Q481.56 399.17 480.96 399.17Q480.36 399.17 479.91 398.73Q479.45 398.26 479.45 397.65L479.45 393.28L470.81 393.28Q470.17 393.28 469.68 392.84ZM495.69 397.07Q493.33 394.87 493.22 391.25L493.22 390.84Q493.22 386.61 495.65 382.75Q496.64 381.16 498.05 379.40Q499.43 377.61 500.38 376.56Q501.33 375.47 503.09 373.54Q503.48 373.10 504.19 373.10Q504.79 373.10 505.25 373.58Q505.70 374.02 505.70 374.63Q505.70 375.20 505.32 375.68Q501.33 380.01 499.46 382.62L499.22 382.95L499.60 382.89Q500.63 382.68 501.68 382.68Q505.53 382.68 507.82 384.99Q510.15 387.32 510.15 391.25Q510.15 394.80 507.75 397.04Q505.35 399.27 501.68 399.27Q498.02 399.27 495.69 397.07M497.81 387.22Q496.40 388.68 496.40 391.25Q496.40 393.55 497.88 394.90Q499.32 396.22 501.68 396.22Q504.01 396.22 505.46 394.87Q506.97 393.52 506.97 391.25Q506.97 388.61 505.60 387.19Q504.26 385.73 501.68 385.73Q499.18 385.73 497.81 387.22ZM517.40 386.61L517.40 385.66Q517.40 385.02 517.86 384.58Q518.31 384.14 518.98 384.14L533.09 384.14Q533.76 384.14 534.22 384.61Q534.68 385.05 534.68 385.66L534.68 386.61Q534.68 387.22 534.22 387.69Q533.76 388.13 533.09 388.13L518.98 388.13Q518.31 388.13 517.86 387.69Q517.40 387.25 517.40 386.61ZM543.60 398.83Q543.14 398.39 543.14 397.75Q543.14 397.07 543.60 396.63Q544.09 396.19 544.73 396.19Q551.85 396.19 553.93 392.37Q554.56 391.21 554.56 390.16Q554.56 387.69 553.36 386.44Q551.78 384.65 547.79 384.65Q546.70 384.65 545.57 384.75L545.43 384.75Q544.80 384.75 544.30 384.34Q543.84 383.90 543.84 383.29L543.84 383.19L544.34 374.56Q544.41 373.95 544.83 373.54Q545.29 373.14 545.92 373.14L555.94 373.14Q556.61 373.14 557.07 373.61Q557.53 374.05 557.53 374.66Q557.53 375.27 557.03 375.74Q556.57 376.22 555.94 376.22L547.41 376.22L547.12 381.53L547.79 381.53Q552.27 381.53 554.99 383.73Q557.74 385.90 557.74 390.16Q557.74 391.96 556.93 393.52Q556.08 395.11 554.81 396.22Q551.42 399.27 544.73 399.27Q544.09 399.27 543.60 398.83M545.54 384.75Q545.54 384.75 545.57 384.75Q545.57 384.75 545.54 384.75ZM566.68 375.78Q566.22 375.30 566.22 374.66Q566.22 374.02 566.68 373.58Q567.14 373.14 567.81 373.14L581.56 373.14Q582.23 373.14 582.69 373.61Q583.15 374.05 583.15 374.66Q583.15 377.23 581.07 380.25Q580.43 381.19 578.60 383.39Q576.76 385.63 575.99 387.02Q573.70 391.08 573.70 397.61Q573.70 398.26 573.24 398.73Q572.78 399.17 572.18 399.17Q571.58 399.17 571.12 398.73Q570.66 398.29 570.66 397.61Q570.66 390.23 573.34 385.46Q574.16 384.07 575.99 381.74Q577.86 379.37 578.46 378.49Q579.30 377.13 579.62 376.45L579.69 376.22L567.81 376.22Q567.17 376.22 566.68 375.78ZM591.28 377.37Q590.82 376.89 590.82 376.32Q590.82 375.47 591.49 375.03Q594.70 373.00 598.68 373.00Q601.89 373.00 604.04 374.97Q606.23 376.89 606.23 380.04Q606.23 381.30 605.77 382.45Q605.31 383.63 604.71 384.38Q604.15 385.12 603.02 386.03Q601.89 386.95 601.29 387.36Q600.73 387.76 599.50 388.54Q598.16 389.39 597.56 389.83Q596.96 390.27 596.11 391.15Q595.26 391.99 594.88 393.08Q594.49 394.13 594.42 395.58L594.42 395.75L604.86 395.75Q605.53 395.75 605.98 396.22Q606.44 396.66 606.44 397.27Q606.44 397.88 605.95 398.36Q605.49 398.80 604.86 398.80L592.80 398.80Q592.16 398.80 591.67 398.36Q591.21 397.88 591.21 397.27L591.21 396.56Q591.21 393.92 591.56 392.77Q592.16 390.74 593.82 389.15Q595.48 387.52 597.87 385.97Q601.19 383.83 602.07 382.62Q603.06 381.40 603.06 380.04Q603.06 378.25 601.75 377.13Q600.52 376.05 598.68 376.05Q595.51 376.05 593.32 377.54Q592.94 377.81 592.41 377.81Q591.77 377.81 591.28 377.37ZM614.96 397.98Q614.22 397.44 614.22 396.63Q614.22 395.99 614.68 395.55Q615.17 395.07 615.81 395.07Q616.02 395.07 616.41 395.21Q618.66 396.19 621.13 396.19Q623.81 396.19 625.65 394.90Q627.52 393.58 627.66 391.08L627.66 390.74Q627.66 389.01 626.53 387.80Q625.47 386.61 623.92 386.10Q622.40 385.63 620.53 385.63Q619.93 385.63 619.48 385.19Q619.02 384.71 619.02 384.07Q619.02 383.46 619.33 383.12L625.82 376.22L615.91 376.22Q615.28 376.22 614.79 375.78Q614.33 375.30 614.33 374.66Q614.33 374.02 614.79 373.58Q615.24 373.14 615.91 373.14L628.36 373.14Q629.00 373.14 629.45 373.61Q629.95 374.05 629.95 374.66L629.95 375.88Q629.95 376.42 629.45 376.89L623.78 382.89L624.06 382.95Q627.06 383.70 628.96 385.70Q630.83 387.69 630.83 390.71L630.83 391.25Q630.65 394.94 627.83 397.10Q625.08 399.27 621.13 399.27Q620.15 399.27 619.16 399.17Q618.17 399.07 616.94 398.83Q615.70 398.56 614.96 397.98ZM639.60 398.83Q639.14 398.39 639.14 397.75Q639.14 397.07 639.60 396.63Q640.09 396.19 640.73 396.19Q647.85 396.19 649.93 392.37Q650.56 391.21 650.56 390.16Q650.56 387.69 649.36 386.44Q647.78 384.65 643.79 384.65Q642.70 384.65 641.57 384.75L641.43 384.75Q640.80 384.75 640.30 384.34Q639.84 383.90 639.84 383.29L639.84 383.19L640.34 374.56Q640.41 373.95 640.83 373.54Q641.29 373.14 641.92 373.14L651.94 373.14Q652.61 373.14 653.07 373.61Q653.53 374.05 653.53 374.66Q653.53 375.27 653.03 375.74Q652.57 376.22 651.94 376.22L643.41 376.22L643.12 381.53L643.79 381.53Q648.27 381.53 650.99 383.73Q653.74 385.90 653.74 390.16Q653.74 391.96 652.93 393.52Q652.08 395.11 650.81 396.22Q647.42 399.27 640.73 399.27Q640.09 399.27 639.60 398.83M641.54 384.75Q641.54 384.75 641.57 384.75Q641.57 384.75 641.54 384.75Z" fill="#000000" />
</svg>
