<svg viewBox="0 0 759 431" xmlns="http://www.w3.org/2000/svg">
<rect width="100%" height="100%" fill="#FFFFFF" />
<path stroke="#000000" stroke-width="6" d="M33 371L33 30M66 371L66 30M123 371L123 30M150 371L150 30M174 371L174 30M222 371L222 30M336 371L336 30M396 371L396 30M405 371L405 30M414 371L414 30M447 371L447 30M504 371L504 30M528 371L528 30M594 371L594 30M636 371L636 30M678 371L678 30M693 371L693 30M726 371L726 30" />
<path stroke="#000000" stroke-width="3" d="M40.50 371L40.50 30M49.50 371L49.50 30M79.50 371L79.50 30M91.50 371L91.50 30M97.50 371L97.50 30M142.50 371L142.50 30M163.50 371L163.50 30M196.50 371L196.50 30M229.50 371L229.50 30M289.50 371L289.50 30M310.50 371L310.50 30M316.50 371L316.50 30M328.50 371L328.50 30M352.50 371L352.50 30M379.50 371L379.50 30M385.50 371L385.50 30M454.50 371L454.50 30M460.50 371L460.50 30M493.50 371L493.50 30M553.50 371L553.50 30M559.50 371L559.50 30M619.50 371L619.50 30M625.50 371L625.50 30M652.50 371L652.50 30M658.50 371L658.50 30M664.50 371L664.50 30M718.50 371L718.50 30" />
<path stroke="#000000" stroke-width="9" d="M106.50 371L106.50 30M133.50 371L133.50 30M184.50 371L184.50 30M208.50 371L208.50 30M238.50 371L238.50 30M280.50 371L280.50 30M430.50 371L430.50 30M484.50 371L484.50 30M514.50 371L514.50 30M541.50 371L541.50 30M568.50 371L568.50 30M607.50 371L607.50 30M709.50 371L709.50 30" />
<path stroke="#000000" stroke-width="12" d="M252 371L252 30M267 371L267 30M300 371L300 30M366 371L366 30M471 371L471 30M582 371L582 30" />
<path d="M107.73 398.29Q107.23 397.78 107.23 397.10Q107.23 396.39 107.69 395.89Q108.15 395.41 108.82 395.41L112.20 395.41L112.20 376.59L109.52 376.59Q108.89 376.59 108.43 376.08Q107.94 375.57 107.94 374.90Q107.94 374.22 108.40 373.71Q108.85 373.20 109.52 373.20L117.85 373.20Q118.52 373.20 118.97 373.71Q119.43 374.22 119.43 374.90Q119.43 375.57 118.94 376.08Q118.48 376.59 117.85 376.59L115.17 376.59L115.17 395.41L118.55 395.41Q119.22 395.41 119.68 395.89Q120.14 396.39 120.14 397.10Q120.14 397.78 119.64 398.29Q119.19 398.80 118.55 398.80L108.82 398.80Q108.18 398.80 107.73 398.29ZM130.21 398.86Q129.72 398.36 129.72 397.65L129.72 374.46Q129.72 373.75 130.17 373.27Q130.67 372.76 131.30 372.76L132.61 372.76Q133.03 372.76 133.42 373.04Q133.84 373.27 134.02 373.71L142.48 392.91L142.48 374.39Q142.48 373.71 142.94 373.24Q143.43 372.73 144.07 372.73Q144.70 372.73 145.16 373.24Q145.65 373.71 145.65 374.42L145.65 397.61Q145.65 398.32 145.16 398.83Q144.70 399.34 144.07 399.34L142.73 399.34Q141.74 399.34 141.32 398.42L132.89 379.23L132.89 397.68Q132.89 398.36 132.40 398.86Q131.94 399.37 131.30 399.37Q130.67 399.37 130.21 398.86ZM159.00 398.15L153.19 374.46Q153.19 373.78 153.68 373.31Q154.17 372.80 154.81 372.80Q155.34 372.80 155.76 373.17Q156.22 373.51 156.32 373.98L161.68 395.65L167.01 373.98Q167.22 373.48 167.61 373.14Q168.03 372.80 168.56 372.80Q169.20 372.80 169.69 373.31Q170.18 373.81 170.18 374.46L164.29 398.15Q164.19 398.66 163.76 399.03Q163.34 399.37 162.85 399.37L160.52 399.37Q160.03 399.37 159.57 399Q159.11 398.63 159.00 398.15ZM177.40 386.61L177.40 385.66Q177.40 385.02 177.86 384.58Q178.31 384.14 178.98 384.14L193.09 384.14Q193.76 384.14 194.22 384.61Q194.68 385.05 194.68 385.66L194.68 386.61Q194.68 387.22 194.22 387.69Q193.76 388.13 193.09 388.13L178.98 388.13Q178.31 388.13 177.86 387.69Q177.40 387.25 177.40 386.61ZM203.77 380.92Q203.31 380.45 203.31 379.84Q203.31 379.13 203.77 378.79L210.23 373.48Q210.68 373.10 211.25 373.10L212.38 373.10Q213.01 373.10 213.47 373.58Q213.96 374.02 213.96 374.63L213.96 397.65Q213.96 398.26 213.47 398.73Q213.01 399.17 212.38 399.17Q211.74 399.17 211.25 398.73Q210.79 398.29 210.79 397.65L210.79 377.03L205.96 380.99Q205.50 381.36 204.90 381.36Q204.23 381.36 203.77 380.92ZM227.68 375.78Q227.22 375.30 227.22 374.66Q227.22 374.02 227.68 373.58Q228.14 373.14 228.81 373.14L242.56 373.14Q243.23 373.14 243.69 373.61Q244.15 374.05 244.15 374.66Q244.15 377.23 242.07 380.25Q241.43 381.19 239.60 383.39Q237.76 385.63 236.99 387.02Q234.70 391.08 234.70 397.61Q234.70 398.26 234.24 398.73Q233.78 399.17 233.18 399.17Q232.58 399.17 232.12 398.73Q231.66 398.29 231.66 397.61Q231.66 390.23 234.34 385.46Q235.16 384.07 236.99 381.74Q238.86 379.37 239.46 378.49Q240.30 377.13 240.62 376.45L240.69 376.22L228.81 376.22Q228.17 376.22 227.68 375.78ZM251.68 375.78Q251.22 375.30 251.22 374.66Q251.22 374.02 251.68 373.58Q252.14 373.14 252.81 373.14L266.56 373.14Q267.23 373.14 267.69 373.61Q268.15 374.05 268.15 374.66Q268.15 377.23 266.07 380.25Q265.43 381.19 263.60 383.39Q261.76 385.63 260.99 387.02Q258.70 391.08 258.70 397.61Q258.70 398.26 258.24 398.73Q257.78 399.17 257.18 399.17Q256.58 399.17 256.12 398.73Q255.66 398.29 255.66 397.61Q255.66 390.23 258.34 385.46Q259.16 384.07 260.99 381.74Q262.86 379.37 263.46 378.49Q264.30 377.13 264.62 376.45L264.69 376.22L252.81 376.22Q252.17 376.22 251.68 375.78ZM279.95 377.71Q278.40 379.33 278.40 381.60Q278.40 383.80 279.88 385.19Q281.29 386.54 283.68 386.54Q287.88 386.54 288.62 384.07Q288.97 382.95 288.97 381.60Q288.97 379.06 287.49 377.57Q286.05 376.05 283.68 376.05Q281.46 376.05 279.95 377.71M277.62 387.29Q275.22 385.02 275.22 381.60Q275.22 378.08 277.76 375.54Q280.23 373.00 283.68 373.00Q287.25 373.00 289.68 375.37Q292.15 377.74 292.15 381.60Q292.15 384.00 291.41 385.93Q290.67 387.86 289.33 390.10Q286.40 395.01 282.17 398.76Q281.71 399.17 281.18 399.17Q280.58 399.17 280.12 398.73Q279.66 398.29 279.66 397.65Q279.66 397.00 280.16 396.53Q283.51 393.45 285.91 389.72L286.08 389.39L285.73 389.45Q284.81 389.59 283.68 389.59Q279.95 389.59 277.62 387.29ZM299.68 375.78Q299.22 375.30 299.22 374.66Q299.22 374.02 299.68 373.58Q300.14 373.14 300.81 373.14L314.56 373.14Q315.23 373.14 315.69 373.61Q316.15 374.05 316.15 374.66Q316.15 377.23 314.07 380.25Q313.43 381.19 311.60 383.39Q309.76 385.63 308.99 387.02Q306.70 391.08 306.70 397.61Q306.70 398.26 306.24 398.73Q305.78 399.17 305.18 399.17Q304.58 399.17 304.12 398.73Q303.66 398.29 303.66 397.61Q303.66 390.23 306.34 385.46Q307.16 384.07 308.99 381.74Q310.86 379.37 311.46 378.49Q312.30 377.13 312.62 376.45L312.69 376.22L300.81 376.22Q300.17 376.22 299.68 375.78ZM323.68 375.78Q323.22 375.30 323.22 374.66Q323.22 374.02 323.68 373.58Q324.14 373.14 324.81 373.14L338.56 373.14Q339.23 373.14 339.69 373.61Q340.15 374.05 340.15 374.66Q340.15 377.23 338.07 380.25Q337.43 381.19 335.60 383.39Q333.76 385.63 332.99 387.02Q330.70 391.08 330.70 397.61Q330.70 398.26 330.24 398.73Q329.78 399.17 329.18 399.17Q328.58 399.17 328.12 398.73Q327.66 398.29 327.66 397.61Q327.66 390.23 330.34 385.46Q331.16 384.07 332.99 381.74Q334.86 379.37 335.46 378.49Q336.30 377.13 336.62 376.45L336.69 376.22L324.81 376.22Q324.17 376.22 323.68 375.78ZM355.83 399.27L355.68 399.27Q353.60 399.24 352.05 398.59Q350.50 397.98 349.58 397.00Q348.67 395.99 348.14 394.40Q347.57 392.81 347.40 391.18Q347.22 389.59 347.22 387.42Q347.22 385.49 347.26 384.14Q347.33 382.75 347.54 381.16Q347.75 379.54 348.10 378.45Q348.49 377.33 349.13 376.22Q349.76 375.13 350.64 374.49Q351.52 373.85 352.79 373.44Q354.06 373.04 355.68 373.04Q357.27 373.04 358.54 373.44Q359.81 373.85 360.69 374.49Q361.57 375.13 362.24 376.22Q362.88 377.33 363.23 378.45Q363.62 379.57 363.83 381.16Q364.04 382.75 364.08 384.14Q364.15 385.53 364.15 387.42Q364.15 388.78 364.08 389.89Q364.01 390.98 363.76 392.26Q363.55 393.55 363.20 394.53Q362.84 395.48 362.17 396.39Q361.50 397.31 360.66 397.92Q359.81 398.53 358.58 398.90Q357.34 399.27 355.83 399.27M350.40 384.65L350.40 387.42Q350.40 388.95 350.47 390.03Q350.57 391.11 350.89 392.37Q351.17 393.62 351.74 394.40Q352.30 395.21 353.29 395.75Q354.27 396.26 355.68 396.26L356.42 396.26Q357.41 396.26 358.19 395.89Q358.96 395.48 359.42 394.73Q359.92 394.02 360.23 393.21Q360.55 392.37 360.69 391.32Q360.87 390.23 360.90 389.35Q360.97 388.47 360.97 387.42L360.97 385.87Q360.97 384.82 360.94 384.21Q360.94 383.56 360.90 382.62Q360.87 381.63 360.76 381.09Q360.66 380.52 360.48 379.74Q360.30 378.96 360.02 378.49Q359.74 378.01 359.35 377.50Q358.93 377.00 358.43 376.73Q357.91 376.42 357.20 376.25Q356.53 376.08 355.68 376.08Q354.80 376.08 354.10 376.29Q353.43 376.45 352.90 376.79Q352.37 377.13 351.95 377.64Q351.56 378.11 351.28 378.72Q350.99 379.30 350.82 380.01Q350.64 380.69 350.57 381.46Q350.50 382.21 350.43 383.02Q350.40 383.80 350.40 384.65ZM376.93 376.73Q375.59 377.40 375.59 378.69Q375.59 379.54 375.91 380.18Q376.23 380.82 376.97 381.36Q377.67 381.87 378.13 382.14Q378.63 382.41 379.61 382.89L379.68 382.89L379.75 382.89Q380.74 382.45 381.24 382.18Q381.73 381.90 382.43 381.40Q383.14 380.86 383.46 380.21Q383.77 379.54 383.77 378.69Q383.77 377.40 382.43 376.73Q381.13 376.05 379.68 376.05Q378.24 376.05 376.93 376.73M379.68 386.37Q374.36 389.05 374.36 392.23Q374.36 394.13 375.95 395.17Q377.43 396.22 379.68 396.22L380.39 396.22Q382.26 396.22 383.60 395.04Q384.97 393.85 384.97 392.23Q384.97 389.01 379.83 386.37L379.75 386.31L379.68 386.37M373.65 397.31Q371.22 395.34 371.22 392.23Q371.22 388.13 376.23 384.82L376.44 384.68L376.23 384.55Q372.42 382.31 372.42 378.69Q372.42 376.22 374.68 374.63Q376.90 373.00 379.68 373.00Q382.43 373.00 384.69 374.63Q386.95 376.25 386.95 378.69Q386.95 380.69 385.96 382.07Q384.94 383.43 383.14 384.55L382.93 384.68L383.14 384.82Q388.15 388.13 388.15 392.23Q388.15 394.90 386.10 396.97Q384.06 399.03 381.17 399.27L379.68 399.27Q376.05 399.27 373.65 397.31ZM395.68 375.78Q395.22 375.30 395.22 374.66Q395.22 374.02 395.68 373.58Q396.14 373.14 396.81 373.14L410.56 373.14Q411.23 373.14 411.69 373.61Q412.15 374.05 412.15 374.66Q412.15 377.23 410.07 380.25Q409.43 381.19 407.60 383.39Q405.76 385.63 404.99 387.02Q402.70 391.08 402.70 397.61Q402.70 398.26 402.24 398.73Q401.78 399.17 401.18 399.17Q400.58 399.17 400.12 398.73Q399.66 398.29 399.66 397.61Q399.66 390.23 402.34 385.46Q403.16 384.07 404.99 381.74Q406.86 379.37 407.46 378.49Q408.30 377.13 408.62 376.45L408.69 376.22L396.81 376.22Q396.17 376.22 395.68 375.78ZM419.96 397.98Q419.22 397.44 419.22 396.63Q419.22 395.99 419.68 395.55Q420.17 395.07 420.81 395.07Q421.02 395.07 421.41 395.21Q423.66 396.19 426.13 396.19Q428.81 396.19 430.65 394.90Q432.52 393.58 432.66 391.08L432.66 390.74Q432.66 389.01 431.53 387.80Q430.47 386.61 428.92 386.10Q427.40 385.63 425.53 385.63Q424.93 385.63 424.48 385.19Q424.02 384.71 424.02 384.07Q424.02 383.46 424.33 383.12L430.82 376.22L420.91 376.22Q420.28 376.22 419.79 375.78Q419.33 375.30 419.33 374.66Q419.33 374.02 419.79 373.58Q420.24 373.14 420.91 373.14L433.36 373.14Q434.00 373.14 434.45 373.61Q434.95 374.05 434.95 374.66L434.95 375.88Q434.95 376.42 434.45 376.89L428.78 382.89L429.06 382.95Q432.06 383.70 433.96 385.70Q435.83 387.69 435.83 390.71L435.83 391.25Q435.65 394.94 432.83 397.10Q430.08 399.27 426.13 399.27Q425.15 399.27 424.16 399.17Q423.17 399.07 421.94 398.83Q420.70 398.56 419.96 397.98ZM451.83 399.27L451.68 399.27Q449.60 399.24 448.05 398.59Q446.50 397.98 445.58 397.00Q444.67 395.99 444.14 394.40Q443.57 392.81 443.40 391.18Q443.22 389.59 443.22 387.42Q443.22 385.49 443.26 384.14Q443.33 382.75 443.54 381.16Q443.75 379.54 444.10 378.45Q444.49 377.33 445.13 376.22Q445.76 375.13 446.64 374.49Q447.52 373.85 448.79 373.44Q450.06 373.04 451.68 373.04Q453.27 373.04 454.54 373.44Q455.81 373.85 456.69 374.49Q457.57 375.13 458.24 376.22Q458.88 377.33 459.23 378.45Q459.62 379.57 459.83 381.16Q460.04 382.75 460.08 384.14Q460.15 385.53 460.15 387.42Q460.15 388.78 460.08 389.89Q460.01 390.98 459.76 392.26Q459.55 393.55 459.20 394.53Q458.84 395.48 458.17 396.39Q457.50 397.31 456.66 397.92Q455.81 398.53 454.58 398.90Q453.34 399.27 451.83 399.27M446.40 384.65L446.40 387.42Q446.40 388.95 446.47 390.03Q446.57 391.11 446.89 392.37Q447.17 393.62 447.74 394.40Q448.30 395.21 449.29 395.75Q450.27 396.26 451.68 396.26L452.42 396.26Q453.41 396.26 454.19 395.89Q454.96 395.48 455.42 394.73Q455.92 394.02 456.23 393.21Q456.55 392.37 456.69 391.32Q456.87 390.23 456.90 389.35Q456.97 388.47 456.97 387.42L456.97 385.87Q456.97 384.82 456.94 384.21Q456.94 383.56 456.90 382.62Q456.87 381.63 456.76 381.09Q456.66 380.52 456.48 379.74Q456.30 378.96 456.02 378.49Q455.74 378.01 455.35 377.50Q454.93 377.00 454.43 376.73Q453.91 376.42 453.20 376.25Q452.53 376.08 451.68 376.08Q450.80 376.08 450.10 376.29Q449.43 376.45 448.90 376.79Q448.37 377.13 447.95 377.64Q447.56 378.11 447.28 378.72Q446.99 379.30 446.82 380.01Q446.64 380.69 446.57 381.46Q446.50 382.21 446.43 383.02Q446.40 383.80 446.40 384.65ZM468.60 398.83Q468.14 398.39 468.14 397.75Q468.14 397.07 468.60 396.63Q469.09 396.19 469.73 396.19Q476.85 396.19 478.93 392.37Q479.56 391.21 479.56 390.16Q479.56 387.69 478.36 386.44Q476.78 384.65 472.79 384.65Q471.70 384.65 470.57 384.75L470.43 384.75Q469.80 384.75 469.30 384.34Q468.84 383.90 468.84 383.29L468.84 383.19L469.34 374.56Q469.41 373.95 469.83 373.54Q470.29 373.14 470.92 373.14L480.94 373.14Q481.61 373.14 482.07 373.61Q482.53 374.05 482.53 374.66Q482.53 375.27 482.03 375.74Q481.57 376.22 480.94 376.22L472.41 376.22L472.12 381.53L472.79 381.53Q477.27 381.53 479.99 383.73Q482.74 385.90 482.74 390.16Q482.74 391.96 481.93 393.52Q481.08 395.11 479.81 396.22Q476.42 399.27 469.73 399.27Q469.09 399.27 468.60 398.83M470.54 384.75Q470.54 384.75 470.57 384.75Q470.57 384.75 470.54 384.75ZM495.95 377.71Q494.40 379.33 494.40 381.60Q494.40 383.80 495.88 385.19Q497.29 386.54 499.68 386.54Q503.88 386.54 504.62 384.07Q504.97 382.95 504.97 381.60Q504.97 379.06 503.49 377.57Q502.05 376.05 499.68 376.05Q497.46 376.05 495.95 377.71M493.62 387.29Q491.22 385.02 491.22 381.60Q491.22 378.08 493.76 375.54Q496.23 373.00 499.68 373.00Q503.25 373.00 505.68 375.37Q508.15 377.74 508.15 381.60Q508.15 384.00 507.41 385.93Q506.67 387.86 505.33 390.10Q502.40 395.01 498.17 398.76Q497.71 399.17 497.18 399.17Q496.58 399.17 496.12 398.73Q495.66 398.29 495.66 397.65Q495.66 397.00 496.16 396.53Q499.51 393.45 501.91 389.72L502.08 389.39L501.73 389.45Q500.81 389.59 499.68 389.59Q495.95 389.59 493.62 387.29ZM515.40 386.61L515.40 385.66Q515.40 385.02 515.86 384.58Q516.31 384.14 516.98 384.14L531.09 384.14Q531.76 384.14 532.22 384.61Q532.68 385.05 532.68 385.66L532.68 386.61Q532.68 387.22 532.22 387.69Q531.76 388.13 531.09 388.13L516.98 388.13Q516.31 388.13 515.86 387.69Q515.40 387.25 515.40 386.61ZM541.28 377.37Q540.82 376.89 540.82 376.32Q540.82 375.47 541.49 375.03Q544.70 373.00 548.68 373.00Q551.89 373.00 554.04 374.97Q556.23 376.89 556.23 380.04Q556.23 381.30 555.77 382.45Q555.31 383.63 554.71 384.38Q554.15 385.12 553.02 386.03Q551.89 386.95 551.29 387.36Q550.73 387.76 549.50 388.54Q548.16 389.39 547.56 389.83Q546.96 390.27 546.11 391.15Q545.26 391.99 544.88 393.08Q544.49 394.13 544.42 395.58L544.42 395.75L554.86 395.75Q555.53 395.75 555.98 396.22Q556.44 396.66 556.44 397.27Q556.44 397.88 555.95 398.36Q555.49 398.80 554.86 398.80L542.80 398.80Q542.16 398.80 541.67 398.36Q541.21 397.88 541.21 397.27L541.21 396.56Q541.21 393.92 541.56 392.77Q542.16 390.74 543.82 389.15Q545.48 387.52 547.87 385.97Q551.19 383.83 552.07 382.62Q553.06 381.40 553.06 380.04Q553.06 378.25 551.75 377.13Q550.52 376.05 548.68 376.05Q545.51 376.05 543.32 377.54Q542.94 377.81 542.41 377.81Q541.77 377.81 541.28 377.37ZM565.77 380.92Q565.31 380.45 565.31 379.84Q565.31 379.13 565.77 378.79L572.23 373.48Q572.68 373.10 573.25 373.10L574.38 373.10Q575.01 373.10 575.47 373.58Q575.96 374.02 575.96 374.63L575.96 397.65Q575.96 398.26 575.47 398.73Q575.01 399.17 574.38 399.17Q573.74 399.17 573.25 398.73Q572.79 398.29 572.79 397.65L572.79 377.03L567.96 380.99Q567.50 381.36 566.90 381.36Q566.23 381.36 565.77 380.92ZM594.93 376.73Q593.59 377.40 593.59 378.69Q593.59 379.54 593.91 380.18Q594.23 380.82 594.97 381.36Q595.67 381.87 596.13 382.14Q596.63 382.41 597.61 382.89L597.68 382.89L597.75 382.89Q598.74 382.45 599.24 382.18Q599.73 381.90 600.43 381.40Q601.14 380.86 601.46 380.21Q601.77 379.54 601.77 378.69Q601.77 377.40 600.43 376.73Q599.13 376.05 597.68 376.05Q596.24 376.05 594.93 376.73M597.68 386.37Q592.36 389.05 592.36 392.23Q592.36 394.13 593.95 395.17Q595.43 396.22 597.68 396.22L598.39 396.22Q600.26 396.22 601.60 395.04Q602.97 393.85 602.97 392.23Q602.97 389.01 597.83 386.37L597.75 386.31L597.68 386.37M591.65 397.31Q589.22 395.34 589.22 392.23Q589.22 388.13 594.23 384.82L594.44 384.68L594.23 384.55Q590.42 382.31 590.42 378.69Q590.42 376.22 592.68 374.63Q594.90 373.00 597.68 373.00Q600.43 373.00 602.69 374.63Q604.95 376.25 604.95 378.69Q604.95 380.69 603.96 382.07Q602.94 383.43 601.14 384.55L600.93 384.68L601.14 384.82Q606.15 388.13 606.15 392.23Q606.15 394.90 604.10 396.97Q602.06 399.03 599.17 399.27L597.68 399.27Q594.05 399.27 591.65 397.31ZM613.68 375.78Q613.22 375.30 613.22 374.66Q613.22 374.02 613.68 373.58Q614.14 373.14 614.81 373.14L628.56 373.14Q629.23 373.14 629.69 373.61Q630.15 374.05 630.15 374.66Q630.15 377.23 628.07 380.25Q627.43 381.19 625.60 383.39Q623.76 385.63 622.99 387.02Q620.70 391.08 620.70 397.61Q620.70 398.26 620.24 398.73Q619.78 399.17 619.18 399.17Q618.58 399.17 618.12 398.73Q617.66 398.29 617.66 397.61Q617.66 390.23 620.34 385.46Q621.16 384.07 622.99 381.74Q624.86 379.37 625.46 378.49Q626.30 377.13 626.62 376.45L626.69 376.22L614.81 376.22Q614.17 376.22 613.68 375.78ZM638.28 377.37Q637.82 376.89 637.82 376.32Q637.82 375.47 638.49 375.03Q641.70 373.00 645.68 373.00Q648.89 373.00 651.04 374.97Q653.23 376.89 653.23 380.04Q653.23 381.30 652.77 382.45Q652.31 383.63 651.71 384.38Q651.15 385.12 650.02 386.03Q648.89 386.95 648.29 387.36Q647.73 387.76 646.50 388.54Q645.16 389.39 644.56 389.83Q643.96 390.27 643.11 391.15Q642.26 391.99 641.88 393.08Q641.49 394.13 641.42 395.58L641.42 395.75L651.86 395.75Q652.53 395.75 652.98 396.22Q653.44 396.66 653.44 397.27Q653.44 397.88 652.95 398.36Q652.49 398.80 651.86 398.80L639.80 398.80Q639.16 398.80 638.67 398.36Q638.21 397.88 638.21 397.27L638.21 396.56Q638.21 393.92 638.56 392.77Q639.16 390.74 640.82 389.15Q642.48 387.52 644.87 385.97Q648.19 383.83 649.07 382.62Q650.06 381.40 650.06 380.04Q650.06 378.25 648.75 377.13Q647.52 376.05 645.68 376.05Q642.51 376.05 640.32 377.54Q639.94 377.81 639.41 377.81Q638.77 377.81 638.28 377.37Z" fill="#000000" />
</svg>
