<svg viewBox="0 0 759 431" xmlns="http://www.w3.org/2000/svg">
<rect width="100%" height="100%" fill="#FFFFFF" />
<path stroke="#000000" stroke-width="6" d="M33 371L33 30M66 371L66 30M123 371L123 30M150 371L150 30M174 371L174 30M222 371L222 30M408 371L408 30M429 371L429 30M453 371L453 30M504 371L504 30M528 371L528 30M600 371L600 30M636 371L636 30M675 371L675 30M684 371L684 30M693 371L693 30M726 371L726 30" />
<path stroke="#000000" stroke-width="3" d="M40.50 371L40.50 30M49.50 371L49.50 30M79.50 371L79.50 30M91.50 371L91.50 30M97.50 371L97.50 30M142.50 371L142.50 30M163.50 371L163.50 30M196.50 371L196.50 30M229.50 371L229.50 30M289.50 371L289.50 30M295.50 371L295.50 30M301.50 371L301.50 30M328.50 371L328.50 30M352.50 371L352.50 30M361.50 371L361.50 30M370.50 371L370.50 30M394.50 371L394.50 30M421.50 371L421.50 30M460.50 371L460.50 30M493.50 371L493.50 30M538.50 371L538.50 30M559.50 371L559.50 30M592.50 371L592.50 30M613.50 371L613.50 30M625.50 371L625.50 30M649.50 371L649.50 30M718.50 371L718.50 30" />
<path stroke="#000000" stroke-width="9" d="M106.50 371L106.50 30M133.50 371L133.50 30M184.50 371L184.50 30M208.50 371L208.50 30M238.50 371L238.50 30M280.50 371L280.50 30M484.50 371L484.50 30M514.50 371L514.50 30M547.50 371L547.50 30M568.50 371L568.50 30M709.50 371L709.50 30" />
<path stroke="#000000" stroke-width="12" d="M252 371L252 30M267 371L267 30M318 371L318 30M339 371L339 30M384 371L384 30M441 371L441 30M471 371L471 30M582 371L582 30M663 371L663 30" />
<path d="M107.73 398.29Q107.23 397.78 107.23 397.10Q107.23 396.39 107.69 395.89Q108.15 395.41 108.82 395.41L112.20 395.41L112.20 376.59L109.52 376.59Q108.89 376.59 108.43 376.08Q107.94 375.57 107.94 374.90Q107.94 374.22 108.40 373.71Q108.85 373.20 109.52 373.20L117.85 373.20Q118.52 373.20 118.97 373.71Q119.43 374.22 119.43 374.90Q119.43 375.57 118.94 376.08Q118.48 376.59 117.85 376.59L115.17 376.59L115.17 395.41L118.55 395.41Q119.22 395.41 119.68 395.89Q120.14 396.39 120.14 397.10Q120.14 397.78 119.64 398.29Q119.19 398.80 118.55 398.80L108.82 398.80Q108.18 398.80 107.73 398.29ZM130.21 398.86Q129.72 398.36 129.72 397.65L129.72 374.46Q129.72 373.75 130.17 373.27Q130.67 372.76 131.30 372.76L132.61 372.76Q133.03 372.76 133.42 373.04Q133.84 373.27 134.02 373.71L142.48 392.91L142.48 374.39Q142.48 373.71 142.94 373.24Q143.43 372.73 144.07 372.73Q144.70 372.73 145.16 373.24Q145.65 373.71 145.65 374.42L145.65 397.61Q145.65 398.32 145.16 398.83Q144.70 399.34 144.07 399.34L142.73 399.34Q141.74 399.34 141.32 398.42L132.89 379.23L132.89 397.68Q132.89 398.36 132.40 398.86Q131.94 399.37 131.30 399.37Q130.67 399.37 130.21 398.86ZM159.00 398.15L153.19 374.46Q153.19 373.78 153.68 373.31Q154.17 372.80 154.81 372.80Q155.34 372.80 155.76 373.17Q156.22 373.51 156.32 373.98L161.68 395.65L167.01 373.98Q167.22 373.48 167.61 373.14Q168.03 372.80 168.56 372.80Q169.20 372.80 169.69 373.31Q170.18 373.81 170.18 374.46L164.29 398.15Q164.19 398.66 163.76 399.03Q163.34 399.37 162.85 399.37L160.52 399.37Q160.03 399.37 159.57 399Q159.11 398.63 159.00 398.15ZM177.40 386.61L177.40 385.66Q177.40 385.02 177.86 384.58Q178.31 384.14 178.98 384.14L193.09 384.14Q193.76 384.14 194.22 384.61Q194.68 385.05 194.68 385.66L194.68 386.61Q194.68 387.22 194.22 387.69Q193.76 388.13 193.09 388.13L178.98 388.13Q178.31 388.13 177.86 387.69Q177.40 387.25 177.40 386.61ZM203.77 380.92Q203.31 380.45 203.31 379.84Q203.31 379.13 203.77 378.79L210.23 373.48Q210.68 373.10 211.25 373.10L212.38 373.10Q213.01 373.10 213.47 373.58Q213.96 374.02 213.96 374.63L213.96 397.65Q213.96 398.26 213.47 398.73Q213.01 399.17 212.38 399.17Q211.74 399.17 211.25 398.73Q210.79 398.29 210.79 397.65L210.79 377.03L205.96 380.99Q205.50 381.36 204.90 381.36Q204.23 381.36 203.77 380.92ZM227.68 375.78Q227.22 375.30 227.22 374.66Q227.22 374.02 227.68 373.58Q228.14 373.14 228.81 373.14L242.56 373.14Q243.23 373.14 243.69 373.61Q244.15 374.05 244.15 374.66Q244.15 377.23 242.07 380.25Q241.43 381.19 239.60 383.39Q237.76 385.63 236.99 387.02Q234.70 391.08 234.70 397.61Q234.70 398.26 234.24 398.73Q233.78 399.17 233.18 399.17Q232.58 399.17 232.12 398.73Q231.66 398.29 231.66 397.61Q231.66 390.23 234.34 385.46Q235.16 384.07 236.99 381.74Q238.86 379.37 239.46 378.49Q240.30 377.13 240.62 376.45L240.69 376.22L228.81 376.22Q228.17 376.22 227.68 375.78ZM251.68 375.78Q251.22 375.30 251.22 374.66Q251.22 374.02 251.68 373.58Q252.14 373.14 252.81 373.14L266.56 373.14Q267.23 373.14 267.69 373.61Q268.15 374.05 268.15 374.66Q268.15 377.23 266.07 380.25Q265.43 381.19 263.60 383.39Q261.76 385.63 260.99 387.02Q258.70 391.08 258.70 397.61Q258.70 398.26 258.24 398.73Q257.78 399.17 257.18 399.17Q256.58 399.17 256.12 398.73Q255.66 398.29 255.66 397.61Q255.66 390.23 258.34 385.46Q259.16 384.07 260.99 381.74Q262.86 379.37 263.46 378.49Q264.30 377.13 264.62 376.45L264.69 376.22L252.81 376.22Q252.17 376.22 251.68 375.78ZM279.95 377.71Q278.40 379.33 278.40 381.60Q278.40 383.80 279.88 385.19Q281.29 386.54 283.68 386.54Q287.88 386.54 288.62 384.07Q288.97 382.95 288.97 381.60Q288.97 379.06 287.49 377.57Q286.05 376.05 283.68 376.05Q281.46 376.05 279.95 377.71M277.62 387.29Q275.22 385.02 275.22 381.60Q275.22 378.08 277.76 375.54Q280.23 373.00 283.68 373.00Q287.25 373.00 289.68 375.37Q292.15 377.74 292.15 381.60Q292.15 384.00 291.41 385.93Q290.67 387.86 289.33 390.10Q286.40 395.01 282.17 398.76Q281.71 399.17 281.18 399.17Q280.58 399.17 280.12 398.73Q279.66 398.29 279.66 397.65Q279.66 397.00 280.16 396.53Q283.51 393.45 285.91 389.72L286.08 389.39L285.73 389.45Q284.81 389.59 283.68 389.59Q279.95 389.59 277.62 387.29ZM299.96 397.98Q299.22 397.44 299.22 396.63Q299.22 395.99 299.68 395.55Q300.17 395.07 300.81 395.07Q301.02 395.07 301.41 395.21Q303.66 396.19 306.13 396.19Q308.81 396.19 310.65 394.90Q312.52 393.58 312.66 391.08L312.66 390.74Q312.66 389.01 311.53 387.80Q310.47 386.61 308.92 386.10Q307.40 385.63 305.53 385.63Q304.93 385.63 304.48 385.19Q304.02 384.71 304.02 384.07Q304.02 383.46 304.33 383.12L310.82 376.22L300.91 376.22Q300.28 376.22 299.79 375.78Q299.33 375.30 299.33 374.66Q299.33 374.02 299.79 373.58Q300.24 373.14 300.91 373.14L313.36 373.14Q314.00 373.14 314.45 373.61Q314.95 374.05 314.95 374.66L314.95 375.88Q314.95 376.42 314.45 376.89L308.78 382.89L309.06 382.95Q312.06 383.70 313.96 385.70Q315.83 387.69 315.83 390.71L315.83 391.25Q315.65 394.94 312.83 397.10Q310.08 399.27 306.13 399.27Q305.15 399.27 304.16 399.17Q303.17 399.07 301.94 398.83Q300.70 398.56 299.96 397.98ZM328.93 376.73Q327.59 377.40 327.59 378.69Q327.59 379.54 327.91 380.18Q328.23 380.82 328.97 381.36Q329.67 381.87 330.13 382.14Q330.63 382.41 331.61 382.89L331.68 382.89L331.75 382.89Q332.74 382.45 333.24 382.18Q333.73 381.90 334.43 381.40Q335.14 380.86 335.46 380.21Q335.77 379.54 335.77 378.69Q335.77 377.40 334.43 376.73Q333.13 376.05 331.68 376.05Q330.24 376.05 328.93 376.73M331.68 386.37Q326.36 389.05 326.36 392.23Q326.36 394.13 327.95 395.17Q329.43 396.22 331.68 396.22L332.39 396.22Q334.26 396.22 335.60 395.04Q336.97 393.85 336.97 392.23Q336.97 389.01 331.83 386.37L331.75 386.31L331.68 386.37M325.65 397.31Q323.22 395.34 323.22 392.23Q323.22 388.13 328.23 384.82L328.44 384.68L328.23 384.55Q324.42 382.31 324.42 378.69Q324.42 376.22 326.68 374.63Q328.90 373.00 331.68 373.00Q334.43 373.00 336.69 374.63Q338.95 376.25 338.95 378.69Q338.95 380.69 337.96 382.07Q336.94 383.43 335.14 384.55L334.93 384.68L335.14 384.82Q340.15 388.13 340.15 392.23Q340.15 394.90 338.10 396.97Q336.06 399.03 333.17 399.27L331.68 399.27Q328.05 399.27 325.65 397.31ZM347.96 397.98Q347.22 397.44 347.22 396.63Q347.22 395.99 347.68 395.55Q348.17 395.07 348.81 395.07Q349.02 395.07 349.41 395.21Q351.66 396.19 354.13 396.19Q356.81 396.19 358.65 394.90Q360.52 393.58 360.66 391.08L360.66 390.74Q360.66 389.01 359.53 387.80Q358.47 386.61 356.92 386.10Q355.40 385.63 353.53 385.63Q352.93 385.63 352.48 385.19Q352.02 384.71 352.02 384.07Q352.02 383.46 352.33 383.12L358.82 376.22L348.91 376.22Q348.28 376.22 347.79 375.78Q347.33 375.30 347.33 374.66Q347.33 374.02 347.79 373.58Q348.24 373.14 348.91 373.14L361.36 373.14Q362.00 373.14 362.45 373.61Q362.95 374.05 362.95 374.66L362.95 375.88Q362.95 376.42 362.45 376.89L356.78 382.89L357.06 382.95Q360.06 383.70 361.96 385.70Q363.83 387.69 363.83 390.71L363.83 391.25Q363.65 394.94 360.83 397.10Q358.08 399.27 354.13 399.27Q353.15 399.27 352.16 399.17Q351.17 399.07 349.94 398.83Q348.70 398.56 347.96 397.98ZM376.93 376.73Q375.59 377.40 375.59 378.69Q375.59 379.54 375.91 380.18Q376.23 380.82 376.97 381.36Q377.67 381.87 378.13 382.14Q378.63 382.41 379.61 382.89L379.68 382.89L379.75 382.89Q380.74 382.45 381.24 382.18Q381.73 381.90 382.43 381.40Q383.14 380.86 383.46 380.21Q383.77 379.54 383.77 378.69Q383.77 377.40 382.43 376.73Q381.13 376.05 379.68 376.05Q378.24 376.05 376.93 376.73M379.68 386.37Q374.36 389.05 374.36 392.23Q374.36 394.13 375.95 395.17Q377.43 396.22 379.68 396.22L380.39 396.22Q382.26 396.22 383.60 395.04Q384.97 393.85 384.97 392.23Q384.97 389.01 379.83 386.37L379.75 386.31L379.68 386.37M373.65 397.31Q371.22 395.34 371.22 392.23Q371.22 388.13 376.23 384.82L376.44 384.68L376.23 384.55Q372.42 382.31 372.42 378.69Q372.42 376.22 374.68 374.63Q376.90 373.00 379.68 373.00Q382.43 373.00 384.69 374.63Q386.95 376.25 386.95 378.69Q386.95 380.69 385.96 382.07Q384.94 383.43 383.14 384.55L382.93 384.68L383.14 384.82Q388.15 388.13 388.15 392.23Q388.15 394.90 386.10 396.97Q384.06 399.03 381.17 399.27L379.68 399.27Q376.05 399.27 373.65 397.31ZM396.28 377.37Q395.82 376.89 395.82 376.32Q395.82 375.47 396.49 375.03Q399.70 373.00 403.68 373.00Q406.89 373.00 409.04 374.97Q411.23 376.89 411.23 380.04Q411.23 381.30 410.77 382.45Q410.31 383.63 409.71 384.38Q409.15 385.12 408.02 386.03Q406.89 386.95 406.29 387.36Q405.73 387.76 404.50 388.54Q403.16 389.39 402.56 389.83Q401.96 390.27 401.11 391.15Q400.26 391.99 399.88 393.08Q399.49 394.13 399.42 395.58L399.42 395.75L409.86 395.75Q410.53 395.75 410.98 396.22Q411.44 396.66 411.44 397.27Q411.44 397.88 410.95 398.36Q410.49 398.80 409.86 398.80L397.80 398.80Q397.16 398.80 396.67 398.36Q396.21 397.88 396.21 397.27L396.21 396.56Q396.21 393.92 396.56 392.77Q397.16 390.74 398.82 389.15Q400.48 387.52 402.87 385.97Q406.19 383.83 407.07 382.62Q408.06 381.40 408.06 380.04Q408.06 378.25 406.75 377.13Q405.52 376.05 403.68 376.05Q400.51 376.05 398.32 377.54Q397.94 377.81 397.41 377.81Q396.77 377.81 396.28 377.37ZM419.96 397.98Q419.22 397.44 419.22 396.63Q419.22 395.99 419.68 395.55Q420.17 395.07 420.81 395.07Q421.02 395.07 421.41 395.21Q423.66 396.19 426.13 396.19Q428.81 396.19 430.65 394.90Q432.52 393.58 432.66 391.08L432.66 390.74Q432.66 389.01 431.53 387.80Q430.47 386.61 428.92 386.10Q427.40 385.63 425.53 385.63Q424.93 385.63 424.48 385.19Q424.02 384.71 424.02 384.07Q424.02 383.46 424.33 383.12L430.82 376.22L420.91 376.22Q420.28 376.22 419.79 375.78Q419.33 375.30 419.33 374.66Q419.33 374.02 419.79 373.58Q420.24 373.14 420.91 373.14L433.36 373.14Q434.00 373.14 434.45 373.61Q434.95 374.05 434.95 374.66L434.95 375.88Q434.95 376.42 434.45 376.89L428.78 382.89L429.06 382.95Q432.06 383.70 433.96 385.70Q435.83 387.69 435.83 390.71L435.83 391.25Q435.65 394.94 432.83 397.10Q430.08 399.27 426.13 399.27Q425.15 399.27 424.16 399.17Q423.17 399.07 421.94 398.83Q420.70 398.56 419.96 397.98ZM448.93 376.73Q447.59 377.40 447.59 378.69Q447.59 379.54 447.91 380.18Q448.23 380.82 448.97 381.36Q449.67 381.87 450.13 382.14Q450.63 382.41 451.61 382.89L451.68 382.89L451.75 382.89Q452.74 382.45 453.24 382.18Q453.73 381.90 454.43 381.40Q455.14 380.86 455.46 380.21Q455.77 379.54 455.77 378.69Q455.77 377.40 454.43 376.73Q453.13 376.05 451.68 376.05Q450.24 376.05 448.93 376.73M451.68 386.37Q446.36 389.05 446.36 392.23Q446.36 394.13 447.95 395.17Q449.43 396.22 451.68 396.22L452.39 396.22Q454.26 396.22 455.60 395.04Q456.97 393.85 456.97 392.23Q456.97 389.01 451.83 386.37L451.75 386.31L451.68 386.37M445.65 397.31Q443.22 395.34 443.22 392.23Q443.22 388.13 448.23 384.82L448.44 384.68L448.23 384.55Q444.42 382.31 444.42 378.69Q444.42 376.22 446.68 374.63Q448.90 373.00 451.68 373.00Q454.43 373.00 456.69 374.63Q458.95 376.25 458.95 378.69Q458.95 380.69 457.96 382.07Q456.94 383.43 455.14 384.55L454.93 384.68L455.14 384.82Q460.15 388.13 460.15 392.23Q460.15 394.90 458.10 396.97Q456.06 399.03 453.17 399.27L451.68 399.27Q448.05 399.27 445.65 397.31ZM471.95 377.71Q470.40 379.33 470.40 381.60Q470.40 383.80 471.88 385.19Q473.29 386.54 475.68 386.54Q479.88 386.54 480.62 384.07Q480.97 382.95 480.97 381.60Q480.97 379.06 479.49 377.57Q478.05 376.05 475.68 376.05Q473.46 376.05 471.95 377.71M469.62 387.29Q467.22 385.02 467.22 381.60Q467.22 378.08 469.76 375.54Q472.23 373.00 475.68 373.00Q479.25 373.00 481.68 375.37Q484.15 377.74 484.15 381.60Q484.15 384.00 483.41 385.93Q482.67 387.86 481.33 390.10Q478.40 395.01 474.17 398.76Q473.71 399.17 473.18 399.17Q472.58 399.17 472.12 398.73Q471.66 398.29 471.66 397.65Q471.66 397.00 472.16 396.53Q475.51 393.45 477.91 389.72L478.08 389.39L477.73 389.45Q476.81 389.59 475.68 389.59Q471.95 389.59 469.62 387.29ZM499.83 399.27L499.68 399.27Q497.60 399.24 496.05 398.59Q494.50 397.98 493.58 397.00Q492.67 395.99 492.14 394.40Q491.57 392.81 491.40 391.18Q491.22 389.59 491.22 387.42Q491.22 385.49 491.26 384.14Q491.33 382.75 491.54 381.16Q491.75 379.54 492.10 378.45Q492.49 377.33 493.13 376.22Q493.76 375.13 494.64 374.49Q495.52 373.85 496.79 373.44Q498.06 373.04 499.68 373.04Q501.27 373.04 502.54 373.44Q503.81 373.85 504.69 374.49Q505.57 375.13 506.24 376.22Q506.88 377.33 507.23 378.45Q507.62 379.57 507.83 381.16Q508.04 382.75 508.08 384.14Q508.15 385.53 508.15 387.42Q508.15 388.78 508.08 389.89Q508.01 390.98 507.76 392.26Q507.55 393.55 507.20 394.53Q506.84 395.48 506.17 396.39Q505.50 397.31 504.66 397.92Q503.81 398.53 502.58 398.90Q501.34 399.27 499.83 399.27M494.40 384.65L494.40 387.42Q494.40 388.95 494.47 390.03Q494.57 391.11 494.89 392.37Q495.17 393.62 495.74 394.40Q496.30 395.21 497.29 395.75Q498.27 396.26 499.68 396.26L500.42 396.26Q501.41 396.26 502.19 395.89Q502.96 395.48 503.42 394.73Q503.92 394.02 504.23 393.21Q504.55 392.37 504.69 391.32Q504.87 390.23 504.90 389.35Q504.97 388.47 504.97 387.42L504.97 385.87Q504.97 384.82 504.94 384.21Q504.94 383.56 504.90 382.62Q504.87 381.63 504.76 381.09Q504.66 380.52 504.48 379.74Q504.30 378.96 504.02 378.49Q503.74 378.01 503.35 377.50Q502.93 377.00 502.43 376.73Q501.91 376.42 501.20 376.25Q500.53 376.08 499.68 376.08Q498.80 376.08 498.10 376.29Q497.43 376.45 496.90 376.79Q496.37 377.13 495.95 377.64Q495.56 378.11 495.28 378.72Q494.99 379.30 494.82 380.01Q494.64 380.69 494.57 381.46Q494.50 382.21 494.43 383.02Q494.40 383.80 494.40 384.65ZM515.40 386.61L515.40 385.66Q515.40 385.02 515.86 384.58Q516.31 384.14 516.98 384.14L531.09 384.14Q531.76 384.14 532.22 384.61Q532.68 385.05 532.68 385.66L532.68 386.61Q532.68 387.22 532.22 387.69Q531.76 388.13 531.09 388.13L516.98 388.13Q516.31 388.13 515.86 387.69Q515.40 387.25 515.40 386.61ZM540.96 397.98Q540.22 397.44 540.22 396.63Q540.22 395.99 540.68 395.55Q541.17 395.07 541.81 395.07Q542.02 395.07 542.41 395.21Q544.66 396.19 547.13 396.19Q549.81 396.19 551.65 394.90Q553.52 393.58 553.66 391.08L553.66 390.74Q553.66 389.01 552.53 387.80Q551.47 386.61 549.92 386.10Q548.40 385.63 546.53 385.63Q545.93 385.63 545.48 385.19Q545.02 384.71 545.02 384.07Q545.02 383.46 545.33 383.12L551.82 376.22L541.91 376.22Q541.28 376.22 540.79 375.78Q540.33 375.30 540.33 374.66Q540.33 374.02 540.79 373.58Q541.24 373.14 541.91 373.14L554.36 373.14Q555.00 373.14 555.45 373.61Q555.95 374.05 555.95 374.66L555.95 375.88Q555.95 376.42 555.45 376.89L549.78 382.89L550.06 382.95Q553.06 383.70 554.96 385.70Q556.83 387.69 556.83 390.71L556.83 391.25Q556.65 394.94 553.83 397.10Q551.08 399.27 547.13 399.27Q546.15 399.27 545.16 399.17Q544.17 399.07 542.94 398.83Q541.70 398.56 540.96 397.98ZM564.96 397.98Q564.22 397.44 564.22 396.63Q564.22 395.99 564.68 395.55Q565.17 395.07 565.81 395.07Q566.02 395.07 566.41 395.21Q568.66 396.19 571.13 396.19Q573.81 396.19 575.65 394.90Q577.52 393.58 577.66 391.08L577.66 390.74Q577.66 389.01 576.53 387.80Q575.47 386.61 573.92 386.10Q572.40 385.63 570.53 385.63Q569.93 385.63 569.48 385.19Q569.02 384.71 569.02 384.07Q569.02 383.46 569.33 383.12L575.82 376.22L565.91 376.22Q565.28 376.22 564.79 375.78Q564.33 375.30 564.33 374.66Q564.33 374.02 564.79 373.58Q565.24 373.14 565.91 373.14L578.36 373.14Q579.00 373.14 579.45 373.61Q579.95 374.05 579.95 374.66L579.95 375.88Q579.95 376.42 579.45 376.89L573.78 382.89L574.06 382.95Q577.06 383.70 578.96 385.70Q580.83 387.69 580.83 390.71L580.83 391.25Q580.65 394.94 577.83 397.10Q575.08 399.27 571.13 399.27Q570.15 399.27 569.16 399.17Q568.17 399.07 566.94 398.83Q565.70 398.56 564.96 397.98ZM590.69 397.07Q588.33 394.87 588.22 391.25L588.22 390.84Q588.22 386.61 590.65 382.75Q591.64 381.16 593.05 379.40Q594.43 377.61 595.38 376.56Q596.33 375.47 598.09 373.54Q598.48 373.10 599.19 373.10Q599.79 373.10 600.25 373.58Q600.70 374.02 600.70 374.63Q600.70 375.20 600.32 375.68Q596.33 380.01 594.46 382.62L594.22 382.95L594.60 382.89Q595.63 382.68 596.68 382.68Q600.53 382.68 602.82 384.99Q605.15 387.32 605.15 391.25Q605.15 394.80 602.75 397.04Q600.35 399.27 596.68 399.27Q593.02 399.27 590.69 397.07M592.81 387.22Q591.40 388.68 591.40 391.25Q591.40 393.55 592.88 394.90Q594.32 396.22 596.68 396.22Q599.01 396.22 600.46 394.87Q601.97 393.52 601.97 391.25Q601.97 388.61 600.60 387.19Q599.26 385.73 596.68 385.73Q594.18 385.73 592.81 387.22ZM620.83 399.27L620.68 399.27Q618.60 399.24 617.05 398.59Q615.50 397.98 614.58 397.00Q613.67 395.99 613.14 394.40Q612.57 392.81 612.40 391.18Q612.22 389.59 612.22 387.42Q612.22 385.49 612.26 384.14Q612.33 382.75 612.54 381.16Q612.75 379.54 613.10 378.45Q613.49 377.33 614.13 376.22Q614.76 375.13 615.64 374.49Q616.52 373.85 617.79 373.44Q619.06 373.04 620.68 373.04Q622.27 373.04 623.54 373.44Q624.81 373.85 625.69 374.49Q626.57 375.13 627.24 376.22Q627.88 377.33 628.23 378.45Q628.62 379.57 628.83 381.16Q629.04 382.75 629.08 384.14Q629.15 385.53 629.15 387.42Q629.15 388.78 629.08 389.89Q629.01 390.98 628.76 392.26Q628.55 393.55 628.20 394.53Q627.84 395.48 627.17 396.39Q626.50 397.31 625.66 397.92Q624.81 398.53 623.58 398.90Q622.34 399.27 620.83 399.27M615.40 384.65L615.40 387.42Q615.40 388.95 615.47 390.03Q615.57 391.11 615.89 392.37Q616.17 393.62 616.74 394.40Q617.30 395.21 618.29 395.75Q619.27 396.26 620.68 396.26L621.42 396.26Q622.41 396.26 623.19 395.89Q623.96 395.48 624.42 394.73Q624.92 394.02 625.23 393.21Q625.55 392.37 625.69 391.32Q625.87 390.23 625.90 389.35Q625.97 388.47 625.97 387.42L625.97 385.87Q625.97 384.82 625.94 384.21Q625.94 383.56 625.90 382.62Q625.87 381.63 625.76 381.09Q625.66 380.52 625.48 379.74Q625.30 378.96 625.02 378.49Q624.74 378.01 624.35 377.50Q623.93 377.00 623.43 376.73Q622.91 376.42 622.20 376.25Q621.53 376.08 620.68 376.08Q619.80 376.08 619.10 376.29Q618.43 376.45 617.90 376.79Q617.37 377.13 616.95 377.64Q616.56 378.11 616.28 378.72Q615.99 379.30 615.82 380.01Q615.64 380.69 615.57 381.46Q615.50 382.21 615.43 383.02Q615.40 383.80 615.40 384.65ZM636.68 375.78Q636.22 375.30 636.22 374.66Q636.22 374.02 636.68 373.58Q637.14 373.14 637.81 373.14L651.56 373.14Q652.23 373.14 652.69 373.61Q653.15 374.05 653.15 374.66Q653.15 377.23 651.07 380.25Q650.43 381.19 648.60 383.39Q646.76 385.63 645.99 387.02Q643.70 391.08 643.70 397.61Q643.70 398.26 643.24 398.73Q642.78 399.17 642.18 399.17Q641.58 399.17 641.12 398.73Q640.66 398.29 640.66 397.61Q640.66 390.23 643.34 385.46Q644.16 384.07 645.99 381.74Q647.86 379.37 648.46 378.49Q649.30 377.13 649.62 376.45L649.69 376.22L637.81 376.22Q637.17 376.22 636.68 375.78Z" fill="#000000" />
</svg>
