<svg viewBox="0 0 759 431" xmlns="http://www.w3.org/2000/svg">
<rect width="100%" height="100%" fill="#FFFFFF" />
<path stroke="#000000" stroke-width="6" d="M33 371L33 30M66 371L66 30M123 371L123 30M150 371L150 30M174 371L174 30M222 371L222 30M330 371L330 30M378 371L378 30M441 371L441 30M504 371L504 30M549 371L549 30M603 371L603 30M642 371L642 30M675 371L675 30M693 371L693 30M726 371L726 30" />
<path stroke="#000000" stroke-width="3" d="M40.50 371L40.50 30M49.50 371L49.50 30M79.50 371L79.50 30M91.50 371L91.50 30M97.50 371L97.50 30M142.50 371L142.50 30M163.50 371L163.50 30M196.50 371L196.50 30M229.50 371L229.50 30M289.50 371L289.50 30M295.50 371L295.50 30M301.50 371L301.50 30M355.50 371L355.50 30M361.50 371L361.50 30M370.50 371L370.50 30M394.50 371L394.50 30M451.50 371L451.50 30M460.50 371L460.50 30M493.50 371L493.50 30M541.50 371L541.50 30M559.50 371L559.50 30M592.50 371L592.50 30M619.50 371L619.50 30M652.50 371L652.50 30M685.50 371L685.50 30M718.50 371L718.50 30" />
<path stroke="#000000" stroke-width="9" d="M106.50 371L106.50 30M133.50 371L133.50 30M184.50 371L184.50 30M208.50 371L208.50 30M238.50 371L238.50 30M280.50 371L280.50 30M340.50 371L340.50 30M403.50 371L403.50 30M430.50 371L430.50 30M484.50 371L484.50 30M514.50 371L514.50 30M529.50 371L529.50 30M568.50 371L568.50 30M628.50 371L628.50 30M661.50 371L661.50 30M709.50 371L709.50 30" />
<path stroke="#000000" stroke-width="12" d="M252 371L252 30M267 371L267 30M312 371L312 30M417 371L417 30M471 371L471 30M582 371L582 30" />
<path d="M107.73 398.29Q107.23 397.78 107.23 397.10Q107.23 396.39 107.69 395.89Q108.15 395.41 108.82 395.41L112.20 395.41L112.20 376.59L109.52 376.59Q108.89 376.59 108.43 376.08Q107.94 375.57 107.94 374.90Q107.94 374.22 108.40 373.71Q108.85 373.20 109.52 373.20L117.85 373.20Q118.52 373.20 118.97 373.71Q119.43 374.22 119.43 374.90Q119.43 375.57 118.94 376.08Q118.48 376.59 117.85 376.59L115.17 376.59L115.17 395.41L118.55 395.41Q119.22 395.41 119.68 395.89Q120.14 396.39 120.14 397.10Q120.14 397.78 119.64 398.29Q119.19 398.80 118.55 398.80L108.82 398.80Q108.18 398.80 107.73 398.29ZM130.21 398.86Q129.72 398.36 129.72 397.65L129.72 374.46Q129.72 373.75 130.17 373.27Q130.67 372.76 131.30 372.76L132.61 372.76Q133.03 372.76 133.42 373.04Q133.84 373.27 134.02 373.71L142.48 392.91L142.48 374.39Q142.48 373.71 142.94 373.24Q143.43 372.73 144.07 372.73Q144.70 372.73 145.16 373.24Q145.65 373.71 145.65 374.42L145.65 397.61Q145.65 398.32 145.16 398.83Q144.70 399.34 144.07 399.34L142.73 399.34Q141.74 399.34 141.32 398.42L132.89 379.23L132.89 397.68Q132.89 398.36 132.40 398.86Q131.94 399.37 131.30 399.37Q130.67 399.37 130.21 398.86ZM159.00 398.15L153.19 374.46Q153.19 373.78 153.68 373.31Q154.17 372.80 154.81 372.80Q155.34 372.80 155.76 373.17Q156.22 373.51 156.32 373.98L161.68 395.65L167.01 373.98Q167.22 373.48 167.61 373.14Q168.03 372.80 168.56 372.80Q169.20 372.80 169.69 373.31Q170.18 373.81 170.18 374.46L164.29 398.15Q164.19 398.66 163.76 399.03Q163.34 399.37 162.85 399.37L160.52 399.37Q160.03 399.37 159.57 399Q159.11 398.63 159.00 398.15ZM177.40 386.61L177.40 385.66Q177.40 385.02 177.86 384.58Q178.31 384.14 178.98 384.14L193.09 384.14Q193.76 384.14 194.22 384.61Q194.68 385.05 194.68 385.66L194.68 386.61Q194.68 387.22 194.22 387.69Q193.76 388.13 193.09 388.13L178.98 388.13Q178.31 388.13 177.86 387.69Q177.40 387.25 177.40 386.61ZM203.77 380.92Q203.31 380.45 203.31 379.84Q203.31 379.13 203.77 378.79L210.23 373.48Q210.68 373.10 211.25 373.10L212.38 373.10Q213.01 373.10 213.47 373.58Q213.96 374.02 213.96 374.63L213.96 397.65Q213.96 398.26 213.47 398.73Q213.01 399.17 212.38 399.17Q211.74 399.17 211.25 398.73Q210.79 398.29 210.79 397.65L210.79 377.03L205.96 380.99Q205.50 381.36 204.90 381.36Q204.23 381.36 203.77 380.92ZM227.68 375.78Q227.22 375.30 227.22 374.66Q227.22 374.02 227.68 373.58Q228.14 373.14 228.81 373.14L242.56 373.14Q243.23 373.14 243.69 373.61Q244.15 374.05 244.15 374.66Q244.15 377.23 242.07 380.25Q241.43 381.19 239.60 383.39Q237.76 385.63 236.99 387.02Q234.70 391.08 234.70 397.61Q234.70 398.26 234.24 398.73Q233.78 399.17 233.18 399.17Q232.58 399.17 232.12 398.73Q231.66 398.29 231.66 397.61Q231.66 390.23 234.34 385.46Q235.16 384.07 236.99 381.74Q238.86 379.37 239.46 378.49Q240.30 377.13 240.62 376.45L240.69 376.22L228.81 376.22Q228.17 376.22 227.68 375.78ZM251.68 375.78Q251.22 375.30 251.22 374.66Q251.22 374.02 251.68 373.58Q252.14 373.14 252.81 373.14L266.56 373.14Q267.23 373.14 267.69 373.61Q268.15 374.05 268.15 374.66Q268.15 377.23 266.07 380.25Q265.43 381.19 263.60 383.39Q261.76 385.63 260.99 387.02Q258.70 391.08 258.70 397.61Q258.70 398.26 258.24 398.73Q257.78 399.17 257.18 399.17Q256.58 399.17 256.12 398.73Q255.66 398.29 255.66 397.61Q255.66 390.23 258.34 385.46Q259.16 384.07 260.99 381.74Q262.86 379.37 263.46 378.49Q264.30 377.13 264.62 376.45L264.69 376.22L252.81 376.22Q252.17 376.22 251.68 375.78ZM279.95 377.71Q278.40 379.33 278.40 381.60Q278.40 383.80 279.88 385.19Q281.29 386.54 283.68 386.54Q287.88 386.54 288.62 384.07Q288.97 382.95 288.97 381.60Q288.97 379.06 287.49 377.57Q286.05 376.05 283.68 376.05Q281.46 376.05 279.95 377.71M277.62 387.29Q275.22 385.02 275.22 381.60Q275.22 378.08 277.76 375.54Q280.23 373.00 283.68 373.00Q287.25 373.00 289.68 375.37Q292.15 377.74 292.15 381.60Q292.15 384.00 291.41 385.93Q290.67 387.86 289.33 390.10Q286.40 395.01 282.17 398.76Q281.71 399.17 281.18 399.17Q280.58 399.17 280.12 398.73Q279.66 398.29 279.66 397.65Q279.66 397.00 280.16 396.53Q283.51 393.45 285.91 389.72L286.08 389.39L285.73 389.45Q284.81 389.59 283.68 389.59Q279.95 389.59 277.62 387.29ZM300.28 377.37Q299.82 376.89 299.82 376.32Q299.82 375.47 300.49 375.03Q303.70 373.00 307.68 373.00Q310.89 373.00 313.04 374.97Q315.23 376.89 315.23 380.04Q315.23 381.30 314.77 382.45Q314.31 383.63 313.71 384.38Q313.15 385.12 312.02 386.03Q310.89 386.95 310.29 387.36Q309.73 387.76 308.50 388.54Q307.16 389.39 306.56 389.83Q305.96 390.27 305.11 391.15Q304.26 391.99 303.88 393.08Q303.49 394.13 303.42 395.58L303.42 395.75L313.86 395.75Q314.53 395.75 314.98 396.22Q315.44 396.66 315.44 397.27Q315.44 397.88 314.95 398.36Q314.49 398.80 313.86 398.80L301.80 398.80Q301.16 398.80 300.67 398.36Q300.21 397.88 300.21 397.27L300.21 396.56Q300.21 393.92 300.56 392.77Q301.16 390.74 302.82 389.15Q304.48 387.52 306.87 385.97Q310.19 383.83 311.07 382.62Q312.06 381.40 312.06 380.04Q312.06 378.25 310.75 377.13Q309.52 376.05 307.68 376.05Q304.51 376.05 302.32 377.54Q301.94 377.81 301.41 377.81Q300.77 377.81 300.28 377.37ZM324.60 398.83Q324.14 398.39 324.14 397.75Q324.14 397.07 324.60 396.63Q325.09 396.19 325.73 396.19Q332.85 396.19 334.93 392.37Q335.56 391.21 335.56 390.16Q335.56 387.69 334.36 386.44Q332.78 384.65 328.79 384.65Q327.70 384.65 326.57 384.75L326.43 384.75Q325.80 384.75 325.30 384.34Q324.84 383.90 324.84 383.29L324.84 383.19L325.34 374.56Q325.41 373.95 325.83 373.54Q326.29 373.14 326.92 373.14L336.94 373.14Q337.61 373.14 338.07 373.61Q338.53 374.05 338.53 374.66Q338.53 375.27 338.03 375.74Q337.57 376.22 336.94 376.22L328.41 376.22L328.12 381.53L328.79 381.53Q333.27 381.53 335.99 383.73Q338.74 385.90 338.74 390.16Q338.74 391.96 337.93 393.52Q337.08 395.11 335.81 396.22Q332.42 399.27 325.73 399.27Q325.09 399.27 324.60 398.83M326.54 384.75Q326.54 384.75 326.57 384.75Q326.57 384.75 326.54 384.75ZM348.28 377.37Q347.82 376.89 347.82 376.32Q347.82 375.47 348.49 375.03Q351.70 373.00 355.68 373.00Q358.89 373.00 361.04 374.97Q363.23 376.89 363.23 380.04Q363.23 381.30 362.77 382.45Q362.31 383.63 361.71 384.38Q361.15 385.12 360.02 386.03Q358.89 386.95 358.29 387.36Q357.73 387.76 356.50 388.54Q355.16 389.39 354.56 389.83Q353.96 390.27 353.11 391.15Q352.26 391.99 351.88 393.08Q351.49 394.13 351.42 395.58L351.42 395.75L361.86 395.75Q362.53 395.75 362.98 396.22Q363.44 396.66 363.44 397.27Q363.44 397.88 362.95 398.36Q362.49 398.80 361.86 398.80L349.80 398.80Q349.16 398.80 348.67 398.36Q348.21 397.88 348.21 397.27L348.21 396.56Q348.21 393.92 348.56 392.77Q349.16 390.74 350.82 389.15Q352.48 387.52 354.87 385.97Q358.19 383.83 359.07 382.62Q360.06 381.40 360.06 380.04Q360.06 378.25 358.75 377.13Q357.52 376.05 355.68 376.05Q352.51 376.05 350.32 377.54Q349.94 377.81 349.41 377.81Q348.77 377.81 348.28 377.37ZM373.69 397.07Q371.33 394.87 371.22 391.25L371.22 390.84Q371.22 386.61 373.65 382.75Q374.64 381.16 376.05 379.40Q377.43 377.61 378.38 376.56Q379.33 375.47 381.09 373.54Q381.48 373.10 382.19 373.10Q382.79 373.10 383.25 373.58Q383.70 374.02 383.70 374.63Q383.70 375.20 383.32 375.68Q379.33 380.01 377.46 382.62L377.22 382.95L377.60 382.89Q378.63 382.68 379.68 382.68Q383.53 382.68 385.82 384.99Q388.15 387.32 388.15 391.25Q388.15 394.80 385.75 397.04Q383.35 399.27 379.68 399.27Q376.02 399.27 373.69 397.07M375.81 387.22Q374.40 388.68 374.40 391.25Q374.40 393.55 375.88 394.90Q377.32 396.22 379.68 396.22Q382.01 396.22 383.46 394.87Q384.97 393.52 384.97 391.25Q384.97 388.61 383.60 387.19Q382.26 385.73 379.68 385.73Q377.18 385.73 375.81 387.22ZM396.60 398.83Q396.14 398.39 396.14 397.75Q396.14 397.07 396.60 396.63Q397.09 396.19 397.73 396.19Q404.85 396.19 406.93 392.37Q407.56 391.21 407.56 390.16Q407.56 387.69 406.36 386.44Q404.78 384.65 400.79 384.65Q399.70 384.65 398.57 384.75L398.43 384.75Q397.80 384.75 397.30 384.34Q396.84 383.90 396.84 383.29L396.84 383.19L397.34 374.56Q397.41 373.95 397.83 373.54Q398.29 373.14 398.92 373.14L408.94 373.14Q409.61 373.14 410.07 373.61Q410.53 374.05 410.53 374.66Q410.53 375.27 410.03 375.74Q409.57 376.22 408.94 376.22L400.41 376.22L400.12 381.53L400.79 381.53Q405.27 381.53 407.99 383.73Q410.74 385.90 410.74 390.16Q410.74 391.96 409.93 393.52Q409.08 395.11 407.81 396.22Q404.42 399.27 397.73 399.27Q397.09 399.27 396.60 398.83M398.54 384.75Q398.54 384.75 398.57 384.75Q398.57 384.75 398.54 384.75ZM423.95 377.71Q422.40 379.33 422.40 381.60Q422.40 383.80 423.88 385.19Q425.29 386.54 427.68 386.54Q431.88 386.54 432.62 384.07Q432.97 382.95 432.97 381.60Q432.97 379.06 431.49 377.57Q430.05 376.05 427.68 376.05Q425.46 376.05 423.95 377.71M421.62 387.29Q419.22 385.02 419.22 381.60Q419.22 378.08 421.76 375.54Q424.23 373.00 427.68 373.00Q431.25 373.00 433.68 375.37Q436.15 377.74 436.15 381.60Q436.15 384.00 435.41 385.93Q434.67 387.86 433.33 390.10Q430.40 395.01 426.17 398.76Q425.71 399.17 425.18 399.17Q424.58 399.17 424.12 398.73Q423.66 398.29 423.66 397.65Q423.66 397.00 424.16 396.53Q427.51 393.45 429.91 389.72L430.08 389.39L429.73 389.45Q428.81 389.59 427.68 389.59Q423.95 389.59 421.62 387.29ZM447.95 377.71Q446.40 379.33 446.40 381.60Q446.40 383.80 447.88 385.19Q449.29 386.54 451.68 386.54Q455.88 386.54 456.62 384.07Q456.97 382.95 456.97 381.60Q456.97 379.06 455.49 377.57Q454.05 376.05 451.68 376.05Q449.46 376.05 447.95 377.71M445.62 387.29Q443.22 385.02 443.22 381.60Q443.22 378.08 445.76 375.54Q448.23 373.00 451.68 373.00Q455.25 373.00 457.68 375.37Q460.15 377.74 460.15 381.60Q460.15 384.00 459.41 385.93Q458.67 387.86 457.33 390.10Q454.40 395.01 450.17 398.76Q449.71 399.17 449.18 399.17Q448.58 399.17 448.12 398.73Q447.66 398.29 447.66 397.65Q447.66 397.00 448.16 396.53Q451.51 393.45 453.91 389.72L454.08 389.39L453.73 389.45Q452.81 389.59 451.68 389.59Q447.95 389.59 445.62 387.29ZM468.28 377.37Q467.82 376.89 467.82 376.32Q467.82 375.47 468.49 375.03Q471.70 373.00 475.68 373.00Q478.89 373.00 481.04 374.97Q483.23 376.89 483.23 380.04Q483.23 381.30 482.77 382.45Q482.31 383.63 481.71 384.38Q481.15 385.12 480.02 386.03Q478.89 386.95 478.29 387.36Q477.73 387.76 476.50 388.54Q475.16 389.39 474.56 389.83Q473.96 390.27 473.11 391.15Q472.26 391.99 471.88 393.08Q471.49 394.13 471.42 395.58L471.42 395.75L481.86 395.75Q482.53 395.75 482.98 396.22Q483.44 396.66 483.44 397.27Q483.44 397.88 482.95 398.36Q482.49 398.80 481.86 398.80L469.80 398.80Q469.16 398.80 468.67 398.36Q468.21 397.88 468.21 397.27L468.21 396.56Q468.21 393.92 468.56 392.77Q469.16 390.74 470.82 389.15Q472.48 387.52 474.87 385.97Q478.19 383.83 479.07 382.62Q480.06 381.40 480.06 380.04Q480.06 378.25 478.75 377.13Q477.52 376.05 475.68 376.05Q472.51 376.05 470.32 377.54Q469.94 377.81 469.41 377.81Q468.77 377.81 468.28 377.37ZM491.68 375.78Q491.22 375.30 491.22 374.66Q491.22 374.02 491.68 373.58Q492.14 373.14 492.81 373.14L506.56 373.14Q507.23 373.14 507.69 373.61Q508.15 374.05 508.15 374.66Q508.15 377.23 506.07 380.25Q505.43 381.19 503.60 383.39Q501.76 385.63 500.99 387.02Q498.70 391.08 498.70 397.61Q498.70 398.26 498.24 398.73Q497.78 399.17 497.18 399.17Q496.58 399.17 496.12 398.73Q495.66 398.29 495.66 397.61Q495.66 390.23 498.34 385.46Q499.16 384.07 500.99 381.74Q502.86 379.37 503.46 378.49Q504.30 377.13 504.62 376.45L504.69 376.22L492.81 376.22Q492.17 376.22 491.68 375.78ZM515.40 386.61L515.40 385.66Q515.40 385.02 515.86 384.58Q516.31 384.14 516.98 384.14L531.09 384.14Q531.76 384.14 532.22 384.61Q532.68 385.05 532.68 385.66L532.68 386.61Q532.68 387.22 532.22 387.69Q531.76 388.13 531.09 388.13L516.98 388.13Q516.31 388.13 515.86 387.69Q515.40 387.25 515.40 386.61ZM544.95 377.71Q543.40 379.33 543.40 381.60Q543.40 383.80 544.88 385.19Q546.29 386.54 548.68 386.54Q552.88 386.54 553.62 384.07Q553.97 382.95 553.97 381.60Q553.97 379.06 552.49 377.57Q551.05 376.05 548.68 376.05Q546.46 376.05 544.95 377.71M542.62 387.29Q540.22 385.02 540.22 381.60Q540.22 378.08 542.76 375.54Q545.23 373.00 548.68 373.00Q552.25 373.00 554.68 375.37Q557.15 377.74 557.15 381.60Q557.15 384.00 556.41 385.93Q555.67 387.86 554.33 390.10Q551.40 395.01 547.17 398.76Q546.71 399.17 546.18 399.17Q545.58 399.17 545.12 398.73Q544.66 398.29 544.66 397.65Q544.66 397.00 545.16 396.53Q548.51 393.45 550.91 389.72L551.08 389.39L550.73 389.45Q549.81 389.59 548.68 389.59Q544.95 389.59 542.62 387.29ZM564.68 375.78Q564.22 375.30 564.22 374.66Q564.22 374.02 564.68 373.58Q565.14 373.14 565.81 373.14L579.56 373.14Q580.23 373.14 580.69 373.61Q581.15 374.05 581.15 374.66Q581.15 377.23 579.07 380.25Q578.43 381.19 576.60 383.39Q574.76 385.63 573.99 387.02Q571.70 391.08 571.70 397.61Q571.70 398.26 571.24 398.73Q570.78 399.17 570.18 399.17Q569.58 399.17 569.12 398.73Q568.66 398.29 568.66 397.61Q568.66 390.23 571.34 385.46Q572.16 384.07 573.99 381.74Q575.86 379.37 576.46 378.49Q577.30 377.13 577.62 376.45L577.69 376.22L565.81 376.22Q565.17 376.22 564.68 375.78ZM589.28 377.37Q588.82 376.89 588.82 376.32Q588.82 375.47 589.49 375.03Q592.70 373.00 596.68 373.00Q599.89 373.00 602.04 374.97Q604.23 376.89 604.23 380.04Q604.23 381.30 603.77 382.45Q603.31 383.63 602.71 384.38Q602.15 385.12 601.02 386.03Q599.89 386.95 599.29 387.36Q598.73 387.76 597.50 388.54Q596.16 389.39 595.56 389.83Q594.96 390.27 594.11 391.15Q593.26 391.99 592.88 393.08Q592.49 394.13 592.42 395.58L592.42 395.75L602.86 395.75Q603.53 395.75 603.98 396.22Q604.44 396.66 604.44 397.27Q604.44 397.88 603.95 398.36Q603.49 398.80 602.86 398.80L590.80 398.80Q590.16 398.80 589.67 398.36Q589.21 397.88 589.21 397.27L589.21 396.56Q589.21 393.92 589.56 392.77Q590.16 390.74 591.82 389.15Q593.48 387.52 595.87 385.97Q599.19 383.83 600.07 382.62Q601.06 381.40 601.06 380.04Q601.06 378.25 599.75 377.13Q598.52 376.05 596.68 376.05Q593.51 376.05 591.32 377.54Q590.94 377.81 590.41 377.81Q589.77 377.81 589.28 377.37ZM613.28 377.37Q612.82 376.89 612.82 376.32Q612.82 375.47 613.49 375.03Q616.70 373.00 620.68 373.00Q623.89 373.00 626.04 374.97Q628.23 376.89 628.23 380.04Q628.23 381.30 627.77 382.45Q627.31 383.63 626.71 384.38Q626.15 385.12 625.02 386.03Q623.89 386.95 623.29 387.36Q622.73 387.76 621.50 388.54Q620.16 389.39 619.56 389.83Q618.96 390.27 618.11 391.15Q617.26 391.99 616.88 393.08Q616.49 394.13 616.42 395.58L616.42 395.75L626.86 395.75Q627.53 395.75 627.98 396.22Q628.44 396.66 628.44 397.27Q628.44 397.88 627.95 398.36Q627.49 398.80 626.86 398.80L614.80 398.80Q614.16 398.80 613.67 398.36Q613.21 397.88 613.21 397.27L613.21 396.56Q613.21 393.92 613.56 392.77Q614.16 390.74 615.82 389.15Q617.48 387.52 619.87 385.97Q623.19 383.83 624.07 382.62Q625.06 381.40 625.06 380.04Q625.06 378.25 623.75 377.13Q622.52 376.05 620.68 376.05Q617.51 376.05 615.32 377.54Q614.94 377.81 614.41 377.81Q613.77 377.81 613.28 377.37ZM640.95 377.71Q639.40 379.33 639.40 381.60Q639.40 383.80 640.88 385.19Q642.29 386.54 644.68 386.54Q648.88 386.54 649.62 384.07Q649.97 382.95 649.97 381.60Q649.97 379.06 648.49 377.57Q647.05 376.05 644.68 376.05Q642.46 376.05 640.95 377.71M638.62 387.29Q636.22 385.02 636.22 381.60Q636.22 378.08 638.76 375.54Q641.23 373.00 644.68 373.00Q648.25 373.00 650.68 375.37Q653.15 377.74 653.15 381.60Q653.15 384.00 652.41 385.93Q651.67 387.86 650.33 390.10Q647.40 395.01 643.17 398.76Q642.71 399.17 642.18 399.17Q641.58 399.17 641.12 398.73Q640.66 398.29 640.66 397.65Q640.66 397.00 641.16 396.53Q644.51 393.45 646.91 389.72L647.08 389.39L646.73 389.45Q645.81 389.59 644.68 389.59Q640.95 389.59 638.62 387.29Z" fill="#000000" />
</svg>
