<svg viewBox="0 0 759 431" xmlns="http://www.w3.org/2000/svg">
<rect width="100%" height="100%" fill="#FFFFFF" />
<path stroke="#000000" stroke-width="6" d="M33 371L33 30M66 371L66 30M123 371L123 30M150 371L150 30M174 371L174 30M222 371L222 30M336 371L336 30M420 371L420 30M429 371L429 30M453 371L453 30M504 371L504 30M528 371L528 30M615 371L615 30M636 371L636 30M672 371L672 30M693 371L693 30M726 371L726 30" />
<path stroke="#000000" stroke-width="3" d="M40.50 371L40.50 30M49.50 371L49.50 30M79.50 371L79.50 30M91.50 371L91.50 30M97.50 371L97.50 30M142.50 371L142.50 30M163.50 371L163.50 30M196.50 371L196.50 30M229.50 371L229.50 30M289.50 371L289.50 30M310.50 371L310.50 30M316.50 371L316.50 30M328.50 371L328.50 30M352.50 371L352.50 30M361.50 371L361.50 30M385.50 371L385.50 30M412.50 371L412.50 30M460.50 371L460.50 30M493.50 371L493.50 30M538.50 371L538.50 30M559.50 371L559.50 30M592.50 371L592.50 30M604.50 371L604.50 30M625.50 371L625.50 30M652.50 371L652.50 30M685.50 371L685.50 30M718.50 371L718.50 30" />
<path stroke="#000000" stroke-width="9" d="M106.50 371L106.50 30M133.50 371L133.50 30M184.50 371L184.50 30M208.50 371L208.50 30M238.50 371L238.50 30M280.50 371L280.50 30M397.50 371L397.50 30M484.50 371L484.50 30M514.50 371L514.50 30M550.50 371L550.50 30M568.50 371L568.50 30M661.50 371L661.50 30M709.50 371L709.50 30" />
<path stroke="#000000" stroke-width="12" d="M252 371L252 30M267 371L267 30M300 371L300 30M375 371L375 30M441 371L441 30M471 371L471 30M582 371L582 30" />
<path d="M108.73 398.29Q108.23 397.78 108.23 397.10Q108.23 396.39 108.69 395.89Q109.15 395.41 109.82 395.41L113.20 395.41L113.20 376.59L110.52 376.59Q109.89 376.59 109.43 376.08Q108.94 375.57 108.94 374.90Q108.94 374.22 109.40 373.71Q109.85 373.20 110.52 373.20L118.85 373.20Q119.52 373.20 119.97 373.71Q120.43 374.22 120.43 374.90Q120.43 375.57 119.94 376.08Q119.48 376.59 118.85 376.59L116.17 376.59L116.17 395.41L119.55 395.41Q120.22 395.41 120.68 395.89Q121.14 396.39 121.14 397.10Q121.14 397.78 120.64 398.29Q120.19 398.80 119.55 398.80L109.82 398.80Q109.18 398.80 108.73 398.29ZM131.21 398.86Q130.72 398.36 130.72 397.65L130.72 374.46Q130.72 373.75 131.17 373.27Q131.67 372.76 132.30 372.76L133.61 372.76Q134.03 372.76 134.42 373.04Q134.84 373.27 135.02 373.71L143.48 392.91L143.48 374.39Q143.48 373.71 143.94 373.24Q144.43 372.73 145.07 372.73Q145.70 372.73 146.16 373.24Q146.65 373.71 146.65 374.42L146.65 397.61Q146.65 398.32 146.16 398.83Q145.70 399.34 145.07 399.34L143.73 399.34Q142.74 399.34 142.32 398.42L133.89 379.23L133.89 397.68Q133.89 398.36 133.40 398.86Q132.94 399.37 132.30 399.37Q131.67 399.37 131.21 398.86ZM160.00 398.15L154.19 374.46Q154.19 373.78 154.68 373.31Q155.17 372.80 155.81 372.80Q156.34 372.80 156.76 373.17Q157.22 373.51 157.32 373.98L162.68 395.65L168.01 373.98Q168.22 373.48 168.61 373.14Q169.03 372.80 169.56 372.80Q170.20 372.80 170.69 373.31Q171.18 373.81 171.18 374.46L165.29 398.15Q165.19 398.66 164.76 399.03Q164.34 399.37 163.85 399.37L161.52 399.37Q161.03 399.37 160.57 399Q160.11 398.63 160.00 398.15ZM178.40 386.61L178.40 385.66Q178.40 385.02 178.86 384.58Q179.31 384.14 179.98 384.14L194.09 384.14Q194.76 384.14 195.22 384.61Q195.68 385.05 195.68 385.66L195.68 386.61Q195.68 387.22 195.22 387.69Q194.76 388.13 194.09 388.13L179.98 388.13Q179.31 388.13 178.86 387.69Q178.40 387.25 178.40 386.61ZM204.77 380.92Q204.31 380.45 204.31 379.84Q204.31 379.13 204.77 378.79L211.23 373.48Q211.68 373.10 212.25 373.10L213.38 373.10Q214.01 373.10 214.47 373.58Q214.96 374.02 214.96 374.63L214.96 397.65Q214.96 398.26 214.47 398.73Q214.01 399.17 213.38 399.17Q212.74 399.17 212.25 398.73Q211.79 398.29 211.79 397.65L211.79 377.03L206.96 380.99Q206.50 381.36 205.90 381.36Q205.23 381.36 204.77 380.92ZM228.68 375.78Q228.22 375.30 228.22 374.66Q228.22 374.02 228.68 373.58Q229.14 373.14 229.81 373.14L243.56 373.14Q244.23 373.14 244.69 373.61Q245.15 374.05 245.15 374.66Q245.15 377.23 243.07 380.25Q242.43 381.19 240.60 383.39Q238.76 385.63 237.99 387.02Q235.70 391.08 235.70 397.61Q235.70 398.26 235.24 398.73Q234.78 399.17 234.18 399.17Q233.58 399.17 233.12 398.73Q232.66 398.29 232.66 397.61Q232.66 390.23 235.34 385.46Q236.16 384.07 237.99 381.74Q239.86 379.37 240.46 378.49Q241.30 377.13 241.62 376.45L241.69 376.22L229.81 376.22Q229.17 376.22 228.68 375.78ZM252.68 375.78Q252.22 375.30 252.22 374.66Q252.22 374.02 252.68 373.58Q253.14 373.14 253.81 373.14L267.56 373.14Q268.23 373.14 268.69 373.61Q269.15 374.05 269.15 374.66Q269.15 377.23 267.07 380.25Q266.43 381.19 264.60 383.39Q262.76 385.63 261.99 387.02Q259.70 391.08 259.70 397.61Q259.70 398.26 259.24 398.73Q258.78 399.17 258.18 399.17Q257.58 399.17 257.12 398.73Q256.66 398.29 256.66 397.61Q256.66 390.23 259.34 385.46Q260.16 384.07 261.99 381.74Q263.86 379.37 264.46 378.49Q265.30 377.13 265.62 376.45L265.69 376.22L253.81 376.22Q253.17 376.22 252.68 375.78ZM280.95 377.71Q279.40 379.33 279.40 381.60Q279.40 383.80 280.88 385.19Q282.29 386.54 284.68 386.54Q288.88 386.54 289.62 384.07Q289.97 382.95 289.97 381.60Q289.97 379.06 288.49 377.57Q287.05 376.05 284.68 376.05Q282.46 376.05 280.95 377.71M278.62 387.29Q276.22 385.02 276.22 381.60Q276.22 378.08 278.76 375.54Q281.23 373.00 284.68 373.00Q288.25 373.00 290.68 375.37Q293.15 377.74 293.15 381.60Q293.15 384.00 292.41 385.93Q291.67 387.86 290.33 390.10Q287.40 395.01 283.17 398.76Q282.71 399.17 282.18 399.17Q281.58 399.17 281.12 398.73Q280.66 398.29 280.66 397.65Q280.66 397.00 281.16 396.53Q284.51 393.45 286.91 389.72L287.08 389.39L286.73 389.45Q285.81 389.59 284.68 389.59Q280.95 389.59 278.62 387.29ZM300.68 375.78Q300.22 375.30 300.22 374.66Q300.22 374.02 300.68 373.58Q301.14 373.14 301.81 373.14L315.56 373.14Q316.23 373.14 316.69 373.61Q317.15 374.05 317.15 374.66Q317.15 377.23 315.07 380.25Q314.43 381.19 312.60 383.39Q310.76 385.63 309.99 387.02Q307.70 391.08 307.70 397.61Q307.70 398.26 307.24 398.73Q306.78 399.17 306.18 399.17Q305.58 399.17 305.12 398.73Q304.66 398.29 304.66 397.61Q304.66 390.23 307.34 385.46Q308.16 384.07 309.99 381.74Q311.86 379.37 312.46 378.49Q313.30 377.13 313.62 376.45L313.69 376.22L301.81 376.22Q301.17 376.22 300.68 375.78ZM324.68 375.78Q324.22 375.30 324.22 374.66Q324.22 374.02 324.68 373.58Q325.14 373.14 325.81 373.14L339.56 373.14Q340.23 373.14 340.69 373.61Q341.15 374.05 341.15 374.66Q341.15 377.23 339.07 380.25Q338.43 381.19 336.60 383.39Q334.76 385.63 333.99 387.02Q331.70 391.08 331.70 397.61Q331.70 398.26 331.24 398.73Q330.78 399.17 330.18 399.17Q329.58 399.17 329.12 398.73Q328.66 398.29 328.66 397.61Q328.66 390.23 331.34 385.46Q332.16 384.07 333.99 381.74Q335.86 379.37 336.46 378.49Q337.30 377.13 337.62 376.45L337.69 376.22L325.81 376.22Q325.17 376.22 324.68 375.78ZM356.83 399.27L356.68 399.27Q354.60 399.24 353.05 398.59Q351.50 397.98 350.58 397.00Q349.67 395.99 349.14 394.40Q348.57 392.81 348.40 391.18Q348.22 389.59 348.22 387.42Q348.22 385.49 348.26 384.14Q348.33 382.75 348.54 381.16Q348.75 379.54 349.10 378.45Q349.49 377.33 350.13 376.22Q350.76 375.13 351.64 374.49Q352.52 373.85 353.79 373.44Q355.06 373.04 356.68 373.04Q358.27 373.04 359.54 373.44Q360.81 373.85 361.69 374.49Q362.57 375.13 363.24 376.22Q363.88 377.33 364.23 378.45Q364.62 379.57 364.83 381.16Q365.04 382.75 365.08 384.14Q365.15 385.53 365.15 387.42Q365.15 388.78 365.08 389.89Q365.01 390.98 364.76 392.26Q364.55 393.55 364.20 394.53Q363.84 395.48 363.17 396.39Q362.50 397.31 361.66 397.92Q360.81 398.53 359.58 398.90Q358.34 399.27 356.83 399.27M351.40 384.65L351.40 387.42Q351.40 388.95 351.47 390.03Q351.57 391.11 351.89 392.37Q352.17 393.62 352.74 394.40Q353.30 395.21 354.29 395.75Q355.27 396.26 356.68 396.26L357.42 396.26Q358.41 396.26 359.19 395.89Q359.96 395.48 360.42 394.73Q360.92 394.02 361.23 393.21Q361.55 392.37 361.69 391.32Q361.87 390.23 361.90 389.35Q361.97 388.47 361.97 387.42L361.97 385.87Q361.97 384.82 361.94 384.21Q361.94 383.56 361.90 382.62Q361.87 381.63 361.76 381.09Q361.66 380.52 361.48 379.74Q361.30 378.96 361.02 378.49Q360.74 378.01 360.35 377.50Q359.93 377.00 359.43 376.73Q358.91 376.42 358.20 376.25Q357.53 376.08 356.68 376.08Q355.80 376.08 355.10 376.29Q354.43 376.45 353.90 376.79Q353.37 377.13 352.95 377.64Q352.56 378.11 352.28 378.72Q351.99 379.30 351.82 380.01Q351.64 380.69 351.57 381.46Q351.50 382.21 351.43 383.02Q351.40 383.80 351.40 384.65ZM377.93 376.73Q376.59 377.40 376.59 378.69Q376.59 379.54 376.91 380.18Q377.23 380.82 377.97 381.36Q378.67 381.87 379.13 382.14Q379.63 382.41 380.61 382.89L380.68 382.89L380.75 382.89Q381.74 382.45 382.24 382.18Q382.73 381.90 383.43 381.40Q384.14 380.86 384.46 380.21Q384.77 379.54 384.77 378.69Q384.77 377.40 383.43 376.73Q382.13 376.05 380.68 376.05Q379.24 376.05 377.93 376.73M380.68 386.37Q375.36 389.05 375.36 392.23Q375.36 394.13 376.95 395.17Q378.43 396.22 380.68 396.22L381.39 396.22Q383.26 396.22 384.60 395.04Q385.97 393.85 385.97 392.23Q385.97 389.01 380.83 386.37L380.75 386.31L380.68 386.37M374.65 397.31Q372.22 395.34 372.22 392.23Q372.22 388.13 377.23 384.82L377.44 384.68L377.23 384.55Q373.42 382.31 373.42 378.69Q373.42 376.22 375.68 374.63Q377.90 373.00 380.68 373.00Q383.43 373.00 385.69 374.63Q387.95 376.25 387.95 378.69Q387.95 380.69 386.96 382.07Q385.94 383.43 384.14 384.55L383.93 384.68L384.14 384.82Q389.15 388.13 389.15 392.23Q389.15 394.90 387.10 396.97Q385.06 399.03 382.17 399.27L380.68 399.27Q377.05 399.27 374.65 397.31ZM396.68 392.84Q396.22 392.40 396.22 391.76L396.22 390.30Q396.22 390.03 396.40 389.66L403.91 373.98Q404.05 373.61 404.44 373.37Q404.83 373.10 405.25 373.10Q405.88 373.10 406.34 373.58Q406.80 374.02 406.80 374.63Q406.80 374.97 406.62 375.27L399.57 390.23L406.45 390.23L406.45 386.14Q406.45 385.53 406.91 385.09Q407.36 384.61 407.96 384.61Q408.56 384.61 409.02 385.09Q409.52 385.53 409.52 386.14L409.52 390.23L411.56 390.23Q412.23 390.23 412.69 390.71Q413.15 391.15 413.15 391.76Q413.15 392.37 412.65 392.84Q412.20 393.28 411.56 393.28L409.52 393.28L409.52 397.65Q409.52 398.26 409.02 398.70Q408.56 399.17 407.96 399.17Q407.36 399.17 406.91 398.73Q406.45 398.26 406.45 397.65L406.45 393.28L397.81 393.28Q397.17 393.28 396.68 392.84ZM421.60 398.83Q421.14 398.39 421.14 397.75Q421.14 397.07 421.60 396.63Q422.09 396.19 422.73 396.19Q429.85 396.19 431.93 392.37Q432.56 391.21 432.56 390.16Q432.56 387.69 431.36 386.44Q429.78 384.65 425.79 384.65Q424.70 384.65 423.57 384.75L423.43 384.75Q422.80 384.75 422.30 384.34Q421.84 383.90 421.84 383.29L421.84 383.19L422.34 374.56Q422.41 373.95 422.83 373.54Q423.29 373.14 423.92 373.14L433.94 373.14Q434.61 373.14 435.07 373.61Q435.53 374.05 435.53 374.66Q435.53 375.27 435.03 375.74Q434.57 376.22 433.94 376.22L425.41 376.22L425.12 381.53L425.79 381.53Q430.27 381.53 432.99 383.73Q435.74 385.90 435.74 390.16Q435.74 391.96 434.93 393.52Q434.08 395.11 432.81 396.22Q429.42 399.27 422.73 399.27Q422.09 399.27 421.60 398.83M423.54 384.75Q423.54 384.75 423.57 384.75Q423.57 384.75 423.54 384.75ZM446.69 397.07Q444.33 394.87 444.22 391.25L444.22 390.84Q444.22 386.61 446.65 382.75Q447.64 381.16 449.05 379.40Q450.43 377.61 451.38 376.56Q452.33 375.47 454.09 373.54Q454.48 373.10 455.19 373.10Q455.79 373.10 456.25 373.58Q456.70 374.02 456.70 374.63Q456.70 375.20 456.32 375.68Q452.33 380.01 450.46 382.62L450.22 382.95L450.60 382.89Q451.63 382.68 452.68 382.68Q456.53 382.68 458.82 384.99Q461.15 387.32 461.15 391.25Q461.15 394.80 458.75 397.04Q456.35 399.27 452.68 399.27Q449.02 399.27 446.69 397.07M448.81 387.22Q447.40 388.68 447.40 391.25Q447.40 393.55 448.88 394.90Q450.32 396.22 452.68 396.22Q455.01 396.22 456.46 394.87Q457.97 393.52 457.97 391.25Q457.97 388.61 456.60 387.19Q455.26 385.73 452.68 385.73Q450.18 385.73 448.81 387.22ZM472.95 377.71Q471.40 379.33 471.40 381.60Q471.40 383.80 472.88 385.19Q474.29 386.54 476.68 386.54Q480.88 386.54 481.62 384.07Q481.97 382.95 481.97 381.60Q481.97 379.06 480.49 377.57Q479.05 376.05 476.68 376.05Q474.46 376.05 472.95 377.71M470.62 387.29Q468.22 385.02 468.22 381.60Q468.22 378.08 470.76 375.54Q473.23 373.00 476.68 373.00Q480.25 373.00 482.68 375.37Q485.15 377.74 485.15 381.60Q485.15 384.00 484.41 385.93Q483.67 387.86 482.33 390.10Q479.40 395.01 475.17 398.76Q474.71 399.17 474.18 399.17Q473.58 399.17 473.12 398.73Q472.66 398.29 472.66 397.65Q472.66 397.00 473.16 396.53Q476.51 393.45 478.91 389.72L479.08 389.39L478.73 389.45Q477.81 389.59 476.68 389.59Q472.95 389.59 470.62 387.29ZM500.83 399.27L500.68 399.27Q498.60 399.24 497.05 398.59Q495.50 397.98 494.58 397.00Q493.67 395.99 493.14 394.40Q492.57 392.81 492.40 391.18Q492.22 389.59 492.22 387.42Q492.22 385.49 492.26 384.14Q492.33 382.75 492.54 381.16Q492.75 379.54 493.10 378.45Q493.49 377.33 494.13 376.22Q494.76 375.13 495.64 374.49Q496.52 373.85 497.79 373.44Q499.06 373.04 500.68 373.04Q502.27 373.04 503.54 373.44Q504.81 373.85 505.69 374.49Q506.57 375.13 507.24 376.22Q507.88 377.33 508.23 378.45Q508.62 379.57 508.83 381.16Q509.04 382.75 509.08 384.14Q509.15 385.53 509.15 387.42Q509.15 388.78 509.08 389.89Q509.01 390.98 508.76 392.26Q508.55 393.55 508.20 394.53Q507.84 395.48 507.17 396.39Q506.50 397.31 505.66 397.92Q504.81 398.53 503.58 398.90Q502.34 399.27 500.83 399.27M495.40 384.65L495.40 387.42Q495.40 388.95 495.47 390.03Q495.57 391.11 495.89 392.37Q496.17 393.62 496.74 394.40Q497.30 395.21 498.29 395.75Q499.27 396.26 500.68 396.26L501.42 396.26Q502.41 396.26 503.19 395.89Q503.96 395.48 504.42 394.73Q504.92 394.02 505.23 393.21Q505.55 392.37 505.69 391.32Q505.87 390.23 505.90 389.35Q505.97 388.47 505.97 387.42L505.97 385.87Q505.97 384.82 505.94 384.21Q505.94 383.56 505.90 382.62Q505.87 381.63 505.76 381.09Q505.66 380.52 505.48 379.74Q505.30 378.96 505.02 378.49Q504.74 378.01 504.35 377.50Q503.93 377.00 503.43 376.73Q502.91 376.42 502.20 376.25Q501.53 376.08 500.68 376.08Q499.80 376.08 499.10 376.29Q498.43 376.45 497.90 376.79Q497.37 377.13 496.95 377.64Q496.56 378.11 496.28 378.72Q495.99 379.30 495.82 380.01Q495.64 380.69 495.57 381.46Q495.50 382.21 495.43 383.02Q495.40 383.80 495.40 384.65ZM516.40 386.61L516.40 385.66Q516.40 385.02 516.86 384.58Q517.31 384.14 517.98 384.14L532.09 384.14Q532.76 384.14 533.22 384.61Q533.68 385.05 533.68 385.66L533.68 386.61Q533.68 387.22 533.22 387.69Q532.76 388.13 532.09 388.13L517.98 388.13Q517.31 388.13 516.86 387.69Q516.40 387.25 516.40 386.61ZM541.68 392.84Q541.22 392.40 541.22 391.76L541.22 390.30Q541.22 390.03 541.40 389.66L548.91 373.98Q549.05 373.61 549.44 373.37Q549.83 373.10 550.25 373.10Q550.88 373.10 551.34 373.58Q551.80 374.02 551.80 374.63Q551.80 374.97 551.62 375.27L544.57 390.23L551.45 390.23L551.45 386.14Q551.45 385.53 551.91 385.09Q552.36 384.61 552.96 384.61Q553.56 384.61 554.02 385.09Q554.52 385.53 554.52 386.14L554.52 390.23L556.56 390.23Q557.23 390.23 557.69 390.71Q558.15 391.15 558.15 391.76Q558.15 392.37 557.65 392.84Q557.20 393.28 556.56 393.28L554.52 393.28L554.52 397.65Q554.52 398.26 554.02 398.70Q553.56 399.17 552.96 399.17Q552.36 399.17 551.91 398.73Q551.45 398.26 551.45 397.65L551.45 393.28L542.81 393.28Q542.17 393.28 541.68 392.84ZM573.83 399.27L573.68 399.27Q571.60 399.24 570.05 398.59Q568.50 397.98 567.58 397.00Q566.67 395.99 566.14 394.40Q565.57 392.81 565.40 391.18Q565.22 389.59 565.22 387.42Q565.22 385.49 565.26 384.14Q565.33 382.75 565.54 381.16Q565.75 379.54 566.10 378.45Q566.49 377.33 567.13 376.22Q567.76 375.13 568.64 374.49Q569.52 373.85 570.79 373.44Q572.06 373.04 573.68 373.04Q575.27 373.04 576.54 373.44Q577.81 373.85 578.69 374.49Q579.57 375.13 580.24 376.22Q580.88 377.33 581.23 378.45Q581.62 379.57 581.83 381.16Q582.04 382.75 582.08 384.14Q582.15 385.53 582.15 387.42Q582.15 388.78 582.08 389.89Q582.01 390.98 581.76 392.26Q581.55 393.55 581.20 394.53Q580.84 395.48 580.17 396.39Q579.50 397.31 578.66 397.92Q577.81 398.53 576.58 398.90Q575.34 399.27 573.83 399.27M568.40 384.65L568.40 387.42Q568.40 388.95 568.47 390.03Q568.57 391.11 568.89 392.37Q569.17 393.62 569.74 394.40Q570.30 395.21 571.29 395.75Q572.27 396.26 573.68 396.26L574.42 396.26Q575.41 396.26 576.19 395.89Q576.96 395.48 577.42 394.73Q577.92 394.02 578.23 393.21Q578.55 392.37 578.69 391.32Q578.87 390.23 578.90 389.35Q578.97 388.47 578.97 387.42L578.97 385.87Q578.97 384.82 578.94 384.21Q578.94 383.56 578.90 382.62Q578.87 381.63 578.76 381.09Q578.66 380.52 578.48 379.74Q578.30 378.96 578.02 378.49Q577.74 378.01 577.35 377.50Q576.93 377.00 576.43 376.73Q575.91 376.42 575.20 376.25Q574.53 376.08 573.68 376.08Q572.80 376.08 572.10 376.29Q571.43 376.45 570.90 376.79Q570.37 377.13 569.95 377.64Q569.56 378.11 569.28 378.72Q568.99 379.30 568.82 380.01Q568.64 380.69 568.57 381.46Q568.50 382.21 568.43 383.02Q568.40 383.80 568.40 384.65ZM590.60 398.83Q590.14 398.39 590.14 397.75Q590.14 397.07 590.60 396.63Q591.09 396.19 591.73 396.19Q598.85 396.19 600.93 392.37Q601.56 391.21 601.56 390.16Q601.56 387.69 600.36 386.44Q598.78 384.65 594.79 384.65Q593.70 384.65 592.57 384.75L592.43 384.75Q591.80 384.75 591.30 384.34Q590.84 383.90 590.84 383.29L590.84 383.19L591.34 374.56Q591.41 373.95 591.83 373.54Q592.29 373.14 592.92 373.14L602.94 373.14Q603.61 373.14 604.07 373.61Q604.53 374.05 604.53 374.66Q604.53 375.27 604.03 375.74Q603.57 376.22 602.94 376.22L594.41 376.22L594.12 381.53L594.79 381.53Q599.27 381.53 601.99 383.73Q604.74 385.90 604.74 390.16Q604.74 391.96 603.93 393.52Q603.08 395.11 601.81 396.22Q598.42 399.27 591.73 399.27Q591.09 399.27 590.60 398.83M592.54 384.75Q592.54 384.75 592.57 384.75Q592.57 384.75 592.54 384.75ZM613.68 375.78Q613.22 375.30 613.22 374.66Q613.22 374.02 613.68 373.58Q614.14 373.14 614.81 373.14L628.56 373.14Q629.23 373.14 629.69 373.61Q630.15 374.05 630.15 374.66Q630.15 377.23 628.07 380.25Q627.43 381.19 625.60 383.39Q623.76 385.63 622.99 387.02Q620.70 391.08 620.70 397.61Q620.70 398.26 620.24 398.73Q619.78 399.17 619.18 399.17Q618.58 399.17 618.12 398.73Q617.66 398.29 617.66 397.61Q617.66 390.23 620.34 385.46Q621.16 384.07 622.99 381.74Q624.86 379.37 625.46 378.49Q626.30 377.13 626.62 376.45L626.69 376.22L614.81 376.22Q614.17 376.22 613.68 375.78ZM638.28 377.37Q637.82 376.89 637.82 376.32Q637.82 375.47 638.49 375.03Q641.70 373.00 645.68 373.00Q648.89 373.00 651.04 374.97Q653.23 376.89 653.23 380.04Q653.23 381.30 652.77 382.45Q652.31 383.63 651.71 384.38Q651.15 385.12 650.02 386.03Q648.89 386.95 648.29 387.36Q647.73 387.76 646.50 388.54Q645.16 389.39 644.56 389.83Q643.96 390.27 643.11 391.15Q642.26 391.99 641.88 393.08Q641.49 394.13 641.42 395.58L641.42 395.75L651.86 395.75Q652.53 395.75 652.98 396.22Q653.44 396.66 653.44 397.27Q653.44 397.88 652.95 398.36Q652.49 398.80 651.86 398.80L639.80 398.80Q639.16 398.80 638.67 398.36Q638.21 397.88 638.21 397.27L638.21 396.56Q638.21 393.92 638.56 392.77Q639.16 390.74 640.82 389.15Q642.48 387.52 644.87 385.97Q648.19 383.83 649.07 382.62Q650.06 381.40 650.06 380.04Q650.06 378.25 648.75 377.13Q647.52 376.05 645.68 376.05Q642.51 376.05 640.32 377.54Q639.94 377.81 639.41 377.81Q638.77 377.81 638.28 377.37Z" fill="#000000" />
</svg>
