<svg viewBox="0 0 759 431" xmlns="http://www.w3.org/2000/svg">
<rect width="100%" height="100%" fill="#FFFFFF" />
<path stroke="#000000" stroke-width="6" d="M33 371L33 30M66 371L66 30M123 371L123 30M150 371L150 30M174 371L174 30M222 371L222 30M336 371L336 30M408 371L408 30M450 371L450 30M504 371L504 30M528 371L528 30M606 371L606 30M681 371L681 30M693 371L693 30M726 371L726 30" />
<path stroke="#000000" stroke-width="3" d="M40.50 371L40.50 30M49.50 371L49.50 30M79.50 371L79.50 30M91.50 371L91.50 30M97.50 371L97.50 30M142.50 371L142.50 30M163.50 371L163.50 30M196.50 371L196.50 30M229.50 371L229.50 30M289.50 371L289.50 30M310.50 371L310.50 30M316.50 371L316.50 30M328.50 371L328.50 30M352.50 371L352.50 30M361.50 371L361.50 30M385.50 371L385.50 30M415.50 371L415.50 30M427.50 371L427.50 30M460.50 371L460.50 30M493.50 371L493.50 30M538.50 371L538.50 30M559.50 371L559.50 30M625.50 371L625.50 30M652.50 371L652.50 30M658.50 371L658.50 30M718.50 371L718.50 30" />
<path stroke="#000000" stroke-width="9" d="M106.50 371L106.50 30M133.50 371L133.50 30M184.50 371L184.50 30M208.50 371L208.50 30M238.50 371L238.50 30M280.50 371L280.50 30M397.50 371L397.50 30M439.50 371L439.50 30M484.50 371L484.50 30M514.50 371L514.50 30M547.50 371L547.50 30M568.50 371L568.50 30M595.50 371L595.50 30M616.50 371L616.50 30M667.50 371L667.50 30M709.50 371L709.50 30" />
<path stroke="#000000" stroke-width="12" d="M252 371L252 30M267 371L267 30M300 371L300 30M375 371L375 30M471 371L471 30M582 371L582 30M639 371L639 30" />
<path d="M108.73 398.29Q108.23 397.78 108.23 397.10Q108.23 396.39 108.69 395.89Q109.15 395.41 109.82 395.41L113.20 395.41L113.20 376.59L110.52 376.59Q109.89 376.59 109.43 376.08Q108.94 375.57 108.94 374.90Q108.94 374.22 109.40 373.71Q109.85 373.20 110.52 373.20L118.85 373.20Q119.52 373.20 119.97 373.71Q120.43 374.22 120.43 374.90Q120.43 375.57 119.94 376.08Q119.48 376.59 118.85 376.59L116.17 376.59L116.17 395.41L119.55 395.41Q120.22 395.41 120.68 395.89Q121.14 396.39 121.14 397.10Q121.14 397.78 120.64 398.29Q120.19 398.80 119.55 398.80L109.82 398.80Q109.18 398.80 108.73 398.29ZM131.21 398.86Q130.72 398.36 130.72 397.65L130.72 374.46Q130.72 373.75 131.17 373.27Q131.67 372.76 132.30 372.76L133.61 372.76Q134.03 372.76 134.42 373.04Q134.84 373.27 135.02 373.71L143.48 392.91L143.48 374.39Q143.48 373.71 143.94 373.24Q144.43 372.73 145.07 372.73Q145.70 372.73 146.16 373.24Q146.65 373.71 146.65 374.42L146.65 397.61Q146.65 398.32 146.16 398.83Q145.70 399.34 145.07 399.34L143.73 399.34Q142.74 399.34 142.32 398.42L133.89 379.23L133.89 397.68Q133.89 398.36 133.40 398.86Q132.94 399.37 132.30 399.37Q131.67 399.37 131.21 398.86ZM160.00 398.15L154.19 374.46Q154.19 373.78 154.68 373.31Q155.17 372.80 155.81 372.80Q156.34 372.80 156.76 373.17Q157.22 373.51 157.32 373.98L162.68 395.65L168.01 373.98Q168.22 373.48 168.61 373.14Q169.03 372.80 169.56 372.80Q170.20 372.80 170.69 373.31Q171.18 373.81 171.18 374.46L165.29 398.15Q165.19 398.66 164.76 399.03Q164.34 399.37 163.85 399.37L161.52 399.37Q161.03 399.37 160.57 399Q160.11 398.63 160.00 398.15ZM178.40 386.61L178.40 385.66Q178.40 385.02 178.86 384.58Q179.31 384.14 179.98 384.14L194.09 384.14Q194.76 384.14 195.22 384.61Q195.68 385.05 195.68 385.66L195.68 386.61Q195.68 387.22 195.22 387.69Q194.76 388.13 194.09 388.13L179.98 388.13Q179.31 388.13 178.86 387.69Q178.40 387.25 178.40 386.61ZM204.77 380.92Q204.31 380.45 204.31 379.84Q204.31 379.13 204.77 378.79L211.23 373.48Q211.68 373.10 212.25 373.10L213.38 373.10Q214.01 373.10 214.47 373.58Q214.96 374.02 214.96 374.63L214.96 397.65Q214.96 398.26 214.47 398.73Q214.01 399.17 213.38 399.17Q212.74 399.17 212.25 398.73Q211.79 398.29 211.79 397.65L211.79 377.03L206.96 380.99Q206.50 381.36 205.90 381.36Q205.23 381.36 204.77 380.92ZM228.68 375.78Q228.22 375.30 228.22 374.66Q228.22 374.02 228.68 373.58Q229.14 373.14 229.81 373.14L243.56 373.14Q244.23 373.14 244.69 373.61Q245.15 374.05 245.15 374.66Q245.15 377.23 243.07 380.25Q242.43 381.19 240.60 383.39Q238.76 385.63 237.99 387.02Q235.70 391.08 235.70 397.61Q235.70 398.26 235.24 398.73Q234.78 399.17 234.18 399.17Q233.58 399.17 233.12 398.73Q232.66 398.29 232.66 397.61Q232.66 390.23 235.34 385.46Q236.16 384.07 237.99 381.74Q239.86 379.37 240.46 378.49Q241.30 377.13 241.62 376.45L241.69 376.22L229.81 376.22Q229.17 376.22 228.68 375.78ZM252.68 375.78Q252.22 375.30 252.22 374.66Q252.22 374.02 252.68 373.58Q253.14 373.14 253.81 373.14L267.56 373.14Q268.23 373.14 268.69 373.61Q269.15 374.05 269.15 374.66Q269.15 377.23 267.07 380.25Q266.43 381.19 264.60 383.39Q262.76 385.63 261.99 387.02Q259.70 391.08 259.70 397.61Q259.70 398.26 259.24 398.73Q258.78 399.17 258.18 399.17Q257.58 399.17 257.12 398.73Q256.66 398.29 256.66 397.61Q256.66 390.23 259.34 385.46Q260.16 384.07 261.99 381.74Q263.86 379.37 264.46 378.49Q265.30 377.13 265.62 376.45L265.69 376.22L253.81 376.22Q253.17 376.22 252.68 375.78ZM280.95 377.71Q279.40 379.33 279.40 381.60Q279.40 383.80 280.88 385.19Q282.29 386.54 284.68 386.54Q288.88 386.54 289.62 384.07Q289.97 382.95 289.97 381.60Q289.97 379.06 288.49 377.57Q287.05 376.05 284.68 376.05Q282.46 376.05 280.95 377.71M278.62 387.29Q276.22 385.02 276.22 381.60Q276.22 378.08 278.76 375.54Q281.23 373.00 284.68 373.00Q288.25 373.00 290.68 375.37Q293.15 377.74 293.15 381.60Q293.15 384.00 292.41 385.93Q291.67 387.86 290.33 390.10Q287.40 395.01 283.17 398.76Q282.71 399.17 282.18 399.17Q281.58 399.17 281.12 398.73Q280.66 398.29 280.66 397.65Q280.66 397.00 281.16 396.53Q284.51 393.45 286.91 389.72L287.08 389.39L286.73 389.45Q285.81 389.59 284.68 389.59Q280.95 389.59 278.62 387.29ZM300.68 375.78Q300.22 375.30 300.22 374.66Q300.22 374.02 300.68 373.58Q301.14 373.14 301.81 373.14L315.56 373.14Q316.23 373.14 316.69 373.61Q317.15 374.05 317.15 374.66Q317.15 377.23 315.07 380.25Q314.43 381.19 312.60 383.39Q310.76 385.63 309.99 387.02Q307.70 391.08 307.70 397.61Q307.70 398.26 307.24 398.73Q306.78 399.17 306.18 399.17Q305.58 399.17 305.12 398.73Q304.66 398.29 304.66 397.61Q304.66 390.23 307.34 385.46Q308.16 384.07 309.99 381.74Q311.86 379.37 312.46 378.49Q313.30 377.13 313.62 376.45L313.69 376.22L301.81 376.22Q301.17 376.22 300.68 375.78ZM324.68 375.78Q324.22 375.30 324.22 374.66Q324.22 374.02 324.68 373.58Q325.14 373.14 325.81 373.14L339.56 373.14Q340.23 373.14 340.69 373.61Q341.15 374.05 341.15 374.66Q341.15 377.23 339.07 380.25Q338.43 381.19 336.60 383.39Q334.76 385.63 333.99 387.02Q331.70 391.08 331.70 397.61Q331.70 398.26 331.24 398.73Q330.78 399.17 330.18 399.17Q329.58 399.17 329.12 398.73Q328.66 398.29 328.66 397.61Q328.66 390.23 331.34 385.46Q332.16 384.07 333.99 381.74Q335.86 379.37 336.46 378.49Q337.30 377.13 337.62 376.45L337.69 376.22L325.81 376.22Q325.17 376.22 324.68 375.78ZM356.83 399.27L356.68 399.27Q354.60 399.24 353.05 398.59Q351.50 397.98 350.58 397.00Q349.67 395.99 349.14 394.40Q348.57 392.81 348.40 391.18Q348.22 389.59 348.22 387.42Q348.22 385.49 348.26 384.14Q348.33 382.75 348.54 381.16Q348.75 379.54 349.10 378.45Q349.49 377.33 350.13 376.22Q350.76 375.13 351.64 374.49Q352.52 373.85 353.79 373.44Q355.06 373.04 356.68 373.04Q358.27 373.04 359.54 373.44Q360.81 373.85 361.69 374.49Q362.57 375.13 363.24 376.22Q363.88 377.33 364.23 378.45Q364.62 379.57 364.83 381.16Q365.04 382.75 365.08 384.14Q365.15 385.53 365.15 387.42Q365.15 388.78 365.08 389.89Q365.01 390.98 364.76 392.26Q364.55 393.55 364.20 394.53Q363.84 395.48 363.17 396.39Q362.50 397.31 361.66 397.92Q360.81 398.53 359.58 398.90Q358.34 399.27 356.83 399.27M351.40 384.65L351.40 387.42Q351.40 388.95 351.47 390.03Q351.57 391.11 351.89 392.37Q352.17 393.62 352.74 394.40Q353.30 395.21 354.29 395.75Q355.27 396.26 356.68 396.26L357.42 396.26Q358.41 396.26 359.19 395.89Q359.96 395.48 360.42 394.73Q360.92 394.02 361.23 393.21Q361.55 392.37 361.69 391.32Q361.87 390.23 361.90 389.35Q361.97 388.47 361.97 387.42L361.97 385.87Q361.97 384.82 361.94 384.21Q361.94 383.56 361.90 382.62Q361.87 381.63 361.76 381.09Q361.66 380.52 361.48 379.74Q361.30 378.96 361.02 378.49Q360.74 378.01 360.35 377.50Q359.93 377.00 359.43 376.73Q358.91 376.42 358.20 376.25Q357.53 376.08 356.68 376.08Q355.80 376.08 355.10 376.29Q354.43 376.45 353.90 376.79Q353.37 377.13 352.95 377.64Q352.56 378.11 352.28 378.72Q351.99 379.30 351.82 380.01Q351.64 380.69 351.57 381.46Q351.50 382.21 351.43 383.02Q351.40 383.80 351.40 384.65ZM377.93 376.73Q376.59 377.40 376.59 378.69Q376.59 379.54 376.91 380.18Q377.23 380.82 377.97 381.36Q378.67 381.87 379.13 382.14Q379.63 382.41 380.61 382.89L380.68 382.89L380.75 382.89Q381.74 382.45 382.24 382.18Q382.73 381.90 383.43 381.40Q384.14 380.86 384.46 380.21Q384.77 379.54 384.77 378.69Q384.77 377.40 383.43 376.73Q382.13 376.05 380.68 376.05Q379.24 376.05 377.93 376.73M380.68 386.37Q375.36 389.05 375.36 392.23Q375.36 394.13 376.95 395.17Q378.43 396.22 380.68 396.22L381.39 396.22Q383.26 396.22 384.60 395.04Q385.97 393.85 385.97 392.23Q385.97 389.01 380.83 386.37L380.75 386.31L380.68 386.37M374.65 397.31Q372.22 395.34 372.22 392.23Q372.22 388.13 377.23 384.82L377.44 384.68L377.23 384.55Q373.42 382.31 373.42 378.69Q373.42 376.22 375.68 374.63Q377.90 373.00 380.68 373.00Q383.43 373.00 385.69 374.63Q387.95 376.25 387.95 378.69Q387.95 380.69 386.96 382.07Q385.94 383.43 384.14 384.55L383.93 384.68L384.14 384.82Q389.15 388.13 389.15 392.23Q389.15 394.90 387.10 396.97Q385.06 399.03 382.17 399.27L380.68 399.27Q377.05 399.27 374.65 397.31ZM396.68 392.84Q396.22 392.40 396.22 391.76L396.22 390.30Q396.22 390.03 396.40 389.66L403.91 373.98Q404.05 373.61 404.44 373.37Q404.83 373.10 405.25 373.10Q405.88 373.10 406.34 373.58Q406.80 374.02 406.80 374.63Q406.80 374.97 406.62 375.27L399.57 390.23L406.45 390.23L406.45 386.14Q406.45 385.53 406.91 385.09Q407.36 384.61 407.96 384.61Q408.56 384.61 409.02 385.09Q409.52 385.53 409.52 386.14L409.52 390.23L411.56 390.23Q412.23 390.23 412.69 390.71Q413.15 391.15 413.15 391.76Q413.15 392.37 412.65 392.84Q412.20 393.28 411.56 393.28L409.52 393.28L409.52 397.65Q409.52 398.26 409.02 398.70Q408.56 399.17 407.96 399.17Q407.36 399.17 406.91 398.73Q406.45 398.26 406.45 397.65L406.45 393.28L397.81 393.28Q397.17 393.28 396.68 392.84ZM421.60 398.83Q421.14 398.39 421.14 397.75Q421.14 397.07 421.60 396.63Q422.09 396.19 422.73 396.19Q429.85 396.19 431.93 392.37Q432.56 391.21 432.56 390.16Q432.56 387.69 431.36 386.44Q429.78 384.65 425.79 384.65Q424.70 384.65 423.57 384.75L423.43 384.75Q422.80 384.75 422.30 384.34Q421.84 383.90 421.84 383.29L421.84 383.19L422.34 374.56Q422.41 373.95 422.83 373.54Q423.29 373.14 423.92 373.14L433.94 373.14Q434.61 373.14 435.07 373.61Q435.53 374.05 435.53 374.66Q435.53 375.27 435.03 375.74Q434.57 376.22 433.94 376.22L425.41 376.22L425.12 381.53L425.79 381.53Q430.27 381.53 432.99 383.73Q435.74 385.90 435.74 390.16Q435.74 391.96 434.93 393.52Q434.08 395.11 432.81 396.22Q429.42 399.27 422.73 399.27Q422.09 399.27 421.60 398.83M423.54 384.75Q423.54 384.75 423.57 384.75Q423.57 384.75 423.54 384.75ZM444.68 375.78Q444.22 375.30 444.22 374.66Q444.22 374.02 444.68 373.58Q445.14 373.14 445.81 373.14L459.56 373.14Q460.23 373.14 460.69 373.61Q461.15 374.05 461.15 374.66Q461.15 377.23 459.07 380.25Q458.43 381.19 456.60 383.39Q454.76 385.63 453.99 387.02Q451.70 391.08 451.70 397.61Q451.70 398.26 451.24 398.73Q450.78 399.17 450.18 399.17Q449.58 399.17 449.12 398.73Q448.66 398.29 448.66 397.61Q448.66 390.23 451.34 385.46Q452.16 384.07 453.99 381.74Q455.86 379.37 456.46 378.49Q457.30 377.13 457.62 376.45L457.69 376.22L445.81 376.22Q445.17 376.22 444.68 375.78ZM469.77 380.92Q469.31 380.45 469.31 379.84Q469.31 379.13 469.77 378.79L476.23 373.48Q476.68 373.10 477.25 373.10L478.38 373.10Q479.01 373.10 479.47 373.58Q479.96 374.02 479.96 374.63L479.96 397.65Q479.96 398.26 479.47 398.73Q479.01 399.17 478.38 399.17Q477.74 399.17 477.25 398.73Q476.79 398.29 476.79 397.65L476.79 377.03L471.96 380.99Q471.50 381.36 470.90 381.36Q470.23 381.36 469.77 380.92ZM495.69 397.07Q493.33 394.87 493.22 391.25L493.22 390.84Q493.22 386.61 495.65 382.75Q496.64 381.16 498.05 379.40Q499.43 377.61 500.38 376.56Q501.33 375.47 503.09 373.54Q503.48 373.10 504.19 373.10Q504.79 373.10 505.25 373.58Q505.70 374.02 505.70 374.63Q505.70 375.20 505.32 375.68Q501.33 380.01 499.46 382.62L499.22 382.95L499.60 382.89Q500.63 382.68 501.68 382.68Q505.53 382.68 507.82 384.99Q510.15 387.32 510.15 391.25Q510.15 394.80 507.75 397.04Q505.35 399.27 501.68 399.27Q498.02 399.27 495.69 397.07M497.81 387.22Q496.40 388.68 496.40 391.25Q496.40 393.55 497.88 394.90Q499.32 396.22 501.68 396.22Q504.01 396.22 505.46 394.87Q506.97 393.52 506.97 391.25Q506.97 388.61 505.60 387.19Q504.26 385.73 501.68 385.73Q499.18 385.73 497.81 387.22ZM517.40 386.61L517.40 385.66Q517.40 385.02 517.86 384.58Q518.31 384.14 518.98 384.14L533.09 384.14Q533.76 384.14 534.22 384.61Q534.68 385.05 534.68 385.66L534.68 386.61Q534.68 387.22 534.22 387.69Q533.76 388.13 533.09 388.13L518.98 388.13Q518.31 388.13 517.86 387.69Q517.40 387.25 517.40 386.61ZM542.96 397.98Q542.22 397.44 542.22 396.63Q542.22 395.99 542.68 395.55Q543.17 395.07 543.81 395.07Q544.02 395.07 544.41 395.21Q546.66 396.19 549.13 396.19Q551.81 396.19 553.65 394.90Q555.52 393.58 555.66 391.08L555.66 390.74Q555.66 389.01 554.53 387.80Q553.47 386.61 551.92 386.10Q550.40 385.63 548.53 385.63Q547.93 385.63 547.48 385.19Q547.02 384.71 547.02 384.07Q547.02 383.46 547.33 383.12L553.82 376.22L543.91 376.22Q543.28 376.22 542.79 375.78Q542.33 375.30 542.33 374.66Q542.33 374.02 542.79 373.58Q543.24 373.14 543.91 373.14L556.36 373.14Q557.00 373.14 557.45 373.61Q557.95 374.05 557.95 374.66L557.95 375.88Q557.95 376.42 557.45 376.89L551.78 382.89L552.06 382.95Q555.06 383.70 556.96 385.70Q558.83 387.69 558.83 390.71L558.83 391.25Q558.65 394.94 555.83 397.10Q553.08 399.27 549.13 399.27Q548.15 399.27 547.16 399.17Q546.17 399.07 544.94 398.83Q543.70 398.56 542.96 397.98ZM567.28 377.37Q566.82 376.89 566.82 376.32Q566.82 375.47 567.49 375.03Q570.70 373.00 574.68 373.00Q577.89 373.00 580.04 374.97Q582.23 376.89 582.23 380.04Q582.23 381.30 581.77 382.45Q581.31 383.63 580.71 384.38Q580.15 385.12 579.02 386.03Q577.89 386.95 577.29 387.36Q576.73 387.76 575.50 388.54Q574.16 389.39 573.56 389.83Q572.96 390.27 572.11 391.15Q571.26 391.99 570.88 393.08Q570.49 394.13 570.42 395.58L570.42 395.75L580.86 395.75Q581.53 395.75 581.98 396.22Q582.44 396.66 582.44 397.27Q582.44 397.88 581.95 398.36Q581.49 398.80 580.86 398.80L568.80 398.80Q568.16 398.80 567.67 398.36Q567.21 397.88 567.21 397.27L567.21 396.56Q567.21 393.92 567.56 392.77Q568.16 390.74 569.82 389.15Q571.48 387.52 573.87 385.97Q577.19 383.83 578.07 382.62Q579.06 381.40 579.06 380.04Q579.06 378.25 577.75 377.13Q576.52 376.05 574.68 376.05Q571.51 376.05 569.32 377.54Q568.94 377.81 568.41 377.81Q567.77 377.81 567.28 377.37ZM590.96 397.98Q590.22 397.44 590.22 396.63Q590.22 395.99 590.68 395.55Q591.17 395.07 591.81 395.07Q592.02 395.07 592.41 395.21Q594.66 396.19 597.13 396.19Q599.81 396.19 601.65 394.90Q603.52 393.58 603.66 391.08L603.66 390.74Q603.66 389.01 602.53 387.80Q601.47 386.61 599.92 386.10Q598.40 385.63 596.53 385.63Q595.93 385.63 595.48 385.19Q595.02 384.71 595.02 384.07Q595.02 383.46 595.33 383.12L601.82 376.22L591.91 376.22Q591.28 376.22 590.79 375.78Q590.33 375.30 590.33 374.66Q590.33 374.02 590.79 373.58Q591.24 373.14 591.91 373.14L604.36 373.14Q605.00 373.14 605.45 373.61Q605.95 374.05 605.95 374.66L605.95 375.88Q605.95 376.42 605.45 376.89L599.78 382.89L600.06 382.95Q603.06 383.70 604.96 385.70Q606.83 387.69 606.83 390.71L606.83 391.25Q606.65 394.94 603.83 397.10Q601.08 399.27 597.13 399.27Q596.15 399.27 595.16 399.17Q594.17 399.07 592.94 398.83Q591.70 398.56 590.96 397.98ZM619.93 376.73Q618.59 377.40 618.59 378.69Q618.59 379.54 618.91 380.18Q619.23 380.82 619.97 381.36Q620.67 381.87 621.13 382.14Q621.63 382.41 622.61 382.89L622.68 382.89L622.75 382.89Q623.74 382.45 624.24 382.18Q624.73 381.90 625.43 381.40Q626.14 380.86 626.46 380.21Q626.77 379.54 626.77 378.69Q626.77 377.40 625.43 376.73Q624.13 376.05 622.68 376.05Q621.24 376.05 619.93 376.73M622.68 386.37Q617.36 389.05 617.36 392.23Q617.36 394.13 618.95 395.17Q620.43 396.22 622.68 396.22L623.39 396.22Q625.26 396.22 626.60 395.04Q627.97 393.85 627.97 392.23Q627.97 389.01 622.83 386.37L622.75 386.31L622.68 386.37M616.65 397.31Q614.22 395.34 614.22 392.23Q614.22 388.13 619.23 384.82L619.44 384.68L619.23 384.55Q615.42 382.31 615.42 378.69Q615.42 376.22 617.68 374.63Q619.90 373.00 622.68 373.00Q625.43 373.00 627.69 374.63Q629.95 376.25 629.95 378.69Q629.95 380.69 628.96 382.07Q627.94 383.43 626.14 384.55L625.93 384.68L626.14 384.82Q631.15 388.13 631.15 392.23Q631.15 394.90 629.10 396.97Q627.06 399.03 624.17 399.27L622.68 399.27Q619.05 399.27 616.65 397.31ZM639.60 398.83Q639.14 398.39 639.14 397.75Q639.14 397.07 639.60 396.63Q640.09 396.19 640.73 396.19Q647.85 396.19 649.93 392.37Q650.56 391.21 650.56 390.16Q650.56 387.69 649.36 386.44Q647.78 384.65 643.79 384.65Q642.70 384.65 641.57 384.75L641.43 384.75Q640.80 384.75 640.30 384.34Q639.84 383.90 639.84 383.29L639.84 383.19L640.34 374.56Q640.41 373.95 640.83 373.54Q641.29 373.14 641.92 373.14L651.94 373.14Q652.61 373.14 653.07 373.61Q653.53 374.05 653.53 374.66Q653.53 375.27 653.03 375.74Q652.57 376.22 651.94 376.22L643.41 376.22L643.12 381.53L643.79 381.53Q648.27 381.53 650.99 383.73Q653.74 385.90 653.74 390.16Q653.74 391.96 652.93 393.52Q652.08 395.11 650.81 396.22Q647.42 399.27 640.73 399.27Q640.09 399.27 639.60 398.83M641.54 384.75Q641.54 384.75 641.57 384.75Q641.57 384.75 641.54 384.75Z" fill="#000000" />
</svg>
