<svg viewBox="0 0 759 431" xmlns="http://www.w3.org/2000/svg">
<rect width="100%" height="100%" fill="#FFFFFF" />
<path stroke="#000000" stroke-width="6" d="M33 371L33 30M66 371L66 30M123 371L123 30M150 371L150 30M174 371L174 30M222 371L222 30M342 371L342 30M453 371L453 30M504 371L504 30M528 371L528 30M594 371L594 30M618 371L618 30M627 371L627 30M636 371L636 30M648 371L648 30M660 371L660 30M693 371L693 30M726 371L726 30" />
<path stroke="#000000" stroke-width="3" d="M40.50 371L40.50 30M49.50 371L49.50 30M79.50 371L79.50 30M91.50 371L91.50 30M97.50 371L97.50 30M142.50 371L142.50 30M163.50 371L163.50 30M196.50 371L196.50 30M229.50 371L229.50 30M289.50 371L289.50 30M295.50 371L295.50 30M316.50 371L316.50 30M328.50 371L328.50 30M352.50 371L352.50 30M361.50 371L361.50 30M367.50 371L367.50 30M394.50 371L394.50 30M403.50 371L403.50 30M427.50 371L427.50 30M439.50 371L439.50 30M460.50 371L460.50 30M493.50 371L493.50 30M538.50 371L538.50 30M559.50 371L559.50 30M667.50 371L667.50 30M718.50 371L718.50 30" />
<path stroke="#000000" stroke-width="9" d="M106.50 371L106.50 30M133.50 371L133.50 30M184.50 371L184.50 30M208.50 371L208.50 30M238.50 371L238.50 30M280.50 371L280.50 30M484.50 371L484.50 30M514.50 371L514.50 30M550.50 371L550.50 30M568.50 371L568.50 30M682.50 371L682.50 30M709.50 371L709.50 30" />
<path stroke="#000000" stroke-width="12" d="M252 371L252 30M267 371L267 30M306 371L306 30M378 371L378 30M414 371L414 30M471 371L471 30M582 371L582 30M606 371L606 30" />
<path d="M107.73 398.29Q107.23 397.78 107.23 397.10Q107.23 396.39 107.69 395.89Q108.15 395.41 108.82 395.41L112.20 395.41L112.20 376.59L109.52 376.59Q108.89 376.59 108.43 376.08Q107.94 375.57 107.94 374.90Q107.94 374.22 108.40 373.71Q108.85 373.20 109.52 373.20L117.85 373.20Q118.52 373.20 118.97 373.71Q119.43 374.22 119.43 374.90Q119.43 375.57 118.94 376.08Q118.48 376.59 117.85 376.59L115.17 376.59L115.17 395.41L118.55 395.41Q119.22 395.41 119.68 395.89Q120.14 396.39 120.14 397.10Q120.14 397.78 119.64 398.29Q119.19 398.80 118.55 398.80L108.82 398.80Q108.18 398.80 107.73 398.29ZM130.21 398.86Q129.72 398.36 129.72 397.65L129.72 374.46Q129.72 373.75 130.17 373.27Q130.67 372.76 131.30 372.76L132.61 372.76Q133.03 372.76 133.42 373.04Q133.84 373.27 134.02 373.71L142.48 392.91L142.48 374.39Q142.48 373.71 142.94 373.24Q143.43 372.73 144.07 372.73Q144.70 372.73 145.16 373.24Q145.65 373.71 145.65 374.42L145.65 397.61Q145.65 398.32 145.16 398.83Q144.70 399.34 144.07 399.34L142.73 399.34Q141.74 399.34 141.32 398.42L132.89 379.23L132.89 397.68Q132.89 398.36 132.40 398.86Q131.94 399.37 131.30 399.37Q130.67 399.37 130.21 398.86ZM159.00 398.15L153.19 374.46Q153.19 373.78 153.68 373.31Q154.17 372.80 154.81 372.80Q155.34 372.80 155.76 373.17Q156.22 373.51 156.32 373.98L161.68 395.65L167.01 373.98Q167.22 373.48 167.61 373.14Q168.03 372.80 168.56 372.80Q169.20 372.80 169.69 373.31Q170.18 373.81 170.18 374.46L164.29 398.15Q164.19 398.66 163.76 399.03Q163.34 399.37 162.85 399.37L160.52 399.37Q160.03 399.37 159.57 399Q159.11 398.63 159.00 398.15ZM177.40 386.61L177.40 385.66Q177.40 385.02 177.86 384.58Q178.31 384.14 178.98 384.14L193.09 384.14Q193.76 384.14 194.22 384.61Q194.68 385.05 194.68 385.66L194.68 386.61Q194.68 387.22 194.22 387.69Q193.76 388.13 193.09 388.13L178.98 388.13Q178.31 388.13 177.86 387.69Q177.40 387.25 177.40 386.61ZM203.77 380.92Q203.31 380.45 203.31 379.84Q203.31 379.13 203.77 378.79L210.23 373.48Q210.68 373.10 211.25 373.10L212.38 373.10Q213.01 373.10 213.47 373.58Q213.96 374.02 213.96 374.63L213.96 397.65Q213.96 398.26 213.47 398.73Q213.01 399.17 212.38 399.17Q211.74 399.17 211.25 398.73Q210.79 398.29 210.79 397.65L210.79 377.03L205.96 380.99Q205.50 381.36 204.90 381.36Q204.23 381.36 203.77 380.92ZM227.68 375.78Q227.22 375.30 227.22 374.66Q227.22 374.02 227.68 373.58Q228.14 373.14 228.81 373.14L242.56 373.14Q243.23 373.14 243.69 373.61Q244.15 374.05 244.15 374.66Q244.15 377.23 242.07 380.25Q241.43 381.19 239.60 383.39Q237.76 385.63 236.99 387.02Q234.70 391.08 234.70 397.61Q234.70 398.26 234.24 398.73Q233.78 399.17 233.18 399.17Q232.58 399.17 232.12 398.73Q231.66 398.29 231.66 397.61Q231.66 390.23 234.34 385.46Q235.16 384.07 236.99 381.74Q238.86 379.37 239.46 378.49Q240.30 377.13 240.62 376.45L240.69 376.22L228.81 376.22Q228.17 376.22 227.68 375.78ZM251.68 375.78Q251.22 375.30 251.22 374.66Q251.22 374.02 251.68 373.58Q252.14 373.14 252.81 373.14L266.56 373.14Q267.23 373.14 267.69 373.61Q268.15 374.05 268.15 374.66Q268.15 377.23 266.07 380.25Q265.43 381.19 263.60 383.39Q261.76 385.63 260.99 387.02Q258.70 391.08 258.70 397.61Q258.70 398.26 258.24 398.73Q257.78 399.17 257.18 399.17Q256.58 399.17 256.12 398.73Q255.66 398.29 255.66 397.61Q255.66 390.23 258.34 385.46Q259.16 384.07 260.99 381.74Q262.86 379.37 263.46 378.49Q264.30 377.13 264.62 376.45L264.69 376.22L252.81 376.22Q252.17 376.22 251.68 375.78ZM279.95 377.71Q278.40 379.33 278.40 381.60Q278.40 383.80 279.88 385.19Q281.29 386.54 283.68 386.54Q287.88 386.54 288.62 384.07Q288.97 382.95 288.97 381.60Q288.97 379.06 287.49 377.57Q286.05 376.05 283.68 376.05Q281.46 376.05 279.95 377.71M277.62 387.29Q275.22 385.02 275.22 381.60Q275.22 378.08 277.76 375.54Q280.23 373.00 283.68 373.00Q287.25 373.00 289.68 375.37Q292.15 377.74 292.15 381.60Q292.15 384.00 291.41 385.93Q290.67 387.86 289.33 390.10Q286.40 395.01 282.17 398.76Q281.71 399.17 281.18 399.17Q280.58 399.17 280.12 398.73Q279.66 398.29 279.66 397.65Q279.66 397.00 280.16 396.53Q283.51 393.45 285.91 389.72L286.08 389.39L285.73 389.45Q284.81 389.59 283.68 389.59Q279.95 389.59 277.62 387.29ZM300.60 398.83Q300.14 398.39 300.14 397.75Q300.14 397.07 300.60 396.63Q301.09 396.19 301.73 396.19Q308.85 396.19 310.93 392.37Q311.56 391.21 311.56 390.16Q311.56 387.69 310.36 386.44Q308.78 384.65 304.79 384.65Q303.70 384.65 302.57 384.75L302.43 384.75Q301.80 384.75 301.30 384.34Q300.84 383.90 300.84 383.29L300.84 383.19L301.34 374.56Q301.41 373.95 301.83 373.54Q302.29 373.14 302.92 373.14L312.94 373.14Q313.61 373.14 314.07 373.61Q314.53 374.05 314.53 374.66Q314.53 375.27 314.03 375.74Q313.57 376.22 312.94 376.22L304.41 376.22L304.12 381.53L304.79 381.53Q309.27 381.53 311.99 383.73Q314.74 385.90 314.74 390.16Q314.74 391.96 313.93 393.52Q313.08 395.11 311.81 396.22Q308.42 399.27 301.73 399.27Q301.09 399.27 300.60 398.83M302.54 384.75Q302.54 384.75 302.57 384.75Q302.57 384.75 302.54 384.75ZM331.83 399.27L331.68 399.27Q329.60 399.24 328.05 398.59Q326.50 397.98 325.58 397.00Q324.67 395.99 324.14 394.40Q323.57 392.81 323.40 391.18Q323.22 389.59 323.22 387.42Q323.22 385.49 323.26 384.14Q323.33 382.75 323.54 381.16Q323.75 379.54 324.10 378.45Q324.49 377.33 325.13 376.22Q325.76 375.13 326.64 374.49Q327.52 373.85 328.79 373.44Q330.06 373.04 331.68 373.04Q333.27 373.04 334.54 373.44Q335.81 373.85 336.69 374.49Q337.57 375.13 338.24 376.22Q338.88 377.33 339.23 378.45Q339.62 379.57 339.83 381.16Q340.04 382.75 340.08 384.14Q340.15 385.53 340.15 387.42Q340.15 388.78 340.08 389.89Q340.01 390.98 339.76 392.26Q339.55 393.55 339.20 394.53Q338.84 395.48 338.17 396.39Q337.50 397.31 336.66 397.92Q335.81 398.53 334.58 398.90Q333.34 399.27 331.83 399.27M326.40 384.65L326.40 387.42Q326.40 388.95 326.47 390.03Q326.57 391.11 326.89 392.37Q327.17 393.62 327.74 394.40Q328.30 395.21 329.29 395.75Q330.27 396.26 331.68 396.26L332.42 396.26Q333.41 396.26 334.19 395.89Q334.96 395.48 335.42 394.73Q335.92 394.02 336.23 393.21Q336.55 392.37 336.69 391.32Q336.87 390.23 336.90 389.35Q336.97 388.47 336.97 387.42L336.97 385.87Q336.97 384.82 336.94 384.21Q336.94 383.56 336.90 382.62Q336.87 381.63 336.76 381.09Q336.66 380.52 336.48 379.74Q336.30 378.96 336.02 378.49Q335.74 378.01 335.35 377.50Q334.93 377.00 334.43 376.73Q333.91 376.42 333.20 376.25Q332.53 376.08 331.68 376.08Q330.80 376.08 330.10 376.29Q329.43 376.45 328.90 376.79Q328.37 377.13 327.95 377.64Q327.56 378.11 327.28 378.72Q326.99 379.30 326.82 380.01Q326.64 380.69 326.57 381.46Q326.50 382.21 326.43 383.02Q326.40 383.80 326.40 384.65ZM352.93 376.73Q351.59 377.40 351.59 378.69Q351.59 379.54 351.91 380.18Q352.23 380.82 352.97 381.36Q353.67 381.87 354.13 382.14Q354.63 382.41 355.61 382.89L355.68 382.89L355.75 382.89Q356.74 382.45 357.24 382.18Q357.73 381.90 358.43 381.40Q359.14 380.86 359.46 380.21Q359.77 379.54 359.77 378.69Q359.77 377.40 358.43 376.73Q357.13 376.05 355.68 376.05Q354.24 376.05 352.93 376.73M355.68 386.37Q350.36 389.05 350.36 392.23Q350.36 394.13 351.95 395.17Q353.43 396.22 355.68 396.22L356.39 396.22Q358.26 396.22 359.60 395.04Q360.97 393.85 360.97 392.23Q360.97 389.01 355.83 386.37L355.75 386.31L355.68 386.37M349.65 397.31Q347.22 395.34 347.22 392.23Q347.22 388.13 352.23 384.82L352.44 384.68L352.23 384.55Q348.42 382.31 348.42 378.69Q348.42 376.22 350.68 374.63Q352.90 373.00 355.68 373.00Q358.43 373.00 360.69 374.63Q362.95 376.25 362.95 378.69Q362.95 380.69 361.96 382.07Q360.94 383.43 359.14 384.55L358.93 384.68L359.14 384.82Q364.15 388.13 364.15 392.23Q364.15 394.90 362.10 396.97Q360.06 399.03 357.17 399.27L355.68 399.27Q352.05 399.27 349.65 397.31ZM375.95 377.71Q374.40 379.33 374.40 381.60Q374.40 383.80 375.88 385.19Q377.29 386.54 379.68 386.54Q383.88 386.54 384.62 384.07Q384.97 382.95 384.97 381.60Q384.97 379.06 383.49 377.57Q382.05 376.05 379.68 376.05Q377.46 376.05 375.95 377.71M373.62 387.29Q371.22 385.02 371.22 381.60Q371.22 378.08 373.76 375.54Q376.23 373.00 379.68 373.00Q383.25 373.00 385.68 375.37Q388.15 377.74 388.15 381.60Q388.15 384.00 387.41 385.93Q386.67 387.86 385.33 390.10Q382.40 395.01 378.17 398.76Q377.71 399.17 377.18 399.17Q376.58 399.17 376.12 398.73Q375.66 398.29 375.66 397.65Q375.66 397.00 376.16 396.53Q379.51 393.45 381.91 389.72L382.08 389.39L381.73 389.45Q380.81 389.59 379.68 389.59Q375.95 389.59 373.62 387.29ZM396.28 377.37Q395.82 376.89 395.82 376.32Q395.82 375.47 396.49 375.03Q399.70 373.00 403.68 373.00Q406.89 373.00 409.04 374.97Q411.23 376.89 411.23 380.04Q411.23 381.30 410.77 382.45Q410.31 383.63 409.71 384.38Q409.15 385.12 408.02 386.03Q406.89 386.95 406.29 387.36Q405.73 387.76 404.50 388.54Q403.16 389.39 402.56 389.83Q401.96 390.27 401.11 391.15Q400.26 391.99 399.88 393.08Q399.49 394.13 399.42 395.58L399.42 395.75L409.86 395.75Q410.53 395.75 410.98 396.22Q411.44 396.66 411.44 397.27Q411.44 397.88 410.95 398.36Q410.49 398.80 409.86 398.80L397.80 398.80Q397.16 398.80 396.67 398.36Q396.21 397.88 396.21 397.27L396.21 396.56Q396.21 393.92 396.56 392.77Q397.16 390.74 398.82 389.15Q400.48 387.52 402.87 385.97Q406.19 383.83 407.07 382.62Q408.06 381.40 408.06 380.04Q408.06 378.25 406.75 377.13Q405.52 376.05 403.68 376.05Q400.51 376.05 398.32 377.54Q397.94 377.81 397.41 377.81Q396.77 377.81 396.28 377.37ZM424.93 376.73Q423.59 377.40 423.59 378.69Q423.59 379.54 423.91 380.18Q424.23 380.82 424.97 381.36Q425.67 381.87 426.13 382.14Q426.63 382.41 427.61 382.89L427.68 382.89L427.75 382.89Q428.74 382.45 429.24 382.18Q429.73 381.90 430.43 381.40Q431.14 380.86 431.46 380.21Q431.77 379.54 431.77 378.69Q431.77 377.40 430.43 376.73Q429.13 376.05 427.68 376.05Q426.24 376.05 424.93 376.73M427.68 386.37Q422.36 389.05 422.36 392.23Q422.36 394.13 423.95 395.17Q425.43 396.22 427.68 396.22L428.39 396.22Q430.26 396.22 431.60 395.04Q432.97 393.85 432.97 392.23Q432.97 389.01 427.83 386.37L427.75 386.31L427.68 386.37M421.65 397.31Q419.22 395.34 419.22 392.23Q419.22 388.13 424.23 384.82L424.44 384.68L424.23 384.55Q420.42 382.31 420.42 378.69Q420.42 376.22 422.68 374.63Q424.90 373.00 427.68 373.00Q430.43 373.00 432.69 374.63Q434.95 376.25 434.95 378.69Q434.95 380.69 433.96 382.07Q432.94 383.43 431.14 384.55L430.93 384.68L431.14 384.82Q436.15 388.13 436.15 392.23Q436.15 394.90 434.10 396.97Q432.06 399.03 429.17 399.27L427.68 399.27Q424.05 399.27 421.65 397.31ZM444.77 380.92Q444.31 380.45 444.31 379.84Q444.31 379.13 444.77 378.79L451.23 373.48Q451.68 373.10 452.25 373.10L453.38 373.10Q454.01 373.10 454.47 373.58Q454.96 374.02 454.96 374.63L454.96 397.65Q454.96 398.26 454.47 398.73Q454.01 399.17 453.38 399.17Q452.74 399.17 452.25 398.73Q451.79 398.29 451.79 397.65L451.79 377.03L446.96 380.99Q446.50 381.36 445.90 381.36Q445.23 381.36 444.77 380.92ZM468.96 397.98Q468.22 397.44 468.22 396.63Q468.22 395.99 468.68 395.55Q469.17 395.07 469.81 395.07Q470.02 395.07 470.41 395.21Q472.66 396.19 475.13 396.19Q477.81 396.19 479.65 394.90Q481.52 393.58 481.66 391.08L481.66 390.74Q481.66 389.01 480.53 387.80Q479.47 386.61 477.92 386.10Q476.40 385.63 474.53 385.63Q473.93 385.63 473.48 385.19Q473.02 384.71 473.02 384.07Q473.02 383.46 473.33 383.12L479.82 376.22L469.91 376.22Q469.28 376.22 468.79 375.78Q468.33 375.30 468.33 374.66Q468.33 374.02 468.79 373.58Q469.24 373.14 469.91 373.14L482.36 373.14Q483.00 373.14 483.45 373.61Q483.95 374.05 483.95 374.66L483.95 375.88Q483.95 376.42 483.45 376.89L477.78 382.89L478.06 382.95Q481.06 383.70 482.96 385.70Q484.83 387.69 484.83 390.71L484.83 391.25Q484.65 394.94 481.83 397.10Q479.08 399.27 475.13 399.27Q474.15 399.27 473.16 399.17Q472.17 399.07 470.94 398.83Q469.70 398.56 468.96 397.98ZM493.60 398.83Q493.14 398.39 493.14 397.75Q493.14 397.07 493.60 396.63Q494.09 396.19 494.73 396.19Q501.85 396.19 503.93 392.37Q504.56 391.21 504.56 390.16Q504.56 387.69 503.36 386.44Q501.78 384.65 497.79 384.65Q496.70 384.65 495.57 384.75L495.43 384.75Q494.80 384.75 494.30 384.34Q493.84 383.90 493.84 383.29L493.84 383.19L494.34 374.56Q494.41 373.95 494.83 373.54Q495.29 373.14 495.92 373.14L505.94 373.14Q506.61 373.14 507.07 373.61Q507.53 374.05 507.53 374.66Q507.53 375.27 507.03 375.74Q506.57 376.22 505.94 376.22L497.41 376.22L497.12 381.53L497.79 381.53Q502.27 381.53 504.99 383.73Q507.74 385.90 507.74 390.16Q507.74 391.96 506.93 393.52Q506.08 395.11 504.81 396.22Q501.42 399.27 494.73 399.27Q494.09 399.27 493.60 398.83M495.54 384.75Q495.54 384.75 495.57 384.75Q495.57 384.75 495.54 384.75ZM516.40 386.61L516.40 385.66Q516.40 385.02 516.86 384.58Q517.31 384.14 517.98 384.14L532.09 384.14Q532.76 384.14 533.22 384.61Q533.68 385.05 533.68 385.66L533.68 386.61Q533.68 387.22 533.22 387.69Q532.76 388.13 532.09 388.13L517.98 388.13Q517.31 388.13 516.86 387.69Q516.40 387.25 516.40 386.61ZM541.68 392.84Q541.22 392.40 541.22 391.76L541.22 390.30Q541.22 390.03 541.40 389.66L548.91 373.98Q549.05 373.61 549.44 373.37Q549.83 373.10 550.25 373.10Q550.88 373.10 551.34 373.58Q551.80 374.02 551.80 374.63Q551.80 374.97 551.62 375.27L544.57 390.23L551.45 390.23L551.45 386.14Q551.45 385.53 551.91 385.09Q552.36 384.61 552.96 384.61Q553.56 384.61 554.02 385.09Q554.52 385.53 554.52 386.14L554.52 390.23L556.56 390.23Q557.23 390.23 557.69 390.71Q558.15 391.15 558.15 391.76Q558.15 392.37 557.65 392.84Q557.20 393.28 556.56 393.28L554.52 393.28L554.52 397.65Q554.52 398.26 554.02 398.70Q553.56 399.17 552.96 399.17Q552.36 399.17 551.91 398.73Q551.45 398.26 551.45 397.65L551.45 393.28L542.81 393.28Q542.17 393.28 541.68 392.84ZM569.95 377.71Q568.40 379.33 568.40 381.60Q568.40 383.80 569.88 385.19Q571.29 386.54 573.68 386.54Q577.88 386.54 578.62 384.07Q578.97 382.95 578.97 381.60Q578.97 379.06 577.49 377.57Q576.05 376.05 573.68 376.05Q571.46 376.05 569.95 377.71M567.62 387.29Q565.22 385.02 565.22 381.60Q565.22 378.08 567.76 375.54Q570.23 373.00 573.68 373.00Q577.25 373.00 579.68 375.37Q582.15 377.74 582.15 381.60Q582.15 384.00 581.41 385.93Q580.67 387.86 579.33 390.10Q576.40 395.01 572.17 398.76Q571.71 399.17 571.18 399.17Q570.58 399.17 570.12 398.73Q569.66 398.29 569.66 397.65Q569.66 397.00 570.16 396.53Q573.51 393.45 575.91 389.72L576.08 389.39L575.73 389.45Q574.81 389.59 573.68 389.59Q569.95 389.59 567.62 387.29ZM597.83 399.27L597.68 399.27Q595.60 399.24 594.05 398.59Q592.50 397.98 591.58 397.00Q590.67 395.99 590.14 394.40Q589.57 392.81 589.40 391.18Q589.22 389.59 589.22 387.42Q589.22 385.49 589.26 384.14Q589.33 382.75 589.54 381.16Q589.75 379.54 590.10 378.45Q590.49 377.33 591.13 376.22Q591.76 375.13 592.64 374.49Q593.52 373.85 594.79 373.44Q596.06 373.04 597.68 373.04Q599.27 373.04 600.54 373.44Q601.81 373.85 602.69 374.49Q603.57 375.13 604.24 376.22Q604.88 377.33 605.23 378.45Q605.62 379.57 605.83 381.16Q606.04 382.75 606.08 384.14Q606.15 385.53 606.15 387.42Q606.15 388.78 606.08 389.89Q606.01 390.98 605.76 392.26Q605.55 393.55 605.20 394.53Q604.84 395.48 604.17 396.39Q603.50 397.31 602.66 397.92Q601.81 398.53 600.58 398.90Q599.34 399.27 597.83 399.27M592.40 384.65L592.40 387.42Q592.40 388.95 592.47 390.03Q592.57 391.11 592.89 392.37Q593.17 393.62 593.74 394.40Q594.30 395.21 595.29 395.75Q596.27 396.26 597.68 396.26L598.42 396.26Q599.41 396.26 600.19 395.89Q600.96 395.48 601.42 394.73Q601.92 394.02 602.23 393.21Q602.55 392.37 602.69 391.32Q602.87 390.23 602.90 389.35Q602.97 388.47 602.97 387.42L602.97 385.87Q602.97 384.82 602.94 384.21Q602.94 383.56 602.90 382.62Q602.87 381.63 602.76 381.09Q602.66 380.52 602.48 379.74Q602.30 378.96 602.02 378.49Q601.74 378.01 601.35 377.50Q600.93 377.00 600.43 376.73Q599.91 376.42 599.20 376.25Q598.53 376.08 597.68 376.08Q596.80 376.08 596.10 376.29Q595.43 376.45 594.90 376.79Q594.37 377.13 593.95 377.64Q593.56 378.11 593.28 378.72Q592.99 379.30 592.82 380.01Q592.64 380.69 592.57 381.46Q592.50 382.21 592.43 383.02Q592.40 383.80 592.40 384.65ZM621.83 399.27L621.68 399.27Q619.60 399.24 618.05 398.59Q616.50 397.98 615.58 397.00Q614.67 395.99 614.14 394.40Q613.57 392.81 613.40 391.18Q613.22 389.59 613.22 387.42Q613.22 385.49 613.26 384.14Q613.33 382.75 613.54 381.16Q613.75 379.54 614.10 378.45Q614.49 377.33 615.13 376.22Q615.76 375.13 616.64 374.49Q617.52 373.85 618.79 373.44Q620.06 373.04 621.68 373.04Q623.27 373.04 624.54 373.44Q625.81 373.85 626.69 374.49Q627.57 375.13 628.24 376.22Q628.88 377.33 629.23 378.45Q629.62 379.57 629.83 381.16Q630.04 382.75 630.08 384.14Q630.15 385.53 630.15 387.42Q630.15 388.78 630.08 389.89Q630.01 390.98 629.76 392.26Q629.55 393.55 629.20 394.53Q628.84 395.48 628.17 396.39Q627.50 397.31 626.66 397.92Q625.81 398.53 624.58 398.90Q623.34 399.27 621.83 399.27M616.40 384.65L616.40 387.42Q616.40 388.95 616.47 390.03Q616.57 391.11 616.89 392.37Q617.17 393.62 617.74 394.40Q618.30 395.21 619.29 395.75Q620.27 396.26 621.68 396.26L622.42 396.26Q623.41 396.26 624.19 395.89Q624.96 395.48 625.42 394.73Q625.92 394.02 626.23 393.21Q626.55 392.37 626.69 391.32Q626.87 390.23 626.90 389.35Q626.97 388.47 626.97 387.42L626.97 385.87Q626.97 384.82 626.94 384.21Q626.94 383.56 626.90 382.62Q626.87 381.63 626.76 381.09Q626.66 380.52 626.48 379.74Q626.30 378.96 626.02 378.49Q625.74 378.01 625.35 377.50Q624.93 377.00 624.43 376.73Q623.91 376.42 623.20 376.25Q622.53 376.08 621.68 376.08Q620.80 376.08 620.10 376.29Q619.43 376.45 618.90 376.79Q618.37 377.13 617.95 377.64Q617.56 378.11 617.28 378.72Q616.99 379.30 616.82 380.01Q616.64 380.69 616.57 381.46Q616.50 382.21 616.43 383.02Q616.40 383.80 616.40 384.65ZM645.83 399.27L645.68 399.27Q643.60 399.24 642.05 398.59Q640.50 397.98 639.58 397.00Q638.67 395.99 638.14 394.40Q637.57 392.81 637.40 391.18Q637.22 389.59 637.22 387.42Q637.22 385.49 637.26 384.14Q637.33 382.75 637.54 381.16Q637.75 379.54 638.10 378.45Q638.49 377.33 639.13 376.22Q639.76 375.13 640.64 374.49Q641.52 373.85 642.79 373.44Q644.06 373.04 645.68 373.04Q647.27 373.04 648.54 373.44Q649.81 373.85 650.69 374.49Q651.57 375.13 652.24 376.22Q652.88 377.33 653.23 378.45Q653.62 379.57 653.83 381.16Q654.04 382.75 654.08 384.14Q654.15 385.53 654.15 387.42Q654.15 388.78 654.08 389.89Q654.01 390.98 653.76 392.26Q653.55 393.55 653.20 394.53Q652.84 395.48 652.17 396.39Q651.50 397.31 650.66 397.92Q649.81 398.53 648.58 398.90Q647.34 399.27 645.83 399.27M640.40 384.65L640.40 387.42Q640.40 388.95 640.47 390.03Q640.57 391.11 640.89 392.37Q641.17 393.62 641.74 394.40Q642.30 395.21 643.29 395.75Q644.27 396.26 645.68 396.26L646.42 396.26Q647.41 396.26 648.19 395.89Q648.96 395.48 649.42 394.73Q649.92 394.02 650.23 393.21Q650.55 392.37 650.69 391.32Q650.87 390.23 650.90 389.35Q650.97 388.47 650.97 387.42L650.97 385.87Q650.97 384.82 650.94 384.21Q650.94 383.56 650.90 382.62Q650.87 381.63 650.76 381.09Q650.66 380.52 650.48 379.74Q650.30 378.96 650.02 378.49Q649.74 378.01 649.35 377.50Q648.93 377.00 648.43 376.73Q647.91 376.42 647.20 376.25Q646.53 376.08 645.68 376.08Q644.80 376.08 644.10 376.29Q643.43 376.45 642.90 376.79Q642.37 377.13 641.95 377.64Q641.56 378.11 641.28 378.72Q640.99 379.30 640.82 380.01Q640.64 380.69 640.57 381.46Q640.50 382.21 640.43 383.02Q640.40 383.80 640.40 384.65Z" fill="#000000" />
</svg>
