<svg viewBox="0 0 759 431" xmlns="http://www.w3.org/2000/svg">
<rect width="100%" height="100%" fill="#FFFFFF" />
<path stroke="#000000" stroke-width="6" d="M33 371L33 30M66 371L66 30M123 371L123 30M150 371L150 30M174 371L174 30M222 371L222 30M354 371L354 30M363 371L363 30M375 371L375 30M387 371L387 30M411 371L411 30M420 371L420 30M504 371L504 30M549 371L549 30M594 371L594 30M606 371L606 30M618 371L618 30M693 371L693 30M726 371L726 30" />
<path stroke="#000000" stroke-width="3" d="M40.50 371L40.50 30M49.50 371L49.50 30M79.50 371L79.50 30M91.50 371L91.50 30M97.50 371L97.50 30M142.50 371L142.50 30M163.50 371L163.50 30M196.50 371L196.50 30M229.50 371L229.50 30M289.50 371L289.50 30M295.50 371L295.50 30M301.50 371L301.50 30M328.50 371L328.50 30M427.50 371L427.50 30M433.50 371L433.50 30M460.50 371L460.50 30M493.50 371L493.50 30M538.50 371L538.50 30M559.50 371L559.50 30M625.50 371L625.50 30M649.50 371L649.50 30M658.50 371L658.50 30M667.50 371L667.50 30M718.50 371L718.50 30" />
<path stroke="#000000" stroke-width="9" d="M106.50 371L106.50 30M133.50 371L133.50 30M184.50 371L184.50 30M208.50 371L208.50 30M238.50 371L238.50 30M280.50 371L280.50 30M343.50 371L343.50 30M484.50 371L484.50 30M514.50 371L514.50 30M529.50 371L529.50 30M568.50 371L568.50 30M709.50 371L709.50 30" />
<path stroke="#000000" stroke-width="12" d="M252 371L252 30M267 371L267 30M312 371L312 30M399 371L399 30M447 371L447 30M471 371L471 30M582 371L582 30M636 371L636 30M678 371L678 30" />
<path d="M107.73 398.29Q107.23 397.78 107.23 397.10Q107.23 396.39 107.69 395.89Q108.15 395.41 108.82 395.41L112.20 395.41L112.20 376.59L109.52 376.59Q108.89 376.59 108.43 376.08Q107.94 375.57 107.94 374.90Q107.94 374.22 108.40 373.71Q108.85 373.20 109.52 373.20L117.85 373.20Q118.52 373.20 118.97 373.71Q119.43 374.22 119.43 374.90Q119.43 375.57 118.94 376.08Q118.48 376.59 117.85 376.59L115.17 376.59L115.17 395.41L118.55 395.41Q119.22 395.41 119.68 395.89Q120.14 396.39 120.14 397.10Q120.14 397.78 119.64 398.29Q119.19 398.80 118.55 398.80L108.82 398.80Q108.18 398.80 107.73 398.29ZM130.21 398.86Q129.72 398.36 129.72 397.65L129.72 374.46Q129.72 373.75 130.17 373.27Q130.67 372.76 131.30 372.76L132.61 372.76Q133.03 372.76 133.42 373.04Q133.84 373.27 134.02 373.71L142.48 392.91L142.48 374.39Q142.48 373.71 142.94 373.24Q143.43 372.73 144.07 372.73Q144.70 372.73 145.16 373.24Q145.65 373.71 145.65 374.42L145.65 397.61Q145.65 398.32 145.16 398.83Q144.70 399.34 144.07 399.34L142.73 399.34Q141.74 399.34 141.32 398.42L132.89 379.23L132.89 397.68Q132.89 398.36 132.40 398.86Q131.94 399.37 131.30 399.37Q130.67 399.37 130.21 398.86ZM159.00 398.15L153.19 374.46Q153.19 373.78 153.68 373.31Q154.17 372.80 154.81 372.80Q155.34 372.80 155.76 373.17Q156.22 373.51 156.32 373.98L161.68 395.65L167.01 373.98Q167.22 373.48 167.61 373.14Q168.03 372.80 168.56 372.80Q169.20 372.80 169.69 373.31Q170.18 373.81 170.18 374.46L164.29 398.15Q164.19 398.66 163.76 399.03Q163.34 399.37 162.85 399.37L160.52 399.37Q160.03 399.37 159.57 399Q159.11 398.63 159.00 398.15ZM177.40 386.61L177.40 385.66Q177.40 385.02 177.86 384.58Q178.31 384.14 178.98 384.14L193.09 384.14Q193.76 384.14 194.22 384.61Q194.68 385.05 194.68 385.66L194.68 386.61Q194.68 387.22 194.22 387.69Q193.76 388.13 193.09 388.13L178.98 388.13Q178.31 388.13 177.86 387.69Q177.40 387.25 177.40 386.61ZM203.77 380.92Q203.31 380.45 203.31 379.84Q203.31 379.13 203.77 378.79L210.23 373.48Q210.68 373.10 211.25 373.10L212.38 373.10Q213.01 373.10 213.47 373.58Q213.96 374.02 213.96 374.63L213.96 397.65Q213.96 398.26 213.47 398.73Q213.01 399.17 212.38 399.17Q211.74 399.17 211.25 398.73Q210.79 398.29 210.79 397.65L210.79 377.03L205.96 380.99Q205.50 381.36 204.90 381.36Q204.23 381.36 203.77 380.92ZM227.68 375.78Q227.22 375.30 227.22 374.66Q227.22 374.02 227.68 373.58Q228.14 373.14 228.81 373.14L242.56 373.14Q243.23 373.14 243.69 373.61Q244.15 374.05 244.15 374.66Q244.15 377.23 242.07 380.25Q241.43 381.19 239.60 383.39Q237.76 385.63 236.99 387.02Q234.70 391.08 234.70 397.61Q234.70 398.26 234.24 398.73Q233.78 399.17 233.18 399.17Q232.58 399.17 232.12 398.73Q231.66 398.29 231.66 397.61Q231.66 390.23 234.34 385.46Q235.16 384.07 236.99 381.74Q238.86 379.37 239.46 378.49Q240.30 377.13 240.62 376.45L240.69 376.22L228.81 376.22Q228.17 376.22 227.68 375.78ZM251.68 375.78Q251.22 375.30 251.22 374.66Q251.22 374.02 251.68 373.58Q252.14 373.14 252.81 373.14L266.56 373.14Q267.23 373.14 267.69 373.61Q268.15 374.05 268.15 374.66Q268.15 377.23 266.07 380.25Q265.43 381.19 263.60 383.39Q261.76 385.63 260.99 387.02Q258.70 391.08 258.70 397.61Q258.70 398.26 258.24 398.73Q257.78 399.17 257.18 399.17Q256.58 399.17 256.12 398.73Q255.66 398.29 255.66 397.61Q255.66 390.23 258.34 385.46Q259.16 384.07 260.99 381.74Q262.86 379.37 263.46 378.49Q264.30 377.13 264.62 376.45L264.69 376.22L252.81 376.22Q252.17 376.22 251.68 375.78ZM279.95 377.71Q278.40 379.33 278.40 381.60Q278.40 383.80 279.88 385.19Q281.29 386.54 283.68 386.54Q287.88 386.54 288.62 384.07Q288.97 382.95 288.97 381.60Q288.97 379.06 287.49 377.57Q286.05 376.05 283.68 376.05Q281.46 376.05 279.95 377.71M277.62 387.29Q275.22 385.02 275.22 381.60Q275.22 378.08 277.76 375.54Q280.23 373.00 283.68 373.00Q287.25 373.00 289.68 375.37Q292.15 377.74 292.15 381.60Q292.15 384.00 291.41 385.93Q290.67 387.86 289.33 390.10Q286.40 395.01 282.17 398.76Q281.71 399.17 281.18 399.17Q280.58 399.17 280.12 398.73Q279.66 398.29 279.66 397.65Q279.66 397.00 280.16 396.53Q283.51 393.45 285.91 389.72L286.08 389.39L285.73 389.45Q284.81 389.59 283.68 389.59Q279.95 389.59 277.62 387.29ZM300.28 377.37Q299.82 376.89 299.82 376.32Q299.82 375.47 300.49 375.03Q303.70 373.00 307.68 373.00Q310.89 373.00 313.04 374.97Q315.23 376.89 315.23 380.04Q315.23 381.30 314.77 382.45Q314.31 383.63 313.71 384.38Q313.15 385.12 312.02 386.03Q310.89 386.95 310.29 387.36Q309.73 387.76 308.50 388.54Q307.16 389.39 306.56 389.83Q305.96 390.27 305.11 391.15Q304.26 391.99 303.88 393.08Q303.49 394.13 303.42 395.58L303.42 395.75L313.86 395.75Q314.53 395.75 314.98 396.22Q315.44 396.66 315.44 397.27Q315.44 397.88 314.95 398.36Q314.49 398.80 313.86 398.80L301.80 398.80Q301.16 398.80 300.67 398.36Q300.21 397.88 300.21 397.27L300.21 396.56Q300.21 393.92 300.56 392.77Q301.16 390.74 302.82 389.15Q304.48 387.52 306.87 385.97Q310.19 383.83 311.07 382.62Q312.06 381.40 312.06 380.04Q312.06 378.25 310.75 377.13Q309.52 376.05 307.68 376.05Q304.51 376.05 302.32 377.54Q301.94 377.81 301.41 377.81Q300.77 377.81 300.28 377.37ZM323.68 392.84Q323.22 392.40 323.22 391.76L323.22 390.30Q323.22 390.03 323.40 389.66L330.91 373.98Q331.05 373.61 331.44 373.37Q331.83 373.10 332.25 373.10Q332.88 373.10 333.34 373.58Q333.80 374.02 333.80 374.63Q333.80 374.97 333.62 375.27L326.57 390.23L333.45 390.23L333.45 386.14Q333.45 385.53 333.91 385.09Q334.36 384.61 334.96 384.61Q335.56 384.61 336.02 385.09Q336.52 385.53 336.52 386.14L336.52 390.23L338.56 390.23Q339.23 390.23 339.69 390.71Q340.15 391.15 340.15 391.76Q340.15 392.37 339.65 392.84Q339.20 393.28 338.56 393.28L336.52 393.28L336.52 397.65Q336.52 398.26 336.02 398.70Q335.56 399.17 334.96 399.17Q334.36 399.17 333.91 398.73Q333.45 398.26 333.45 397.65L333.45 393.28L324.81 393.28Q324.17 393.28 323.68 392.84ZM347.68 375.78Q347.22 375.30 347.22 374.66Q347.22 374.02 347.68 373.58Q348.14 373.14 348.81 373.14L362.56 373.14Q363.23 373.14 363.69 373.61Q364.15 374.05 364.15 374.66Q364.15 377.23 362.07 380.25Q361.43 381.19 359.60 383.39Q357.76 385.63 356.99 387.02Q354.70 391.08 354.70 397.61Q354.70 398.26 354.24 398.73Q353.78 399.17 353.18 399.17Q352.58 399.17 352.12 398.73Q351.66 398.29 351.66 397.61Q351.66 390.23 354.34 385.46Q355.16 384.07 356.99 381.74Q358.86 379.37 359.46 378.49Q360.30 377.13 360.62 376.45L360.69 376.22L348.81 376.22Q348.17 376.22 347.68 375.78ZM379.83 399.27L379.68 399.27Q377.60 399.24 376.05 398.59Q374.50 397.98 373.58 397.00Q372.67 395.99 372.14 394.40Q371.57 392.81 371.40 391.18Q371.22 389.59 371.22 387.42Q371.22 385.49 371.26 384.14Q371.33 382.75 371.54 381.16Q371.75 379.54 372.10 378.45Q372.49 377.33 373.13 376.22Q373.76 375.13 374.64 374.49Q375.52 373.85 376.79 373.44Q378.06 373.04 379.68 373.04Q381.27 373.04 382.54 373.44Q383.81 373.85 384.69 374.49Q385.57 375.13 386.24 376.22Q386.88 377.33 387.23 378.45Q387.62 379.57 387.83 381.16Q388.04 382.75 388.08 384.14Q388.15 385.53 388.15 387.42Q388.15 388.78 388.08 389.89Q388.01 390.98 387.76 392.26Q387.55 393.55 387.20 394.53Q386.84 395.48 386.17 396.39Q385.50 397.31 384.66 397.92Q383.81 398.53 382.58 398.90Q381.34 399.27 379.83 399.27M374.40 384.65L374.40 387.42Q374.40 388.95 374.47 390.03Q374.57 391.11 374.89 392.37Q375.17 393.62 375.74 394.40Q376.30 395.21 377.29 395.75Q378.27 396.26 379.68 396.26L380.42 396.26Q381.41 396.26 382.19 395.89Q382.96 395.48 383.42 394.73Q383.92 394.02 384.23 393.21Q384.55 392.37 384.69 391.32Q384.87 390.23 384.90 389.35Q384.97 388.47 384.97 387.42L384.97 385.87Q384.97 384.82 384.94 384.21Q384.94 383.56 384.90 382.62Q384.87 381.63 384.76 381.09Q384.66 380.52 384.48 379.74Q384.30 378.96 384.02 378.49Q383.74 378.01 383.35 377.50Q382.93 377.00 382.43 376.73Q381.91 376.42 381.20 376.25Q380.53 376.08 379.68 376.08Q378.80 376.08 378.10 376.29Q377.43 376.45 376.90 376.79Q376.37 377.13 375.95 377.64Q375.56 378.11 375.28 378.72Q374.99 379.30 374.82 380.01Q374.64 380.69 374.57 381.46Q374.50 382.21 374.43 383.02Q374.40 383.80 374.40 384.65ZM396.28 377.37Q395.82 376.89 395.82 376.32Q395.82 375.47 396.49 375.03Q399.70 373.00 403.68 373.00Q406.89 373.00 409.04 374.97Q411.23 376.89 411.23 380.04Q411.23 381.30 410.77 382.45Q410.31 383.63 409.71 384.38Q409.15 385.12 408.02 386.03Q406.89 386.95 406.29 387.36Q405.73 387.76 404.50 388.54Q403.16 389.39 402.56 389.83Q401.96 390.27 401.11 391.15Q400.26 391.99 399.88 393.08Q399.49 394.13 399.42 395.58L399.42 395.75L409.86 395.75Q410.53 395.75 410.98 396.22Q411.44 396.66 411.44 397.27Q411.44 397.88 410.95 398.36Q410.49 398.80 409.86 398.80L397.80 398.80Q397.16 398.80 396.67 398.36Q396.21 397.88 396.21 397.27L396.21 396.56Q396.21 393.92 396.56 392.77Q397.16 390.74 398.82 389.15Q400.48 387.52 402.87 385.97Q406.19 383.83 407.07 382.62Q408.06 381.40 408.06 380.04Q408.06 378.25 406.75 377.13Q405.52 376.05 403.68 376.05Q400.51 376.05 398.32 377.54Q397.94 377.81 397.41 377.81Q396.77 377.81 396.28 377.37ZM423.95 377.71Q422.40 379.33 422.40 381.60Q422.40 383.80 423.88 385.19Q425.29 386.54 427.68 386.54Q431.88 386.54 432.62 384.07Q432.97 382.95 432.97 381.60Q432.97 379.06 431.49 377.57Q430.05 376.05 427.68 376.05Q425.46 376.05 423.95 377.71M421.62 387.29Q419.22 385.02 419.22 381.60Q419.22 378.08 421.76 375.54Q424.23 373.00 427.68 373.00Q431.25 373.00 433.68 375.37Q436.15 377.74 436.15 381.60Q436.15 384.00 435.41 385.93Q434.67 387.86 433.33 390.10Q430.40 395.01 426.17 398.76Q425.71 399.17 425.18 399.17Q424.58 399.17 424.12 398.73Q423.66 398.29 423.66 397.65Q423.66 397.00 424.16 396.53Q427.51 393.45 429.91 389.72L430.08 389.39L429.73 389.45Q428.81 389.59 427.68 389.59Q423.95 389.59 421.62 387.29ZM444.77 380.92Q444.31 380.45 444.31 379.84Q444.31 379.13 444.77 378.79L451.23 373.48Q451.68 373.10 452.25 373.10L453.38 373.10Q454.01 373.10 454.47 373.58Q454.96 374.02 454.96 374.63L454.96 397.65Q454.96 398.26 454.47 398.73Q454.01 399.17 453.38 399.17Q452.74 399.17 452.25 398.73Q451.79 398.29 451.79 397.65L451.79 377.03L446.96 380.99Q446.50 381.36 445.90 381.36Q445.23 381.36 444.77 380.92ZM473.93 376.73Q472.59 377.40 472.59 378.69Q472.59 379.54 472.91 380.18Q473.23 380.82 473.97 381.36Q474.67 381.87 475.13 382.14Q475.63 382.41 476.61 382.89L476.68 382.89L476.75 382.89Q477.74 382.45 478.24 382.18Q478.73 381.90 479.43 381.40Q480.14 380.86 480.46 380.21Q480.77 379.54 480.77 378.69Q480.77 377.40 479.43 376.73Q478.13 376.05 476.68 376.05Q475.24 376.05 473.93 376.73M476.68 386.37Q471.36 389.05 471.36 392.23Q471.36 394.13 472.95 395.17Q474.43 396.22 476.68 396.22L477.39 396.22Q479.26 396.22 480.60 395.04Q481.97 393.85 481.97 392.23Q481.97 389.01 476.83 386.37L476.75 386.31L476.68 386.37M470.65 397.31Q468.22 395.34 468.22 392.23Q468.22 388.13 473.23 384.82L473.44 384.68L473.23 384.55Q469.42 382.31 469.42 378.69Q469.42 376.22 471.68 374.63Q473.90 373.00 476.68 373.00Q479.43 373.00 481.69 374.63Q483.95 376.25 483.95 378.69Q483.95 380.69 482.96 382.07Q481.94 383.43 480.14 384.55L479.93 384.68L480.14 384.82Q485.15 388.13 485.15 392.23Q485.15 394.90 483.10 396.97Q481.06 399.03 478.17 399.27L476.68 399.27Q473.05 399.27 470.65 397.31ZM500.83 399.27L500.68 399.27Q498.60 399.24 497.05 398.59Q495.50 397.98 494.58 397.00Q493.67 395.99 493.14 394.40Q492.57 392.81 492.40 391.18Q492.22 389.59 492.22 387.42Q492.22 385.49 492.26 384.14Q492.33 382.75 492.54 381.16Q492.75 379.54 493.10 378.45Q493.49 377.33 494.13 376.22Q494.76 375.13 495.64 374.49Q496.52 373.85 497.79 373.44Q499.06 373.04 500.68 373.04Q502.27 373.04 503.54 373.44Q504.81 373.85 505.69 374.49Q506.57 375.13 507.24 376.22Q507.88 377.33 508.23 378.45Q508.62 379.57 508.83 381.16Q509.04 382.75 509.08 384.14Q509.15 385.53 509.15 387.42Q509.15 388.78 509.08 389.89Q509.01 390.98 508.76 392.26Q508.55 393.55 508.20 394.53Q507.84 395.48 507.17 396.39Q506.50 397.31 505.66 397.92Q504.81 398.53 503.58 398.90Q502.34 399.27 500.83 399.27M495.40 384.65L495.40 387.42Q495.40 388.95 495.47 390.03Q495.57 391.11 495.89 392.37Q496.17 393.62 496.74 394.40Q497.30 395.21 498.29 395.75Q499.27 396.26 500.68 396.26L501.42 396.26Q502.41 396.26 503.19 395.89Q503.96 395.48 504.42 394.73Q504.92 394.02 505.23 393.21Q505.55 392.37 505.69 391.32Q505.87 390.23 505.90 389.35Q505.97 388.47 505.97 387.42L505.97 385.87Q505.97 384.82 505.94 384.21Q505.94 383.56 505.90 382.62Q505.87 381.63 505.76 381.09Q505.66 380.52 505.48 379.74Q505.30 378.96 505.02 378.49Q504.74 378.01 504.35 377.50Q503.93 377.00 503.43 376.73Q502.91 376.42 502.20 376.25Q501.53 376.08 500.68 376.08Q499.80 376.08 499.10 376.29Q498.43 376.45 497.90 376.79Q497.37 377.13 496.95 377.64Q496.56 378.11 496.28 378.72Q495.99 379.30 495.82 380.01Q495.64 380.69 495.57 381.46Q495.50 382.21 495.43 383.02Q495.40 383.80 495.40 384.65ZM516.40 386.61L516.40 385.66Q516.40 385.02 516.86 384.58Q517.31 384.14 517.98 384.14L532.09 384.14Q532.76 384.14 533.22 384.61Q533.68 385.05 533.68 385.66L533.68 386.61Q533.68 387.22 533.22 387.69Q532.76 388.13 532.09 388.13L517.98 388.13Q517.31 388.13 516.86 387.69Q516.40 387.25 516.40 386.61ZM546.93 376.73Q545.59 377.40 545.59 378.69Q545.59 379.54 545.91 380.18Q546.23 380.82 546.97 381.36Q547.67 381.87 548.13 382.14Q548.63 382.41 549.61 382.89L549.68 382.89L549.75 382.89Q550.74 382.45 551.24 382.18Q551.73 381.90 552.43 381.40Q553.14 380.86 553.46 380.21Q553.77 379.54 553.77 378.69Q553.77 377.40 552.43 376.73Q551.13 376.05 549.68 376.05Q548.24 376.05 546.93 376.73M549.68 386.37Q544.36 389.05 544.36 392.23Q544.36 394.13 545.95 395.17Q547.43 396.22 549.68 396.22L550.39 396.22Q552.26 396.22 553.60 395.04Q554.97 393.85 554.97 392.23Q554.97 389.01 549.83 386.37L549.75 386.31L549.68 386.37M543.65 397.31Q541.22 395.34 541.22 392.23Q541.22 388.13 546.23 384.82L546.44 384.68L546.23 384.55Q542.42 382.31 542.42 378.69Q542.42 376.22 544.68 374.63Q546.90 373.00 549.68 373.00Q552.43 373.00 554.69 374.63Q556.95 376.25 556.95 378.69Q556.95 380.69 555.96 382.07Q554.94 383.43 553.14 384.55L552.93 384.68L553.14 384.82Q558.15 388.13 558.15 392.23Q558.15 394.90 556.10 396.97Q554.06 399.03 551.17 399.27L549.68 399.27Q546.05 399.27 543.65 397.31ZM573.83 399.27L573.68 399.27Q571.60 399.24 570.05 398.59Q568.50 397.98 567.58 397.00Q566.67 395.99 566.14 394.40Q565.57 392.81 565.40 391.18Q565.22 389.59 565.22 387.42Q565.22 385.49 565.26 384.14Q565.33 382.75 565.54 381.16Q565.75 379.54 566.10 378.45Q566.49 377.33 567.13 376.22Q567.76 375.13 568.64 374.49Q569.52 373.85 570.79 373.44Q572.06 373.04 573.68 373.04Q575.27 373.04 576.54 373.44Q577.81 373.85 578.69 374.49Q579.57 375.13 580.24 376.22Q580.88 377.33 581.23 378.45Q581.62 379.57 581.83 381.16Q582.04 382.75 582.08 384.14Q582.15 385.53 582.15 387.42Q582.15 388.78 582.08 389.89Q582.01 390.98 581.76 392.26Q581.55 393.55 581.20 394.53Q580.84 395.48 580.17 396.39Q579.50 397.31 578.66 397.92Q577.81 398.53 576.58 398.90Q575.34 399.27 573.83 399.27M568.40 384.65L568.40 387.42Q568.40 388.95 568.47 390.03Q568.57 391.11 568.89 392.37Q569.17 393.62 569.74 394.40Q570.30 395.21 571.29 395.75Q572.27 396.26 573.68 396.26L574.42 396.26Q575.41 396.26 576.19 395.89Q576.96 395.48 577.42 394.73Q577.92 394.02 578.23 393.21Q578.55 392.37 578.69 391.32Q578.87 390.23 578.90 389.35Q578.97 388.47 578.97 387.42L578.97 385.87Q578.97 384.82 578.94 384.21Q578.94 383.56 578.90 382.62Q578.87 381.63 578.76 381.09Q578.66 380.52 578.48 379.74Q578.30 378.96 578.02 378.49Q577.74 378.01 577.35 377.50Q576.93 377.00 576.43 376.73Q575.91 376.42 575.20 376.25Q574.53 376.08 573.68 376.08Q572.80 376.08 572.10 376.29Q571.43 376.45 570.90 376.79Q570.37 377.13 569.95 377.64Q569.56 378.11 569.28 378.72Q568.99 379.30 568.82 380.01Q568.64 380.69 568.57 381.46Q568.50 382.21 568.43 383.02Q568.40 383.80 568.40 384.65ZM590.28 377.37Q589.82 376.89 589.82 376.32Q589.82 375.47 590.49 375.03Q593.70 373.00 597.68 373.00Q600.89 373.00 603.04 374.97Q605.23 376.89 605.23 380.04Q605.23 381.30 604.77 382.45Q604.31 383.63 603.71 384.38Q603.15 385.12 602.02 386.03Q600.89 386.95 600.29 387.36Q599.73 387.76 598.50 388.54Q597.16 389.39 596.56 389.83Q595.96 390.27 595.11 391.15Q594.26 391.99 593.88 393.08Q593.49 394.13 593.42 395.58L593.42 395.75L603.86 395.75Q604.53 395.75 604.98 396.22Q605.44 396.66 605.44 397.27Q605.44 397.88 604.95 398.36Q604.49 398.80 603.86 398.80L591.80 398.80Q591.16 398.80 590.67 398.36Q590.21 397.88 590.21 397.27L590.21 396.56Q590.21 393.92 590.56 392.77Q591.16 390.74 592.82 389.15Q594.48 387.52 596.87 385.97Q600.19 383.83 601.07 382.62Q602.06 381.40 602.06 380.04Q602.06 378.25 600.75 377.13Q599.52 376.05 597.68 376.05Q594.51 376.05 592.32 377.54Q591.94 377.81 591.41 377.81Q590.77 377.81 590.28 377.37ZM618.93 376.73Q617.59 377.40 617.59 378.69Q617.59 379.54 617.91 380.18Q618.23 380.82 618.97 381.36Q619.67 381.87 620.13 382.14Q620.63 382.41 621.61 382.89L621.68 382.89L621.75 382.89Q622.74 382.45 623.24 382.18Q623.73 381.90 624.43 381.40Q625.14 380.86 625.46 380.21Q625.77 379.54 625.77 378.69Q625.77 377.40 624.43 376.73Q623.13 376.05 621.68 376.05Q620.24 376.05 618.93 376.73M621.68 386.37Q616.36 389.05 616.36 392.23Q616.36 394.13 617.95 395.17Q619.43 396.22 621.68 396.22L622.39 396.22Q624.26 396.22 625.60 395.04Q626.97 393.85 626.97 392.23Q626.97 389.01 621.83 386.37L621.75 386.31L621.68 386.37M615.65 397.31Q613.22 395.34 613.22 392.23Q613.22 388.13 618.23 384.82L618.44 384.68L618.23 384.55Q614.42 382.31 614.42 378.69Q614.42 376.22 616.68 374.63Q618.90 373.00 621.68 373.00Q624.43 373.00 626.69 374.63Q628.95 376.25 628.95 378.69Q628.95 380.69 627.96 382.07Q626.94 383.43 625.14 384.55L624.93 384.68L625.14 384.82Q630.15 388.13 630.15 392.23Q630.15 394.90 628.10 396.97Q626.06 399.03 623.17 399.27L621.68 399.27Q618.05 399.27 615.65 397.31ZM637.96 397.98Q637.22 397.44 637.22 396.63Q637.22 395.99 637.68 395.55Q638.17 395.07 638.81 395.07Q639.02 395.07 639.41 395.21Q641.66 396.19 644.13 396.19Q646.81 396.19 648.65 394.90Q650.52 393.58 650.66 391.08L650.66 390.74Q650.66 389.01 649.53 387.80Q648.47 386.61 646.92 386.10Q645.40 385.63 643.53 385.63Q642.93 385.63 642.48 385.19Q642.02 384.71 642.02 384.07Q642.02 383.46 642.33 383.12L648.82 376.22L638.91 376.22Q638.28 376.22 637.79 375.78Q637.33 375.30 637.33 374.66Q637.33 374.02 637.79 373.58Q638.24 373.14 638.91 373.14L651.36 373.14Q652.00 373.14 652.45 373.61Q652.95 374.05 652.95 374.66L652.95 375.88Q652.95 376.42 652.45 376.89L646.78 382.89L647.06 382.95Q650.06 383.70 651.96 385.70Q653.83 387.69 653.83 390.71L653.83 391.25Q653.65 394.94 650.83 397.10Q648.08 399.27 644.13 399.27Q643.15 399.27 642.16 399.17Q641.17 399.07 639.94 398.83Q638.70 398.56 637.96 397.98Z" fill="#000000" />
</svg>
