<svg viewBox="0 0 759 431" xmlns="http://www.w3.org/2000/svg">
<rect width="100%" height="100%" fill="#FFFFFF" />
<path stroke="#000000" stroke-width="6" d="M33 371L33 30M66 371L66 30M123 371L123 30M150 371L150 30M174 371L174 30M222 371L222 30M345 371L345 30M387 371L387 30M435 371L435 30M504 371L504 30M549 371L549 30M594 371L594 30M609 371L609 30M618 371L618 30M681 371L681 30M693 371L693 30M726 371L726 30" />
<path stroke="#000000" stroke-width="3" d="M40.50 371L40.50 30M49.50 371L49.50 30M79.50 371L79.50 30M91.50 371L91.50 30M97.50 371L97.50 30M142.50 371L142.50 30M163.50 371L163.50 30M196.50 371L196.50 30M229.50 371L229.50 30M289.50 371L289.50 30M310.50 371L310.50 30M316.50 371L316.50 30M328.50 371L328.50 30M355.50 371L355.50 30M373.50 371L373.50 30M412.50 371L412.50 30M418.50 371L418.50 30M427.50 371L427.50 30M460.50 371L460.50 30M493.50 371L493.50 30M538.50 371L538.50 30M559.50 371L559.50 30M652.50 371L652.50 30M670.50 371L670.50 30M718.50 371L718.50 30" />
<path stroke="#000000" stroke-width="9" d="M106.50 371L106.50 30M133.50 371L133.50 30M184.50 371L184.50 30M208.50 371L208.50 30M238.50 371L238.50 30M280.50 371L280.50 30M364.50 371L364.50 30M448.50 371L448.50 30M484.50 371L484.50 30M514.50 371L514.50 30M529.50 371L529.50 30M568.50 371L568.50 30M643.50 371L643.50 30M661.50 371L661.50 30M709.50 371L709.50 30" />
<path stroke="#000000" stroke-width="12" d="M252 371L252 30M267 371L267 30M300 371L300 30M399 371L399 30M471 371L471 30M582 371L582 30M630 371L630 30" />
<path d="M107.73 398.29Q107.23 397.78 107.23 397.10Q107.23 396.39 107.69 395.89Q108.15 395.41 108.82 395.41L112.20 395.41L112.20 376.59L109.52 376.59Q108.89 376.59 108.43 376.08Q107.94 375.57 107.94 374.90Q107.94 374.22 108.40 373.71Q108.85 373.20 109.52 373.20L117.85 373.20Q118.52 373.20 118.97 373.71Q119.43 374.22 119.43 374.90Q119.43 375.57 118.94 376.08Q118.48 376.59 117.85 376.59L115.17 376.59L115.17 395.41L118.55 395.41Q119.22 395.41 119.68 395.89Q120.14 396.39 120.14 397.10Q120.14 397.78 119.64 398.29Q119.19 398.80 118.55 398.80L108.82 398.80Q108.18 398.80 107.73 398.29ZM130.21 398.86Q129.72 398.36 129.72 397.65L129.72 374.46Q129.72 373.75 130.17 373.27Q130.67 372.76 131.30 372.76L132.61 372.76Q133.03 372.76 133.42 373.04Q133.84 373.27 134.02 373.71L142.48 392.91L142.48 374.39Q142.48 373.71 142.94 373.24Q143.43 372.73 144.07 372.73Q144.70 372.73 145.16 373.24Q145.65 373.71 145.65 374.42L145.65 397.61Q145.65 398.32 145.16 398.83Q144.70 399.34 144.07 399.34L142.73 399.34Q141.74 399.34 141.32 398.42L132.89 379.23L132.89 397.68Q132.89 398.36 132.40 398.86Q131.94 399.37 131.30 399.37Q130.67 399.37 130.21 398.86ZM159.00 398.15L153.19 374.46Q153.19 373.78 153.68 373.31Q154.17 372.80 154.81 372.80Q155.34 372.80 155.76 373.17Q156.22 373.51 156.32 373.98L161.68 395.65L167.01 373.98Q167.22 373.48 167.61 373.14Q168.03 372.80 168.56 372.80Q169.20 372.80 169.69 373.31Q170.18 373.81 170.18 374.46L164.29 398.15Q164.19 398.66 163.76 399.03Q163.34 399.37 162.85 399.37L160.52 399.37Q160.03 399.37 159.57 399Q159.11 398.63 159.00 398.15ZM177.40 386.61L177.40 385.66Q177.40 385.02 177.86 384.58Q178.31 384.14 178.98 384.14L193.09 384.14Q193.76 384.14 194.22 384.61Q194.68 385.05 194.68 385.66L194.68 386.61Q194.68 387.22 194.22 387.69Q193.76 388.13 193.09 388.13L178.98 388.13Q178.31 388.13 177.86 387.69Q177.40 387.25 177.40 386.61ZM203.77 380.92Q203.31 380.45 203.31 379.84Q203.31 379.13 203.77 378.79L210.23 373.48Q210.68 373.10 211.25 373.10L212.38 373.10Q213.01 373.10 213.47 373.58Q213.96 374.02 213.96 374.63L213.96 397.65Q213.96 398.26 213.47 398.73Q213.01 399.17 212.38 399.17Q211.74 399.17 211.25 398.73Q210.79 398.29 210.79 397.65L210.79 377.03L205.96 380.99Q205.50 381.36 204.90 381.36Q204.23 381.36 203.77 380.92ZM227.68 375.78Q227.22 375.30 227.22 374.66Q227.22 374.02 227.68 373.58Q228.14 373.14 228.81 373.14L242.56 373.14Q243.23 373.14 243.69 373.61Q244.15 374.05 244.15 374.66Q244.15 377.23 242.07 380.25Q241.43 381.19 239.60 383.39Q237.76 385.63 236.99 387.02Q234.70 391.08 234.70 397.61Q234.70 398.26 234.24 398.73Q233.78 399.17 233.18 399.17Q232.58 399.17 232.12 398.73Q231.66 398.29 231.66 397.61Q231.66 390.23 234.34 385.46Q235.16 384.07 236.99 381.74Q238.86 379.37 239.46 378.49Q240.30 377.13 240.62 376.45L240.69 376.22L228.81 376.22Q228.17 376.22 227.68 375.78ZM251.68 375.78Q251.22 375.30 251.22 374.66Q251.22 374.02 251.68 373.58Q252.14 373.14 252.81 373.14L266.56 373.14Q267.23 373.14 267.69 373.61Q268.15 374.05 268.15 374.66Q268.15 377.23 266.07 380.25Q265.43 381.19 263.60 383.39Q261.76 385.63 260.99 387.02Q258.70 391.08 258.70 397.61Q258.70 398.26 258.24 398.73Q257.78 399.17 257.18 399.17Q256.58 399.17 256.12 398.73Q255.66 398.29 255.66 397.61Q255.66 390.23 258.34 385.46Q259.16 384.07 260.99 381.74Q262.86 379.37 263.46 378.49Q264.30 377.13 264.62 376.45L264.69 376.22L252.81 376.22Q252.17 376.22 251.68 375.78ZM279.95 377.71Q278.40 379.33 278.40 381.60Q278.40 383.80 279.88 385.19Q281.29 386.54 283.68 386.54Q287.88 386.54 288.62 384.07Q288.97 382.95 288.97 381.60Q288.97 379.06 287.49 377.57Q286.05 376.05 283.68 376.05Q281.46 376.05 279.95 377.71M277.62 387.29Q275.22 385.02 275.22 381.60Q275.22 378.08 277.76 375.54Q280.23 373.00 283.68 373.00Q287.25 373.00 289.68 375.37Q292.15 377.74 292.15 381.60Q292.15 384.00 291.41 385.93Q290.67 387.86 289.33 390.10Q286.40 395.01 282.17 398.76Q281.71 399.17 281.18 399.17Q280.58 399.17 280.12 398.73Q279.66 398.29 279.66 397.65Q279.66 397.00 280.16 396.53Q283.51 393.45 285.91 389.72L286.08 389.39L285.73 389.45Q284.81 389.59 283.68 389.59Q279.95 389.59 277.62 387.29ZM299.68 375.78Q299.22 375.30 299.22 374.66Q299.22 374.02 299.68 373.58Q300.14 373.14 300.81 373.14L314.56 373.14Q315.23 373.14 315.69 373.61Q316.15 374.05 316.15 374.66Q316.15 377.23 314.07 380.25Q313.43 381.19 311.60 383.39Q309.76 385.63 308.99 387.02Q306.70 391.08 306.70 397.61Q306.70 398.26 306.24 398.73Q305.78 399.17 305.18 399.17Q304.58 399.17 304.12 398.73Q303.66 398.29 303.66 397.61Q303.66 390.23 306.34 385.46Q307.16 384.07 308.99 381.74Q310.86 379.37 311.46 378.49Q312.30 377.13 312.62 376.45L312.69 376.22L300.81 376.22Q300.17 376.22 299.68 375.78ZM323.68 375.78Q323.22 375.30 323.22 374.66Q323.22 374.02 323.68 373.58Q324.14 373.14 324.81 373.14L338.56 373.14Q339.23 373.14 339.69 373.61Q340.15 374.05 340.15 374.66Q340.15 377.23 338.07 380.25Q337.43 381.19 335.60 383.39Q333.76 385.63 332.99 387.02Q330.70 391.08 330.70 397.61Q330.70 398.26 330.24 398.73Q329.78 399.17 329.18 399.17Q328.58 399.17 328.12 398.73Q327.66 398.29 327.66 397.61Q327.66 390.23 330.34 385.46Q331.16 384.07 332.99 381.74Q334.86 379.37 335.46 378.49Q336.30 377.13 336.62 376.45L336.69 376.22L324.81 376.22Q324.17 376.22 323.68 375.78ZM347.68 392.84Q347.22 392.40 347.22 391.76L347.22 390.30Q347.22 390.03 347.40 389.66L354.91 373.98Q355.05 373.61 355.44 373.37Q355.83 373.10 356.25 373.10Q356.88 373.10 357.34 373.58Q357.80 374.02 357.80 374.63Q357.80 374.97 357.62 375.27L350.57 390.23L357.45 390.23L357.45 386.14Q357.45 385.53 357.91 385.09Q358.36 384.61 358.96 384.61Q359.56 384.61 360.02 385.09Q360.52 385.53 360.52 386.14L360.52 390.23L362.56 390.23Q363.23 390.23 363.69 390.71Q364.15 391.15 364.15 391.76Q364.15 392.37 363.65 392.84Q363.20 393.28 362.56 393.28L360.52 393.28L360.52 397.65Q360.52 398.26 360.02 398.70Q359.56 399.17 358.96 399.17Q358.36 399.17 357.91 398.73Q357.45 398.26 357.45 397.65L357.45 393.28L348.81 393.28Q348.17 393.28 347.68 392.84ZM372.60 398.83Q372.14 398.39 372.14 397.75Q372.14 397.07 372.60 396.63Q373.09 396.19 373.73 396.19Q380.85 396.19 382.93 392.37Q383.56 391.21 383.56 390.16Q383.56 387.69 382.36 386.44Q380.78 384.65 376.79 384.65Q375.70 384.65 374.57 384.75L374.43 384.75Q373.80 384.75 373.30 384.34Q372.84 383.90 372.84 383.29L372.84 383.19L373.34 374.56Q373.41 373.95 373.83 373.54Q374.29 373.14 374.92 373.14L384.94 373.14Q385.61 373.14 386.07 373.61Q386.53 374.05 386.53 374.66Q386.53 375.27 386.03 375.74Q385.57 376.22 384.94 376.22L376.41 376.22L376.12 381.53L376.79 381.53Q381.27 381.53 383.99 383.73Q386.74 385.90 386.74 390.16Q386.74 391.96 385.93 393.52Q385.08 395.11 383.81 396.22Q380.42 399.27 373.73 399.27Q373.09 399.27 372.60 398.83M374.54 384.75Q374.54 384.75 374.57 384.75Q374.57 384.75 374.54 384.75ZM396.60 398.83Q396.14 398.39 396.14 397.75Q396.14 397.07 396.60 396.63Q397.09 396.19 397.73 396.19Q404.85 396.19 406.93 392.37Q407.56 391.21 407.56 390.16Q407.56 387.69 406.36 386.44Q404.78 384.65 400.79 384.65Q399.70 384.65 398.57 384.75L398.43 384.75Q397.80 384.75 397.30 384.34Q396.84 383.90 396.84 383.29L396.84 383.19L397.34 374.56Q397.41 373.95 397.83 373.54Q398.29 373.14 398.92 373.14L408.94 373.14Q409.61 373.14 410.07 373.61Q410.53 374.05 410.53 374.66Q410.53 375.27 410.03 375.74Q409.57 376.22 408.94 376.22L400.41 376.22L400.12 381.53L400.79 381.53Q405.27 381.53 407.99 383.73Q410.74 385.90 410.74 390.16Q410.74 391.96 409.93 393.52Q409.08 395.11 407.81 396.22Q404.42 399.27 397.73 399.27Q397.09 399.27 396.60 398.83M398.54 384.75Q398.54 384.75 398.57 384.75Q398.57 384.75 398.54 384.75ZM424.93 376.73Q423.59 377.40 423.59 378.69Q423.59 379.54 423.91 380.18Q424.23 380.82 424.97 381.36Q425.67 381.87 426.13 382.14Q426.63 382.41 427.61 382.89L427.68 382.89L427.75 382.89Q428.74 382.45 429.24 382.18Q429.73 381.90 430.43 381.40Q431.14 380.86 431.46 380.21Q431.77 379.54 431.77 378.69Q431.77 377.40 430.43 376.73Q429.13 376.05 427.68 376.05Q426.24 376.05 424.93 376.73M427.68 386.37Q422.36 389.05 422.36 392.23Q422.36 394.13 423.95 395.17Q425.43 396.22 427.68 396.22L428.39 396.22Q430.26 396.22 431.60 395.04Q432.97 393.85 432.97 392.23Q432.97 389.01 427.83 386.37L427.75 386.31L427.68 386.37M421.65 397.31Q419.22 395.34 419.22 392.23Q419.22 388.13 424.23 384.82L424.44 384.68L424.23 384.55Q420.42 382.31 420.42 378.69Q420.42 376.22 422.68 374.63Q424.90 373.00 427.68 373.00Q430.43 373.00 432.69 374.63Q434.95 376.25 434.95 378.69Q434.95 380.69 433.96 382.07Q432.94 383.43 431.14 384.55L430.93 384.68L431.14 384.82Q436.15 388.13 436.15 392.23Q436.15 394.90 434.10 396.97Q432.06 399.03 429.17 399.27L427.68 399.27Q424.05 399.27 421.65 397.31ZM443.68 375.78Q443.22 375.30 443.22 374.66Q443.22 374.02 443.68 373.58Q444.14 373.14 444.81 373.14L458.56 373.14Q459.23 373.14 459.69 373.61Q460.15 374.05 460.15 374.66Q460.15 377.23 458.07 380.25Q457.43 381.19 455.60 383.39Q453.76 385.63 452.99 387.02Q450.70 391.08 450.70 397.61Q450.70 398.26 450.24 398.73Q449.78 399.17 449.18 399.17Q448.58 399.17 448.12 398.73Q447.66 398.29 447.66 397.61Q447.66 390.23 450.34 385.46Q451.16 384.07 452.99 381.74Q454.86 379.37 455.46 378.49Q456.30 377.13 456.62 376.45L456.69 376.22L444.81 376.22Q444.17 376.22 443.68 375.78ZM468.77 380.92Q468.31 380.45 468.31 379.84Q468.31 379.13 468.77 378.79L475.23 373.48Q475.68 373.10 476.25 373.10L477.38 373.10Q478.01 373.10 478.47 373.58Q478.96 374.02 478.96 374.63L478.96 397.65Q478.96 398.26 478.47 398.73Q478.01 399.17 477.38 399.17Q476.74 399.17 476.25 398.73Q475.79 398.29 475.79 397.65L475.79 377.03L470.96 380.99Q470.50 381.36 469.90 381.36Q469.23 381.36 468.77 380.92ZM493.28 377.37Q492.82 376.89 492.82 376.32Q492.82 375.47 493.49 375.03Q496.70 373.00 500.68 373.00Q503.89 373.00 506.04 374.97Q508.23 376.89 508.23 380.04Q508.23 381.30 507.77 382.45Q507.31 383.63 506.71 384.38Q506.15 385.12 505.02 386.03Q503.89 386.95 503.29 387.36Q502.73 387.76 501.50 388.54Q500.16 389.39 499.56 389.83Q498.96 390.27 498.11 391.15Q497.26 391.99 496.88 393.08Q496.49 394.13 496.42 395.58L496.42 395.75L506.86 395.75Q507.53 395.75 507.98 396.22Q508.44 396.66 508.44 397.27Q508.44 397.88 507.95 398.36Q507.49 398.80 506.86 398.80L494.80 398.80Q494.16 398.80 493.67 398.36Q493.21 397.88 493.21 397.27L493.21 396.56Q493.21 393.92 493.56 392.77Q494.16 390.74 495.82 389.15Q497.48 387.52 499.87 385.97Q503.19 383.83 504.07 382.62Q505.06 381.40 505.06 380.04Q505.06 378.25 503.75 377.13Q502.52 376.05 500.68 376.05Q497.51 376.05 495.32 377.54Q494.94 377.81 494.41 377.81Q493.77 377.81 493.28 377.37ZM516.40 386.61L516.40 385.66Q516.40 385.02 516.86 384.58Q517.31 384.14 517.98 384.14L532.09 384.14Q532.76 384.14 533.22 384.61Q533.68 385.05 533.68 385.66L533.68 386.61Q533.68 387.22 533.22 387.69Q532.76 388.13 532.09 388.13L517.98 388.13Q517.31 388.13 516.86 387.69Q516.40 387.25 516.40 386.61ZM546.93 376.73Q545.59 377.40 545.59 378.69Q545.59 379.54 545.91 380.18Q546.23 380.82 546.97 381.36Q547.67 381.87 548.13 382.14Q548.63 382.41 549.61 382.89L549.68 382.89L549.75 382.89Q550.74 382.45 551.24 382.18Q551.73 381.90 552.43 381.40Q553.14 380.86 553.46 380.21Q553.77 379.54 553.77 378.69Q553.77 377.40 552.43 376.73Q551.13 376.05 549.68 376.05Q548.24 376.05 546.93 376.73M549.68 386.37Q544.36 389.05 544.36 392.23Q544.36 394.13 545.95 395.17Q547.43 396.22 549.68 396.22L550.39 396.22Q552.26 396.22 553.60 395.04Q554.97 393.85 554.97 392.23Q554.97 389.01 549.83 386.37L549.75 386.31L549.68 386.37M543.65 397.31Q541.22 395.34 541.22 392.23Q541.22 388.13 546.23 384.82L546.44 384.68L546.23 384.55Q542.42 382.31 542.42 378.69Q542.42 376.22 544.68 374.63Q546.90 373.00 549.68 373.00Q552.43 373.00 554.69 374.63Q556.95 376.25 556.95 378.69Q556.95 380.69 555.96 382.07Q554.94 383.43 553.14 384.55L552.93 384.68L553.14 384.82Q558.15 388.13 558.15 392.23Q558.15 394.90 556.10 396.97Q554.06 399.03 551.17 399.27L549.68 399.27Q546.05 399.27 543.65 397.31ZM565.96 397.98Q565.22 397.44 565.22 396.63Q565.22 395.99 565.68 395.55Q566.17 395.07 566.81 395.07Q567.02 395.07 567.41 395.21Q569.66 396.19 572.13 396.19Q574.81 396.19 576.65 394.90Q578.52 393.58 578.66 391.08L578.66 390.74Q578.66 389.01 577.53 387.80Q576.47 386.61 574.92 386.10Q573.40 385.63 571.53 385.63Q570.93 385.63 570.48 385.19Q570.02 384.71 570.02 384.07Q570.02 383.46 570.33 383.12L576.82 376.22L566.91 376.22Q566.28 376.22 565.79 375.78Q565.33 375.30 565.33 374.66Q565.33 374.02 565.79 373.58Q566.24 373.14 566.91 373.14L579.36 373.14Q580.00 373.14 580.45 373.61Q580.95 374.05 580.95 374.66L580.95 375.88Q580.95 376.42 580.45 376.89L574.78 382.89L575.06 382.95Q578.06 383.70 579.96 385.70Q581.83 387.69 581.83 390.71L581.83 391.25Q581.65 394.94 578.83 397.10Q576.08 399.27 572.13 399.27Q571.15 399.27 570.16 399.17Q569.17 399.07 567.94 398.83Q566.70 398.56 565.96 397.98ZM590.28 377.37Q589.82 376.89 589.82 376.32Q589.82 375.47 590.49 375.03Q593.70 373.00 597.68 373.00Q600.89 373.00 603.04 374.97Q605.23 376.89 605.23 380.04Q605.23 381.30 604.77 382.45Q604.31 383.63 603.71 384.38Q603.15 385.12 602.02 386.03Q600.89 386.95 600.29 387.36Q599.73 387.76 598.50 388.54Q597.16 389.39 596.56 389.83Q595.96 390.27 595.11 391.15Q594.26 391.99 593.88 393.08Q593.49 394.13 593.42 395.58L593.42 395.75L603.86 395.75Q604.53 395.75 604.98 396.22Q605.44 396.66 605.44 397.27Q605.44 397.88 604.95 398.36Q604.49 398.80 603.86 398.80L591.80 398.80Q591.16 398.80 590.67 398.36Q590.21 397.88 590.21 397.27L590.21 396.56Q590.21 393.92 590.56 392.77Q591.16 390.74 592.82 389.15Q594.48 387.52 596.87 385.97Q600.19 383.83 601.07 382.62Q602.06 381.40 602.06 380.04Q602.06 378.25 600.75 377.13Q599.52 376.05 597.68 376.05Q594.51 376.05 592.32 377.54Q591.94 377.81 591.41 377.81Q590.77 377.81 590.28 377.37ZM613.68 375.78Q613.22 375.30 613.22 374.66Q613.22 374.02 613.68 373.58Q614.14 373.14 614.81 373.14L628.56 373.14Q629.23 373.14 629.69 373.61Q630.15 374.05 630.15 374.66Q630.15 377.23 628.07 380.25Q627.43 381.19 625.60 383.39Q623.76 385.63 622.99 387.02Q620.70 391.08 620.70 397.61Q620.70 398.26 620.24 398.73Q619.78 399.17 619.18 399.17Q618.58 399.17 618.12 398.73Q617.66 398.29 617.66 397.61Q617.66 390.23 620.34 385.46Q621.16 384.07 622.99 381.74Q624.86 379.37 625.46 378.49Q626.30 377.13 626.62 376.45L626.69 376.22L614.81 376.22Q614.17 376.22 613.68 375.78ZM637.68 375.78Q637.22 375.30 637.22 374.66Q637.22 374.02 637.68 373.58Q638.14 373.14 638.81 373.14L652.56 373.14Q653.23 373.14 653.69 373.61Q654.15 374.05 654.15 374.66Q654.15 377.23 652.07 380.25Q651.43 381.19 649.60 383.39Q647.76 385.63 646.99 387.02Q644.70 391.08 644.70 397.61Q644.70 398.26 644.24 398.73Q643.78 399.17 643.18 399.17Q642.58 399.17 642.12 398.73Q641.66 398.29 641.66 397.61Q641.66 390.23 644.34 385.46Q645.16 384.07 646.99 381.74Q648.86 379.37 649.46 378.49Q650.30 377.13 650.62 376.45L650.69 376.22L638.81 376.22Q638.17 376.22 637.68 375.78Z" fill="#000000" />
</svg>
