<svg viewBox="0 0 759 431" xmlns="http://www.w3.org/2000/svg">
<rect width="100%" height="100%" fill="#FFFFFF" />
<path stroke="#000000" stroke-width="6" d="M33 371L33 30M66 371L66 30M123 371L123 30M150 371L150 30M174 371L174 30M222 371L222 30M339 371L339 30M396 371L396 30M405 371L405 30M420 371L420 30M504 371L504 30M528 371L528 30M645 371L645 30M666 371L666 30M693 371L693 30M726 371L726 30" />
<path stroke="#000000" stroke-width="3" d="M40.50 371L40.50 30M49.50 371L49.50 30M79.50 371L79.50 30M91.50 371L91.50 30M97.50 371L97.50 30M142.50 371L142.50 30M163.50 371L163.50 30M196.50 371L196.50 30M229.50 371L229.50 30M289.50 371L289.50 30M310.50 371L310.50 30M316.50 371L316.50 30M328.50 371L328.50 30M355.50 371L355.50 30M361.50 371L361.50 30M370.50 371L370.50 30M454.50 371L454.50 30M460.50 371L460.50 30M493.50 371L493.50 30M550.50 371L550.50 30M559.50 371L559.50 30M619.50 371L619.50 30M625.50 371L625.50 30M634.50 371L634.50 30M658.50 371L658.50 30M679.50 371L679.50 30M718.50 371L718.50 30" />
<path stroke="#000000" stroke-width="9" d="M106.50 371L106.50 30M133.50 371L133.50 30M184.50 371L184.50 30M208.50 371L208.50 30M238.50 371L238.50 30M280.50 371L280.50 30M430.50 371L430.50 30M484.50 371L484.50 30M514.50 371L514.50 30M538.50 371L538.50 30M568.50 371L568.50 30M610.50 371L610.50 30M709.50 371L709.50 30" />
<path stroke="#000000" stroke-width="12" d="M252 371L252 30M267 371L267 30M300 371L300 30M384 371L384 30M444 371L444 30M471 371L471 30M582 371L582 30M597 371L597 30" />
<path d="M107.73 398.29Q107.23 397.78 107.23 397.10Q107.23 396.39 107.69 395.89Q108.15 395.41 108.82 395.41L112.20 395.41L112.20 376.59L109.52 376.59Q108.89 376.59 108.43 376.08Q107.94 375.57 107.94 374.90Q107.94 374.22 108.40 373.71Q108.85 373.20 109.52 373.20L117.85 373.20Q118.52 373.20 118.97 373.71Q119.43 374.22 119.43 374.90Q119.43 375.57 118.94 376.08Q118.48 376.59 117.85 376.59L115.17 376.59L115.17 395.41L118.55 395.41Q119.22 395.41 119.68 395.89Q120.14 396.39 120.14 397.10Q120.14 397.78 119.64 398.29Q119.19 398.80 118.55 398.80L108.82 398.80Q108.18 398.80 107.73 398.29ZM130.21 398.86Q129.72 398.36 129.72 397.65L129.72 374.46Q129.72 373.75 130.17 373.27Q130.67 372.76 131.30 372.76L132.61 372.76Q133.03 372.76 133.42 373.04Q133.84 373.27 134.02 373.71L142.48 392.91L142.48 374.39Q142.48 373.71 142.94 373.24Q143.43 372.73 144.07 372.73Q144.70 372.73 145.16 373.24Q145.65 373.71 145.65 374.42L145.65 397.61Q145.65 398.32 145.16 398.83Q144.70 399.34 144.07 399.34L142.73 399.34Q141.74 399.34 141.32 398.42L132.89 379.23L132.89 397.68Q132.89 398.36 132.40 398.86Q131.94 399.37 131.30 399.37Q130.67 399.37 130.21 398.86ZM159.00 398.15L153.19 374.46Q153.19 373.78 153.68 373.31Q154.17 372.80 154.81 372.80Q155.34 372.80 155.76 373.17Q156.22 373.51 156.32 373.98L161.68 395.65L167.01 373.98Q167.22 373.48 167.61 373.14Q168.03 372.80 168.56 372.80Q169.20 372.80 169.69 373.31Q170.18 373.81 170.18 374.46L164.29 398.15Q164.19 398.66 163.76 399.03Q163.34 399.37 162.85 399.37L160.52 399.37Q160.03 399.37 159.57 399Q159.11 398.63 159.00 398.15ZM177.40 386.61L177.40 385.66Q177.40 385.02 177.86 384.58Q178.31 384.14 178.98 384.14L193.09 384.14Q193.76 384.14 194.22 384.61Q194.68 385.05 194.68 385.66L194.68 386.61Q194.68 387.22 194.22 387.69Q193.76 388.13 193.09 388.13L178.98 388.13Q178.31 388.13 177.86 387.69Q177.40 387.25 177.40 386.61ZM203.77 380.92Q203.31 380.45 203.31 379.84Q203.31 379.13 203.77 378.79L210.23 373.48Q210.68 373.10 211.25 373.10L212.38 373.10Q213.01 373.10 213.47 373.58Q213.96 374.02 213.96 374.63L213.96 397.65Q213.96 398.26 213.47 398.73Q213.01 399.17 212.38 399.17Q211.74 399.17 211.25 398.73Q210.79 398.29 210.79 397.65L210.79 377.03L205.96 380.99Q205.50 381.36 204.90 381.36Q204.23 381.36 203.77 380.92ZM227.68 375.78Q227.22 375.30 227.22 374.66Q227.22 374.02 227.68 373.58Q228.14 373.14 228.81 373.14L242.56 373.14Q243.23 373.14 243.69 373.61Q244.15 374.05 244.15 374.66Q244.15 377.23 242.07 380.25Q241.43 381.19 239.60 383.39Q237.76 385.63 236.99 387.02Q234.70 391.08 234.70 397.61Q234.70 398.26 234.24 398.73Q233.78 399.17 233.18 399.17Q232.58 399.17 232.12 398.73Q231.66 398.29 231.66 397.61Q231.66 390.23 234.34 385.46Q235.16 384.07 236.99 381.74Q238.86 379.37 239.46 378.49Q240.30 377.13 240.62 376.45L240.69 376.22L228.81 376.22Q228.17 376.22 227.68 375.78ZM251.68 375.78Q251.22 375.30 251.22 374.66Q251.22 374.02 251.68 373.58Q252.14 373.14 252.81 373.14L266.56 373.14Q267.23 373.14 267.69 373.61Q268.15 374.05 268.15 374.66Q268.15 377.23 266.07 380.25Q265.43 381.19 263.60 383.39Q261.76 385.63 260.99 387.02Q258.70 391.08 258.70 397.61Q258.70 398.26 258.24 398.73Q257.78 399.17 257.18 399.17Q256.58 399.17 256.12 398.73Q255.66 398.29 255.66 397.61Q255.66 390.23 258.34 385.46Q259.16 384.07 260.99 381.74Q262.86 379.37 263.46 378.49Q264.30 377.13 264.62 376.45L264.69 376.22L252.81 376.22Q252.17 376.22 251.68 375.78ZM279.95 377.71Q278.40 379.33 278.40 381.60Q278.40 383.80 279.88 385.19Q281.29 386.54 283.68 386.54Q287.88 386.54 288.62 384.07Q288.97 382.95 288.97 381.60Q288.97 379.06 287.49 377.57Q286.05 376.05 283.68 376.05Q281.46 376.05 279.95 377.71M277.62 387.29Q275.22 385.02 275.22 381.60Q275.22 378.08 277.76 375.54Q280.23 373.00 283.68 373.00Q287.25 373.00 289.68 375.37Q292.15 377.74 292.15 381.60Q292.15 384.00 291.41 385.93Q290.67 387.86 289.33 390.10Q286.40 395.01 282.17 398.76Q281.71 399.17 281.18 399.17Q280.58 399.17 280.12 398.73Q279.66 398.29 279.66 397.65Q279.66 397.00 280.16 396.53Q283.51 393.45 285.91 389.72L286.08 389.39L285.73 389.45Q284.81 389.59 283.68 389.59Q279.95 389.59 277.62 387.29ZM299.68 375.78Q299.22 375.30 299.22 374.66Q299.22 374.02 299.68 373.58Q300.14 373.14 300.81 373.14L314.56 373.14Q315.23 373.14 315.69 373.61Q316.15 374.05 316.15 374.66Q316.15 377.23 314.07 380.25Q313.43 381.19 311.60 383.39Q309.76 385.63 308.99 387.02Q306.70 391.08 306.70 397.61Q306.70 398.26 306.24 398.73Q305.78 399.17 305.18 399.17Q304.58 399.17 304.12 398.73Q303.66 398.29 303.66 397.61Q303.66 390.23 306.34 385.46Q307.16 384.07 308.99 381.74Q310.86 379.37 311.46 378.49Q312.30 377.13 312.62 376.45L312.69 376.22L300.81 376.22Q300.17 376.22 299.68 375.78ZM323.68 375.78Q323.22 375.30 323.22 374.66Q323.22 374.02 323.68 373.58Q324.14 373.14 324.81 373.14L338.56 373.14Q339.23 373.14 339.69 373.61Q340.15 374.05 340.15 374.66Q340.15 377.23 338.07 380.25Q337.43 381.19 335.60 383.39Q333.76 385.63 332.99 387.02Q330.70 391.08 330.70 397.61Q330.70 398.26 330.24 398.73Q329.78 399.17 329.18 399.17Q328.58 399.17 328.12 398.73Q327.66 398.29 327.66 397.61Q327.66 390.23 330.34 385.46Q331.16 384.07 332.99 381.74Q334.86 379.37 335.46 378.49Q336.30 377.13 336.62 376.45L336.69 376.22L324.81 376.22Q324.17 376.22 323.68 375.78ZM348.28 377.37Q347.82 376.89 347.82 376.32Q347.82 375.47 348.49 375.03Q351.70 373.00 355.68 373.00Q358.89 373.00 361.04 374.97Q363.23 376.89 363.23 380.04Q363.23 381.30 362.77 382.45Q362.31 383.63 361.71 384.38Q361.15 385.12 360.02 386.03Q358.89 386.95 358.29 387.36Q357.73 387.76 356.50 388.54Q355.16 389.39 354.56 389.83Q353.96 390.27 353.11 391.15Q352.26 391.99 351.88 393.08Q351.49 394.13 351.42 395.58L351.42 395.75L361.86 395.75Q362.53 395.75 362.98 396.22Q363.44 396.66 363.44 397.27Q363.44 397.88 362.95 398.36Q362.49 398.80 361.86 398.80L349.80 398.80Q349.16 398.80 348.67 398.36Q348.21 397.88 348.21 397.27L348.21 396.56Q348.21 393.92 348.56 392.77Q349.16 390.74 350.82 389.15Q352.48 387.52 354.87 385.97Q358.19 383.83 359.07 382.62Q360.06 381.40 360.06 380.04Q360.06 378.25 358.75 377.13Q357.52 376.05 355.68 376.05Q352.51 376.05 350.32 377.54Q349.94 377.81 349.41 377.81Q348.77 377.81 348.28 377.37ZM376.93 376.73Q375.59 377.40 375.59 378.69Q375.59 379.54 375.91 380.18Q376.23 380.82 376.97 381.36Q377.67 381.87 378.13 382.14Q378.63 382.41 379.61 382.89L379.68 382.89L379.75 382.89Q380.74 382.45 381.24 382.18Q381.73 381.90 382.43 381.40Q383.14 380.86 383.46 380.21Q383.77 379.54 383.77 378.69Q383.77 377.40 382.43 376.73Q381.13 376.05 379.68 376.05Q378.24 376.05 376.93 376.73M379.68 386.37Q374.36 389.05 374.36 392.23Q374.36 394.13 375.95 395.17Q377.43 396.22 379.68 396.22L380.39 396.22Q382.26 396.22 383.60 395.04Q384.97 393.85 384.97 392.23Q384.97 389.01 379.83 386.37L379.75 386.31L379.68 386.37M373.65 397.31Q371.22 395.34 371.22 392.23Q371.22 388.13 376.23 384.82L376.44 384.68L376.23 384.55Q372.42 382.31 372.42 378.69Q372.42 376.22 374.68 374.63Q376.90 373.00 379.68 373.00Q382.43 373.00 384.69 374.63Q386.95 376.25 386.95 378.69Q386.95 380.69 385.96 382.07Q384.94 383.43 383.14 384.55L382.93 384.68L383.14 384.82Q388.15 388.13 388.15 392.23Q388.15 394.90 386.10 396.97Q384.06 399.03 381.17 399.27L379.68 399.27Q376.05 399.27 373.65 397.31ZM396.28 377.37Q395.82 376.89 395.82 376.32Q395.82 375.47 396.49 375.03Q399.70 373.00 403.68 373.00Q406.89 373.00 409.04 374.97Q411.23 376.89 411.23 380.04Q411.23 381.30 410.77 382.45Q410.31 383.63 409.71 384.38Q409.15 385.12 408.02 386.03Q406.89 386.95 406.29 387.36Q405.73 387.76 404.50 388.54Q403.16 389.39 402.56 389.83Q401.96 390.27 401.11 391.15Q400.26 391.99 399.88 393.08Q399.49 394.13 399.42 395.58L399.42 395.75L409.86 395.75Q410.53 395.75 410.98 396.22Q411.44 396.66 411.44 397.27Q411.44 397.88 410.95 398.36Q410.49 398.80 409.86 398.80L397.80 398.80Q397.16 398.80 396.67 398.36Q396.21 397.88 396.21 397.27L396.21 396.56Q396.21 393.92 396.56 392.77Q397.16 390.74 398.82 389.15Q400.48 387.52 402.87 385.97Q406.19 383.83 407.07 382.62Q408.06 381.40 408.06 380.04Q408.06 378.25 406.75 377.13Q405.52 376.05 403.68 376.05Q400.51 376.05 398.32 377.54Q397.94 377.81 397.41 377.81Q396.77 377.81 396.28 377.37ZM419.96 397.98Q419.22 397.44 419.22 396.63Q419.22 395.99 419.68 395.55Q420.17 395.07 420.81 395.07Q421.02 395.07 421.41 395.21Q423.66 396.19 426.13 396.19Q428.81 396.19 430.65 394.90Q432.52 393.58 432.66 391.08L432.66 390.74Q432.66 389.01 431.53 387.80Q430.47 386.61 428.92 386.10Q427.40 385.63 425.53 385.63Q424.93 385.63 424.48 385.19Q424.02 384.71 424.02 384.07Q424.02 383.46 424.33 383.12L430.82 376.22L420.91 376.22Q420.28 376.22 419.79 375.78Q419.33 375.30 419.33 374.66Q419.33 374.02 419.79 373.58Q420.24 373.14 420.91 373.14L433.36 373.14Q434.00 373.14 434.45 373.61Q434.95 374.05 434.95 374.66L434.95 375.88Q434.95 376.42 434.45 376.89L428.78 382.89L429.06 382.95Q432.06 383.70 433.96 385.70Q435.83 387.69 435.83 390.71L435.83 391.25Q435.65 394.94 432.83 397.10Q430.08 399.27 426.13 399.27Q425.15 399.27 424.16 399.17Q423.17 399.07 421.94 398.83Q420.70 398.56 419.96 397.98ZM444.77 380.92Q444.31 380.45 444.31 379.84Q444.31 379.13 444.77 378.79L451.23 373.48Q451.68 373.10 452.25 373.10L453.38 373.10Q454.01 373.10 454.47 373.58Q454.96 374.02 454.96 374.63L454.96 397.65Q454.96 398.26 454.47 398.73Q454.01 399.17 453.38 399.17Q452.74 399.17 452.25 398.73Q451.79 398.29 451.79 397.65L451.79 377.03L446.96 380.99Q446.50 381.36 445.90 381.36Q445.23 381.36 444.77 380.92ZM470.69 397.07Q468.33 394.87 468.22 391.25L468.22 390.84Q468.22 386.61 470.65 382.75Q471.64 381.16 473.05 379.40Q474.43 377.61 475.38 376.56Q476.33 375.47 478.09 373.54Q478.48 373.10 479.19 373.10Q479.79 373.10 480.25 373.58Q480.70 374.02 480.70 374.63Q480.70 375.20 480.32 375.68Q476.33 380.01 474.46 382.62L474.22 382.95L474.60 382.89Q475.63 382.68 476.68 382.68Q480.53 382.68 482.82 384.99Q485.15 387.32 485.15 391.25Q485.15 394.80 482.75 397.04Q480.35 399.27 476.68 399.27Q473.02 399.27 470.69 397.07M472.81 387.22Q471.40 388.68 471.40 391.25Q471.40 393.55 472.88 394.90Q474.32 396.22 476.68 396.22Q479.01 396.22 480.46 394.87Q481.97 393.52 481.97 391.25Q481.97 388.61 480.60 387.19Q479.26 385.73 476.68 385.73Q474.18 385.73 472.81 387.22ZM500.83 399.27L500.68 399.27Q498.60 399.24 497.05 398.59Q495.50 397.98 494.58 397.00Q493.67 395.99 493.14 394.40Q492.57 392.81 492.40 391.18Q492.22 389.59 492.22 387.42Q492.22 385.49 492.26 384.14Q492.33 382.75 492.54 381.16Q492.75 379.54 493.10 378.45Q493.49 377.33 494.13 376.22Q494.76 375.13 495.64 374.49Q496.52 373.85 497.79 373.44Q499.06 373.04 500.68 373.04Q502.27 373.04 503.54 373.44Q504.81 373.85 505.69 374.49Q506.57 375.13 507.24 376.22Q507.88 377.33 508.23 378.45Q508.62 379.57 508.83 381.16Q509.04 382.75 509.08 384.14Q509.15 385.53 509.15 387.42Q509.15 388.78 509.08 389.89Q509.01 390.98 508.76 392.26Q508.55 393.55 508.20 394.53Q507.84 395.48 507.17 396.39Q506.50 397.31 505.66 397.92Q504.81 398.53 503.58 398.90Q502.34 399.27 500.83 399.27M495.40 384.65L495.40 387.42Q495.40 388.95 495.47 390.03Q495.57 391.11 495.89 392.37Q496.17 393.62 496.74 394.40Q497.30 395.21 498.29 395.75Q499.27 396.26 500.68 396.26L501.42 396.26Q502.41 396.26 503.19 395.89Q503.96 395.48 504.42 394.73Q504.92 394.02 505.23 393.21Q505.55 392.37 505.69 391.32Q505.87 390.23 505.90 389.35Q505.97 388.47 505.97 387.42L505.97 385.87Q505.97 384.82 505.94 384.21Q505.94 383.56 505.90 382.62Q505.87 381.63 505.76 381.09Q505.66 380.52 505.48 379.74Q505.30 378.96 505.02 378.49Q504.74 378.01 504.35 377.50Q503.93 377.00 503.43 376.73Q502.91 376.42 502.20 376.25Q501.53 376.08 500.68 376.08Q499.80 376.08 499.10 376.29Q498.43 376.45 497.90 376.79Q497.37 377.13 496.95 377.64Q496.56 378.11 496.28 378.72Q495.99 379.30 495.82 380.01Q495.64 380.69 495.57 381.46Q495.50 382.21 495.43 383.02Q495.40 383.80 495.40 384.65ZM516.40 386.61L516.40 385.66Q516.40 385.02 516.86 384.58Q517.31 384.14 517.98 384.14L532.09 384.14Q532.76 384.14 533.22 384.61Q533.68 385.05 533.68 385.66L533.68 386.61Q533.68 387.22 533.22 387.69Q532.76 388.13 532.09 388.13L517.98 388.13Q517.31 388.13 516.86 387.69Q516.40 387.25 516.40 386.61ZM542.60 398.83Q542.14 398.39 542.14 397.75Q542.14 397.07 542.60 396.63Q543.09 396.19 543.73 396.19Q550.85 396.19 552.93 392.37Q553.56 391.21 553.56 390.16Q553.56 387.69 552.36 386.44Q550.78 384.65 546.79 384.65Q545.70 384.65 544.57 384.75L544.43 384.75Q543.80 384.75 543.30 384.34Q542.84 383.90 542.84 383.29L542.84 383.19L543.34 374.56Q543.41 373.95 543.83 373.54Q544.29 373.14 544.92 373.14L554.94 373.14Q555.61 373.14 556.07 373.61Q556.53 374.05 556.53 374.66Q556.53 375.27 556.03 375.74Q555.57 376.22 554.94 376.22L546.41 376.22L546.12 381.53L546.79 381.53Q551.27 381.53 553.99 383.73Q556.74 385.90 556.74 390.16Q556.74 391.96 555.93 393.52Q555.08 395.11 553.81 396.22Q550.42 399.27 543.73 399.27Q543.09 399.27 542.60 398.83M544.54 384.75Q544.54 384.75 544.57 384.75Q544.57 384.75 544.54 384.75ZM565.68 375.78Q565.22 375.30 565.22 374.66Q565.22 374.02 565.68 373.58Q566.14 373.14 566.81 373.14L580.56 373.14Q581.23 373.14 581.69 373.61Q582.15 374.05 582.15 374.66Q582.15 377.23 580.07 380.25Q579.43 381.19 577.60 383.39Q575.76 385.63 574.99 387.02Q572.70 391.08 572.70 397.61Q572.70 398.26 572.24 398.73Q571.78 399.17 571.18 399.17Q570.58 399.17 570.12 398.73Q569.66 398.29 569.66 397.61Q569.66 390.23 572.34 385.46Q573.16 384.07 574.99 381.74Q576.86 379.37 577.46 378.49Q578.30 377.13 578.62 376.45L578.69 376.22L566.81 376.22Q566.17 376.22 565.68 375.78ZM589.68 375.78Q589.22 375.30 589.22 374.66Q589.22 374.02 589.68 373.58Q590.14 373.14 590.81 373.14L604.56 373.14Q605.23 373.14 605.69 373.61Q606.15 374.05 606.15 374.66Q606.15 377.23 604.07 380.25Q603.43 381.19 601.60 383.39Q599.76 385.63 598.99 387.02Q596.70 391.08 596.70 397.61Q596.70 398.26 596.24 398.73Q595.78 399.17 595.18 399.17Q594.58 399.17 594.12 398.73Q593.66 398.29 593.66 397.61Q593.66 390.23 596.34 385.46Q597.16 384.07 598.99 381.74Q600.86 379.37 601.46 378.49Q602.30 377.13 602.62 376.45L602.69 376.22L590.81 376.22Q590.17 376.22 589.68 375.78ZM621.83 399.27L621.68 399.27Q619.60 399.24 618.05 398.59Q616.50 397.98 615.58 397.00Q614.67 395.99 614.14 394.40Q613.57 392.81 613.40 391.18Q613.22 389.59 613.22 387.42Q613.22 385.49 613.26 384.14Q613.33 382.75 613.54 381.16Q613.75 379.54 614.10 378.45Q614.49 377.33 615.13 376.22Q615.76 375.13 616.64 374.49Q617.52 373.85 618.79 373.44Q620.06 373.04 621.68 373.04Q623.27 373.04 624.54 373.44Q625.81 373.85 626.69 374.49Q627.57 375.13 628.24 376.22Q628.88 377.33 629.23 378.45Q629.62 379.57 629.83 381.16Q630.04 382.75 630.08 384.14Q630.15 385.53 630.15 387.42Q630.15 388.78 630.08 389.89Q630.01 390.98 629.76 392.26Q629.55 393.55 629.20 394.53Q628.84 395.48 628.17 396.39Q627.50 397.31 626.66 397.92Q625.81 398.53 624.58 398.90Q623.34 399.27 621.83 399.27M616.40 384.65L616.40 387.42Q616.40 388.95 616.47 390.03Q616.57 391.11 616.89 392.37Q617.17 393.62 617.74 394.40Q618.30 395.21 619.29 395.75Q620.27 396.26 621.68 396.26L622.42 396.26Q623.41 396.26 624.19 395.89Q624.96 395.48 625.42 394.73Q625.92 394.02 626.23 393.21Q626.55 392.37 626.69 391.32Q626.87 390.23 626.90 389.35Q626.97 388.47 626.97 387.42L626.97 385.87Q626.97 384.82 626.94 384.21Q626.94 383.56 626.90 382.62Q626.87 381.63 626.76 381.09Q626.66 380.52 626.48 379.74Q626.30 378.96 626.02 378.49Q625.74 378.01 625.35 377.50Q624.93 377.00 624.43 376.73Q623.91 376.42 623.20 376.25Q622.53 376.08 621.68 376.08Q620.80 376.08 620.10 376.29Q619.43 376.45 618.90 376.79Q618.37 377.13 617.95 377.64Q617.56 378.11 617.28 378.72Q616.99 379.30 616.82 380.01Q616.64 380.69 616.57 381.46Q616.50 382.21 616.43 383.02Q616.40 383.80 616.40 384.65ZM637.96 397.98Q637.22 397.44 637.22 396.63Q637.22 395.99 637.68 395.55Q638.17 395.07 638.81 395.07Q639.02 395.07 639.41 395.21Q641.66 396.19 644.13 396.19Q646.81 396.19 648.65 394.90Q650.52 393.58 650.66 391.08L650.66 390.74Q650.66 389.01 649.53 387.80Q648.47 386.61 646.92 386.10Q645.40 385.63 643.53 385.63Q642.93 385.63 642.48 385.19Q642.02 384.71 642.02 384.07Q642.02 383.46 642.33 383.12L648.82 376.22L638.91 376.22Q638.28 376.22 637.79 375.78Q637.33 375.30 637.33 374.66Q637.33 374.02 637.79 373.58Q638.24 373.14 638.91 373.14L651.36 373.14Q652.00 373.14 652.45 373.61Q652.95 374.05 652.95 374.66L652.95 375.88Q652.95 376.42 652.45 376.89L646.78 382.89L647.06 382.95Q650.06 383.70 651.96 385.70Q653.83 387.69 653.83 390.71L653.83 391.25Q653.65 394.94 650.83 397.10Q648.08 399.27 644.13 399.27Q643.15 399.27 642.16 399.17Q641.17 399.07 639.94 398.83Q638.70 398.56 637.96 397.98Z" fill="#000000" />
</svg>
