<svg viewBox="0 0 726 431" xmlns="http://www.w3.org/2000/svg">
<rect width="100%" height="100%" fill="#FFFFFF" />
<path stroke="#000000" stroke-width="6" d="M33 371L33 30M66 371L66 30M123 371L123 30M150 371L150 30M174 371L174 30M222 371L222 30M345 371L345 30M414 371L414 30M453 371L453 30M504 371L504 30M576 371L576 30M594 371L594 30M627 371L627 30M660 371L660 30M693 371L693 30" />
<path stroke="#000000" stroke-width="3" d="M40.50 371L40.50 30M49.50 371L49.50 30M79.50 371L79.50 30M91.50 371L91.50 30M97.50 371L97.50 30M142.50 371L142.50 30M163.50 371L163.50 30M196.50 371L196.50 30M229.50 371L229.50 30M289.50 371L289.50 30M310.50 371L310.50 30M316.50 371L316.50 30M328.50 371L328.50 30M352.50 371L352.50 30M379.50 371L379.50 30M388.50 371L388.50 30M394.50 371L394.50 30M427.50 371L427.50 30M460.50 371L460.50 30M493.50 371L493.50 30M526.50 371L526.50 30M586.50 371L586.50 30M607.50 371L607.50 30M613.50 371L613.50 30M637.50 371L637.50 30M643.50 371L643.50 30M685.50 371L685.50 30" />
<path stroke="#000000" stroke-width="9" d="M106.50 371L106.50 30M133.50 371L133.50 30M184.50 371L184.50 30M208.50 371L208.50 30M238.50 371L238.50 30M280.50 371L280.50 30M403.50 371L403.50 30M436.50 371L436.50 30M484.50 371L484.50 30M514.50 371L514.50 30M535.50 371L535.50 30M562.50 371L562.50 30M676.50 371L676.50 30" />
<path stroke="#000000" stroke-width="12" d="M252 371L252 30M267 371L267 30M300 371L300 30M366 371L366 30M471 371L471 30M549 371L549 30" />
<path d="M103.73 398.29Q103.23 397.78 103.23 397.10Q103.23 396.39 103.69 395.89Q104.15 395.41 104.82 395.41L108.20 395.41L108.20 376.59L105.52 376.59Q104.89 376.59 104.43 376.08Q103.94 375.57 103.94 374.90Q103.94 374.22 104.40 373.71Q104.85 373.20 105.52 373.20L113.85 373.20Q114.52 373.20 114.97 373.71Q115.43 374.22 115.43 374.90Q115.43 375.57 114.94 376.08Q114.48 376.59 113.85 376.59L111.17 376.59L111.17 395.41L114.55 395.41Q115.22 395.41 115.68 395.89Q116.14 396.39 116.14 397.10Q116.14 397.78 115.64 398.29Q115.19 398.80 114.55 398.80L104.82 398.80Q104.18 398.80 103.73 398.29ZM126.21 398.86Q125.72 398.36 125.72 397.65L125.72 374.46Q125.72 373.75 126.17 373.27Q126.67 372.76 127.30 372.76L128.61 372.76Q129.03 372.76 129.42 373.04Q129.84 373.27 130.02 373.71L138.48 392.91L138.48 374.39Q138.48 373.71 138.94 373.24Q139.43 372.73 140.07 372.73Q140.70 372.73 141.16 373.24Q141.65 373.71 141.65 374.42L141.65 397.61Q141.65 398.32 141.16 398.83Q140.70 399.34 140.07 399.34L138.73 399.34Q137.74 399.34 137.32 398.42L128.89 379.23L128.89 397.68Q128.89 398.36 128.40 398.86Q127.94 399.37 127.30 399.37Q126.67 399.37 126.21 398.86ZM155.00 398.15L149.19 374.46Q149.19 373.78 149.68 373.31Q150.17 372.80 150.81 372.80Q151.34 372.80 151.76 373.17Q152.22 373.51 152.32 373.98L157.68 395.65L163.01 373.98Q163.22 373.48 163.61 373.14Q164.03 372.80 164.56 372.80Q165.20 372.80 165.69 373.31Q166.18 373.81 166.18 374.46L160.29 398.15Q160.19 398.66 159.76 399.03Q159.34 399.37 158.85 399.37L156.52 399.37Q156.03 399.37 155.57 399Q155.11 398.63 155.00 398.15ZM173.40 386.61L173.40 385.66Q173.40 385.02 173.86 384.58Q174.31 384.14 174.98 384.14L189.09 384.14Q189.76 384.14 190.22 384.61Q190.68 385.05 190.68 385.66L190.68 386.61Q190.68 387.22 190.22 387.69Q189.76 388.13 189.09 388.13L174.98 388.13Q174.31 388.13 173.86 387.69Q173.40 387.25 173.40 386.61ZM199.77 380.92Q199.31 380.45 199.31 379.84Q199.31 379.13 199.77 378.79L206.23 373.48Q206.68 373.10 207.25 373.10L208.38 373.10Q209.01 373.10 209.47 373.58Q209.96 374.02 209.96 374.63L209.96 397.65Q209.96 398.26 209.47 398.73Q209.01 399.17 208.38 399.17Q207.74 399.17 207.25 398.73Q206.79 398.29 206.79 397.65L206.79 377.03L201.96 380.99Q201.50 381.36 200.90 381.36Q200.23 381.36 199.77 380.92ZM223.68 375.78Q223.22 375.30 223.22 374.66Q223.22 374.02 223.68 373.58Q224.14 373.14 224.81 373.14L238.56 373.14Q239.23 373.14 239.69 373.61Q240.15 374.05 240.15 374.66Q240.15 377.23 238.07 380.25Q237.43 381.19 235.60 383.39Q233.76 385.63 232.99 387.02Q230.70 391.08 230.70 397.61Q230.70 398.26 230.24 398.73Q229.78 399.17 229.18 399.17Q228.58 399.17 228.12 398.73Q227.66 398.29 227.66 397.61Q227.66 390.23 230.34 385.46Q231.16 384.07 232.99 381.74Q234.86 379.37 235.46 378.49Q236.30 377.13 236.62 376.45L236.69 376.22L224.81 376.22Q224.17 376.22 223.68 375.78ZM247.68 375.78Q247.22 375.30 247.22 374.66Q247.22 374.02 247.68 373.58Q248.14 373.14 248.81 373.14L262.56 373.14Q263.23 373.14 263.69 373.61Q264.15 374.05 264.15 374.66Q264.15 377.23 262.07 380.25Q261.43 381.19 259.60 383.39Q257.76 385.63 256.99 387.02Q254.70 391.08 254.70 397.61Q254.70 398.26 254.24 398.73Q253.78 399.17 253.18 399.17Q252.58 399.17 252.12 398.73Q251.66 398.29 251.66 397.61Q251.66 390.23 254.34 385.46Q255.16 384.07 256.99 381.74Q258.86 379.37 259.46 378.49Q260.30 377.13 260.62 376.45L260.69 376.22L248.81 376.22Q248.17 376.22 247.68 375.78ZM275.95 377.71Q274.40 379.33 274.40 381.60Q274.40 383.80 275.88 385.19Q277.29 386.54 279.68 386.54Q283.88 386.54 284.62 384.07Q284.97 382.95 284.97 381.60Q284.97 379.06 283.49 377.57Q282.05 376.05 279.68 376.05Q277.46 376.05 275.95 377.71M273.62 387.29Q271.22 385.02 271.22 381.60Q271.22 378.08 273.76 375.54Q276.23 373.00 279.68 373.00Q283.25 373.00 285.68 375.37Q288.15 377.74 288.15 381.60Q288.15 384.00 287.41 385.93Q286.67 387.86 285.33 390.10Q282.40 395.01 278.17 398.76Q277.71 399.17 277.18 399.17Q276.58 399.17 276.12 398.73Q275.66 398.29 275.66 397.65Q275.66 397.00 276.16 396.53Q279.51 393.45 281.91 389.72L282.08 389.39L281.73 389.45Q280.81 389.59 279.68 389.59Q275.95 389.59 273.62 387.29ZM295.68 375.78Q295.22 375.30 295.22 374.66Q295.22 374.02 295.68 373.58Q296.14 373.14 296.81 373.14L310.56 373.14Q311.23 373.14 311.69 373.61Q312.15 374.05 312.15 374.66Q312.15 377.23 310.07 380.25Q309.43 381.19 307.60 383.39Q305.76 385.63 304.99 387.02Q302.70 391.08 302.70 397.61Q302.70 398.26 302.24 398.73Q301.78 399.17 301.18 399.17Q300.58 399.17 300.12 398.73Q299.66 398.29 299.66 397.61Q299.66 390.23 302.34 385.46Q303.16 384.07 304.99 381.74Q306.86 379.37 307.46 378.49Q308.30 377.13 308.62 376.45L308.69 376.22L296.81 376.22Q296.17 376.22 295.68 375.78ZM319.68 375.78Q319.22 375.30 319.22 374.66Q319.22 374.02 319.68 373.58Q320.14 373.14 320.81 373.14L334.56 373.14Q335.23 373.14 335.69 373.61Q336.15 374.05 336.15 374.66Q336.15 377.23 334.07 380.25Q333.43 381.19 331.60 383.39Q329.76 385.63 328.99 387.02Q326.70 391.08 326.70 397.61Q326.70 398.26 326.24 398.73Q325.78 399.17 325.18 399.17Q324.58 399.17 324.12 398.73Q323.66 398.29 323.66 397.61Q323.66 390.23 326.34 385.46Q327.16 384.07 328.99 381.74Q330.86 379.37 331.46 378.49Q332.30 377.13 332.62 376.45L332.69 376.22L320.81 376.22Q320.17 376.22 319.68 375.78ZM343.96 397.98Q343.22 397.44 343.22 396.63Q343.22 395.99 343.68 395.55Q344.17 395.07 344.81 395.07Q345.02 395.07 345.41 395.21Q347.66 396.19 350.13 396.19Q352.81 396.19 354.65 394.90Q356.52 393.58 356.66 391.08L356.66 390.74Q356.66 389.01 355.53 387.80Q354.47 386.61 352.92 386.10Q351.40 385.63 349.53 385.63Q348.93 385.63 348.48 385.19Q348.02 384.71 348.02 384.07Q348.02 383.46 348.33 383.12L354.82 376.22L344.91 376.22Q344.28 376.22 343.79 375.78Q343.33 375.30 343.33 374.66Q343.33 374.02 343.79 373.58Q344.24 373.14 344.91 373.14L357.36 373.14Q358.00 373.14 358.45 373.61Q358.95 374.05 358.95 374.66L358.95 375.88Q358.95 376.42 358.45 376.89L352.78 382.89L353.06 382.95Q356.06 383.70 357.96 385.70Q359.83 387.69 359.83 390.71L359.83 391.25Q359.65 394.94 356.83 397.10Q354.08 399.27 350.13 399.27Q349.15 399.27 348.16 399.17Q347.17 399.07 345.94 398.83Q344.70 398.56 343.96 397.98ZM372.93 376.73Q371.59 377.40 371.59 378.69Q371.59 379.54 371.91 380.18Q372.23 380.82 372.97 381.36Q373.67 381.87 374.13 382.14Q374.63 382.41 375.61 382.89L375.68 382.89L375.75 382.89Q376.74 382.45 377.24 382.18Q377.73 381.90 378.43 381.40Q379.14 380.86 379.46 380.21Q379.77 379.54 379.77 378.69Q379.77 377.40 378.43 376.73Q377.13 376.05 375.68 376.05Q374.24 376.05 372.93 376.73M375.68 386.37Q370.36 389.05 370.36 392.23Q370.36 394.13 371.95 395.17Q373.43 396.22 375.68 396.22L376.39 396.22Q378.26 396.22 379.60 395.04Q380.97 393.85 380.97 392.23Q380.97 389.01 375.83 386.37L375.75 386.31L375.68 386.37M369.65 397.31Q367.22 395.34 367.22 392.23Q367.22 388.13 372.23 384.82L372.44 384.68L372.23 384.55Q368.42 382.31 368.42 378.69Q368.42 376.22 370.68 374.63Q372.90 373.00 375.68 373.00Q378.43 373.00 380.69 374.63Q382.95 376.25 382.95 378.69Q382.95 380.69 381.96 382.07Q380.94 383.43 379.14 384.55L378.93 384.68L379.14 384.82Q384.15 388.13 384.15 392.23Q384.15 394.90 382.10 396.97Q380.06 399.03 377.17 399.27L375.68 399.27Q372.05 399.27 369.65 397.31ZM396.93 376.73Q395.59 377.40 395.59 378.69Q395.59 379.54 395.91 380.18Q396.23 380.82 396.97 381.36Q397.67 381.87 398.13 382.14Q398.63 382.41 399.61 382.89L399.68 382.89L399.75 382.89Q400.74 382.45 401.24 382.18Q401.73 381.90 402.43 381.40Q403.14 380.86 403.46 380.21Q403.77 379.54 403.77 378.69Q403.77 377.40 402.43 376.73Q401.13 376.05 399.68 376.05Q398.24 376.05 396.93 376.73M399.68 386.37Q394.36 389.05 394.36 392.23Q394.36 394.13 395.95 395.17Q397.43 396.22 399.68 396.22L400.39 396.22Q402.26 396.22 403.60 395.04Q404.97 393.85 404.97 392.23Q404.97 389.01 399.83 386.37L399.75 386.31L399.68 386.37M393.65 397.31Q391.22 395.34 391.22 392.23Q391.22 388.13 396.23 384.82L396.44 384.68L396.23 384.55Q392.42 382.31 392.42 378.69Q392.42 376.22 394.68 374.63Q396.90 373.00 399.68 373.00Q402.43 373.00 404.69 374.63Q406.95 376.25 406.95 378.69Q406.95 380.69 405.96 382.07Q404.94 383.43 403.14 384.55L402.93 384.68L403.14 384.82Q408.15 388.13 408.15 392.23Q408.15 394.90 406.10 396.97Q404.06 399.03 401.17 399.27L399.68 399.27Q396.05 399.27 393.65 397.31ZM415.68 392.84Q415.22 392.40 415.22 391.76L415.22 390.30Q415.22 390.03 415.40 389.66L422.91 373.98Q423.05 373.61 423.44 373.37Q423.83 373.10 424.25 373.10Q424.88 373.10 425.34 373.58Q425.80 374.02 425.80 374.63Q425.80 374.97 425.62 375.27L418.57 390.23L425.45 390.23L425.45 386.14Q425.45 385.53 425.91 385.09Q426.36 384.61 426.96 384.61Q427.56 384.61 428.02 385.09Q428.52 385.53 428.52 386.14L428.52 390.23L430.56 390.23Q431.23 390.23 431.69 390.71Q432.15 391.15 432.15 391.76Q432.15 392.37 431.65 392.84Q431.20 393.28 430.56 393.28L428.52 393.28L428.52 397.65Q428.52 398.26 428.02 398.70Q427.56 399.17 426.96 399.17Q426.36 399.17 425.91 398.73Q425.45 398.26 425.45 397.65L425.45 393.28L416.81 393.28Q416.17 393.28 415.68 392.84ZM440.60 398.83Q440.14 398.39 440.14 397.75Q440.14 397.07 440.60 396.63Q441.09 396.19 441.73 396.19Q448.85 396.19 450.93 392.37Q451.56 391.21 451.56 390.16Q451.56 387.69 450.36 386.44Q448.78 384.65 444.79 384.65Q443.70 384.65 442.57 384.75L442.43 384.75Q441.80 384.75 441.30 384.34Q440.84 383.90 440.84 383.29L440.84 383.19L441.34 374.56Q441.41 373.95 441.83 373.54Q442.29 373.14 442.92 373.14L452.94 373.14Q453.61 373.14 454.07 373.61Q454.53 374.05 454.53 374.66Q454.53 375.27 454.03 375.74Q453.57 376.22 452.94 376.22L444.41 376.22L444.12 381.53L444.79 381.53Q449.27 381.53 451.99 383.73Q454.74 385.90 454.74 390.16Q454.74 391.96 453.93 393.52Q453.08 395.11 451.81 396.22Q448.42 399.27 441.73 399.27Q441.09 399.27 440.60 398.83M442.54 384.75Q442.54 384.75 442.57 384.75Q442.57 384.75 442.54 384.75ZM463.68 392.84Q463.22 392.40 463.22 391.76L463.22 390.30Q463.22 390.03 463.40 389.66L470.91 373.98Q471.05 373.61 471.44 373.37Q471.83 373.10 472.25 373.10Q472.88 373.10 473.34 373.58Q473.80 374.02 473.80 374.63Q473.80 374.97 473.62 375.27L466.57 390.23L473.45 390.23L473.45 386.14Q473.45 385.53 473.91 385.09Q474.36 384.61 474.96 384.61Q475.56 384.61 476.02 385.09Q476.52 385.53 476.52 386.14L476.52 390.23L478.56 390.23Q479.23 390.23 479.69 390.71Q480.15 391.15 480.15 391.76Q480.15 392.37 479.65 392.84Q479.20 393.28 478.56 393.28L476.52 393.28L476.52 397.65Q476.52 398.26 476.02 398.70Q475.56 399.17 474.96 399.17Q474.36 399.17 473.91 398.73Q473.45 398.26 473.45 397.65L473.45 393.28L464.81 393.28Q464.17 393.28 463.68 392.84ZM489.69 397.07Q487.33 394.87 487.22 391.25L487.22 390.84Q487.22 386.61 489.65 382.75Q490.64 381.16 492.05 379.40Q493.43 377.61 494.38 376.56Q495.33 375.47 497.09 373.54Q497.48 373.10 498.19 373.10Q498.79 373.10 499.25 373.58Q499.70 374.02 499.70 374.63Q499.70 375.20 499.32 375.68Q495.33 380.01 493.46 382.62L493.22 382.95L493.60 382.89Q494.63 382.68 495.68 382.68Q499.53 382.68 501.82 384.99Q504.15 387.32 504.15 391.25Q504.15 394.80 501.75 397.04Q499.35 399.27 495.68 399.27Q492.02 399.27 489.69 397.07M491.81 387.22Q490.40 388.68 490.40 391.25Q490.40 393.55 491.88 394.90Q493.32 396.22 495.68 396.22Q498.01 396.22 499.46 394.87Q500.97 393.52 500.97 391.25Q500.97 388.61 499.60 387.19Q498.26 385.73 495.68 385.73Q493.18 385.73 491.81 387.22ZM511.40 386.61L511.40 385.66Q511.40 385.02 511.86 384.58Q512.31 384.14 512.98 384.14L527.09 384.14Q527.76 384.14 528.22 384.61Q528.68 385.05 528.68 385.66L528.68 386.61Q528.68 387.22 528.22 387.69Q527.76 388.13 527.09 388.13L512.98 388.13Q512.31 388.13 511.86 387.69Q511.40 387.25 511.40 386.61ZM537.28 377.37Q536.82 376.89 536.82 376.32Q536.82 375.47 537.49 375.03Q540.70 373.00 544.68 373.00Q547.89 373.00 550.04 374.97Q552.23 376.89 552.23 380.04Q552.23 381.30 551.77 382.45Q551.31 383.63 550.71 384.38Q550.15 385.12 549.02 386.03Q547.89 386.95 547.29 387.36Q546.73 387.76 545.50 388.54Q544.16 389.39 543.56 389.83Q542.96 390.27 542.11 391.15Q541.26 391.99 540.88 393.08Q540.49 394.13 540.42 395.58L540.42 395.75L550.86 395.75Q551.53 395.75 551.98 396.22Q552.44 396.66 552.44 397.27Q552.44 397.88 551.95 398.36Q551.49 398.80 550.86 398.80L538.80 398.80Q538.16 398.80 537.67 398.36Q537.21 397.88 537.21 397.27L537.21 396.56Q537.21 393.92 537.56 392.77Q538.16 390.74 539.82 389.15Q541.48 387.52 543.87 385.97Q547.19 383.83 548.07 382.62Q549.06 381.40 549.06 380.04Q549.06 378.25 547.75 377.13Q546.52 376.05 544.68 376.05Q541.51 376.05 539.32 377.54Q538.94 377.81 538.41 377.81Q537.77 377.81 537.28 377.37ZM564.95 377.71Q563.40 379.33 563.40 381.60Q563.40 383.80 564.88 385.19Q566.29 386.54 568.68 386.54Q572.88 386.54 573.62 384.07Q573.97 382.95 573.97 381.60Q573.97 379.06 572.49 377.57Q571.05 376.05 568.68 376.05Q566.46 376.05 564.95 377.71M562.62 387.29Q560.22 385.02 560.22 381.60Q560.22 378.08 562.76 375.54Q565.23 373.00 568.68 373.00Q572.25 373.00 574.68 375.37Q577.15 377.74 577.15 381.60Q577.15 384.00 576.41 385.93Q575.67 387.86 574.33 390.10Q571.40 395.01 567.17 398.76Q566.71 399.17 566.18 399.17Q565.58 399.17 565.12 398.73Q564.66 398.29 564.66 397.65Q564.66 397.00 565.16 396.53Q568.51 393.45 570.91 389.72L571.08 389.39L570.73 389.45Q569.81 389.59 568.68 389.59Q564.95 389.59 562.62 387.29ZM584.68 392.84Q584.22 392.40 584.22 391.76L584.22 390.30Q584.22 390.03 584.40 389.66L591.91 373.98Q592.05 373.61 592.44 373.37Q592.83 373.10 593.25 373.10Q593.88 373.10 594.34 373.58Q594.80 374.02 594.80 374.63Q594.80 374.97 594.62 375.27L587.57 390.23L594.45 390.23L594.45 386.14Q594.45 385.53 594.91 385.09Q595.36 384.61 595.96 384.61Q596.56 384.61 597.02 385.09Q597.52 385.53 597.52 386.14L597.52 390.23L599.56 390.23Q600.23 390.23 600.69 390.71Q601.15 391.15 601.15 391.76Q601.15 392.37 600.65 392.84Q600.20 393.28 599.56 393.28L597.52 393.28L597.52 397.65Q597.52 398.26 597.02 398.70Q596.56 399.17 595.96 399.17Q595.36 399.17 594.91 398.73Q594.45 398.26 594.45 397.65L594.45 393.28L585.81 393.28Q585.17 393.28 584.68 392.84ZM616.83 399.27L616.68 399.27Q614.60 399.24 613.05 398.59Q611.50 397.98 610.58 397.00Q609.67 395.99 609.14 394.40Q608.57 392.81 608.40 391.18Q608.22 389.59 608.22 387.42Q608.22 385.49 608.26 384.14Q608.33 382.75 608.54 381.16Q608.75 379.54 609.10 378.45Q609.49 377.33 610.13 376.22Q610.76 375.13 611.64 374.49Q612.52 373.85 613.79 373.44Q615.06 373.04 616.68 373.04Q618.27 373.04 619.54 373.44Q620.81 373.85 621.69 374.49Q622.57 375.13 623.24 376.22Q623.88 377.33 624.23 378.45Q624.62 379.57 624.83 381.16Q625.04 382.75 625.08 384.14Q625.15 385.53 625.15 387.42Q625.15 388.78 625.08 389.89Q625.01 390.98 624.76 392.26Q624.55 393.55 624.20 394.53Q623.84 395.48 623.17 396.39Q622.50 397.31 621.66 397.92Q620.81 398.53 619.58 398.90Q618.34 399.27 616.83 399.27M611.40 384.65L611.40 387.42Q611.40 388.95 611.47 390.03Q611.57 391.11 611.89 392.37Q612.17 393.62 612.74 394.40Q613.30 395.21 614.29 395.75Q615.27 396.26 616.68 396.26L617.42 396.26Q618.41 396.26 619.19 395.89Q619.96 395.48 620.42 394.73Q620.92 394.02 621.23 393.21Q621.55 392.37 621.69 391.32Q621.87 390.23 621.90 389.35Q621.97 388.47 621.97 387.42L621.97 385.87Q621.97 384.82 621.94 384.21Q621.94 383.56 621.90 382.62Q621.87 381.63 621.76 381.09Q621.66 380.52 621.48 379.74Q621.30 378.96 621.02 378.49Q620.74 378.01 620.35 377.50Q619.93 377.00 619.43 376.73Q618.91 376.42 618.20 376.25Q617.53 376.08 616.68 376.08Q615.80 376.08 615.10 376.29Q614.43 376.45 613.90 376.79Q613.37 377.13 612.95 377.64Q612.56 378.11 612.28 378.72Q611.99 379.30 611.82 380.01Q611.64 380.69 611.57 381.46Q611.50 382.21 611.43 383.02Q611.40 383.80 611.40 384.65Z" fill="#000000" />
</svg>
