<svg viewBox="0 0 759 431" xmlns="http://www.w3.org/2000/svg">
<rect width="100%" height="100%" fill="#FFFFFF" />
<path stroke="#000000" stroke-width="6" d="M33 371L33 30M66 371L66 30M123 371L123 30M150 371L150 30M174 371L174 30M222 371L222 30M354 371L354 30M363 371L363 30M375 371L375 30M387 371L387 30M411 371L411 30M420 371L420 30M429 371L429 30M504 371L504 30M528 371L528 30M618 371L618 30M648 371L648 30M675 371L675 30M693 371L693 30M726 371L726 30" />
<path stroke="#000000" stroke-width="3" d="M40.50 371L40.50 30M49.50 371L49.50 30M79.50 371L79.50 30M91.50 371L91.50 30M97.50 371L97.50 30M142.50 371L142.50 30M163.50 371L163.50 30M196.50 371L196.50 30M229.50 371L229.50 30M289.50 371L289.50 30M295.50 371L295.50 30M301.50 371L301.50 30M328.50 371L328.50 30M448.50 371L448.50 30M460.50 371L460.50 30M493.50 371L493.50 30M550.50 371L550.50 30M559.50 371L559.50 30M592.50 371L592.50 30M637.50 371L637.50 30M685.50 371L685.50 30M718.50 371L718.50 30" />
<path stroke="#000000" stroke-width="9" d="M106.50 371L106.50 30M133.50 371L133.50 30M184.50 371L184.50 30M208.50 371L208.50 30M238.50 371L238.50 30M280.50 371L280.50 30M343.50 371L343.50 30M439.50 371L439.50 30M484.50 371L484.50 30M514.50 371L514.50 30M541.50 371L541.50 30M568.50 371L568.50 30M604.50 371L604.50 30M628.50 371L628.50 30M661.50 371L661.50 30M709.50 371L709.50 30" />
<path stroke="#000000" stroke-width="12" d="M252 371L252 30M267 371L267 30M312 371L312 30M399 371L399 30M471 371L471 30M582 371L582 30" />
<path d="M106.73 398.29Q106.23 397.78 106.23 397.10Q106.23 396.39 106.69 395.89Q107.15 395.41 107.82 395.41L111.20 395.41L111.20 376.59L108.52 376.59Q107.89 376.59 107.43 376.08Q106.94 375.57 106.94 374.90Q106.94 374.22 107.40 373.71Q107.85 373.20 108.52 373.20L116.85 373.20Q117.52 373.20 117.97 373.71Q118.43 374.22 118.43 374.90Q118.43 375.57 117.94 376.08Q117.48 376.59 116.85 376.59L114.17 376.59L114.17 395.41L117.55 395.41Q118.22 395.41 118.68 395.89Q119.14 396.39 119.14 397.10Q119.14 397.78 118.64 398.29Q118.19 398.80 117.55 398.80L107.82 398.80Q107.18 398.80 106.73 398.29ZM129.21 398.86Q128.72 398.36 128.72 397.65L128.72 374.46Q128.72 373.75 129.17 373.27Q129.67 372.76 130.30 372.76L131.61 372.76Q132.03 372.76 132.42 373.04Q132.84 373.27 133.02 373.71L141.48 392.91L141.48 374.39Q141.48 373.71 141.94 373.24Q142.43 372.73 143.07 372.73Q143.70 372.73 144.16 373.24Q144.65 373.71 144.65 374.42L144.65 397.61Q144.65 398.32 144.16 398.83Q143.70 399.34 143.07 399.34L141.73 399.34Q140.74 399.34 140.32 398.42L131.89 379.23L131.89 397.68Q131.89 398.36 131.40 398.86Q130.94 399.37 130.30 399.37Q129.67 399.37 129.21 398.86ZM158.00 398.15L152.19 374.46Q152.19 373.78 152.68 373.31Q153.17 372.80 153.81 372.80Q154.34 372.80 154.76 373.17Q155.22 373.51 155.32 373.98L160.68 395.65L166.01 373.98Q166.22 373.48 166.61 373.14Q167.03 372.80 167.56 372.80Q168.20 372.80 168.69 373.31Q169.18 373.81 169.18 374.46L163.29 398.15Q163.19 398.66 162.76 399.03Q162.34 399.37 161.85 399.37L159.52 399.37Q159.03 399.37 158.57 399Q158.11 398.63 158.00 398.15ZM176.40 386.61L176.40 385.66Q176.40 385.02 176.86 384.58Q177.31 384.14 177.98 384.14L192.09 384.14Q192.76 384.14 193.22 384.61Q193.68 385.05 193.68 385.66L193.68 386.61Q193.68 387.22 193.22 387.69Q192.76 388.13 192.09 388.13L177.98 388.13Q177.31 388.13 176.86 387.69Q176.40 387.25 176.40 386.61ZM202.77 380.92Q202.31 380.45 202.31 379.84Q202.31 379.13 202.77 378.79L209.23 373.48Q209.68 373.10 210.25 373.10L211.38 373.10Q212.01 373.10 212.47 373.58Q212.96 374.02 212.96 374.63L212.96 397.65Q212.96 398.26 212.47 398.73Q212.01 399.17 211.38 399.17Q210.74 399.17 210.25 398.73Q209.79 398.29 209.79 397.65L209.79 377.03L204.96 380.99Q204.50 381.36 203.90 381.36Q203.23 381.36 202.77 380.92ZM226.68 375.78Q226.22 375.30 226.22 374.66Q226.22 374.02 226.68 373.58Q227.14 373.14 227.81 373.14L241.56 373.14Q242.23 373.14 242.69 373.61Q243.15 374.05 243.15 374.66Q243.15 377.23 241.07 380.25Q240.43 381.19 238.60 383.39Q236.76 385.63 235.99 387.02Q233.70 391.08 233.70 397.61Q233.70 398.26 233.24 398.73Q232.78 399.17 232.18 399.17Q231.58 399.17 231.12 398.73Q230.66 398.29 230.66 397.61Q230.66 390.23 233.34 385.46Q234.16 384.07 235.99 381.74Q237.86 379.37 238.46 378.49Q239.30 377.13 239.62 376.45L239.69 376.22L227.81 376.22Q227.17 376.22 226.68 375.78ZM250.68 375.78Q250.22 375.30 250.22 374.66Q250.22 374.02 250.68 373.58Q251.14 373.14 251.81 373.14L265.56 373.14Q266.23 373.14 266.69 373.61Q267.15 374.05 267.15 374.66Q267.15 377.23 265.07 380.25Q264.43 381.19 262.60 383.39Q260.76 385.63 259.99 387.02Q257.70 391.08 257.70 397.61Q257.70 398.26 257.24 398.73Q256.78 399.17 256.18 399.17Q255.58 399.17 255.12 398.73Q254.66 398.29 254.66 397.61Q254.66 390.23 257.34 385.46Q258.16 384.07 259.99 381.74Q261.86 379.37 262.46 378.49Q263.30 377.13 263.62 376.45L263.69 376.22L251.81 376.22Q251.17 376.22 250.68 375.78ZM278.95 377.71Q277.40 379.33 277.40 381.60Q277.40 383.80 278.88 385.19Q280.29 386.54 282.68 386.54Q286.88 386.54 287.62 384.07Q287.97 382.95 287.97 381.60Q287.97 379.06 286.49 377.57Q285.05 376.05 282.68 376.05Q280.46 376.05 278.95 377.71M276.62 387.29Q274.22 385.02 274.22 381.60Q274.22 378.08 276.76 375.54Q279.23 373.00 282.68 373.00Q286.25 373.00 288.68 375.37Q291.15 377.74 291.15 381.60Q291.15 384.00 290.41 385.93Q289.67 387.86 288.33 390.10Q285.40 395.01 281.17 398.76Q280.71 399.17 280.18 399.17Q279.58 399.17 279.12 398.73Q278.66 398.29 278.66 397.65Q278.66 397.00 279.16 396.53Q282.51 393.45 284.91 389.72L285.08 389.39L284.73 389.45Q283.81 389.59 282.68 389.59Q278.95 389.59 276.62 387.29ZM299.28 377.37Q298.82 376.89 298.82 376.32Q298.82 375.47 299.49 375.03Q302.70 373.00 306.68 373.00Q309.89 373.00 312.04 374.97Q314.23 376.89 314.23 380.04Q314.23 381.30 313.77 382.45Q313.31 383.63 312.71 384.38Q312.15 385.12 311.02 386.03Q309.89 386.95 309.29 387.36Q308.73 387.76 307.50 388.54Q306.16 389.39 305.56 389.83Q304.96 390.27 304.11 391.15Q303.26 391.99 302.88 393.08Q302.49 394.13 302.42 395.58L302.42 395.75L312.86 395.75Q313.53 395.75 313.98 396.22Q314.44 396.66 314.44 397.27Q314.44 397.88 313.95 398.36Q313.49 398.80 312.86 398.80L300.80 398.80Q300.16 398.80 299.67 398.36Q299.21 397.88 299.21 397.27L299.21 396.56Q299.21 393.92 299.56 392.77Q300.16 390.74 301.82 389.15Q303.48 387.52 305.87 385.97Q309.19 383.83 310.07 382.62Q311.06 381.40 311.06 380.04Q311.06 378.25 309.75 377.13Q308.52 376.05 306.68 376.05Q303.51 376.05 301.32 377.54Q300.94 377.81 300.41 377.81Q299.77 377.81 299.28 377.37ZM322.68 392.84Q322.22 392.40 322.22 391.76L322.22 390.30Q322.22 390.03 322.40 389.66L329.91 373.98Q330.05 373.61 330.44 373.37Q330.83 373.10 331.25 373.10Q331.88 373.10 332.34 373.58Q332.80 374.02 332.80 374.63Q332.80 374.97 332.62 375.27L325.57 390.23L332.45 390.23L332.45 386.14Q332.45 385.53 332.91 385.09Q333.36 384.61 333.96 384.61Q334.56 384.61 335.02 385.09Q335.52 385.53 335.52 386.14L335.52 390.23L337.56 390.23Q338.23 390.23 338.69 390.71Q339.15 391.15 339.15 391.76Q339.15 392.37 338.65 392.84Q338.20 393.28 337.56 393.28L335.52 393.28L335.52 397.65Q335.52 398.26 335.02 398.70Q334.56 399.17 333.96 399.17Q333.36 399.17 332.91 398.73Q332.45 398.26 332.45 397.65L332.45 393.28L323.81 393.28Q323.17 393.28 322.68 392.84ZM346.68 375.78Q346.22 375.30 346.22 374.66Q346.22 374.02 346.68 373.58Q347.14 373.14 347.81 373.14L361.56 373.14Q362.23 373.14 362.69 373.61Q363.15 374.05 363.15 374.66Q363.15 377.23 361.07 380.25Q360.43 381.19 358.60 383.39Q356.76 385.63 355.99 387.02Q353.70 391.08 353.70 397.61Q353.70 398.26 353.24 398.73Q352.78 399.17 352.18 399.17Q351.58 399.17 351.12 398.73Q350.66 398.29 350.66 397.61Q350.66 390.23 353.34 385.46Q354.16 384.07 355.99 381.74Q357.86 379.37 358.46 378.49Q359.30 377.13 359.62 376.45L359.69 376.22L347.81 376.22Q347.17 376.22 346.68 375.78ZM378.83 399.27L378.68 399.27Q376.60 399.24 375.05 398.59Q373.50 397.98 372.58 397.00Q371.67 395.99 371.14 394.40Q370.57 392.81 370.40 391.18Q370.22 389.59 370.22 387.42Q370.22 385.49 370.26 384.14Q370.33 382.75 370.54 381.16Q370.75 379.54 371.10 378.45Q371.49 377.33 372.13 376.22Q372.76 375.13 373.64 374.49Q374.52 373.85 375.79 373.44Q377.06 373.04 378.68 373.04Q380.27 373.04 381.54 373.44Q382.81 373.85 383.69 374.49Q384.57 375.13 385.24 376.22Q385.88 377.33 386.23 378.45Q386.62 379.57 386.83 381.16Q387.04 382.75 387.08 384.14Q387.15 385.53 387.15 387.42Q387.15 388.78 387.08 389.89Q387.01 390.98 386.76 392.26Q386.55 393.55 386.20 394.53Q385.84 395.48 385.17 396.39Q384.50 397.31 383.66 397.92Q382.81 398.53 381.58 398.90Q380.34 399.27 378.83 399.27M373.40 384.65L373.40 387.42Q373.40 388.95 373.47 390.03Q373.57 391.11 373.89 392.37Q374.17 393.62 374.74 394.40Q375.30 395.21 376.29 395.75Q377.27 396.26 378.68 396.26L379.42 396.26Q380.41 396.26 381.19 395.89Q381.96 395.48 382.42 394.73Q382.92 394.02 383.23 393.21Q383.55 392.37 383.69 391.32Q383.87 390.23 383.90 389.35Q383.97 388.47 383.97 387.42L383.97 385.87Q383.97 384.82 383.94 384.21Q383.94 383.56 383.90 382.62Q383.87 381.63 383.76 381.09Q383.66 380.52 383.48 379.74Q383.30 378.96 383.02 378.49Q382.74 378.01 382.35 377.50Q381.93 377.00 381.43 376.73Q380.91 376.42 380.20 376.25Q379.53 376.08 378.68 376.08Q377.80 376.08 377.10 376.29Q376.43 376.45 375.90 376.79Q375.37 377.13 374.95 377.64Q374.56 378.11 374.28 378.72Q373.99 379.30 373.82 380.01Q373.64 380.69 373.57 381.46Q373.50 382.21 373.43 383.02Q373.40 383.80 373.40 384.65ZM395.28 377.37Q394.82 376.89 394.82 376.32Q394.82 375.47 395.49 375.03Q398.70 373.00 402.68 373.00Q405.89 373.00 408.04 374.97Q410.23 376.89 410.23 380.04Q410.23 381.30 409.77 382.45Q409.31 383.63 408.71 384.38Q408.15 385.12 407.02 386.03Q405.89 386.95 405.29 387.36Q404.73 387.76 403.50 388.54Q402.16 389.39 401.56 389.83Q400.96 390.27 400.11 391.15Q399.26 391.99 398.88 393.08Q398.49 394.13 398.42 395.58L398.42 395.75L408.86 395.75Q409.53 395.75 409.98 396.22Q410.44 396.66 410.44 397.27Q410.44 397.88 409.95 398.36Q409.49 398.80 408.86 398.80L396.80 398.80Q396.16 398.80 395.67 398.36Q395.21 397.88 395.21 397.27L395.21 396.56Q395.21 393.92 395.56 392.77Q396.16 390.74 397.82 389.15Q399.48 387.52 401.87 385.97Q405.19 383.83 406.07 382.62Q407.06 381.40 407.06 380.04Q407.06 378.25 405.75 377.13Q404.52 376.05 402.68 376.05Q399.51 376.05 397.32 377.54Q396.94 377.81 396.41 377.81Q395.77 377.81 395.28 377.37ZM422.95 377.71Q421.40 379.33 421.40 381.60Q421.40 383.80 422.88 385.19Q424.29 386.54 426.68 386.54Q430.88 386.54 431.62 384.07Q431.97 382.95 431.97 381.60Q431.97 379.06 430.49 377.57Q429.05 376.05 426.68 376.05Q424.46 376.05 422.95 377.71M420.62 387.29Q418.22 385.02 418.22 381.60Q418.22 378.08 420.76 375.54Q423.23 373.00 426.68 373.00Q430.25 373.00 432.68 375.37Q435.15 377.74 435.15 381.60Q435.15 384.00 434.41 385.93Q433.67 387.86 432.33 390.10Q429.40 395.01 425.17 398.76Q424.71 399.17 424.18 399.17Q423.58 399.17 423.12 398.73Q422.66 398.29 422.66 397.65Q422.66 397.00 423.16 396.53Q426.51 393.45 428.91 389.72L429.08 389.39L428.73 389.45Q427.81 389.59 426.68 389.59Q422.95 389.59 420.62 387.29ZM443.77 380.92Q443.31 380.45 443.31 379.84Q443.31 379.13 443.77 378.79L450.23 373.48Q450.68 373.10 451.25 373.10L452.38 373.10Q453.01 373.10 453.47 373.58Q453.96 374.02 453.96 374.63L453.96 397.65Q453.96 398.26 453.47 398.73Q453.01 399.17 452.38 399.17Q451.74 399.17 451.25 398.73Q450.79 398.29 450.79 397.65L450.79 377.03L445.96 380.99Q445.50 381.36 444.90 381.36Q444.23 381.36 443.77 380.92ZM468.60 398.83Q468.14 398.39 468.14 397.75Q468.14 397.07 468.60 396.63Q469.09 396.19 469.73 396.19Q476.85 396.19 478.93 392.37Q479.56 391.21 479.56 390.16Q479.56 387.69 478.36 386.44Q476.78 384.65 472.79 384.65Q471.70 384.65 470.57 384.75L470.43 384.75Q469.80 384.75 469.30 384.34Q468.84 383.90 468.84 383.29L468.84 383.19L469.34 374.56Q469.41 373.95 469.83 373.54Q470.29 373.14 470.92 373.14L480.94 373.14Q481.61 373.14 482.07 373.61Q482.53 374.05 482.53 374.66Q482.53 375.27 482.03 375.74Q481.57 376.22 480.94 376.22L472.41 376.22L472.12 381.53L472.79 381.53Q477.27 381.53 479.99 383.73Q482.74 385.90 482.74 390.16Q482.74 391.96 481.93 393.52Q481.08 395.11 479.81 396.22Q476.42 399.27 469.73 399.27Q469.09 399.27 468.60 398.83M470.54 384.75Q470.54 384.75 470.57 384.75Q470.57 384.75 470.54 384.75ZM492.77 380.92Q492.31 380.45 492.31 379.84Q492.31 379.13 492.77 378.79L499.23 373.48Q499.68 373.10 500.25 373.10L501.38 373.10Q502.01 373.10 502.47 373.58Q502.96 374.02 502.96 374.63L502.96 397.65Q502.96 398.26 502.47 398.73Q502.01 399.17 501.38 399.17Q500.74 399.17 500.25 398.73Q499.79 398.29 499.79 397.65L499.79 377.03L494.96 380.99Q494.50 381.36 493.90 381.36Q493.23 381.36 492.77 380.92ZM516.40 386.61L516.40 385.66Q516.40 385.02 516.86 384.58Q517.31 384.14 517.98 384.14L532.09 384.14Q532.76 384.14 533.22 384.61Q533.68 385.05 533.68 385.66L533.68 386.61Q533.68 387.22 533.22 387.69Q532.76 388.13 532.09 388.13L517.98 388.13Q517.31 388.13 516.86 387.69Q516.40 387.25 516.40 386.61ZM543.69 397.07Q541.33 394.87 541.22 391.25L541.22 390.84Q541.22 386.61 543.65 382.75Q544.64 381.16 546.05 379.40Q547.43 377.61 548.38 376.56Q549.33 375.47 551.09 373.54Q551.48 373.10 552.19 373.10Q552.79 373.10 553.25 373.58Q553.70 374.02 553.70 374.63Q553.70 375.20 553.32 375.68Q549.33 380.01 547.46 382.62L547.22 382.95L547.60 382.89Q548.63 382.68 549.68 382.68Q553.53 382.68 555.82 384.99Q558.15 387.32 558.15 391.25Q558.15 394.80 555.75 397.04Q553.35 399.27 549.68 399.27Q546.02 399.27 543.69 397.07M545.81 387.22Q544.40 388.68 544.40 391.25Q544.40 393.55 545.88 394.90Q547.32 396.22 549.68 396.22Q552.01 396.22 553.46 394.87Q554.97 393.52 554.97 391.25Q554.97 388.61 553.60 387.19Q552.26 385.73 549.68 385.73Q547.18 385.73 545.81 387.22ZM566.77 380.92Q566.31 380.45 566.31 379.84Q566.31 379.13 566.77 378.79L573.23 373.48Q573.68 373.10 574.25 373.10L575.38 373.10Q576.01 373.10 576.47 373.58Q576.96 374.02 576.96 374.63L576.96 397.65Q576.96 398.26 576.47 398.73Q576.01 399.17 575.38 399.17Q574.74 399.17 574.25 398.73Q573.79 398.29 573.79 397.65L573.79 377.03L568.96 380.99Q568.50 381.36 567.90 381.36Q567.23 381.36 566.77 380.92ZM590.68 375.78Q590.22 375.30 590.22 374.66Q590.22 374.02 590.68 373.58Q591.14 373.14 591.81 373.14L605.56 373.14Q606.23 373.14 606.69 373.61Q607.15 374.05 607.15 374.66Q607.15 377.23 605.07 380.25Q604.43 381.19 602.60 383.39Q600.76 385.63 599.99 387.02Q597.70 391.08 597.70 397.61Q597.70 398.26 597.24 398.73Q596.78 399.17 596.18 399.17Q595.58 399.17 595.12 398.73Q594.66 398.29 594.66 397.61Q594.66 390.23 597.34 385.46Q598.16 384.07 599.99 381.74Q601.86 379.37 602.46 378.49Q603.30 377.13 603.62 376.45L603.69 376.22L591.81 376.22Q591.17 376.22 590.68 375.78ZM615.28 377.37Q614.82 376.89 614.82 376.32Q614.82 375.47 615.49 375.03Q618.70 373.00 622.68 373.00Q625.89 373.00 628.04 374.97Q630.23 376.89 630.23 380.04Q630.23 381.30 629.77 382.45Q629.31 383.63 628.71 384.38Q628.15 385.12 627.02 386.03Q625.89 386.95 625.29 387.36Q624.73 387.76 623.50 388.54Q622.16 389.39 621.56 389.83Q620.96 390.27 620.11 391.15Q619.26 391.99 618.88 393.08Q618.49 394.13 618.42 395.58L618.42 395.75L628.86 395.75Q629.53 395.75 629.98 396.22Q630.44 396.66 630.44 397.27Q630.44 397.88 629.95 398.36Q629.49 398.80 628.86 398.80L616.80 398.80Q616.16 398.80 615.67 398.36Q615.21 397.88 615.21 397.27L615.21 396.56Q615.21 393.92 615.56 392.77Q616.16 390.74 617.82 389.15Q619.48 387.52 621.87 385.97Q625.19 383.83 626.07 382.62Q627.06 381.40 627.06 380.04Q627.06 378.25 625.75 377.13Q624.52 376.05 622.68 376.05Q619.51 376.05 617.32 377.54Q616.94 377.81 616.41 377.81Q615.77 377.81 615.28 377.37ZM638.68 392.84Q638.22 392.40 638.22 391.76L638.22 390.30Q638.22 390.03 638.40 389.66L645.91 373.98Q646.05 373.61 646.44 373.37Q646.83 373.10 647.25 373.10Q647.88 373.10 648.34 373.58Q648.80 374.02 648.80 374.63Q648.80 374.97 648.62 375.27L641.57 390.23L648.45 390.23L648.45 386.14Q648.45 385.53 648.91 385.09Q649.36 384.61 649.96 384.61Q650.56 384.61 651.02 385.09Q651.52 385.53 651.52 386.14L651.52 390.23L653.56 390.23Q654.23 390.23 654.69 390.71Q655.15 391.15 655.15 391.76Q655.15 392.37 654.65 392.84Q654.20 393.28 653.56 393.28L651.52 393.28L651.52 397.65Q651.52 398.26 651.02 398.70Q650.56 399.17 649.96 399.17Q649.36 399.17 648.91 398.73Q648.45 398.26 648.45 397.65L648.45 393.28L639.81 393.28Q639.17 393.28 638.68 392.84Z" fill="#000000" />
</svg>
