<svg width="50mm" height="20mm" viewBox="0 0 474 116" xmlns="http://www.w3.org/2000/svg">
<rect width="100%" height="100%" fill="#FFFFFF" />
<path stroke="#000000" stroke-width="4" d="M6 96L6 4M28 96L28 4M66 96L66 4M84 96L84 4M100 96L100 4M132 96L132 4M204 96L204 4M210 96L210 4M216 96L216 4M234 96L234 4M264 96L264 4M274 96L274 4M320 96L320 4M336 96L336 4M388 96L388 4M410 96L410 4M446 96L446 4M468 96L468 4" />
<path stroke="#000000" stroke-width="2" d="M11 96L11 4M17 96L17 4M37 96L37 4M45 96L45 4M49 96L49 4M79 96L79 4M93 96L93 4M115 96L115 4M137 96L137 4M177 96L177 4M191 96L191 4M199 96L199 4M225 96L225 4M259 96L259 4M269 96L269 4M283 96L283 4M291 96L291 4M313 96L313 4M351 96L351 4M357 96L357 4M379 96L379 4M395 96L395 4M417 96L417 4M441 96L441 4M463 96L463 4" />
<path stroke="#000000" stroke-width="6" d="M55 96L55 4M73 96L73 4M107 96L107 4M123 96L123 4M143 96L143 4M171 96L171 4M241 96L241 4M249 96L249 4M307 96L307 4M327 96L327 4M343 96L343 4M363 96L363 4M403 96L403 4M435 96L435 4M457 96L457 4" />
<path stroke="#000000" stroke-width="8" d="M152 96L152 4M162 96L162 4M184 96L184 4M298 96L298 4M372 96L372 4M426 96L426 4" />
<path d="M101.42 110.64Q101.17 110.38 101.17 110.03Q101.17 109.66 101.41 109.40Q101.64 109.16 101.98 109.16L103.72 109.16L103.72 99.51L102.35 99.51Q102.02 99.51 101.78 99.25Q101.53 98.99 101.53 98.64Q101.53 98.29 101.77 98.03Q102.00 97.77 102.35 97.77L106.61 97.77Q106.96 97.77 107.19 98.03Q107.43 98.29 107.43 98.64Q107.43 98.99 107.17 99.25Q106.94 99.51 106.61 99.51L105.24 99.51L105.24 109.16L106.97 109.16Q107.32 109.16 107.55 109.40Q107.79 109.66 107.79 110.03Q107.79 110.38 107.54 110.64Q107.30 110.90 106.97 110.90L101.98 110.90Q101.66 110.90 101.42 110.64ZM112.65 110.93Q112.39 110.67 112.39 110.31L112.39 98.41Q112.39 98.05 112.63 97.81Q112.88 97.55 113.21 97.55L113.88 97.55Q114.09 97.55 114.29 97.68Q114.51 97.81 114.60 98.03L118.94 107.88L118.94 98.38Q118.94 98.03 119.17 97.79Q119.43 97.53 119.75 97.53Q120.08 97.53 120.31 97.79Q120.57 98.03 120.57 98.40L120.57 110.29Q120.57 110.65 120.31 110.91Q120.08 111.17 119.75 111.17L119.07 111.17Q118.56 111.17 118.34 110.70L114.02 100.86L114.02 110.32Q114.02 110.67 113.77 110.93Q113.53 111.19 113.21 111.19Q112.88 111.19 112.65 110.93ZM127.10 110.57L124.12 98.41Q124.12 98.07 124.37 97.82Q124.63 97.56 124.95 97.56Q125.22 97.56 125.44 97.75Q125.68 97.93 125.73 98.17L128.48 109.28L131.21 98.17Q131.32 97.91 131.52 97.74Q131.73 97.56 132.01 97.56Q132.33 97.56 132.58 97.82Q132.84 98.08 132.84 98.41L129.82 110.57Q129.76 110.83 129.55 111.02Q129.33 111.19 129.08 111.19L127.88 111.19Q127.63 111.19 127.39 111Q127.16 110.81 127.10 110.57ZM136.23 104.65L136.23 104.16Q136.23 103.83 136.46 103.60Q136.70 103.38 137.04 103.38L144.28 103.38Q144.62 103.38 144.86 103.62Q145.09 103.85 145.09 104.16L145.09 104.65Q145.09 104.96 144.86 105.20Q144.62 105.43 144.28 105.43L137.04 105.43Q136.70 105.43 136.46 105.20Q136.23 104.98 136.23 104.65ZM149.93 101.73Q149.70 101.49 149.70 101.17Q149.70 100.81 149.93 100.64L153.24 97.91Q153.48 97.72 153.77 97.72L154.35 97.72Q154.67 97.72 154.91 97.96Q155.16 98.19 155.16 98.50L155.16 110.31Q155.16 110.62 154.91 110.86Q154.67 111.09 154.35 111.09Q154.02 111.09 153.77 110.86Q153.53 110.64 153.53 110.31L153.53 99.73L151.06 101.76Q150.82 101.96 150.51 101.96Q150.17 101.96 149.93 101.73ZM161.37 99.09Q161.14 98.85 161.14 98.52Q161.14 98.19 161.37 97.96Q161.61 97.74 161.95 97.74L169.01 97.74Q169.35 97.74 169.58 97.98Q169.82 98.21 169.82 98.52Q169.82 99.84 168.75 101.38Q168.43 101.87 167.49 103.00Q166.55 104.14 166.15 104.85Q164.97 106.94 164.97 110.29Q164.97 110.62 164.74 110.86Q164.50 111.09 164.20 111.09Q163.89 111.09 163.65 110.86Q163.42 110.64 163.42 110.29Q163.42 106.50 164.79 104.06Q165.21 103.34 166.15 102.15Q167.11 100.93 167.41 100.48Q167.85 99.79 168.01 99.44L168.05 99.32L161.95 99.32Q161.63 99.32 161.37 99.09ZM173.37 99.09Q173.14 98.85 173.14 98.52Q173.14 98.19 173.37 97.96Q173.61 97.74 173.95 97.74L181.01 97.74Q181.35 97.74 181.58 97.98Q181.82 98.21 181.82 98.52Q181.82 99.84 180.75 101.38Q180.43 101.87 179.49 103.00Q178.55 104.14 178.15 104.85Q176.97 106.94 176.97 110.29Q176.97 110.62 176.74 110.86Q176.50 111.09 176.20 111.09Q175.89 111.09 175.65 110.86Q175.42 110.64 175.42 110.29Q175.42 106.50 176.79 104.06Q177.21 103.34 178.15 102.15Q179.11 100.93 179.41 100.48Q179.85 99.79 180.01 99.44L180.05 99.32L173.95 99.32Q173.63 99.32 173.37 99.09ZM187.56 100.08Q186.77 100.91 186.77 102.08Q186.77 103.21 187.53 103.92Q188.25 104.61 189.48 104.61Q191.63 104.61 192.01 103.34Q192.19 102.77 192.19 102.08Q192.19 100.78 191.43 100.01Q190.69 99.23 189.48 99.23Q188.34 99.23 187.56 100.08M186.37 104.99Q185.14 103.83 185.14 102.08Q185.14 100.27 186.44 98.97Q187.71 97.67 189.48 97.67Q191.31 97.67 192.55 98.88Q193.82 100.10 193.82 102.08Q193.82 103.31 193.44 104.30Q193.06 105.29 192.37 106.43Q190.87 108.95 188.70 110.88Q188.47 111.09 188.20 111.09Q187.89 111.09 187.65 110.86Q187.42 110.64 187.42 110.31Q187.42 109.98 187.67 109.73Q189.39 108.15 190.62 106.24L190.71 106.07L190.53 106.10Q190.06 106.17 189.48 106.17Q187.56 106.17 186.37 104.99ZM200.07 99.58Q199.38 99.92 199.38 100.58Q199.38 101.02 199.54 101.35Q199.71 101.68 200.09 101.96Q200.45 102.22 200.68 102.35Q200.94 102.49 201.44 102.74L201.48 102.74L201.52 102.74Q202.02 102.51 202.27 102.37Q202.53 102.23 202.89 101.97Q203.25 101.70 203.41 101.37Q203.58 101.02 203.58 100.58Q203.58 99.92 202.89 99.58Q202.22 99.23 201.48 99.23Q200.74 99.23 200.07 99.58M201.48 104.52Q198.75 105.90 198.75 107.53Q198.75 108.50 199.56 109.04Q200.32 109.58 201.48 109.58L201.84 109.58Q202.80 109.58 203.49 108.97Q204.19 108.36 204.19 107.53Q204.19 105.88 201.55 104.52L201.52 104.49L201.48 104.52M198.39 110.13Q197.14 109.13 197.14 107.53Q197.14 105.43 199.71 103.73L199.82 103.66L199.71 103.59Q197.75 102.44 197.75 100.58Q197.75 99.32 198.91 98.50Q200.05 97.67 201.48 97.67Q202.89 97.67 204.05 98.50Q205.20 99.33 205.20 100.58Q205.20 101.61 204.70 102.32Q204.17 103.01 203.25 103.59L203.14 103.66L203.25 103.73Q205.82 105.43 205.82 107.53Q205.82 108.90 204.77 109.96Q203.72 111.02 202.24 111.14L201.48 111.14Q199.62 111.14 198.39 110.13ZM209.52 110.48Q209.14 110.20 209.14 109.78Q209.14 109.45 209.37 109.23Q209.63 108.99 209.95 108.99Q210.06 108.99 210.26 109.06Q211.42 109.56 212.68 109.56Q214.06 109.56 215.00 108.90Q215.96 108.22 216.03 106.94L216.03 106.76Q216.03 105.88 215.45 105.25Q214.91 104.65 214.11 104.39Q213.33 104.14 212.38 104.14Q212.07 104.14 211.83 103.92Q211.60 103.67 211.60 103.34Q211.60 103.03 211.76 102.86L215.09 99.32L210.01 99.32Q209.68 99.32 209.43 99.09Q209.19 98.85 209.19 98.52Q209.19 98.19 209.43 97.96Q209.66 97.74 210.01 97.74L216.39 97.74Q216.72 97.74 216.95 97.98Q217.20 98.21 217.20 98.52L217.20 99.14Q217.20 99.42 216.95 99.66L214.04 102.74L214.18 102.77Q215.72 103.15 216.70 104.18Q217.66 105.20 217.66 106.75L217.66 107.02Q217.57 108.92 216.12 110.03Q214.71 111.14 212.68 111.14Q212.18 111.14 211.67 111.09Q211.16 111.03 210.53 110.91Q209.90 110.77 209.52 110.48ZM225.55 111.14L225.48 111.14Q224.41 111.12 223.62 110.79Q222.82 110.48 222.35 109.98Q221.88 109.45 221.61 108.64Q221.32 107.82 221.23 106.99Q221.14 106.17 221.14 105.06Q221.14 104.07 221.16 103.38Q221.19 102.67 221.30 101.85Q221.41 101.02 221.59 100.46Q221.79 99.89 222.12 99.32Q222.44 98.76 222.89 98.43Q223.35 98.10 224.00 97.89Q224.65 97.68 225.48 97.68Q226.29 97.68 226.94 97.89Q227.59 98.10 228.05 98.43Q228.50 98.76 228.84 99.32Q229.17 99.89 229.35 100.46Q229.55 101.04 229.66 101.85Q229.76 102.67 229.78 103.38Q229.82 104.09 229.82 105.06Q229.82 105.76 229.78 106.33Q229.75 106.89 229.62 107.55Q229.51 108.21 229.33 108.71Q229.15 109.19 228.81 109.66Q228.46 110.13 228.03 110.44Q227.59 110.76 226.96 110.95Q226.33 111.14 225.55 111.14M222.77 103.64L222.77 105.06Q222.77 105.84 222.80 106.40Q222.86 106.96 223.02 107.60Q223.16 108.24 223.45 108.64Q223.74 109.06 224.25 109.33Q224.76 109.59 225.48 109.59L225.86 109.59Q226.37 109.59 226.76 109.40Q227.16 109.19 227.40 108.81Q227.65 108.45 227.81 108.03Q227.97 107.60 228.05 107.06Q228.14 106.50 228.16 106.05Q228.19 105.60 228.19 105.06L228.19 104.26Q228.19 103.73 228.17 103.41Q228.17 103.08 228.16 102.60Q228.14 102.09 228.08 101.82Q228.03 101.52 227.94 101.12Q227.85 100.72 227.70 100.48Q227.56 100.24 227.36 99.98Q227.14 99.72 226.89 99.58Q226.62 99.42 226.26 99.33Q225.91 99.25 225.48 99.25Q225.03 99.25 224.67 99.35Q224.32 99.44 224.05 99.61Q223.78 99.79 223.56 100.05Q223.36 100.29 223.22 100.60Q223.07 100.90 222.98 101.26Q222.89 101.61 222.86 102.01Q222.82 102.39 222.78 102.81Q222.77 103.21 222.77 103.64ZM233.37 107.84Q233.14 107.61 233.14 107.28L233.14 106.54Q233.14 106.40 233.23 106.21L237.08 98.17Q237.15 97.98 237.35 97.86Q237.55 97.72 237.77 97.72Q238.09 97.72 238.33 97.96Q238.56 98.19 238.56 98.50Q238.56 98.67 238.47 98.83L234.86 106.50L238.38 106.50L238.38 104.40Q238.38 104.09 238.62 103.87Q238.85 103.62 239.16 103.62Q239.47 103.62 239.70 103.87Q239.96 104.09 239.96 104.40L239.96 106.50L241.01 106.50Q241.35 106.50 241.58 106.75Q241.82 106.97 241.82 107.28Q241.82 107.60 241.57 107.84Q241.33 108.07 241.01 108.07L239.96 108.07L239.96 110.31Q239.96 110.62 239.70 110.84Q239.47 111.09 239.16 111.09Q238.85 111.09 238.62 110.86Q238.38 110.62 238.38 110.31L238.38 108.07L233.95 108.07Q233.63 108.07 233.37 107.84ZM245.37 107.84Q245.14 107.61 245.14 107.28L245.14 106.54Q245.14 106.40 245.23 106.21L249.08 98.17Q249.15 97.98 249.35 97.86Q249.55 97.72 249.77 97.72Q250.09 97.72 250.33 97.96Q250.56 98.19 250.56 98.50Q250.56 98.67 250.47 98.83L246.86 106.50L250.38 106.50L250.38 104.40Q250.38 104.09 250.62 103.87Q250.85 103.62 251.16 103.62Q251.47 103.62 251.70 103.87Q251.96 104.09 251.96 104.40L251.96 106.50L253.01 106.50Q253.35 106.50 253.58 106.75Q253.82 106.97 253.82 107.28Q253.82 107.60 253.57 107.84Q253.33 108.07 253.01 108.07L251.96 108.07L251.96 110.31Q251.96 110.62 251.70 110.84Q251.47 111.09 251.16 111.09Q250.85 111.09 250.62 110.86Q250.38 110.62 250.38 110.31L250.38 108.07L245.95 108.07Q245.63 108.07 245.37 107.84ZM257.84 110.91Q257.61 110.69 257.61 110.36Q257.61 110.01 257.84 109.78Q258.10 109.56 258.42 109.56Q262.08 109.56 263.14 107.60Q263.47 107.01 263.47 106.47Q263.47 105.20 262.85 104.56Q262.04 103.64 260.00 103.64Q259.44 103.64 258.86 103.69L258.78 103.69Q258.46 103.69 258.21 103.48Q257.97 103.26 257.97 102.95L257.97 102.89L258.22 98.47Q258.26 98.15 258.48 97.95Q258.71 97.74 259.04 97.74L264.17 97.74Q264.52 97.74 264.75 97.98Q264.99 98.21 264.99 98.52Q264.99 98.83 264.73 99.07Q264.50 99.32 264.17 99.32L259.80 99.32L259.65 102.04L260.00 102.04Q262.29 102.04 263.69 103.17Q265.10 104.28 265.10 106.47Q265.10 107.39 264.68 108.19Q264.25 109.00 263.59 109.58Q261.86 111.14 258.42 111.14Q258.10 111.14 257.84 110.91M258.84 103.69Q258.84 103.69 258.86 103.69Q258.86 103.69 258.84 103.69ZM270.41 110.01Q269.19 108.88 269.14 107.02L269.14 106.82Q269.14 104.65 270.39 102.67Q270.89 101.85 271.62 100.95Q272.32 100.03 272.81 99.49Q273.30 98.93 274.20 97.95Q274.40 97.72 274.76 97.72Q275.07 97.72 275.31 97.96Q275.54 98.19 275.54 98.50Q275.54 98.80 275.34 99.04Q273.30 101.26 272.34 102.60L272.21 102.77L272.41 102.74Q272.94 102.63 273.48 102.63Q275.45 102.63 276.63 103.81Q277.82 105.01 277.82 107.02Q277.82 108.85 276.59 109.99Q275.36 111.14 273.48 111.14Q271.60 111.14 270.41 110.01M271.49 104.96Q270.77 105.71 270.77 107.02Q270.77 108.21 271.53 108.90Q272.27 109.58 273.48 109.58Q274.67 109.58 275.41 108.88Q276.19 108.19 276.19 107.02Q276.19 105.67 275.49 104.94Q274.80 104.19 273.48 104.19Q272.20 104.19 271.49 104.96ZM281.52 110.48Q281.14 110.20 281.14 109.78Q281.14 109.45 281.37 109.23Q281.63 108.99 281.95 108.99Q282.06 108.99 282.26 109.06Q283.42 109.56 284.68 109.56Q286.06 109.56 287.00 108.90Q287.96 108.22 288.03 106.94L288.03 106.76Q288.03 105.88 287.45 105.25Q286.91 104.65 286.11 104.39Q285.33 104.14 284.38 104.14Q284.07 104.14 283.83 103.92Q283.60 103.67 283.60 103.34Q283.60 103.03 283.76 102.86L287.09 99.32L282.01 99.32Q281.68 99.32 281.43 99.09Q281.19 98.85 281.19 98.52Q281.19 98.19 281.43 97.96Q281.66 97.74 282.01 97.74L288.39 97.74Q288.72 97.74 288.95 97.98Q289.20 98.21 289.20 98.52L289.20 99.14Q289.20 99.42 288.95 99.66L286.04 102.74L286.18 102.77Q287.72 103.15 288.70 104.18Q289.66 105.20 289.66 106.75L289.66 107.02Q289.57 108.92 288.12 110.03Q286.71 111.14 284.68 111.14Q284.18 111.14 283.67 111.09Q283.16 111.03 282.53 110.91Q281.90 110.77 281.52 110.48ZM294.41 110.01Q293.19 108.88 293.14 107.02L293.14 106.82Q293.14 104.65 294.39 102.67Q294.89 101.85 295.62 100.95Q296.32 100.03 296.81 99.49Q297.30 98.93 298.20 97.95Q298.40 97.72 298.76 97.72Q299.07 97.72 299.31 97.96Q299.54 98.19 299.54 98.50Q299.54 98.80 299.34 99.04Q297.30 101.26 296.34 102.60L296.21 102.77L296.41 102.74Q296.94 102.63 297.48 102.63Q299.45 102.63 300.63 103.81Q301.82 105.01 301.82 107.02Q301.82 108.85 300.59 109.99Q299.36 111.14 297.48 111.14Q295.60 111.14 294.41 110.01M295.49 104.96Q294.77 105.71 294.77 107.02Q294.77 108.21 295.53 108.90Q296.27 109.58 297.48 109.58Q298.67 109.58 299.41 108.88Q300.19 108.19 300.19 107.02Q300.19 105.67 299.49 104.94Q298.80 104.19 297.48 104.19Q296.20 104.19 295.49 104.96ZM305.23 104.65L305.23 104.16Q305.23 103.83 305.46 103.60Q305.70 103.38 306.04 103.38L313.28 103.38Q313.62 103.38 313.86 103.62Q314.09 103.85 314.09 104.16L314.09 104.65Q314.09 104.96 313.86 105.20Q313.62 105.43 313.28 105.43L306.04 105.43Q305.70 105.43 305.46 105.20Q305.23 104.98 305.23 104.65ZM318.84 110.91Q318.61 110.69 318.61 110.36Q318.61 110.01 318.84 109.78Q319.10 109.56 319.42 109.56Q323.08 109.56 324.14 107.60Q324.47 107.01 324.47 106.47Q324.47 105.20 323.85 104.56Q323.04 103.64 321.00 103.64Q320.44 103.64 319.86 103.69L319.78 103.69Q319.46 103.69 319.21 103.48Q318.97 103.26 318.97 102.95L318.97 102.89L319.22 98.47Q319.26 98.15 319.48 97.95Q319.71 97.74 320.04 97.74L325.17 97.74Q325.52 97.74 325.75 97.98Q325.99 98.21 325.99 98.52Q325.99 98.83 325.73 99.07Q325.50 99.32 325.17 99.32L320.80 99.32L320.65 102.04L321.00 102.04Q323.29 102.04 324.69 103.17Q326.10 104.28 326.10 106.47Q326.10 107.39 325.68 108.19Q325.25 109.00 324.59 109.58Q322.86 111.14 319.42 111.14Q319.10 111.14 318.84 110.91M319.84 103.69Q319.84 103.69 319.86 103.69Q319.86 103.69 319.84 103.69ZM334.55 111.14L334.48 111.14Q333.41 111.12 332.62 110.79Q331.82 110.48 331.35 109.98Q330.88 109.45 330.61 108.64Q330.32 107.82 330.23 106.99Q330.14 106.17 330.14 105.06Q330.14 104.07 330.16 103.38Q330.19 102.67 330.30 101.85Q330.41 101.02 330.59 100.46Q330.79 99.89 331.12 99.32Q331.44 98.76 331.89 98.43Q332.35 98.10 333.00 97.89Q333.65 97.68 334.48 97.68Q335.29 97.68 335.94 97.89Q336.59 98.10 337.05 98.43Q337.50 98.76 337.84 99.32Q338.17 99.89 338.35 100.46Q338.55 101.04 338.66 101.85Q338.76 102.67 338.78 103.38Q338.82 104.09 338.82 105.06Q338.82 105.76 338.78 106.33Q338.75 106.89 338.62 107.55Q338.51 108.21 338.33 108.71Q338.15 109.19 337.81 109.66Q337.46 110.13 337.03 110.44Q336.59 110.76 335.96 110.95Q335.33 111.14 334.55 111.14M331.77 103.64L331.77 105.06Q331.77 105.84 331.80 106.40Q331.86 106.96 332.02 107.60Q332.16 108.24 332.45 108.64Q332.74 109.06 333.25 109.33Q333.76 109.59 334.48 109.59L334.86 109.59Q335.37 109.59 335.76 109.40Q336.16 109.19 336.40 108.81Q336.65 108.45 336.81 108.03Q336.97 107.60 337.05 107.06Q337.14 106.50 337.16 106.05Q337.19 105.60 337.19 105.06L337.19 104.26Q337.19 103.73 337.17 103.41Q337.17 103.08 337.16 102.60Q337.14 102.09 337.08 101.82Q337.03 101.52 336.94 101.12Q336.85 100.72 336.70 100.48Q336.56 100.24 336.36 99.98Q336.14 99.72 335.89 99.58Q335.62 99.42 335.26 99.33Q334.91 99.25 334.48 99.25Q334.03 99.25 333.67 99.35Q333.32 99.44 333.05 99.61Q332.78 99.79 332.56 100.05Q332.36 100.29 332.22 100.60Q332.07 100.90 331.98 101.26Q331.89 101.61 331.86 102.01Q331.82 102.39 331.78 102.81Q331.77 103.21 331.77 103.64ZM345.07 99.58Q344.38 99.92 344.38 100.58Q344.38 101.02 344.54 101.35Q344.71 101.68 345.09 101.96Q345.45 102.22 345.68 102.35Q345.94 102.49 346.44 102.74L346.48 102.74L346.52 102.74Q347.02 102.51 347.27 102.37Q347.53 102.23 347.89 101.97Q348.25 101.70 348.41 101.37Q348.58 101.02 348.58 100.58Q348.58 99.92 347.89 99.58Q347.22 99.23 346.48 99.23Q345.74 99.23 345.07 99.58M346.48 104.52Q343.75 105.90 343.75 107.53Q343.75 108.50 344.56 109.04Q345.32 109.58 346.48 109.58L346.84 109.58Q347.80 109.58 348.49 108.97Q349.19 108.36 349.19 107.53Q349.19 105.88 346.55 104.52L346.52 104.49L346.48 104.52M343.39 110.13Q342.14 109.13 342.14 107.53Q342.14 105.43 344.71 103.73L344.82 103.66L344.71 103.59Q342.75 102.44 342.75 100.58Q342.75 99.32 343.91 98.50Q345.05 97.67 346.48 97.67Q347.89 97.67 349.05 98.50Q350.20 99.33 350.20 100.58Q350.20 101.61 349.70 102.32Q349.17 103.01 348.25 103.59L348.14 103.66L348.25 103.73Q350.82 105.43 350.82 107.53Q350.82 108.90 349.77 109.96Q348.72 111.02 347.24 111.14L346.48 111.14Q344.62 111.14 343.39 110.13ZM354.68 99.91Q354.45 99.66 354.45 99.37Q354.45 98.93 354.79 98.71Q356.44 97.67 358.48 97.67Q360.12 97.67 361.23 98.67Q362.35 99.66 362.35 101.28Q362.35 101.92 362.11 102.51Q361.88 103.12 361.57 103.50Q361.28 103.88 360.70 104.35Q360.12 104.82 359.82 105.03Q359.53 105.24 358.90 105.64Q358.21 106.07 357.90 106.30Q357.59 106.52 357.16 106.97Q356.73 107.41 356.53 107.96Q356.33 108.50 356.29 109.25L356.29 109.33L361.64 109.33Q361.99 109.33 362.22 109.58Q362.46 109.80 362.46 110.11Q362.46 110.43 362.20 110.67Q361.97 110.90 361.64 110.90L355.46 110.90Q355.13 110.90 354.88 110.67Q354.65 110.43 354.65 110.11L354.65 109.75Q354.65 108.40 354.83 107.81Q355.13 106.76 355.98 105.95Q356.83 105.12 358.06 104.32Q359.76 103.22 360.22 102.60Q360.72 101.97 360.72 101.28Q360.72 100.36 360.05 99.79Q359.42 99.23 358.48 99.23Q356.85 99.23 355.73 99.99Q355.53 100.13 355.26 100.13Q354.93 100.13 354.68 99.91ZM366.37 99.09Q366.14 98.85 366.14 98.52Q366.14 98.19 366.37 97.96Q366.61 97.74 366.95 97.74L374.01 97.74Q374.35 97.74 374.58 97.98Q374.82 98.21 374.82 98.52Q374.82 99.84 373.75 101.38Q373.43 101.87 372.49 103.00Q371.55 104.14 371.15 104.85Q369.97 106.94 369.97 110.29Q369.97 110.62 369.74 110.86Q369.50 111.09 369.20 111.09Q368.89 111.09 368.65 110.86Q368.42 110.64 368.42 110.29Q368.42 106.50 369.79 104.06Q370.21 103.34 371.15 102.15Q372.11 100.93 372.41 100.48Q372.85 99.79 373.01 99.44L373.05 99.32L366.95 99.32Q366.63 99.32 366.37 99.09Z" fill="#000000" />
</svg>
