<svg viewBox="0 0 759 431" xmlns="http://www.w3.org/2000/svg">
<rect width="100%" height="100%" fill="#FFFFFF" />
<path stroke="#000000" stroke-width="6" d="M33 371L33 30M66 371L66 30M123 371L123 30M150 371L150 30M174 371L174 30M222 371L222 30M372 371L372 30M429 371L429 30M504 371L504 30M528 371L528 30M606 371L606 30M672 371L672 30M693 371L693 30M726 371L726 30" />
<path stroke="#000000" stroke-width="3" d="M40.50 371L40.50 30M49.50 371L49.50 30M79.50 371L79.50 30M91.50 371L91.50 30M97.50 371L97.50 30M142.50 371L142.50 30M163.50 371L163.50 30M196.50 371L196.50 30M229.50 371L229.50 30M289.50 371L289.50 30M295.50 371L295.50 30M301.50 371L301.50 30M328.50 371L328.50 30M355.50 371L355.50 30M361.50 371L361.50 30M382.50 371L382.50 30M412.50 371L412.50 30M421.50 371L421.50 30M439.50 371L439.50 30M454.50 371L454.50 30M460.50 371L460.50 30M493.50 371L493.50 30M550.50 371L550.50 30M559.50 371L559.50 30M616.50 371L616.50 30M625.50 371L625.50 30M634.50 371L634.50 30M679.50 371L679.50 30M718.50 371L718.50 30" />
<path stroke="#000000" stroke-width="9" d="M106.50 371L106.50 30M133.50 371L133.50 30M184.50 371L184.50 30M208.50 371L208.50 30M238.50 371L238.50 30M280.50 371L280.50 30M484.50 371L484.50 30M514.50 371L514.50 30M538.50 371L538.50 30M568.50 371L568.50 30M595.50 371L595.50 30M661.50 371L661.50 30M709.50 371L709.50 30" />
<path stroke="#000000" stroke-width="12" d="M252 371L252 30M267 371L267 30M318 371L318 30M342 371L342 30M399 371L399 30M471 371L471 30M582 371L582 30M648 371L648 30" />
<path d="M107.73 398.29Q107.23 397.78 107.23 397.10Q107.23 396.39 107.69 395.89Q108.15 395.41 108.82 395.41L112.20 395.41L112.20 376.59L109.52 376.59Q108.89 376.59 108.43 376.08Q107.94 375.57 107.94 374.90Q107.94 374.22 108.40 373.71Q108.85 373.20 109.52 373.20L117.85 373.20Q118.52 373.20 118.97 373.71Q119.43 374.22 119.43 374.90Q119.43 375.57 118.94 376.08Q118.48 376.59 117.85 376.59L115.17 376.59L115.17 395.41L118.55 395.41Q119.22 395.41 119.68 395.89Q120.14 396.39 120.14 397.10Q120.14 397.78 119.64 398.29Q119.19 398.80 118.55 398.80L108.82 398.80Q108.18 398.80 107.73 398.29ZM130.21 398.86Q129.72 398.36 129.72 397.65L129.72 374.46Q129.72 373.75 130.17 373.27Q130.67 372.76 131.30 372.76L132.61 372.76Q133.03 372.76 133.42 373.04Q133.84 373.27 134.02 373.71L142.48 392.91L142.48 374.39Q142.48 373.71 142.94 373.24Q143.43 372.73 144.07 372.73Q144.70 372.73 145.16 373.24Q145.65 373.71 145.65 374.42L145.65 397.61Q145.65 398.32 145.16 398.83Q144.70 399.34 144.07 399.34L142.73 399.34Q141.74 399.34 141.32 398.42L132.89 379.23L132.89 397.68Q132.89 398.36 132.40 398.86Q131.94 399.37 131.30 399.37Q130.67 399.37 130.21 398.86ZM159.00 398.15L153.19 374.46Q153.19 373.78 153.68 373.31Q154.17 372.80 154.81 372.80Q155.34 372.80 155.76 373.17Q156.22 373.51 156.32 373.98L161.68 395.65L167.01 373.98Q167.22 373.48 167.61 373.14Q168.03 372.80 168.56 372.80Q169.20 372.80 169.69 373.31Q170.18 373.81 170.18 374.46L164.29 398.15Q164.19 398.66 163.76 399.03Q163.34 399.37 162.85 399.37L160.52 399.37Q160.03 399.37 159.57 399Q159.11 398.63 159.00 398.15ZM177.40 386.61L177.40 385.66Q177.40 385.02 177.86 384.58Q178.31 384.14 178.98 384.14L193.09 384.14Q193.76 384.14 194.22 384.61Q194.68 385.05 194.68 385.66L194.68 386.61Q194.68 387.22 194.22 387.69Q193.76 388.13 193.09 388.13L178.98 388.13Q178.31 388.13 177.86 387.69Q177.40 387.25 177.40 386.61ZM203.77 380.92Q203.31 380.45 203.31 379.84Q203.31 379.13 203.77 378.79L210.23 373.48Q210.68 373.10 211.25 373.10L212.38 373.10Q213.01 373.10 213.47 373.58Q213.96 374.02 213.96 374.63L213.96 397.65Q213.96 398.26 213.47 398.73Q213.01 399.17 212.38 399.17Q211.74 399.17 211.25 398.73Q210.79 398.29 210.79 397.65L210.79 377.03L205.96 380.99Q205.50 381.36 204.90 381.36Q204.23 381.36 203.77 380.92ZM227.68 375.78Q227.22 375.30 227.22 374.66Q227.22 374.02 227.68 373.58Q228.14 373.14 228.81 373.14L242.56 373.14Q243.23 373.14 243.69 373.61Q244.15 374.05 244.15 374.66Q244.15 377.23 242.07 380.25Q241.43 381.19 239.60 383.39Q237.76 385.63 236.99 387.02Q234.70 391.08 234.70 397.61Q234.70 398.26 234.24 398.73Q233.78 399.17 233.18 399.17Q232.58 399.17 232.12 398.73Q231.66 398.29 231.66 397.61Q231.66 390.23 234.34 385.46Q235.16 384.07 236.99 381.74Q238.86 379.37 239.46 378.49Q240.30 377.13 240.62 376.45L240.69 376.22L228.81 376.22Q228.17 376.22 227.68 375.78ZM251.68 375.78Q251.22 375.30 251.22 374.66Q251.22 374.02 251.68 373.58Q252.14 373.14 252.81 373.14L266.56 373.14Q267.23 373.14 267.69 373.61Q268.15 374.05 268.15 374.66Q268.15 377.23 266.07 380.25Q265.43 381.19 263.60 383.39Q261.76 385.63 260.99 387.02Q258.70 391.08 258.70 397.61Q258.70 398.26 258.24 398.73Q257.78 399.17 257.18 399.17Q256.58 399.17 256.12 398.73Q255.66 398.29 255.66 397.61Q255.66 390.23 258.34 385.46Q259.16 384.07 260.99 381.74Q262.86 379.37 263.46 378.49Q264.30 377.13 264.62 376.45L264.69 376.22L252.81 376.22Q252.17 376.22 251.68 375.78ZM279.95 377.71Q278.40 379.33 278.40 381.60Q278.40 383.80 279.88 385.19Q281.29 386.54 283.68 386.54Q287.88 386.54 288.62 384.07Q288.97 382.95 288.97 381.60Q288.97 379.06 287.49 377.57Q286.05 376.05 283.68 376.05Q281.46 376.05 279.95 377.71M277.62 387.29Q275.22 385.02 275.22 381.60Q275.22 378.08 277.76 375.54Q280.23 373.00 283.68 373.00Q287.25 373.00 289.68 375.37Q292.15 377.74 292.15 381.60Q292.15 384.00 291.41 385.93Q290.67 387.86 289.33 390.10Q286.40 395.01 282.17 398.76Q281.71 399.17 281.18 399.17Q280.58 399.17 280.12 398.73Q279.66 398.29 279.66 397.65Q279.66 397.00 280.16 396.53Q283.51 393.45 285.91 389.72L286.08 389.39L285.73 389.45Q284.81 389.59 283.68 389.59Q279.95 389.59 277.62 387.29ZM299.96 397.98Q299.22 397.44 299.22 396.63Q299.22 395.99 299.68 395.55Q300.17 395.07 300.81 395.07Q301.02 395.07 301.41 395.21Q303.66 396.19 306.13 396.19Q308.81 396.19 310.65 394.90Q312.52 393.58 312.66 391.08L312.66 390.74Q312.66 389.01 311.53 387.80Q310.47 386.61 308.92 386.10Q307.40 385.63 305.53 385.63Q304.93 385.63 304.48 385.19Q304.02 384.71 304.02 384.07Q304.02 383.46 304.33 383.12L310.82 376.22L300.91 376.22Q300.28 376.22 299.79 375.78Q299.33 375.30 299.33 374.66Q299.33 374.02 299.79 373.58Q300.24 373.14 300.91 373.14L313.36 373.14Q314.00 373.14 314.45 373.61Q314.95 374.05 314.95 374.66L314.95 375.88Q314.95 376.42 314.45 376.89L308.78 382.89L309.06 382.95Q312.06 383.70 313.96 385.70Q315.83 387.69 315.83 390.71L315.83 391.25Q315.65 394.94 312.83 397.10Q310.08 399.27 306.13 399.27Q305.15 399.27 304.16 399.17Q303.17 399.07 301.94 398.83Q300.70 398.56 299.96 397.98ZM328.93 376.73Q327.59 377.40 327.59 378.69Q327.59 379.54 327.91 380.18Q328.23 380.82 328.97 381.36Q329.67 381.87 330.13 382.14Q330.63 382.41 331.61 382.89L331.68 382.89L331.75 382.89Q332.74 382.45 333.24 382.18Q333.73 381.90 334.43 381.40Q335.14 380.86 335.46 380.21Q335.77 379.54 335.77 378.69Q335.77 377.40 334.43 376.73Q333.13 376.05 331.68 376.05Q330.24 376.05 328.93 376.73M331.68 386.37Q326.36 389.05 326.36 392.23Q326.36 394.13 327.95 395.17Q329.43 396.22 331.68 396.22L332.39 396.22Q334.26 396.22 335.60 395.04Q336.97 393.85 336.97 392.23Q336.97 389.01 331.83 386.37L331.75 386.31L331.68 386.37M325.65 397.31Q323.22 395.34 323.22 392.23Q323.22 388.13 328.23 384.82L328.44 384.68L328.23 384.55Q324.42 382.31 324.42 378.69Q324.42 376.22 326.68 374.63Q328.90 373.00 331.68 373.00Q334.43 373.00 336.69 374.63Q338.95 376.25 338.95 378.69Q338.95 380.69 337.96 382.07Q336.94 383.43 335.14 384.55L334.93 384.68L335.14 384.82Q340.15 388.13 340.15 392.23Q340.15 394.90 338.10 396.97Q336.06 399.03 333.17 399.27L331.68 399.27Q328.05 399.27 325.65 397.31ZM348.60 398.83Q348.14 398.39 348.14 397.75Q348.14 397.07 348.60 396.63Q349.09 396.19 349.73 396.19Q356.85 396.19 358.93 392.37Q359.56 391.21 359.56 390.16Q359.56 387.69 358.36 386.44Q356.78 384.65 352.79 384.65Q351.70 384.65 350.57 384.75L350.43 384.75Q349.80 384.75 349.30 384.34Q348.84 383.90 348.84 383.29L348.84 383.19L349.34 374.56Q349.41 373.95 349.83 373.54Q350.29 373.14 350.92 373.14L360.94 373.14Q361.61 373.14 362.07 373.61Q362.53 374.05 362.53 374.66Q362.53 375.27 362.03 375.74Q361.57 376.22 360.94 376.22L352.41 376.22L352.12 381.53L352.79 381.53Q357.27 381.53 359.99 383.73Q362.74 385.90 362.74 390.16Q362.74 391.96 361.93 393.52Q361.08 395.11 359.81 396.22Q356.42 399.27 349.73 399.27Q349.09 399.27 348.60 398.83M350.54 384.75Q350.54 384.75 350.57 384.75Q350.57 384.75 350.54 384.75ZM379.83 399.27L379.68 399.27Q377.60 399.24 376.05 398.59Q374.50 397.98 373.58 397.00Q372.67 395.99 372.14 394.40Q371.57 392.81 371.40 391.18Q371.22 389.59 371.22 387.42Q371.22 385.49 371.26 384.14Q371.33 382.75 371.54 381.16Q371.75 379.54 372.10 378.45Q372.49 377.33 373.13 376.22Q373.76 375.13 374.64 374.49Q375.52 373.85 376.79 373.44Q378.06 373.04 379.68 373.04Q381.27 373.04 382.54 373.44Q383.81 373.85 384.69 374.49Q385.57 375.13 386.24 376.22Q386.88 377.33 387.23 378.45Q387.62 379.57 387.83 381.16Q388.04 382.75 388.08 384.14Q388.15 385.53 388.15 387.42Q388.15 388.78 388.08 389.89Q388.01 390.98 387.76 392.26Q387.55 393.55 387.20 394.53Q386.84 395.48 386.17 396.39Q385.50 397.31 384.66 397.92Q383.81 398.53 382.58 398.90Q381.34 399.27 379.83 399.27M374.40 384.65L374.40 387.42Q374.40 388.95 374.47 390.03Q374.57 391.11 374.89 392.37Q375.17 393.62 375.74 394.40Q376.30 395.21 377.29 395.75Q378.27 396.26 379.68 396.26L380.42 396.26Q381.41 396.26 382.19 395.89Q382.96 395.48 383.42 394.73Q383.92 394.02 384.23 393.21Q384.55 392.37 384.69 391.32Q384.87 390.23 384.90 389.35Q384.97 388.47 384.97 387.42L384.97 385.87Q384.97 384.82 384.94 384.21Q384.94 383.56 384.90 382.62Q384.87 381.63 384.76 381.09Q384.66 380.52 384.48 379.74Q384.30 378.96 384.02 378.49Q383.74 378.01 383.35 377.50Q382.93 377.00 382.43 376.73Q381.91 376.42 381.20 376.25Q380.53 376.08 379.68 376.08Q378.80 376.08 378.10 376.29Q377.43 376.45 376.90 376.79Q376.37 377.13 375.95 377.64Q375.56 378.11 375.28 378.72Q374.99 379.30 374.82 380.01Q374.64 380.69 374.57 381.46Q374.50 382.21 374.43 383.02Q374.40 383.80 374.40 384.65ZM397.69 397.07Q395.33 394.87 395.22 391.25L395.22 390.84Q395.22 386.61 397.65 382.75Q398.64 381.16 400.05 379.40Q401.43 377.61 402.38 376.56Q403.33 375.47 405.09 373.54Q405.48 373.10 406.19 373.10Q406.79 373.10 407.25 373.58Q407.70 374.02 407.70 374.63Q407.70 375.20 407.32 375.68Q403.33 380.01 401.46 382.62L401.22 382.95L401.60 382.89Q402.63 382.68 403.68 382.68Q407.53 382.68 409.82 384.99Q412.15 387.32 412.15 391.25Q412.15 394.80 409.75 397.04Q407.35 399.27 403.68 399.27Q400.02 399.27 397.69 397.07M399.81 387.22Q398.40 388.68 398.40 391.25Q398.40 393.55 399.88 394.90Q401.32 396.22 403.68 396.22Q406.01 396.22 407.46 394.87Q408.97 393.52 408.97 391.25Q408.97 388.61 407.60 387.19Q406.26 385.73 403.68 385.73Q401.18 385.73 399.81 387.22ZM424.93 376.73Q423.59 377.40 423.59 378.69Q423.59 379.54 423.91 380.18Q424.23 380.82 424.97 381.36Q425.67 381.87 426.13 382.14Q426.63 382.41 427.61 382.89L427.68 382.89L427.75 382.89Q428.74 382.45 429.24 382.18Q429.73 381.90 430.43 381.40Q431.14 380.86 431.46 380.21Q431.77 379.54 431.77 378.69Q431.77 377.40 430.43 376.73Q429.13 376.05 427.68 376.05Q426.24 376.05 424.93 376.73M427.68 386.37Q422.36 389.05 422.36 392.23Q422.36 394.13 423.95 395.17Q425.43 396.22 427.68 396.22L428.39 396.22Q430.26 396.22 431.60 395.04Q432.97 393.85 432.97 392.23Q432.97 389.01 427.83 386.37L427.75 386.31L427.68 386.37M421.65 397.31Q419.22 395.34 419.22 392.23Q419.22 388.13 424.23 384.82L424.44 384.68L424.23 384.55Q420.42 382.31 420.42 378.69Q420.42 376.22 422.68 374.63Q424.90 373.00 427.68 373.00Q430.43 373.00 432.69 374.63Q434.95 376.25 434.95 378.69Q434.95 380.69 433.96 382.07Q432.94 383.43 431.14 384.55L430.93 384.68L431.14 384.82Q436.15 388.13 436.15 392.23Q436.15 394.90 434.10 396.97Q432.06 399.03 429.17 399.27L427.68 399.27Q424.05 399.27 421.65 397.31ZM448.93 376.73Q447.59 377.40 447.59 378.69Q447.59 379.54 447.91 380.18Q448.23 380.82 448.97 381.36Q449.67 381.87 450.13 382.14Q450.63 382.41 451.61 382.89L451.68 382.89L451.75 382.89Q452.74 382.45 453.24 382.18Q453.73 381.90 454.43 381.40Q455.14 380.86 455.46 380.21Q455.77 379.54 455.77 378.69Q455.77 377.40 454.43 376.73Q453.13 376.05 451.68 376.05Q450.24 376.05 448.93 376.73M451.68 386.37Q446.36 389.05 446.36 392.23Q446.36 394.13 447.95 395.17Q449.43 396.22 451.68 396.22L452.39 396.22Q454.26 396.22 455.60 395.04Q456.97 393.85 456.97 392.23Q456.97 389.01 451.83 386.37L451.75 386.31L451.68 386.37M445.65 397.31Q443.22 395.34 443.22 392.23Q443.22 388.13 448.23 384.82L448.44 384.68L448.23 384.55Q444.42 382.31 444.42 378.69Q444.42 376.22 446.68 374.63Q448.90 373.00 451.68 373.00Q454.43 373.00 456.69 374.63Q458.95 376.25 458.95 378.69Q458.95 380.69 457.96 382.07Q456.94 383.43 455.14 384.55L454.93 384.68L455.14 384.82Q460.15 388.13 460.15 392.23Q460.15 394.90 458.10 396.97Q456.06 399.03 453.17 399.27L451.68 399.27Q448.05 399.27 445.65 397.31ZM469.69 397.07Q467.33 394.87 467.22 391.25L467.22 390.84Q467.22 386.61 469.65 382.75Q470.64 381.16 472.05 379.40Q473.43 377.61 474.38 376.56Q475.33 375.47 477.09 373.54Q477.48 373.10 478.19 373.10Q478.79 373.10 479.25 373.58Q479.70 374.02 479.70 374.63Q479.70 375.20 479.32 375.68Q475.33 380.01 473.46 382.62L473.22 382.95L473.60 382.89Q474.63 382.68 475.68 382.68Q479.53 382.68 481.82 384.99Q484.15 387.32 484.15 391.25Q484.15 394.80 481.75 397.04Q479.35 399.27 475.68 399.27Q472.02 399.27 469.69 397.07M471.81 387.22Q470.40 388.68 470.40 391.25Q470.40 393.55 471.88 394.90Q473.32 396.22 475.68 396.22Q478.01 396.22 479.46 394.87Q480.97 393.52 480.97 391.25Q480.97 388.61 479.60 387.19Q478.26 385.73 475.68 385.73Q473.18 385.73 471.81 387.22ZM492.77 380.92Q492.31 380.45 492.31 379.84Q492.31 379.13 492.77 378.79L499.23 373.48Q499.68 373.10 500.25 373.10L501.38 373.10Q502.01 373.10 502.47 373.58Q502.96 374.02 502.96 374.63L502.96 397.65Q502.96 398.26 502.47 398.73Q502.01 399.17 501.38 399.17Q500.74 399.17 500.25 398.73Q499.79 398.29 499.79 397.65L499.79 377.03L494.96 380.99Q494.50 381.36 493.90 381.36Q493.23 381.36 492.77 380.92ZM516.40 386.61L516.40 385.66Q516.40 385.02 516.86 384.58Q517.31 384.14 517.98 384.14L532.09 384.14Q532.76 384.14 533.22 384.61Q533.68 385.05 533.68 385.66L533.68 386.61Q533.68 387.22 533.22 387.69Q532.76 388.13 532.09 388.13L517.98 388.13Q517.31 388.13 516.86 387.69Q516.40 387.25 516.40 386.61ZM542.60 398.83Q542.14 398.39 542.14 397.75Q542.14 397.07 542.60 396.63Q543.09 396.19 543.73 396.19Q550.85 396.19 552.93 392.37Q553.56 391.21 553.56 390.16Q553.56 387.69 552.36 386.44Q550.78 384.65 546.79 384.65Q545.70 384.65 544.57 384.75L544.43 384.75Q543.80 384.75 543.30 384.34Q542.84 383.90 542.84 383.29L542.84 383.19L543.34 374.56Q543.41 373.95 543.83 373.54Q544.29 373.14 544.92 373.14L554.94 373.14Q555.61 373.14 556.07 373.61Q556.53 374.05 556.53 374.66Q556.53 375.27 556.03 375.74Q555.57 376.22 554.94 376.22L546.41 376.22L546.12 381.53L546.79 381.53Q551.27 381.53 553.99 383.73Q556.74 385.90 556.74 390.16Q556.74 391.96 555.93 393.52Q555.08 395.11 553.81 396.22Q550.42 399.27 543.73 399.27Q543.09 399.27 542.60 398.83M544.54 384.75Q544.54 384.75 544.57 384.75Q544.57 384.75 544.54 384.75ZM566.28 377.37Q565.82 376.89 565.82 376.32Q565.82 375.47 566.49 375.03Q569.70 373.00 573.68 373.00Q576.89 373.00 579.04 374.97Q581.23 376.89 581.23 380.04Q581.23 381.30 580.77 382.45Q580.31 383.63 579.71 384.38Q579.15 385.12 578.02 386.03Q576.89 386.95 576.29 387.36Q575.73 387.76 574.50 388.54Q573.16 389.39 572.56 389.83Q571.96 390.27 571.11 391.15Q570.26 391.99 569.88 393.08Q569.49 394.13 569.42 395.58L569.42 395.75L579.86 395.75Q580.53 395.75 580.98 396.22Q581.44 396.66 581.44 397.27Q581.44 397.88 580.95 398.36Q580.49 398.80 579.86 398.80L567.80 398.80Q567.16 398.80 566.67 398.36Q566.21 397.88 566.21 397.27L566.21 396.56Q566.21 393.92 566.56 392.77Q567.16 390.74 568.82 389.15Q570.48 387.52 572.87 385.97Q576.19 383.83 577.07 382.62Q578.06 381.40 578.06 380.04Q578.06 378.25 576.75 377.13Q575.52 376.05 573.68 376.05Q570.51 376.05 568.32 377.54Q567.94 377.81 567.41 377.81Q566.77 377.81 566.28 377.37ZM589.68 375.78Q589.22 375.30 589.22 374.66Q589.22 374.02 589.68 373.58Q590.14 373.14 590.81 373.14L604.56 373.14Q605.23 373.14 605.69 373.61Q606.15 374.05 606.15 374.66Q606.15 377.23 604.07 380.25Q603.43 381.19 601.60 383.39Q599.76 385.63 598.99 387.02Q596.70 391.08 596.70 397.61Q596.70 398.26 596.24 398.73Q595.78 399.17 595.18 399.17Q594.58 399.17 594.12 398.73Q593.66 398.29 593.66 397.61Q593.66 390.23 596.34 385.46Q597.16 384.07 598.99 381.74Q600.86 379.37 601.46 378.49Q602.30 377.13 602.62 376.45L602.69 376.22L590.81 376.22Q590.17 376.22 589.68 375.78ZM618.93 376.73Q617.59 377.40 617.59 378.69Q617.59 379.54 617.91 380.18Q618.23 380.82 618.97 381.36Q619.67 381.87 620.13 382.14Q620.63 382.41 621.61 382.89L621.68 382.89L621.75 382.89Q622.74 382.45 623.24 382.18Q623.73 381.90 624.43 381.40Q625.14 380.86 625.46 380.21Q625.77 379.54 625.77 378.69Q625.77 377.40 624.43 376.73Q623.13 376.05 621.68 376.05Q620.24 376.05 618.93 376.73M621.68 386.37Q616.36 389.05 616.36 392.23Q616.36 394.13 617.95 395.17Q619.43 396.22 621.68 396.22L622.39 396.22Q624.26 396.22 625.60 395.04Q626.97 393.85 626.97 392.23Q626.97 389.01 621.83 386.37L621.75 386.31L621.68 386.37M615.65 397.31Q613.22 395.34 613.22 392.23Q613.22 388.13 618.23 384.82L618.44 384.68L618.23 384.55Q614.42 382.31 614.42 378.69Q614.42 376.22 616.68 374.63Q618.90 373.00 621.68 373.00Q624.43 373.00 626.69 374.63Q628.95 376.25 628.95 378.69Q628.95 380.69 627.96 382.07Q626.94 383.43 625.14 384.55L624.93 384.68L625.14 384.82Q630.15 388.13 630.15 392.23Q630.15 394.90 628.10 396.97Q626.06 399.03 623.17 399.27L621.68 399.27Q618.05 399.27 615.65 397.31ZM638.28 377.37Q637.82 376.89 637.82 376.32Q637.82 375.47 638.49 375.03Q641.70 373.00 645.68 373.00Q648.89 373.00 651.04 374.97Q653.23 376.89 653.23 380.04Q653.23 381.30 652.77 382.45Q652.31 383.63 651.71 384.38Q651.15 385.12 650.02 386.03Q648.89 386.95 648.29 387.36Q647.73 387.76 646.50 388.54Q645.16 389.39 644.56 389.83Q643.96 390.27 643.11 391.15Q642.26 391.99 641.88 393.08Q641.49 394.13 641.42 395.58L641.42 395.75L651.86 395.75Q652.53 395.75 652.98 396.22Q653.44 396.66 653.44 397.27Q653.44 397.88 652.95 398.36Q652.49 398.80 651.86 398.80L639.80 398.80Q639.16 398.80 638.67 398.36Q638.21 397.88 638.21 397.27L638.21 396.56Q638.21 393.92 638.56 392.77Q639.16 390.74 640.82 389.15Q642.48 387.52 644.87 385.97Q648.19 383.83 649.07 382.62Q650.06 381.40 650.06 380.04Q650.06 378.25 648.75 377.13Q647.52 376.05 645.68 376.05Q642.51 376.05 640.32 377.54Q639.94 377.81 639.41 377.81Q638.77 377.81 638.28 377.37Z" fill="#000000" />
</svg>
