<svg viewBox="0 0 759 431" xmlns="http://www.w3.org/2000/svg">
<rect width="100%" height="100%" fill="#FFFFFF" />
<path stroke="#000000" stroke-width="6" d="M33 371L33 30M66 371L66 30M123 371L123 30M150 371L150 30M174 371L174 30M222 371L222 30M345 371L345 30M414 371L414 30M435 371L435 30M504 371L504 30M528 371L528 30M615 371L615 30M645 371L645 30M693 371L693 30M726 371L726 30" />
<path stroke="#000000" stroke-width="3" d="M40.50 371L40.50 30M49.50 371L49.50 30M79.50 371L79.50 30M91.50 371L91.50 30M97.50 371L97.50 30M142.50 371L142.50 30M163.50 371L163.50 30M196.50 371L196.50 30M229.50 371L229.50 30M289.50 371L289.50 30M310.50 371L310.50 30M316.50 371L316.50 30M328.50 371L328.50 30M352.50 371L352.50 30M379.50 371L379.50 30M388.50 371L388.50 30M394.50 371L394.50 30M427.50 371L427.50 30M451.50 371L451.50 30M460.50 371L460.50 30M493.50 371L493.50 30M550.50 371L550.50 30M559.50 371L559.50 30M592.50 371L592.50 30M598.50 371L598.50 30M625.50 371L625.50 30M631.50 371L631.50 30M658.50 371L658.50 30M679.50 371L679.50 30M718.50 371L718.50 30" />
<path stroke="#000000" stroke-width="9" d="M106.50 371L106.50 30M133.50 371L133.50 30M184.50 371L184.50 30M208.50 371L208.50 30M238.50 371L238.50 30M280.50 371L280.50 30M403.50 371L403.50 30M484.50 371L484.50 30M514.50 371L514.50 30M541.50 371L541.50 30M568.50 371L568.50 30M709.50 371L709.50 30" />
<path stroke="#000000" stroke-width="12" d="M252 371L252 30M267 371L267 30M300 371L300 30M366 371L366 30M471 371L471 30M582 371L582 30M669 371L669 30" />
<path d="M108.73 398.29Q108.23 397.78 108.23 397.10Q108.23 396.39 108.69 395.89Q109.15 395.41 109.82 395.41L113.20 395.41L113.20 376.59L110.52 376.59Q109.89 376.59 109.43 376.08Q108.94 375.57 108.94 374.90Q108.94 374.22 109.40 373.71Q109.85 373.20 110.52 373.20L118.85 373.20Q119.52 373.20 119.97 373.71Q120.43 374.22 120.43 374.90Q120.43 375.57 119.94 376.08Q119.48 376.59 118.85 376.59L116.17 376.59L116.17 395.41L119.55 395.41Q120.22 395.41 120.68 395.89Q121.14 396.39 121.14 397.10Q121.14 397.78 120.64 398.29Q120.19 398.80 119.55 398.80L109.82 398.80Q109.18 398.80 108.73 398.29ZM131.21 398.86Q130.72 398.36 130.72 397.65L130.72 374.46Q130.72 373.75 131.17 373.27Q131.67 372.76 132.30 372.76L133.61 372.76Q134.03 372.76 134.42 373.04Q134.84 373.27 135.02 373.71L143.48 392.91L143.48 374.39Q143.48 373.71 143.94 373.24Q144.43 372.73 145.07 372.73Q145.70 372.73 146.16 373.24Q146.65 373.71 146.65 374.42L146.65 397.61Q146.65 398.32 146.16 398.83Q145.70 399.34 145.07 399.34L143.73 399.34Q142.74 399.34 142.32 398.42L133.89 379.23L133.89 397.68Q133.89 398.36 133.40 398.86Q132.94 399.37 132.30 399.37Q131.67 399.37 131.21 398.86ZM160.00 398.15L154.19 374.46Q154.19 373.78 154.68 373.31Q155.17 372.80 155.81 372.80Q156.34 372.80 156.76 373.17Q157.22 373.51 157.32 373.98L162.68 395.65L168.01 373.98Q168.22 373.48 168.61 373.14Q169.03 372.80 169.56 372.80Q170.20 372.80 170.69 373.31Q171.18 373.81 171.18 374.46L165.29 398.15Q165.19 398.66 164.76 399.03Q164.34 399.37 163.85 399.37L161.52 399.37Q161.03 399.37 160.57 399Q160.11 398.63 160.00 398.15ZM178.40 386.61L178.40 385.66Q178.40 385.02 178.86 384.58Q179.31 384.14 179.98 384.14L194.09 384.14Q194.76 384.14 195.22 384.61Q195.68 385.05 195.68 385.66L195.68 386.61Q195.68 387.22 195.22 387.69Q194.76 388.13 194.09 388.13L179.98 388.13Q179.31 388.13 178.86 387.69Q178.40 387.25 178.40 386.61ZM204.77 380.92Q204.31 380.45 204.31 379.84Q204.31 379.13 204.77 378.79L211.23 373.48Q211.68 373.10 212.25 373.10L213.38 373.10Q214.01 373.10 214.47 373.58Q214.96 374.02 214.96 374.63L214.96 397.65Q214.96 398.26 214.47 398.73Q214.01 399.17 213.38 399.17Q212.74 399.17 212.25 398.73Q211.79 398.29 211.79 397.65L211.79 377.03L206.96 380.99Q206.50 381.36 205.90 381.36Q205.23 381.36 204.77 380.92ZM228.68 375.78Q228.22 375.30 228.22 374.66Q228.22 374.02 228.68 373.58Q229.14 373.14 229.81 373.14L243.56 373.14Q244.23 373.14 244.69 373.61Q245.15 374.05 245.15 374.66Q245.15 377.23 243.07 380.25Q242.43 381.19 240.60 383.39Q238.76 385.63 237.99 387.02Q235.70 391.08 235.70 397.61Q235.70 398.26 235.24 398.73Q234.78 399.17 234.18 399.17Q233.58 399.17 233.12 398.73Q232.66 398.29 232.66 397.61Q232.66 390.23 235.34 385.46Q236.16 384.07 237.99 381.74Q239.86 379.37 240.46 378.49Q241.30 377.13 241.62 376.45L241.69 376.22L229.81 376.22Q229.17 376.22 228.68 375.78ZM252.68 375.78Q252.22 375.30 252.22 374.66Q252.22 374.02 252.68 373.58Q253.14 373.14 253.81 373.14L267.56 373.14Q268.23 373.14 268.69 373.61Q269.15 374.05 269.15 374.66Q269.15 377.23 267.07 380.25Q266.43 381.19 264.60 383.39Q262.76 385.63 261.99 387.02Q259.70 391.08 259.70 397.61Q259.70 398.26 259.24 398.73Q258.78 399.17 258.18 399.17Q257.58 399.17 257.12 398.73Q256.66 398.29 256.66 397.61Q256.66 390.23 259.34 385.46Q260.16 384.07 261.99 381.74Q263.86 379.37 264.46 378.49Q265.30 377.13 265.62 376.45L265.69 376.22L253.81 376.22Q253.17 376.22 252.68 375.78ZM280.95 377.71Q279.40 379.33 279.40 381.60Q279.40 383.80 280.88 385.19Q282.29 386.54 284.68 386.54Q288.88 386.54 289.62 384.07Q289.97 382.95 289.97 381.60Q289.97 379.06 288.49 377.57Q287.05 376.05 284.68 376.05Q282.46 376.05 280.95 377.71M278.62 387.29Q276.22 385.02 276.22 381.60Q276.22 378.08 278.76 375.54Q281.23 373.00 284.68 373.00Q288.25 373.00 290.68 375.37Q293.15 377.74 293.15 381.60Q293.15 384.00 292.41 385.93Q291.67 387.86 290.33 390.10Q287.40 395.01 283.17 398.76Q282.71 399.17 282.18 399.17Q281.58 399.17 281.12 398.73Q280.66 398.29 280.66 397.65Q280.66 397.00 281.16 396.53Q284.51 393.45 286.91 389.72L287.08 389.39L286.73 389.45Q285.81 389.59 284.68 389.59Q280.95 389.59 278.62 387.29ZM300.68 375.78Q300.22 375.30 300.22 374.66Q300.22 374.02 300.68 373.58Q301.14 373.14 301.81 373.14L315.56 373.14Q316.23 373.14 316.69 373.61Q317.15 374.05 317.15 374.66Q317.15 377.23 315.07 380.25Q314.43 381.19 312.60 383.39Q310.76 385.63 309.99 387.02Q307.70 391.08 307.70 397.61Q307.70 398.26 307.24 398.73Q306.78 399.17 306.18 399.17Q305.58 399.17 305.12 398.73Q304.66 398.29 304.66 397.61Q304.66 390.23 307.34 385.46Q308.16 384.07 309.99 381.74Q311.86 379.37 312.46 378.49Q313.30 377.13 313.62 376.45L313.69 376.22L301.81 376.22Q301.17 376.22 300.68 375.78ZM324.68 375.78Q324.22 375.30 324.22 374.66Q324.22 374.02 324.68 373.58Q325.14 373.14 325.81 373.14L339.56 373.14Q340.23 373.14 340.69 373.61Q341.15 374.05 341.15 374.66Q341.15 377.23 339.07 380.25Q338.43 381.19 336.60 383.39Q334.76 385.63 333.99 387.02Q331.70 391.08 331.70 397.61Q331.70 398.26 331.24 398.73Q330.78 399.17 330.18 399.17Q329.58 399.17 329.12 398.73Q328.66 398.29 328.66 397.61Q328.66 390.23 331.34 385.46Q332.16 384.07 333.99 381.74Q335.86 379.37 336.46 378.49Q337.30 377.13 337.62 376.45L337.69 376.22L325.81 376.22Q325.17 376.22 324.68 375.78ZM348.96 397.98Q348.22 397.44 348.22 396.63Q348.22 395.99 348.68 395.55Q349.17 395.07 349.81 395.07Q350.02 395.07 350.41 395.21Q352.66 396.19 355.13 396.19Q357.81 396.19 359.65 394.90Q361.52 393.58 361.66 391.08L361.66 390.74Q361.66 389.01 360.53 387.80Q359.47 386.61 357.92 386.10Q356.40 385.63 354.53 385.63Q353.93 385.63 353.48 385.19Q353.02 384.71 353.02 384.07Q353.02 383.46 353.33 383.12L359.82 376.22L349.91 376.22Q349.28 376.22 348.79 375.78Q348.33 375.30 348.33 374.66Q348.33 374.02 348.79 373.58Q349.24 373.14 349.91 373.14L362.36 373.14Q363.00 373.14 363.45 373.61Q363.95 374.05 363.95 374.66L363.95 375.88Q363.95 376.42 363.45 376.89L357.78 382.89L358.06 382.95Q361.06 383.70 362.96 385.70Q364.83 387.69 364.83 390.71L364.83 391.25Q364.65 394.94 361.83 397.10Q359.08 399.27 355.13 399.27Q354.15 399.27 353.16 399.17Q352.17 399.07 350.94 398.83Q349.70 398.56 348.96 397.98ZM377.93 376.73Q376.59 377.40 376.59 378.69Q376.59 379.54 376.91 380.18Q377.23 380.82 377.97 381.36Q378.67 381.87 379.13 382.14Q379.63 382.41 380.61 382.89L380.68 382.89L380.75 382.89Q381.74 382.45 382.24 382.18Q382.73 381.90 383.43 381.40Q384.14 380.86 384.46 380.21Q384.77 379.54 384.77 378.69Q384.77 377.40 383.43 376.73Q382.13 376.05 380.68 376.05Q379.24 376.05 377.93 376.73M380.68 386.37Q375.36 389.05 375.36 392.23Q375.36 394.13 376.95 395.17Q378.43 396.22 380.68 396.22L381.39 396.22Q383.26 396.22 384.60 395.04Q385.97 393.85 385.97 392.23Q385.97 389.01 380.83 386.37L380.75 386.31L380.68 386.37M374.65 397.31Q372.22 395.34 372.22 392.23Q372.22 388.13 377.23 384.82L377.44 384.68L377.23 384.55Q373.42 382.31 373.42 378.69Q373.42 376.22 375.68 374.63Q377.90 373.00 380.68 373.00Q383.43 373.00 385.69 374.63Q387.95 376.25 387.95 378.69Q387.95 380.69 386.96 382.07Q385.94 383.43 384.14 384.55L383.93 384.68L384.14 384.82Q389.15 388.13 389.15 392.23Q389.15 394.90 387.10 396.97Q385.06 399.03 382.17 399.27L380.68 399.27Q377.05 399.27 374.65 397.31ZM401.93 376.73Q400.59 377.40 400.59 378.69Q400.59 379.54 400.91 380.18Q401.23 380.82 401.97 381.36Q402.67 381.87 403.13 382.14Q403.63 382.41 404.61 382.89L404.68 382.89L404.75 382.89Q405.74 382.45 406.24 382.18Q406.73 381.90 407.43 381.40Q408.14 380.86 408.46 380.21Q408.77 379.54 408.77 378.69Q408.77 377.40 407.43 376.73Q406.13 376.05 404.68 376.05Q403.24 376.05 401.93 376.73M404.68 386.37Q399.36 389.05 399.36 392.23Q399.36 394.13 400.95 395.17Q402.43 396.22 404.68 396.22L405.39 396.22Q407.26 396.22 408.60 395.04Q409.97 393.85 409.97 392.23Q409.97 389.01 404.83 386.37L404.75 386.31L404.68 386.37M398.65 397.31Q396.22 395.34 396.22 392.23Q396.22 388.13 401.23 384.82L401.44 384.68L401.23 384.55Q397.42 382.31 397.42 378.69Q397.42 376.22 399.68 374.63Q401.90 373.00 404.68 373.00Q407.43 373.00 409.69 374.63Q411.95 376.25 411.95 378.69Q411.95 380.69 410.96 382.07Q409.94 383.43 408.14 384.55L407.93 384.68L408.14 384.82Q413.15 388.13 413.15 392.23Q413.15 394.90 411.10 396.97Q409.06 399.03 406.17 399.27L404.68 399.27Q401.05 399.27 398.65 397.31ZM420.68 392.84Q420.22 392.40 420.22 391.76L420.22 390.30Q420.22 390.03 420.40 389.66L427.91 373.98Q428.05 373.61 428.44 373.37Q428.83 373.10 429.25 373.10Q429.88 373.10 430.34 373.58Q430.80 374.02 430.80 374.63Q430.80 374.97 430.62 375.27L423.57 390.23L430.45 390.23L430.45 386.14Q430.45 385.53 430.91 385.09Q431.36 384.61 431.96 384.61Q432.56 384.61 433.02 385.09Q433.52 385.53 433.52 386.14L433.52 390.23L435.56 390.23Q436.23 390.23 436.69 390.71Q437.15 391.15 437.15 391.76Q437.15 392.37 436.65 392.84Q436.20 393.28 435.56 393.28L433.52 393.28L433.52 397.65Q433.52 398.26 433.02 398.70Q432.56 399.17 431.96 399.17Q431.36 399.17 430.91 398.73Q430.45 398.26 430.45 397.65L430.45 393.28L421.81 393.28Q421.17 393.28 420.68 392.84ZM445.60 398.83Q445.14 398.39 445.14 397.75Q445.14 397.07 445.60 396.63Q446.09 396.19 446.73 396.19Q453.85 396.19 455.93 392.37Q456.56 391.21 456.56 390.16Q456.56 387.69 455.36 386.44Q453.78 384.65 449.79 384.65Q448.70 384.65 447.57 384.75L447.43 384.75Q446.80 384.75 446.30 384.34Q445.84 383.90 445.84 383.29L445.84 383.19L446.34 374.56Q446.41 373.95 446.83 373.54Q447.29 373.14 447.92 373.14L457.94 373.14Q458.61 373.14 459.07 373.61Q459.53 374.05 459.53 374.66Q459.53 375.27 459.03 375.74Q458.57 376.22 457.94 376.22L449.41 376.22L449.12 381.53L449.79 381.53Q454.27 381.53 456.99 383.73Q459.74 385.90 459.74 390.16Q459.74 391.96 458.93 393.52Q458.08 395.11 456.81 396.22Q453.42 399.27 446.73 399.27Q446.09 399.27 445.60 398.83M447.54 384.75Q447.54 384.75 447.57 384.75Q447.57 384.75 447.54 384.75ZM468.68 375.78Q468.22 375.30 468.22 374.66Q468.22 374.02 468.68 373.58Q469.14 373.14 469.81 373.14L483.56 373.14Q484.23 373.14 484.69 373.61Q485.15 374.05 485.15 374.66Q485.15 377.23 483.07 380.25Q482.43 381.19 480.60 383.39Q478.76 385.63 477.99 387.02Q475.70 391.08 475.70 397.61Q475.70 398.26 475.24 398.73Q474.78 399.17 474.18 399.17Q473.58 399.17 473.12 398.73Q472.66 398.29 472.66 397.61Q472.66 390.23 475.34 385.46Q476.16 384.07 477.99 381.74Q479.86 379.37 480.46 378.49Q481.30 377.13 481.62 376.45L481.69 376.22L469.81 376.22Q469.17 376.22 468.68 375.78ZM500.83 399.27L500.68 399.27Q498.60 399.24 497.05 398.59Q495.50 397.98 494.58 397.00Q493.67 395.99 493.14 394.40Q492.57 392.81 492.40 391.18Q492.22 389.59 492.22 387.42Q492.22 385.49 492.26 384.14Q492.33 382.75 492.54 381.16Q492.75 379.54 493.10 378.45Q493.49 377.33 494.13 376.22Q494.76 375.13 495.64 374.49Q496.52 373.85 497.79 373.44Q499.06 373.04 500.68 373.04Q502.27 373.04 503.54 373.44Q504.81 373.85 505.69 374.49Q506.57 375.13 507.24 376.22Q507.88 377.33 508.23 378.45Q508.62 379.57 508.83 381.16Q509.04 382.75 509.08 384.14Q509.15 385.53 509.15 387.42Q509.15 388.78 509.08 389.89Q509.01 390.98 508.76 392.26Q508.55 393.55 508.20 394.53Q507.84 395.48 507.17 396.39Q506.50 397.31 505.66 397.92Q504.81 398.53 503.58 398.90Q502.34 399.27 500.83 399.27M495.40 384.65L495.40 387.42Q495.40 388.95 495.47 390.03Q495.57 391.11 495.89 392.37Q496.17 393.62 496.74 394.40Q497.30 395.21 498.29 395.75Q499.27 396.26 500.68 396.26L501.42 396.26Q502.41 396.26 503.19 395.89Q503.96 395.48 504.42 394.73Q504.92 394.02 505.23 393.21Q505.55 392.37 505.69 391.32Q505.87 390.23 505.90 389.35Q505.97 388.47 505.97 387.42L505.97 385.87Q505.97 384.82 505.94 384.21Q505.94 383.56 505.90 382.62Q505.87 381.63 505.76 381.09Q505.66 380.52 505.48 379.74Q505.30 378.96 505.02 378.49Q504.74 378.01 504.35 377.50Q503.93 377.00 503.43 376.73Q502.91 376.42 502.20 376.25Q501.53 376.08 500.68 376.08Q499.80 376.08 499.10 376.29Q498.43 376.45 497.90 376.79Q497.37 377.13 496.95 377.64Q496.56 378.11 496.28 378.72Q495.99 379.30 495.82 380.01Q495.64 380.69 495.57 381.46Q495.50 382.21 495.43 383.02Q495.40 383.80 495.40 384.65ZM516.40 386.61L516.40 385.66Q516.40 385.02 516.86 384.58Q517.31 384.14 517.98 384.14L532.09 384.14Q532.76 384.14 533.22 384.61Q533.68 385.05 533.68 385.66L533.68 386.61Q533.68 387.22 533.22 387.69Q532.76 388.13 532.09 388.13L517.98 388.13Q517.31 388.13 516.86 387.69Q516.40 387.25 516.40 386.61ZM543.69 397.07Q541.33 394.87 541.22 391.25L541.22 390.84Q541.22 386.61 543.65 382.75Q544.64 381.16 546.05 379.40Q547.43 377.61 548.38 376.56Q549.33 375.47 551.09 373.54Q551.48 373.10 552.19 373.10Q552.79 373.10 553.25 373.58Q553.70 374.02 553.70 374.63Q553.70 375.20 553.32 375.68Q549.33 380.01 547.46 382.62L547.22 382.95L547.60 382.89Q548.63 382.68 549.68 382.68Q553.53 382.68 555.82 384.99Q558.15 387.32 558.15 391.25Q558.15 394.80 555.75 397.04Q553.35 399.27 549.68 399.27Q546.02 399.27 543.69 397.07M545.81 387.22Q544.40 388.68 544.40 391.25Q544.40 393.55 545.88 394.90Q547.32 396.22 549.68 396.22Q552.01 396.22 553.46 394.87Q554.97 393.52 554.97 391.25Q554.97 388.61 553.60 387.19Q552.26 385.73 549.68 385.73Q547.18 385.73 545.81 387.22ZM567.69 397.07Q565.33 394.87 565.22 391.25L565.22 390.84Q565.22 386.61 567.65 382.75Q568.64 381.16 570.05 379.40Q571.43 377.61 572.38 376.56Q573.33 375.47 575.09 373.54Q575.48 373.10 576.19 373.10Q576.79 373.10 577.25 373.58Q577.70 374.02 577.70 374.63Q577.70 375.20 577.32 375.68Q573.33 380.01 571.46 382.62L571.22 382.95L571.60 382.89Q572.63 382.68 573.68 382.68Q577.53 382.68 579.82 384.99Q582.15 387.32 582.15 391.25Q582.15 394.80 579.75 397.04Q577.35 399.27 573.68 399.27Q570.02 399.27 567.69 397.07M569.81 387.22Q568.40 388.68 568.40 391.25Q568.40 393.55 569.88 394.90Q571.32 396.22 573.68 396.22Q576.01 396.22 577.46 394.87Q578.97 393.52 578.97 391.25Q578.97 388.61 577.60 387.19Q576.26 385.73 573.68 385.73Q571.18 385.73 569.81 387.22ZM589.68 392.84Q589.22 392.40 589.22 391.76L589.22 390.30Q589.22 390.03 589.40 389.66L596.91 373.98Q597.05 373.61 597.44 373.37Q597.83 373.10 598.25 373.10Q598.88 373.10 599.34 373.58Q599.80 374.02 599.80 374.63Q599.80 374.97 599.62 375.27L592.57 390.23L599.45 390.23L599.45 386.14Q599.45 385.53 599.91 385.09Q600.36 384.61 600.96 384.61Q601.56 384.61 602.02 385.09Q602.52 385.53 602.52 386.14L602.52 390.23L604.56 390.23Q605.23 390.23 605.69 390.71Q606.15 391.15 606.15 391.76Q606.15 392.37 605.65 392.84Q605.20 393.28 604.56 393.28L602.52 393.28L602.52 397.65Q602.52 398.26 602.02 398.70Q601.56 399.17 600.96 399.17Q600.36 399.17 599.91 398.73Q599.45 398.26 599.45 397.65L599.45 393.28L590.81 393.28Q590.17 393.28 589.68 392.84ZM613.96 397.98Q613.22 397.44 613.22 396.63Q613.22 395.99 613.68 395.55Q614.17 395.07 614.81 395.07Q615.02 395.07 615.41 395.21Q617.66 396.19 620.13 396.19Q622.81 396.19 624.65 394.90Q626.52 393.58 626.66 391.08L626.66 390.74Q626.66 389.01 625.53 387.80Q624.47 386.61 622.92 386.10Q621.40 385.63 619.53 385.63Q618.93 385.63 618.48 385.19Q618.02 384.71 618.02 384.07Q618.02 383.46 618.33 383.12L624.82 376.22L614.91 376.22Q614.28 376.22 613.79 375.78Q613.33 375.30 613.33 374.66Q613.33 374.02 613.79 373.58Q614.24 373.14 614.91 373.14L627.36 373.14Q628.00 373.14 628.45 373.61Q628.95 374.05 628.95 374.66L628.95 375.88Q628.95 376.42 628.45 376.89L622.78 382.89L623.06 382.95Q626.06 383.70 627.96 385.70Q629.83 387.69 629.83 390.71L629.83 391.25Q629.65 394.94 626.83 397.10Q624.08 399.27 620.13 399.27Q619.15 399.27 618.16 399.17Q617.17 399.07 615.94 398.83Q614.70 398.56 613.96 397.98ZM637.96 397.98Q637.22 397.44 637.22 396.63Q637.22 395.99 637.68 395.55Q638.17 395.07 638.81 395.07Q639.02 395.07 639.41 395.21Q641.66 396.19 644.13 396.19Q646.81 396.19 648.65 394.90Q650.52 393.58 650.66 391.08L650.66 390.74Q650.66 389.01 649.53 387.80Q648.47 386.61 646.92 386.10Q645.40 385.63 643.53 385.63Q642.93 385.63 642.48 385.19Q642.02 384.71 642.02 384.07Q642.02 383.46 642.33 383.12L648.82 376.22L638.91 376.22Q638.28 376.22 637.79 375.78Q637.33 375.30 637.33 374.66Q637.33 374.02 637.79 373.58Q638.24 373.14 638.91 373.14L651.36 373.14Q652.00 373.14 652.45 373.61Q652.95 374.05 652.95 374.66L652.95 375.88Q652.95 376.42 652.45 376.89L646.78 382.89L647.06 382.95Q650.06 383.70 651.96 385.70Q653.83 387.69 653.83 390.71L653.83 391.25Q653.65 394.94 650.83 397.10Q648.08 399.27 644.13 399.27Q643.15 399.27 642.16 399.17Q641.17 399.07 639.94 398.83Q638.70 398.56 637.96 397.98Z" fill="#000000" />
</svg>
