<svg viewBox="0 0 759 431" xmlns="http://www.w3.org/2000/svg">
<rect width="100%" height="100%" fill="#FFFFFF" />
<path stroke="#000000" stroke-width="6" d="M33 371L33 30M66 371L66 30M123 371L123 30M150 371L150 30M174 371L174 30M222 371L222 30M330 371L330 30M396 371L396 30M453 371L453 30M504 371L504 30M528 371L528 30M615 371L615 30M642 371L642 30M669 371L669 30M693 371L693 30M726 371L726 30" />
<path stroke="#000000" stroke-width="3" d="M40.50 371L40.50 30M49.50 371L49.50 30M79.50 371L79.50 30M91.50 371L91.50 30M97.50 371L97.50 30M142.50 371L142.50 30M163.50 371L163.50 30M196.50 371L196.50 30M229.50 371L229.50 30M289.50 371L289.50 30M310.50 371L310.50 30M322.50 371L322.50 30M340.50 371L340.50 30M361.50 371L361.50 30M370.50 371L370.50 30M403.50 371L403.50 30M427.50 371L427.50 30M460.50 371L460.50 30M493.50 371L493.50 30M538.50 371L538.50 30M559.50 371L559.50 30M592.50 371L592.50 30M601.50 371L601.50 30M652.50 371L652.50 30M658.50 371L658.50 30M679.50 371L679.50 30M718.50 371L718.50 30" />
<path stroke="#000000" stroke-width="9" d="M106.50 371L106.50 30M133.50 371L133.50 30M184.50 371L184.50 30M208.50 371L208.50 30M238.50 371L238.50 30M280.50 371L280.50 30M349.50 371L349.50 30M418.50 371L418.50 30M439.50 371L439.50 30M484.50 371L484.50 30M514.50 371L514.50 30M550.50 371L550.50 30M568.50 371L568.50 30M628.50 371L628.50 30M709.50 371L709.50 30" />
<path stroke="#000000" stroke-width="12" d="M252 371L252 30M267 371L267 30M300 371L300 30M384 371L384 30M471 371L471 30M582 371L582 30" />
<path d="M107.73 398.29Q107.23 397.78 107.23 397.10Q107.23 396.39 107.69 395.89Q108.15 395.41 108.82 395.41L112.20 395.41L112.20 376.59L109.52 376.59Q108.89 376.59 108.43 376.08Q107.94 375.57 107.94 374.90Q107.94 374.22 108.40 373.71Q108.85 373.20 109.52 373.20L117.85 373.20Q118.52 373.20 118.97 373.71Q119.43 374.22 119.43 374.90Q119.43 375.57 118.94 376.08Q118.48 376.59 117.85 376.59L115.17 376.59L115.17 395.41L118.55 395.41Q119.22 395.41 119.68 395.89Q120.14 396.39 120.14 397.10Q120.14 397.78 119.64 398.29Q119.19 398.80 118.55 398.80L108.82 398.80Q108.18 398.80 107.73 398.29ZM130.21 398.86Q129.72 398.36 129.72 397.65L129.72 374.46Q129.72 373.75 130.17 373.27Q130.67 372.76 131.30 372.76L132.61 372.76Q133.03 372.76 133.42 373.04Q133.84 373.27 134.02 373.71L142.48 392.91L142.48 374.39Q142.48 373.71 142.94 373.24Q143.43 372.73 144.07 372.73Q144.70 372.73 145.16 373.24Q145.65 373.71 145.65 374.42L145.65 397.61Q145.65 398.32 145.16 398.83Q144.70 399.34 144.07 399.34L142.73 399.34Q141.74 399.34 141.32 398.42L132.89 379.23L132.89 397.68Q132.89 398.36 132.40 398.86Q131.94 399.37 131.30 399.37Q130.67 399.37 130.21 398.86ZM159.00 398.15L153.19 374.46Q153.19 373.78 153.68 373.31Q154.17 372.80 154.81 372.80Q155.34 372.80 155.76 373.17Q156.22 373.51 156.32 373.98L161.68 395.65L167.01 373.98Q167.22 373.48 167.61 373.14Q168.03 372.80 168.56 372.80Q169.20 372.80 169.69 373.31Q170.18 373.81 170.18 374.46L164.29 398.15Q164.19 398.66 163.76 399.03Q163.34 399.37 162.85 399.37L160.52 399.37Q160.03 399.37 159.57 399Q159.11 398.63 159.00 398.15ZM177.40 386.61L177.40 385.66Q177.40 385.02 177.86 384.58Q178.31 384.14 178.98 384.14L193.09 384.14Q193.76 384.14 194.22 384.61Q194.68 385.05 194.68 385.66L194.68 386.61Q194.68 387.22 194.22 387.69Q193.76 388.13 193.09 388.13L178.98 388.13Q178.31 388.13 177.86 387.69Q177.40 387.25 177.40 386.61ZM203.77 380.92Q203.31 380.45 203.31 379.84Q203.31 379.13 203.77 378.79L210.23 373.48Q210.68 373.10 211.25 373.10L212.38 373.10Q213.01 373.10 213.47 373.58Q213.96 374.02 213.96 374.63L213.96 397.65Q213.96 398.26 213.47 398.73Q213.01 399.17 212.38 399.17Q211.74 399.17 211.25 398.73Q210.79 398.29 210.79 397.65L210.79 377.03L205.96 380.99Q205.50 381.36 204.90 381.36Q204.23 381.36 203.77 380.92ZM227.68 375.78Q227.22 375.30 227.22 374.66Q227.22 374.02 227.68 373.58Q228.14 373.14 228.81 373.14L242.56 373.14Q243.23 373.14 243.69 373.61Q244.15 374.05 244.15 374.66Q244.15 377.23 242.07 380.25Q241.43 381.19 239.60 383.39Q237.76 385.63 236.99 387.02Q234.70 391.08 234.70 397.61Q234.70 398.26 234.24 398.73Q233.78 399.17 233.18 399.17Q232.58 399.17 232.12 398.73Q231.66 398.29 231.66 397.61Q231.66 390.23 234.34 385.46Q235.16 384.07 236.99 381.74Q238.86 379.37 239.46 378.49Q240.30 377.13 240.62 376.45L240.69 376.22L228.81 376.22Q228.17 376.22 227.68 375.78ZM251.68 375.78Q251.22 375.30 251.22 374.66Q251.22 374.02 251.68 373.58Q252.14 373.14 252.81 373.14L266.56 373.14Q267.23 373.14 267.69 373.61Q268.15 374.05 268.15 374.66Q268.15 377.23 266.07 380.25Q265.43 381.19 263.60 383.39Q261.76 385.63 260.99 387.02Q258.70 391.08 258.70 397.61Q258.70 398.26 258.24 398.73Q257.78 399.17 257.18 399.17Q256.58 399.17 256.12 398.73Q255.66 398.29 255.66 397.61Q255.66 390.23 258.34 385.46Q259.16 384.07 260.99 381.74Q262.86 379.37 263.46 378.49Q264.30 377.13 264.62 376.45L264.69 376.22L252.81 376.22Q252.17 376.22 251.68 375.78ZM279.95 377.71Q278.40 379.33 278.40 381.60Q278.40 383.80 279.88 385.19Q281.29 386.54 283.68 386.54Q287.88 386.54 288.62 384.07Q288.97 382.95 288.97 381.60Q288.97 379.06 287.49 377.57Q286.05 376.05 283.68 376.05Q281.46 376.05 279.95 377.71M277.62 387.29Q275.22 385.02 275.22 381.60Q275.22 378.08 277.76 375.54Q280.23 373.00 283.68 373.00Q287.25 373.00 289.68 375.37Q292.15 377.74 292.15 381.60Q292.15 384.00 291.41 385.93Q290.67 387.86 289.33 390.10Q286.40 395.01 282.17 398.76Q281.71 399.17 281.18 399.17Q280.58 399.17 280.12 398.73Q279.66 398.29 279.66 397.65Q279.66 397.00 280.16 396.53Q283.51 393.45 285.91 389.72L286.08 389.39L285.73 389.45Q284.81 389.59 283.68 389.59Q279.95 389.59 277.62 387.29ZM304.93 376.73Q303.59 377.40 303.59 378.69Q303.59 379.54 303.91 380.18Q304.23 380.82 304.97 381.36Q305.67 381.87 306.13 382.14Q306.63 382.41 307.61 382.89L307.68 382.89L307.75 382.89Q308.74 382.45 309.24 382.18Q309.73 381.90 310.43 381.40Q311.14 380.86 311.46 380.21Q311.77 379.54 311.77 378.69Q311.77 377.40 310.43 376.73Q309.13 376.05 307.68 376.05Q306.24 376.05 304.93 376.73M307.68 386.37Q302.36 389.05 302.36 392.23Q302.36 394.13 303.95 395.17Q305.43 396.22 307.68 396.22L308.39 396.22Q310.26 396.22 311.60 395.04Q312.97 393.85 312.97 392.23Q312.97 389.01 307.83 386.37L307.75 386.31L307.68 386.37M301.65 397.31Q299.22 395.34 299.22 392.23Q299.22 388.13 304.23 384.82L304.44 384.68L304.23 384.55Q300.42 382.31 300.42 378.69Q300.42 376.22 302.68 374.63Q304.90 373.00 307.68 373.00Q310.43 373.00 312.69 374.63Q314.95 376.25 314.95 378.69Q314.95 380.69 313.96 382.07Q312.94 383.43 311.14 384.55L310.93 384.68L311.14 384.82Q316.15 388.13 316.15 392.23Q316.15 394.90 314.10 396.97Q312.06 399.03 309.17 399.27L307.68 399.27Q304.05 399.27 301.65 397.31ZM324.77 380.92Q324.31 380.45 324.31 379.84Q324.31 379.13 324.77 378.79L331.23 373.48Q331.68 373.10 332.25 373.10L333.38 373.10Q334.01 373.10 334.47 373.58Q334.96 374.02 334.96 374.63L334.96 397.65Q334.96 398.26 334.47 398.73Q334.01 399.17 333.38 399.17Q332.74 399.17 332.25 398.73Q331.79 398.29 331.79 397.65L331.79 377.03L326.96 380.99Q326.50 381.36 325.90 381.36Q325.23 381.36 324.77 380.92ZM352.95 377.71Q351.40 379.33 351.40 381.60Q351.40 383.80 352.88 385.19Q354.29 386.54 356.68 386.54Q360.88 386.54 361.62 384.07Q361.97 382.95 361.97 381.60Q361.97 379.06 360.49 377.57Q359.05 376.05 356.68 376.05Q354.46 376.05 352.95 377.71M350.62 387.29Q348.22 385.02 348.22 381.60Q348.22 378.08 350.76 375.54Q353.23 373.00 356.68 373.00Q360.25 373.00 362.68 375.37Q365.15 377.74 365.15 381.60Q365.15 384.00 364.41 385.93Q363.67 387.86 362.33 390.10Q359.40 395.01 355.17 398.76Q354.71 399.17 354.18 399.17Q353.58 399.17 353.12 398.73Q352.66 398.29 352.66 397.65Q352.66 397.00 353.16 396.53Q356.51 393.45 358.91 389.72L359.08 389.39L358.73 389.45Q357.81 389.59 356.68 389.59Q352.95 389.59 350.62 387.29ZM377.93 376.73Q376.59 377.40 376.59 378.69Q376.59 379.54 376.91 380.18Q377.23 380.82 377.97 381.36Q378.67 381.87 379.13 382.14Q379.63 382.41 380.61 382.89L380.68 382.89L380.75 382.89Q381.74 382.45 382.24 382.18Q382.73 381.90 383.43 381.40Q384.14 380.86 384.46 380.21Q384.77 379.54 384.77 378.69Q384.77 377.40 383.43 376.73Q382.13 376.05 380.68 376.05Q379.24 376.05 377.93 376.73M380.68 386.37Q375.36 389.05 375.36 392.23Q375.36 394.13 376.95 395.17Q378.43 396.22 380.68 396.22L381.39 396.22Q383.26 396.22 384.60 395.04Q385.97 393.85 385.97 392.23Q385.97 389.01 380.83 386.37L380.75 386.31L380.68 386.37M374.65 397.31Q372.22 395.34 372.22 392.23Q372.22 388.13 377.23 384.82L377.44 384.68L377.23 384.55Q373.42 382.31 373.42 378.69Q373.42 376.22 375.68 374.63Q377.90 373.00 380.68 373.00Q383.43 373.00 385.69 374.63Q387.95 376.25 387.95 378.69Q387.95 380.69 386.96 382.07Q385.94 383.43 384.14 384.55L383.93 384.68L384.14 384.82Q389.15 388.13 389.15 392.23Q389.15 394.90 387.10 396.97Q385.06 399.03 382.17 399.27L380.68 399.27Q377.05 399.27 374.65 397.31ZM397.28 377.37Q396.82 376.89 396.82 376.32Q396.82 375.47 397.49 375.03Q400.70 373.00 404.68 373.00Q407.89 373.00 410.04 374.97Q412.23 376.89 412.23 380.04Q412.23 381.30 411.77 382.45Q411.31 383.63 410.71 384.38Q410.15 385.12 409.02 386.03Q407.89 386.95 407.29 387.36Q406.73 387.76 405.50 388.54Q404.16 389.39 403.56 389.83Q402.96 390.27 402.11 391.15Q401.26 391.99 400.88 393.08Q400.49 394.13 400.42 395.58L400.42 395.75L410.86 395.75Q411.53 395.75 411.98 396.22Q412.44 396.66 412.44 397.27Q412.44 397.88 411.95 398.36Q411.49 398.80 410.86 398.80L398.80 398.80Q398.16 398.80 397.67 398.36Q397.21 397.88 397.21 397.27L397.21 396.56Q397.21 393.92 397.56 392.77Q398.16 390.74 399.82 389.15Q401.48 387.52 403.87 385.97Q407.19 383.83 408.07 382.62Q409.06 381.40 409.06 380.04Q409.06 378.25 407.75 377.13Q406.52 376.05 404.68 376.05Q401.51 376.05 399.32 377.54Q398.94 377.81 398.41 377.81Q397.77 377.81 397.28 377.37ZM420.68 392.84Q420.22 392.40 420.22 391.76L420.22 390.30Q420.22 390.03 420.40 389.66L427.91 373.98Q428.05 373.61 428.44 373.37Q428.83 373.10 429.25 373.10Q429.88 373.10 430.34 373.58Q430.80 374.02 430.80 374.63Q430.80 374.97 430.62 375.27L423.57 390.23L430.45 390.23L430.45 386.14Q430.45 385.53 430.91 385.09Q431.36 384.61 431.96 384.61Q432.56 384.61 433.02 385.09Q433.52 385.53 433.52 386.14L433.52 390.23L435.56 390.23Q436.23 390.23 436.69 390.71Q437.15 391.15 437.15 391.76Q437.15 392.37 436.65 392.84Q436.20 393.28 435.56 393.28L433.52 393.28L433.52 397.65Q433.52 398.26 433.02 398.70Q432.56 399.17 431.96 399.17Q431.36 399.17 430.91 398.73Q430.45 398.26 430.45 397.65L430.45 393.28L421.81 393.28Q421.17 393.28 420.68 392.84ZM448.95 377.71Q447.40 379.33 447.40 381.60Q447.40 383.80 448.88 385.19Q450.29 386.54 452.68 386.54Q456.88 386.54 457.62 384.07Q457.97 382.95 457.97 381.60Q457.97 379.06 456.49 377.57Q455.05 376.05 452.68 376.05Q450.46 376.05 448.95 377.71M446.62 387.29Q444.22 385.02 444.22 381.60Q444.22 378.08 446.76 375.54Q449.23 373.00 452.68 373.00Q456.25 373.00 458.68 375.37Q461.15 377.74 461.15 381.60Q461.15 384.00 460.41 385.93Q459.67 387.86 458.33 390.10Q455.40 395.01 451.17 398.76Q450.71 399.17 450.18 399.17Q449.58 399.17 449.12 398.73Q448.66 398.29 448.66 397.65Q448.66 397.00 449.16 396.53Q452.51 393.45 454.91 389.72L455.08 389.39L454.73 389.45Q453.81 389.59 452.68 389.59Q448.95 389.59 446.62 387.29ZM469.77 380.92Q469.31 380.45 469.31 379.84Q469.31 379.13 469.77 378.79L476.23 373.48Q476.68 373.10 477.25 373.10L478.38 373.10Q479.01 373.10 479.47 373.58Q479.96 374.02 479.96 374.63L479.96 397.65Q479.96 398.26 479.47 398.73Q479.01 399.17 478.38 399.17Q477.74 399.17 477.25 398.73Q476.79 398.29 476.79 397.65L476.79 377.03L471.96 380.99Q471.50 381.36 470.90 381.36Q470.23 381.36 469.77 380.92ZM493.68 375.78Q493.22 375.30 493.22 374.66Q493.22 374.02 493.68 373.58Q494.14 373.14 494.81 373.14L508.56 373.14Q509.23 373.14 509.69 373.61Q510.15 374.05 510.15 374.66Q510.15 377.23 508.07 380.25Q507.43 381.19 505.60 383.39Q503.76 385.63 502.99 387.02Q500.70 391.08 500.70 397.61Q500.70 398.26 500.24 398.73Q499.78 399.17 499.18 399.17Q498.58 399.17 498.12 398.73Q497.66 398.29 497.66 397.61Q497.66 390.23 500.34 385.46Q501.16 384.07 502.99 381.74Q504.86 379.37 505.46 378.49Q506.30 377.13 506.62 376.45L506.69 376.22L494.81 376.22Q494.17 376.22 493.68 375.78ZM517.40 386.61L517.40 385.66Q517.40 385.02 517.86 384.58Q518.31 384.14 518.98 384.14L533.09 384.14Q533.76 384.14 534.22 384.61Q534.68 385.05 534.68 385.66L534.68 386.61Q534.68 387.22 534.22 387.69Q533.76 388.13 533.09 388.13L518.98 388.13Q518.31 388.13 517.86 387.69Q517.40 387.25 517.40 386.61ZM542.68 392.84Q542.22 392.40 542.22 391.76L542.22 390.30Q542.22 390.03 542.40 389.66L549.91 373.98Q550.05 373.61 550.44 373.37Q550.83 373.10 551.25 373.10Q551.88 373.10 552.34 373.58Q552.80 374.02 552.80 374.63Q552.80 374.97 552.62 375.27L545.57 390.23L552.45 390.23L552.45 386.14Q552.45 385.53 552.91 385.09Q553.36 384.61 553.96 384.61Q554.56 384.61 555.02 385.09Q555.52 385.53 555.52 386.14L555.52 390.23L557.56 390.23Q558.23 390.23 558.69 390.71Q559.15 391.15 559.15 391.76Q559.15 392.37 558.65 392.84Q558.20 393.28 557.56 393.28L555.52 393.28L555.52 397.65Q555.52 398.26 555.02 398.70Q554.56 399.17 553.96 399.17Q553.36 399.17 552.91 398.73Q552.45 398.26 552.45 397.65L552.45 393.28L543.81 393.28Q543.17 393.28 542.68 392.84ZM574.83 399.27L574.68 399.27Q572.60 399.24 571.05 398.59Q569.50 397.98 568.58 397.00Q567.67 395.99 567.14 394.40Q566.57 392.81 566.40 391.18Q566.22 389.59 566.22 387.42Q566.22 385.49 566.26 384.14Q566.33 382.75 566.54 381.16Q566.75 379.54 567.10 378.45Q567.49 377.33 568.13 376.22Q568.76 375.13 569.64 374.49Q570.52 373.85 571.79 373.44Q573.06 373.04 574.68 373.04Q576.27 373.04 577.54 373.44Q578.81 373.85 579.69 374.49Q580.57 375.13 581.24 376.22Q581.88 377.33 582.23 378.45Q582.62 379.57 582.83 381.16Q583.04 382.75 583.08 384.14Q583.15 385.53 583.15 387.42Q583.15 388.78 583.08 389.89Q583.01 390.98 582.76 392.26Q582.55 393.55 582.20 394.53Q581.84 395.48 581.17 396.39Q580.50 397.31 579.66 397.92Q578.81 398.53 577.58 398.90Q576.34 399.27 574.83 399.27M569.40 384.65L569.40 387.42Q569.40 388.95 569.47 390.03Q569.57 391.11 569.89 392.37Q570.17 393.62 570.74 394.40Q571.30 395.21 572.29 395.75Q573.27 396.26 574.68 396.26L575.42 396.26Q576.41 396.26 577.19 395.89Q577.96 395.48 578.42 394.73Q578.92 394.02 579.23 393.21Q579.55 392.37 579.69 391.32Q579.87 390.23 579.90 389.35Q579.97 388.47 579.97 387.42L579.97 385.87Q579.97 384.82 579.94 384.21Q579.94 383.56 579.90 382.62Q579.87 381.63 579.76 381.09Q579.66 380.52 579.48 379.74Q579.30 378.96 579.02 378.49Q578.74 378.01 578.35 377.50Q577.93 377.00 577.43 376.73Q576.91 376.42 576.20 376.25Q575.53 376.08 574.68 376.08Q573.80 376.08 573.10 376.29Q572.43 376.45 571.90 376.79Q571.37 377.13 570.95 377.64Q570.56 378.11 570.28 378.72Q569.99 379.30 569.82 380.01Q569.64 380.69 569.57 381.46Q569.50 382.21 569.43 383.02Q569.40 383.80 569.40 384.65ZM590.68 392.84Q590.22 392.40 590.22 391.76L590.22 390.30Q590.22 390.03 590.40 389.66L597.91 373.98Q598.05 373.61 598.44 373.37Q598.83 373.10 599.25 373.10Q599.88 373.10 600.34 373.58Q600.80 374.02 600.80 374.63Q600.80 374.97 600.62 375.27L593.57 390.23L600.45 390.23L600.45 386.14Q600.45 385.53 600.91 385.09Q601.36 384.61 601.96 384.61Q602.56 384.61 603.02 385.09Q603.52 385.53 603.52 386.14L603.52 390.23L605.56 390.23Q606.23 390.23 606.69 390.71Q607.15 391.15 607.15 391.76Q607.15 392.37 606.65 392.84Q606.20 393.28 605.56 393.28L603.52 393.28L603.52 397.65Q603.52 398.26 603.02 398.70Q602.56 399.17 601.96 399.17Q601.36 399.17 600.91 398.73Q600.45 398.26 600.45 397.65L600.45 393.28L591.81 393.28Q591.17 393.28 590.68 392.84ZM615.28 377.37Q614.82 376.89 614.82 376.32Q614.82 375.47 615.49 375.03Q618.70 373.00 622.68 373.00Q625.89 373.00 628.04 374.97Q630.23 376.89 630.23 380.04Q630.23 381.30 629.77 382.45Q629.31 383.63 628.71 384.38Q628.15 385.12 627.02 386.03Q625.89 386.95 625.29 387.36Q624.73 387.76 623.50 388.54Q622.16 389.39 621.56 389.83Q620.96 390.27 620.11 391.15Q619.26 391.99 618.88 393.08Q618.49 394.13 618.42 395.58L618.42 395.75L628.86 395.75Q629.53 395.75 629.98 396.22Q630.44 396.66 630.44 397.27Q630.44 397.88 629.95 398.36Q629.49 398.80 628.86 398.80L616.80 398.80Q616.16 398.80 615.67 398.36Q615.21 397.88 615.21 397.27L615.21 396.56Q615.21 393.92 615.56 392.77Q616.16 390.74 617.82 389.15Q619.48 387.52 621.87 385.97Q625.19 383.83 626.07 382.62Q627.06 381.40 627.06 380.04Q627.06 378.25 625.75 377.13Q624.52 376.05 622.68 376.05Q619.51 376.05 617.32 377.54Q616.94 377.81 616.41 377.81Q615.77 377.81 615.28 377.37ZM642.95 377.71Q641.40 379.33 641.40 381.60Q641.40 383.80 642.88 385.19Q644.29 386.54 646.68 386.54Q650.88 386.54 651.62 384.07Q651.97 382.95 651.97 381.60Q651.97 379.06 650.49 377.57Q649.05 376.05 646.68 376.05Q644.46 376.05 642.95 377.71M640.62 387.29Q638.22 385.02 638.22 381.60Q638.22 378.08 640.76 375.54Q643.23 373.00 646.68 373.00Q650.25 373.00 652.68 375.37Q655.15 377.74 655.15 381.60Q655.15 384.00 654.41 385.93Q653.67 387.86 652.33 390.10Q649.40 395.01 645.17 398.76Q644.71 399.17 644.18 399.17Q643.58 399.17 643.12 398.73Q642.66 398.29 642.66 397.65Q642.66 397.00 643.16 396.53Q646.51 393.45 648.91 389.72L649.08 389.39L648.73 389.45Q647.81 389.59 646.68 389.59Q642.95 389.59 640.62 387.29Z" fill="#000000" />
</svg>
