<svg viewBox="0 0 759 431" xmlns="http://www.w3.org/2000/svg">
<rect width="100%" height="100%" fill="#FFFFFF" />
<path stroke="#000000" stroke-width="6" d="M33 371L33 30M66 371L66 30M123 371L123 30M150 371L150 30M174 371L174 30M222 371L222 30M336 371L336 30M417 371L417 30M429 371L429 30M504 371L504 30M528 371L528 30M603 371L603 30M675 371L675 30M684 371L684 30M693 371L693 30M726 371L726 30" />
<path stroke="#000000" stroke-width="3" d="M40.50 371L40.50 30M49.50 371L49.50 30M79.50 371L79.50 30M91.50 371L91.50 30M97.50 371L97.50 30M142.50 371L142.50 30M163.50 371L163.50 30M196.50 371L196.50 30M229.50 371L229.50 30M289.50 371L289.50 30M310.50 371L310.50 30M316.50 371L316.50 30M328.50 371L328.50 30M352.50 371L352.50 30M376.50 371L376.50 30M385.50 371L385.50 30M409.50 371L409.50 30M460.50 371L460.50 30M493.50 371L493.50 30M553.50 371L553.50 30M559.50 371L559.50 30M592.50 371L592.50 30M625.50 371L625.50 30M718.50 371L718.50 30" />
<path stroke="#000000" stroke-width="9" d="M106.50 371L106.50 30M133.50 371L133.50 30M184.50 371L184.50 30M208.50 371L208.50 30M238.50 371L238.50 30M280.50 371L280.50 30M397.50 371L397.50 30M439.50 371L439.50 30M451.50 371L451.50 30M484.50 371L484.50 30M514.50 371L514.50 30M541.50 371L541.50 30M568.50 371L568.50 30M613.50 371L613.50 30M634.50 371L634.50 30M709.50 371L709.50 30" />
<path stroke="#000000" stroke-width="12" d="M252 371L252 30M267 371L267 30M300 371L300 30M366 371L366 30M471 371L471 30M582 371L582 30M648 371L648 30M663 371L663 30" />
<path d="M107.73 398.29Q107.23 397.78 107.23 397.10Q107.23 396.39 107.69 395.89Q108.15 395.41 108.82 395.41L112.20 395.41L112.20 376.59L109.52 376.59Q108.89 376.59 108.43 376.08Q107.94 375.57 107.94 374.90Q107.94 374.22 108.40 373.71Q108.85 373.20 109.52 373.20L117.85 373.20Q118.52 373.20 118.97 373.71Q119.43 374.22 119.43 374.90Q119.43 375.57 118.94 376.08Q118.48 376.59 117.85 376.59L115.17 376.59L115.17 395.41L118.55 395.41Q119.22 395.41 119.68 395.89Q120.14 396.39 120.14 397.10Q120.14 397.78 119.64 398.29Q119.19 398.80 118.55 398.80L108.82 398.80Q108.18 398.80 107.73 398.29ZM130.21 398.86Q129.72 398.36 129.72 397.65L129.72 374.46Q129.72 373.75 130.17 373.27Q130.67 372.76 131.30 372.76L132.61 372.76Q133.03 372.76 133.42 373.04Q133.84 373.27 134.02 373.71L142.48 392.91L142.48 374.39Q142.48 373.71 142.94 373.24Q143.43 372.73 144.07 372.73Q144.70 372.73 145.16 373.24Q145.65 373.71 145.65 374.42L145.65 397.61Q145.65 398.32 145.16 398.83Q144.70 399.34 144.07 399.34L142.73 399.34Q141.74 399.34 141.32 398.42L132.89 379.23L132.89 397.68Q132.89 398.36 132.40 398.86Q131.94 399.37 131.30 399.37Q130.67 399.37 130.21 398.86ZM159.00 398.15L153.19 374.46Q153.19 373.78 153.68 373.31Q154.17 372.80 154.81 372.80Q155.34 372.80 155.76 373.17Q156.22 373.51 156.32 373.98L161.68 395.65L167.01 373.98Q167.22 373.48 167.61 373.14Q168.03 372.80 168.56 372.80Q169.20 372.80 169.69 373.31Q170.18 373.81 170.18 374.46L164.29 398.15Q164.19 398.66 163.76 399.03Q163.34 399.37 162.85 399.37L160.52 399.37Q160.03 399.37 159.57 399Q159.11 398.63 159.00 398.15ZM177.40 386.61L177.40 385.66Q177.40 385.02 177.86 384.58Q178.31 384.14 178.98 384.14L193.09 384.14Q193.76 384.14 194.22 384.61Q194.68 385.05 194.68 385.66L194.68 386.61Q194.68 387.22 194.22 387.69Q193.76 388.13 193.09 388.13L178.98 388.13Q178.31 388.13 177.86 387.69Q177.40 387.25 177.40 386.61ZM203.77 380.92Q203.31 380.45 203.31 379.84Q203.31 379.13 203.77 378.79L210.23 373.48Q210.68 373.10 211.25 373.10L212.38 373.10Q213.01 373.10 213.47 373.58Q213.96 374.02 213.96 374.63L213.96 397.65Q213.96 398.26 213.47 398.73Q213.01 399.17 212.38 399.17Q211.74 399.17 211.25 398.73Q210.79 398.29 210.79 397.65L210.79 377.03L205.96 380.99Q205.50 381.36 204.90 381.36Q204.23 381.36 203.77 380.92ZM227.68 375.78Q227.22 375.30 227.22 374.66Q227.22 374.02 227.68 373.58Q228.14 373.14 228.81 373.14L242.56 373.14Q243.23 373.14 243.69 373.61Q244.15 374.05 244.15 374.66Q244.15 377.23 242.07 380.25Q241.43 381.19 239.60 383.39Q237.76 385.63 236.99 387.02Q234.70 391.08 234.70 397.61Q234.70 398.26 234.24 398.73Q233.78 399.17 233.18 399.17Q232.58 399.17 232.12 398.73Q231.66 398.29 231.66 397.61Q231.66 390.23 234.34 385.46Q235.16 384.07 236.99 381.74Q238.86 379.37 239.46 378.49Q240.30 377.13 240.62 376.45L240.69 376.22L228.81 376.22Q228.17 376.22 227.68 375.78ZM251.68 375.78Q251.22 375.30 251.22 374.66Q251.22 374.02 251.68 373.58Q252.14 373.14 252.81 373.14L266.56 373.14Q267.23 373.14 267.69 373.61Q268.15 374.05 268.15 374.66Q268.15 377.23 266.07 380.25Q265.43 381.19 263.60 383.39Q261.76 385.63 260.99 387.02Q258.70 391.08 258.70 397.61Q258.70 398.26 258.24 398.73Q257.78 399.17 257.18 399.17Q256.58 399.17 256.12 398.73Q255.66 398.29 255.66 397.61Q255.66 390.23 258.34 385.46Q259.16 384.07 260.99 381.74Q262.86 379.37 263.46 378.49Q264.30 377.13 264.62 376.45L264.69 376.22L252.81 376.22Q252.17 376.22 251.68 375.78ZM279.95 377.71Q278.40 379.33 278.40 381.60Q278.40 383.80 279.88 385.19Q281.29 386.54 283.68 386.54Q287.88 386.54 288.62 384.07Q288.97 382.95 288.97 381.60Q288.97 379.06 287.49 377.57Q286.05 376.05 283.68 376.05Q281.46 376.05 279.95 377.71M277.62 387.29Q275.22 385.02 275.22 381.60Q275.22 378.08 277.76 375.54Q280.23 373.00 283.68 373.00Q287.25 373.00 289.68 375.37Q292.15 377.74 292.15 381.60Q292.15 384.00 291.41 385.93Q290.67 387.86 289.33 390.10Q286.40 395.01 282.17 398.76Q281.71 399.17 281.18 399.17Q280.58 399.17 280.12 398.73Q279.66 398.29 279.66 397.65Q279.66 397.00 280.16 396.53Q283.51 393.45 285.91 389.72L286.08 389.39L285.73 389.45Q284.81 389.59 283.68 389.59Q279.95 389.59 277.62 387.29ZM299.68 375.78Q299.22 375.30 299.22 374.66Q299.22 374.02 299.68 373.58Q300.14 373.14 300.81 373.14L314.56 373.14Q315.23 373.14 315.69 373.61Q316.15 374.05 316.15 374.66Q316.15 377.23 314.07 380.25Q313.43 381.19 311.60 383.39Q309.76 385.63 308.99 387.02Q306.70 391.08 306.70 397.61Q306.70 398.26 306.24 398.73Q305.78 399.17 305.18 399.17Q304.58 399.17 304.12 398.73Q303.66 398.29 303.66 397.61Q303.66 390.23 306.34 385.46Q307.16 384.07 308.99 381.74Q310.86 379.37 311.46 378.49Q312.30 377.13 312.62 376.45L312.69 376.22L300.81 376.22Q300.17 376.22 299.68 375.78ZM323.68 375.78Q323.22 375.30 323.22 374.66Q323.22 374.02 323.68 373.58Q324.14 373.14 324.81 373.14L338.56 373.14Q339.23 373.14 339.69 373.61Q340.15 374.05 340.15 374.66Q340.15 377.23 338.07 380.25Q337.43 381.19 335.60 383.39Q333.76 385.63 332.99 387.02Q330.70 391.08 330.70 397.61Q330.70 398.26 330.24 398.73Q329.78 399.17 329.18 399.17Q328.58 399.17 328.12 398.73Q327.66 398.29 327.66 397.61Q327.66 390.23 330.34 385.46Q331.16 384.07 332.99 381.74Q334.86 379.37 335.46 378.49Q336.30 377.13 336.62 376.45L336.69 376.22L324.81 376.22Q324.17 376.22 323.68 375.78ZM355.83 399.27L355.68 399.27Q353.60 399.24 352.05 398.59Q350.50 397.98 349.58 397.00Q348.67 395.99 348.14 394.40Q347.57 392.81 347.40 391.18Q347.22 389.59 347.22 387.42Q347.22 385.49 347.26 384.14Q347.33 382.75 347.54 381.16Q347.75 379.54 348.10 378.45Q348.49 377.33 349.13 376.22Q349.76 375.13 350.64 374.49Q351.52 373.85 352.79 373.44Q354.06 373.04 355.68 373.04Q357.27 373.04 358.54 373.44Q359.81 373.85 360.69 374.49Q361.57 375.13 362.24 376.22Q362.88 377.33 363.23 378.45Q363.62 379.57 363.83 381.16Q364.04 382.75 364.08 384.14Q364.15 385.53 364.15 387.42Q364.15 388.78 364.08 389.89Q364.01 390.98 363.76 392.26Q363.55 393.55 363.20 394.53Q362.84 395.48 362.17 396.39Q361.50 397.31 360.66 397.92Q359.81 398.53 358.58 398.90Q357.34 399.27 355.83 399.27M350.40 384.65L350.40 387.42Q350.40 388.95 350.47 390.03Q350.57 391.11 350.89 392.37Q351.17 393.62 351.74 394.40Q352.30 395.21 353.29 395.75Q354.27 396.26 355.68 396.26L356.42 396.26Q357.41 396.26 358.19 395.89Q358.96 395.48 359.42 394.73Q359.92 394.02 360.23 393.21Q360.55 392.37 360.69 391.32Q360.87 390.23 360.90 389.35Q360.97 388.47 360.97 387.42L360.97 385.87Q360.97 384.82 360.94 384.21Q360.94 383.56 360.90 382.62Q360.87 381.63 360.76 381.09Q360.66 380.52 360.48 379.74Q360.30 378.96 360.02 378.49Q359.74 378.01 359.35 377.50Q358.93 377.00 358.43 376.73Q357.91 376.42 357.20 376.25Q356.53 376.08 355.68 376.08Q354.80 376.08 354.10 376.29Q353.43 376.45 352.90 376.79Q352.37 377.13 351.95 377.64Q351.56 378.11 351.28 378.72Q350.99 379.30 350.82 380.01Q350.64 380.69 350.57 381.46Q350.50 382.21 350.43 383.02Q350.40 383.80 350.40 384.65ZM376.93 376.73Q375.59 377.40 375.59 378.69Q375.59 379.54 375.91 380.18Q376.23 380.82 376.97 381.36Q377.67 381.87 378.13 382.14Q378.63 382.41 379.61 382.89L379.68 382.89L379.75 382.89Q380.74 382.45 381.24 382.18Q381.73 381.90 382.43 381.40Q383.14 380.86 383.46 380.21Q383.77 379.54 383.77 378.69Q383.77 377.40 382.43 376.73Q381.13 376.05 379.68 376.05Q378.24 376.05 376.93 376.73M379.68 386.37Q374.36 389.05 374.36 392.23Q374.36 394.13 375.95 395.17Q377.43 396.22 379.68 396.22L380.39 396.22Q382.26 396.22 383.60 395.04Q384.97 393.85 384.97 392.23Q384.97 389.01 379.83 386.37L379.75 386.31L379.68 386.37M373.65 397.31Q371.22 395.34 371.22 392.23Q371.22 388.13 376.23 384.82L376.44 384.68L376.23 384.55Q372.42 382.31 372.42 378.69Q372.42 376.22 374.68 374.63Q376.90 373.00 379.68 373.00Q382.43 373.00 384.69 374.63Q386.95 376.25 386.95 378.69Q386.95 380.69 385.96 382.07Q384.94 383.43 383.14 384.55L382.93 384.68L383.14 384.82Q388.15 388.13 388.15 392.23Q388.15 394.90 386.10 396.97Q384.06 399.03 381.17 399.27L379.68 399.27Q376.05 399.27 373.65 397.31ZM397.69 397.07Q395.33 394.87 395.22 391.25L395.22 390.84Q395.22 386.61 397.65 382.75Q398.64 381.16 400.05 379.40Q401.43 377.61 402.38 376.56Q403.33 375.47 405.09 373.54Q405.48 373.10 406.19 373.10Q406.79 373.10 407.25 373.58Q407.70 374.02 407.70 374.63Q407.70 375.20 407.32 375.68Q403.33 380.01 401.46 382.62L401.22 382.95L401.60 382.89Q402.63 382.68 403.68 382.68Q407.53 382.68 409.82 384.99Q412.15 387.32 412.15 391.25Q412.15 394.80 409.75 397.04Q407.35 399.27 403.68 399.27Q400.02 399.27 397.69 397.07M399.81 387.22Q398.40 388.68 398.40 391.25Q398.40 393.55 399.88 394.90Q401.32 396.22 403.68 396.22Q406.01 396.22 407.46 394.87Q408.97 393.52 408.97 391.25Q408.97 388.61 407.60 387.19Q406.26 385.73 403.68 385.73Q401.18 385.73 399.81 387.22ZM420.28 377.37Q419.82 376.89 419.82 376.32Q419.82 375.47 420.49 375.03Q423.70 373.00 427.68 373.00Q430.89 373.00 433.04 374.97Q435.23 376.89 435.23 380.04Q435.23 381.30 434.77 382.45Q434.31 383.63 433.71 384.38Q433.15 385.12 432.02 386.03Q430.89 386.95 430.29 387.36Q429.73 387.76 428.50 388.54Q427.16 389.39 426.56 389.83Q425.96 390.27 425.11 391.15Q424.26 391.99 423.88 393.08Q423.49 394.13 423.42 395.58L423.42 395.75L433.86 395.75Q434.53 395.75 434.98 396.22Q435.44 396.66 435.44 397.27Q435.44 397.88 434.95 398.36Q434.49 398.80 433.86 398.80L421.80 398.80Q421.16 398.80 420.67 398.36Q420.21 397.88 420.21 397.27L420.21 396.56Q420.21 393.92 420.56 392.77Q421.16 390.74 422.82 389.15Q424.48 387.52 426.87 385.97Q430.19 383.83 431.07 382.62Q432.06 381.40 432.06 380.04Q432.06 378.25 430.75 377.13Q429.52 376.05 427.68 376.05Q424.51 376.05 422.32 377.54Q421.94 377.81 421.41 377.81Q420.77 377.81 420.28 377.37ZM444.60 398.83Q444.14 398.39 444.14 397.75Q444.14 397.07 444.60 396.63Q445.09 396.19 445.73 396.19Q452.85 396.19 454.93 392.37Q455.56 391.21 455.56 390.16Q455.56 387.69 454.36 386.44Q452.78 384.65 448.79 384.65Q447.70 384.65 446.57 384.75L446.43 384.75Q445.80 384.75 445.30 384.34Q444.84 383.90 444.84 383.29L444.84 383.19L445.34 374.56Q445.41 373.95 445.83 373.54Q446.29 373.14 446.92 373.14L456.94 373.14Q457.61 373.14 458.07 373.61Q458.53 374.05 458.53 374.66Q458.53 375.27 458.03 375.74Q457.57 376.22 456.94 376.22L448.41 376.22L448.12 381.53L448.79 381.53Q453.27 381.53 455.99 383.73Q458.74 385.90 458.74 390.16Q458.74 391.96 457.93 393.52Q457.08 395.11 455.81 396.22Q452.42 399.27 445.73 399.27Q445.09 399.27 444.60 398.83M446.54 384.75Q446.54 384.75 446.57 384.75Q446.57 384.75 446.54 384.75ZM468.60 398.83Q468.14 398.39 468.14 397.75Q468.14 397.07 468.60 396.63Q469.09 396.19 469.73 396.19Q476.85 396.19 478.93 392.37Q479.56 391.21 479.56 390.16Q479.56 387.69 478.36 386.44Q476.78 384.65 472.79 384.65Q471.70 384.65 470.57 384.75L470.43 384.75Q469.80 384.75 469.30 384.34Q468.84 383.90 468.84 383.29L468.84 383.19L469.34 374.56Q469.41 373.95 469.83 373.54Q470.29 373.14 470.92 373.14L480.94 373.14Q481.61 373.14 482.07 373.61Q482.53 374.05 482.53 374.66Q482.53 375.27 482.03 375.74Q481.57 376.22 480.94 376.22L472.41 376.22L472.12 381.53L472.79 381.53Q477.27 381.53 479.99 383.73Q482.74 385.90 482.74 390.16Q482.74 391.96 481.93 393.52Q481.08 395.11 479.81 396.22Q476.42 399.27 469.73 399.27Q469.09 399.27 468.60 398.83M470.54 384.75Q470.54 384.75 470.57 384.75Q470.57 384.75 470.54 384.75ZM491.96 397.98Q491.22 397.44 491.22 396.63Q491.22 395.99 491.68 395.55Q492.17 395.07 492.81 395.07Q493.02 395.07 493.41 395.21Q495.66 396.19 498.13 396.19Q500.81 396.19 502.65 394.90Q504.52 393.58 504.66 391.08L504.66 390.74Q504.66 389.01 503.53 387.80Q502.47 386.61 500.92 386.10Q499.40 385.63 497.53 385.63Q496.93 385.63 496.48 385.19Q496.02 384.71 496.02 384.07Q496.02 383.46 496.33 383.12L502.82 376.22L492.91 376.22Q492.28 376.22 491.79 375.78Q491.33 375.30 491.33 374.66Q491.33 374.02 491.79 373.58Q492.24 373.14 492.91 373.14L505.36 373.14Q506.00 373.14 506.45 373.61Q506.95 374.05 506.95 374.66L506.95 375.88Q506.95 376.42 506.45 376.89L500.78 382.89L501.06 382.95Q504.06 383.70 505.96 385.70Q507.83 387.69 507.83 390.71L507.83 391.25Q507.65 394.94 504.83 397.10Q502.08 399.27 498.13 399.27Q497.15 399.27 496.16 399.17Q495.17 399.07 493.94 398.83Q492.70 398.56 491.96 397.98ZM515.40 386.61L515.40 385.66Q515.40 385.02 515.86 384.58Q516.31 384.14 516.98 384.14L531.09 384.14Q531.76 384.14 532.22 384.61Q532.68 385.05 532.68 385.66L532.68 386.61Q532.68 387.22 532.22 387.69Q531.76 388.13 531.09 388.13L516.98 388.13Q516.31 388.13 515.86 387.69Q515.40 387.25 515.40 386.61ZM541.28 377.37Q540.82 376.89 540.82 376.32Q540.82 375.47 541.49 375.03Q544.70 373.00 548.68 373.00Q551.89 373.00 554.04 374.97Q556.23 376.89 556.23 380.04Q556.23 381.30 555.77 382.45Q555.31 383.63 554.71 384.38Q554.15 385.12 553.02 386.03Q551.89 386.95 551.29 387.36Q550.73 387.76 549.50 388.54Q548.16 389.39 547.56 389.83Q546.96 390.27 546.11 391.15Q545.26 391.99 544.88 393.08Q544.49 394.13 544.42 395.58L544.42 395.75L554.86 395.75Q555.53 395.75 555.98 396.22Q556.44 396.66 556.44 397.27Q556.44 397.88 555.95 398.36Q555.49 398.80 554.86 398.80L542.80 398.80Q542.16 398.80 541.67 398.36Q541.21 397.88 541.21 397.27L541.21 396.56Q541.21 393.92 541.56 392.77Q542.16 390.74 543.82 389.15Q545.48 387.52 547.87 385.97Q551.19 383.83 552.07 382.62Q553.06 381.40 553.06 380.04Q553.06 378.25 551.75 377.13Q550.52 376.05 548.68 376.05Q545.51 376.05 543.32 377.54Q542.94 377.81 542.41 377.81Q541.77 377.81 541.28 377.37ZM565.77 380.92Q565.31 380.45 565.31 379.84Q565.31 379.13 565.77 378.79L572.23 373.48Q572.68 373.10 573.25 373.10L574.38 373.10Q575.01 373.10 575.47 373.58Q575.96 374.02 575.96 374.63L575.96 397.65Q575.96 398.26 575.47 398.73Q575.01 399.17 574.38 399.17Q573.74 399.17 573.25 398.73Q572.79 398.29 572.79 397.65L572.79 377.03L567.96 380.99Q567.50 381.36 566.90 381.36Q566.23 381.36 565.77 380.92ZM589.96 397.98Q589.22 397.44 589.22 396.63Q589.22 395.99 589.68 395.55Q590.17 395.07 590.81 395.07Q591.02 395.07 591.41 395.21Q593.66 396.19 596.13 396.19Q598.81 396.19 600.65 394.90Q602.52 393.58 602.66 391.08L602.66 390.74Q602.66 389.01 601.53 387.80Q600.47 386.61 598.92 386.10Q597.40 385.63 595.53 385.63Q594.93 385.63 594.48 385.19Q594.02 384.71 594.02 384.07Q594.02 383.46 594.33 383.12L600.82 376.22L590.91 376.22Q590.28 376.22 589.79 375.78Q589.33 375.30 589.33 374.66Q589.33 374.02 589.79 373.58Q590.24 373.14 590.91 373.14L603.36 373.14Q604.00 373.14 604.45 373.61Q604.95 374.05 604.95 374.66L604.95 375.88Q604.95 376.42 604.45 376.89L598.78 382.89L599.06 382.95Q602.06 383.70 603.96 385.70Q605.83 387.69 605.83 390.71L605.83 391.25Q605.65 394.94 602.83 397.10Q600.08 399.27 596.13 399.27Q595.15 399.27 594.16 399.17Q593.17 399.07 591.94 398.83Q590.70 398.56 589.96 397.98ZM617.95 377.71Q616.40 379.33 616.40 381.60Q616.40 383.80 617.88 385.19Q619.29 386.54 621.68 386.54Q625.88 386.54 626.62 384.07Q626.97 382.95 626.97 381.60Q626.97 379.06 625.49 377.57Q624.05 376.05 621.68 376.05Q619.46 376.05 617.95 377.71M615.62 387.29Q613.22 385.02 613.22 381.60Q613.22 378.08 615.76 375.54Q618.23 373.00 621.68 373.00Q625.25 373.00 627.68 375.37Q630.15 377.74 630.15 381.60Q630.15 384.00 629.41 385.93Q628.67 387.86 627.33 390.10Q624.40 395.01 620.17 398.76Q619.71 399.17 619.18 399.17Q618.58 399.17 618.12 398.73Q617.66 398.29 617.66 397.65Q617.66 397.00 618.16 396.53Q621.51 393.45 623.91 389.72L624.08 389.39L623.73 389.45Q622.81 389.59 621.68 389.59Q617.95 389.59 615.62 387.29ZM641.95 377.71Q640.40 379.33 640.40 381.60Q640.40 383.80 641.88 385.19Q643.29 386.54 645.68 386.54Q649.88 386.54 650.62 384.07Q650.97 382.95 650.97 381.60Q650.97 379.06 649.49 377.57Q648.05 376.05 645.68 376.05Q643.46 376.05 641.95 377.71M639.62 387.29Q637.22 385.02 637.22 381.60Q637.22 378.08 639.76 375.54Q642.23 373.00 645.68 373.00Q649.25 373.00 651.68 375.37Q654.15 377.74 654.15 381.60Q654.15 384.00 653.41 385.93Q652.67 387.86 651.33 390.10Q648.40 395.01 644.17 398.76Q643.71 399.17 643.18 399.17Q642.58 399.17 642.12 398.73Q641.66 398.29 641.66 397.65Q641.66 397.00 642.16 396.53Q645.51 393.45 647.91 389.72L648.08 389.39L647.73 389.45Q646.81 389.59 645.68 389.59Q641.95 389.59 639.62 387.29Z" fill="#000000" />
</svg>
