<svg viewBox="0 0 726 431" xmlns="http://www.w3.org/2000/svg">
<rect width="100%" height="100%" fill="#FFFFFF" />
<path stroke="#000000" stroke-width="6" d="M33 371L33 30M66 371L66 30M123 371L123 30M150 371L150 30M174 371L174 30M222 371L222 30M387 371L387 30M417 371L417 30M504 371L504 30M585 371L585 30M612 371L612 30M627 371L627 30M660 371L660 30M693 371L693 30" />
<path stroke="#000000" stroke-width="3" d="M40.50 371L40.50 30M49.50 371L49.50 30M79.50 371L79.50 30M91.50 371L91.50 30M97.50 371L97.50 30M142.50 371L142.50 30M163.50 371L163.50 30M196.50 371L196.50 30M229.50 371L229.50 30M289.50 371L289.50 30M295.50 371L295.50 30M301.50 371L301.50 30M328.50 371L328.50 30M355.50 371L355.50 30M361.50 371L361.50 30M394.50 371L394.50 30M403.50 371L403.50 30M427.50 371L427.50 30M433.50 371L433.50 30M460.50 371L460.50 30M493.50 371L493.50 30M526.50 371L526.50 30M559.50 371L559.50 30M592.50 371L592.50 30M640.50 371L640.50 30M685.50 371L685.50 30" />
<path stroke="#000000" stroke-width="9" d="M106.50 371L106.50 30M133.50 371L133.50 30M184.50 371L184.50 30M208.50 371L208.50 30M238.50 371L238.50 30M280.50 371L280.50 30M373.50 371L373.50 30M484.50 371L484.50 30M514.50 371L514.50 30M535.50 371L535.50 30M571.50 371L571.50 30M601.50 371L601.50 30M649.50 371L649.50 30M676.50 371L676.50 30" />
<path stroke="#000000" stroke-width="12" d="M252 371L252 30M267 371L267 30M318 371L318 30M339 371L339 30M444 371L444 30M471 371L471 30M549 371L549 30" />
<path d="M103.73 398.29Q103.23 397.78 103.23 397.10Q103.23 396.39 103.69 395.89Q104.15 395.41 104.82 395.41L108.20 395.41L108.20 376.59L105.52 376.59Q104.89 376.59 104.43 376.08Q103.94 375.57 103.94 374.90Q103.94 374.22 104.40 373.71Q104.85 373.20 105.52 373.20L113.85 373.20Q114.52 373.20 114.97 373.71Q115.43 374.22 115.43 374.90Q115.43 375.57 114.94 376.08Q114.48 376.59 113.85 376.59L111.17 376.59L111.17 395.41L114.55 395.41Q115.22 395.41 115.68 395.89Q116.14 396.39 116.14 397.10Q116.14 397.78 115.64 398.29Q115.19 398.80 114.55 398.80L104.82 398.80Q104.18 398.80 103.73 398.29ZM126.21 398.86Q125.72 398.36 125.72 397.65L125.72 374.46Q125.72 373.75 126.17 373.27Q126.67 372.76 127.30 372.76L128.61 372.76Q129.03 372.76 129.42 373.04Q129.84 373.27 130.02 373.71L138.48 392.91L138.48 374.39Q138.48 373.71 138.94 373.24Q139.43 372.73 140.07 372.73Q140.70 372.73 141.16 373.24Q141.65 373.71 141.65 374.42L141.65 397.61Q141.65 398.32 141.16 398.83Q140.70 399.34 140.07 399.34L138.73 399.34Q137.74 399.34 137.32 398.42L128.89 379.23L128.89 397.68Q128.89 398.36 128.40 398.86Q127.94 399.37 127.30 399.37Q126.67 399.37 126.21 398.86ZM155.00 398.15L149.19 374.46Q149.19 373.78 149.68 373.31Q150.17 372.80 150.81 372.80Q151.34 372.80 151.76 373.17Q152.22 373.51 152.32 373.98L157.68 395.65L163.01 373.98Q163.22 373.48 163.61 373.14Q164.03 372.80 164.56 372.80Q165.20 372.80 165.69 373.31Q166.18 373.81 166.18 374.46L160.29 398.15Q160.19 398.66 159.76 399.03Q159.34 399.37 158.85 399.37L156.52 399.37Q156.03 399.37 155.57 399Q155.11 398.63 155.00 398.15ZM173.40 386.61L173.40 385.66Q173.40 385.02 173.86 384.58Q174.31 384.14 174.98 384.14L189.09 384.14Q189.76 384.14 190.22 384.61Q190.68 385.05 190.68 385.66L190.68 386.61Q190.68 387.22 190.22 387.69Q189.76 388.13 189.09 388.13L174.98 388.13Q174.31 388.13 173.86 387.69Q173.40 387.25 173.40 386.61ZM199.77 380.92Q199.31 380.45 199.31 379.84Q199.31 379.13 199.77 378.79L206.23 373.48Q206.68 373.10 207.25 373.10L208.38 373.10Q209.01 373.10 209.47 373.58Q209.96 374.02 209.96 374.63L209.96 397.65Q209.96 398.26 209.47 398.73Q209.01 399.17 208.38 399.17Q207.74 399.17 207.25 398.73Q206.79 398.29 206.79 397.65L206.79 377.03L201.96 380.99Q201.50 381.36 200.90 381.36Q200.23 381.36 199.77 380.92ZM223.68 375.78Q223.22 375.30 223.22 374.66Q223.22 374.02 223.68 373.58Q224.14 373.14 224.81 373.14L238.56 373.14Q239.23 373.14 239.69 373.61Q240.15 374.05 240.15 374.66Q240.15 377.23 238.07 380.25Q237.43 381.19 235.60 383.39Q233.76 385.63 232.99 387.02Q230.70 391.08 230.70 397.61Q230.70 398.26 230.24 398.73Q229.78 399.17 229.18 399.17Q228.58 399.17 228.12 398.73Q227.66 398.29 227.66 397.61Q227.66 390.23 230.34 385.46Q231.16 384.07 232.99 381.74Q234.86 379.37 235.46 378.49Q236.30 377.13 236.62 376.45L236.69 376.22L224.81 376.22Q224.17 376.22 223.68 375.78ZM247.68 375.78Q247.22 375.30 247.22 374.66Q247.22 374.02 247.68 373.58Q248.14 373.14 248.81 373.14L262.56 373.14Q263.23 373.14 263.69 373.61Q264.15 374.05 264.15 374.66Q264.15 377.23 262.07 380.25Q261.43 381.19 259.60 383.39Q257.76 385.63 256.99 387.02Q254.70 391.08 254.70 397.61Q254.70 398.26 254.24 398.73Q253.78 399.17 253.18 399.17Q252.58 399.17 252.12 398.73Q251.66 398.29 251.66 397.61Q251.66 390.23 254.34 385.46Q255.16 384.07 256.99 381.74Q258.86 379.37 259.46 378.49Q260.30 377.13 260.62 376.45L260.69 376.22L248.81 376.22Q248.17 376.22 247.68 375.78ZM275.95 377.71Q274.40 379.33 274.40 381.60Q274.40 383.80 275.88 385.19Q277.29 386.54 279.68 386.54Q283.88 386.54 284.62 384.07Q284.97 382.95 284.97 381.60Q284.97 379.06 283.49 377.57Q282.05 376.05 279.68 376.05Q277.46 376.05 275.95 377.71M273.62 387.29Q271.22 385.02 271.22 381.60Q271.22 378.08 273.76 375.54Q276.23 373.00 279.68 373.00Q283.25 373.00 285.68 375.37Q288.15 377.74 288.15 381.60Q288.15 384.00 287.41 385.93Q286.67 387.86 285.33 390.10Q282.40 395.01 278.17 398.76Q277.71 399.17 277.18 399.17Q276.58 399.17 276.12 398.73Q275.66 398.29 275.66 397.65Q275.66 397.00 276.16 396.53Q279.51 393.45 281.91 389.72L282.08 389.39L281.73 389.45Q280.81 389.59 279.68 389.59Q275.95 389.59 273.62 387.29ZM295.96 397.98Q295.22 397.44 295.22 396.63Q295.22 395.99 295.68 395.55Q296.17 395.07 296.81 395.07Q297.02 395.07 297.41 395.21Q299.66 396.19 302.13 396.19Q304.81 396.19 306.65 394.90Q308.52 393.58 308.66 391.08L308.66 390.74Q308.66 389.01 307.53 387.80Q306.47 386.61 304.92 386.10Q303.40 385.63 301.53 385.63Q300.93 385.63 300.48 385.19Q300.02 384.71 300.02 384.07Q300.02 383.46 300.33 383.12L306.82 376.22L296.91 376.22Q296.28 376.22 295.79 375.78Q295.33 375.30 295.33 374.66Q295.33 374.02 295.79 373.58Q296.24 373.14 296.91 373.14L309.36 373.14Q310.00 373.14 310.45 373.61Q310.95 374.05 310.95 374.66L310.95 375.88Q310.95 376.42 310.45 376.89L304.78 382.89L305.06 382.95Q308.06 383.70 309.96 385.70Q311.83 387.69 311.83 390.71L311.83 391.25Q311.65 394.94 308.83 397.10Q306.08 399.27 302.13 399.27Q301.15 399.27 300.16 399.17Q299.17 399.07 297.94 398.83Q296.70 398.56 295.96 397.98ZM323.95 377.71Q322.40 379.33 322.40 381.60Q322.40 383.80 323.88 385.19Q325.29 386.54 327.68 386.54Q331.88 386.54 332.62 384.07Q332.97 382.95 332.97 381.60Q332.97 379.06 331.49 377.57Q330.05 376.05 327.68 376.05Q325.46 376.05 323.95 377.71M321.62 387.29Q319.22 385.02 319.22 381.60Q319.22 378.08 321.76 375.54Q324.23 373.00 327.68 373.00Q331.25 373.00 333.68 375.37Q336.15 377.74 336.15 381.60Q336.15 384.00 335.41 385.93Q334.67 387.86 333.33 390.10Q330.40 395.01 326.17 398.76Q325.71 399.17 325.18 399.17Q324.58 399.17 324.12 398.73Q323.66 398.29 323.66 397.65Q323.66 397.00 324.16 396.53Q327.51 393.45 329.91 389.72L330.08 389.39L329.73 389.45Q328.81 389.59 327.68 389.59Q323.95 389.59 321.62 387.29ZM345.69 397.07Q343.33 394.87 343.22 391.25L343.22 390.84Q343.22 386.61 345.65 382.75Q346.64 381.16 348.05 379.40Q349.43 377.61 350.38 376.56Q351.33 375.47 353.09 373.54Q353.48 373.10 354.19 373.10Q354.79 373.10 355.25 373.58Q355.70 374.02 355.70 374.63Q355.70 375.20 355.32 375.68Q351.33 380.01 349.46 382.62L349.22 382.95L349.60 382.89Q350.63 382.68 351.68 382.68Q355.53 382.68 357.82 384.99Q360.15 387.32 360.15 391.25Q360.15 394.80 357.75 397.04Q355.35 399.27 351.68 399.27Q348.02 399.27 345.69 397.07M347.81 387.22Q346.40 388.68 346.40 391.25Q346.40 393.55 347.88 394.90Q349.32 396.22 351.68 396.22Q354.01 396.22 355.46 394.87Q356.97 393.52 356.97 391.25Q356.97 388.61 355.60 387.19Q354.26 385.73 351.68 385.73Q349.18 385.73 347.81 387.22ZM368.77 380.92Q368.31 380.45 368.31 379.84Q368.31 379.13 368.77 378.79L375.23 373.48Q375.68 373.10 376.25 373.10L377.38 373.10Q378.01 373.10 378.47 373.58Q378.96 374.02 378.96 374.63L378.96 397.65Q378.96 398.26 378.47 398.73Q378.01 399.17 377.38 399.17Q376.74 399.17 376.25 398.73Q375.79 398.29 375.79 397.65L375.79 377.03L370.96 380.99Q370.50 381.36 369.90 381.36Q369.23 381.36 368.77 380.92ZM392.68 375.78Q392.22 375.30 392.22 374.66Q392.22 374.02 392.68 373.58Q393.14 373.14 393.81 373.14L407.56 373.14Q408.23 373.14 408.69 373.61Q409.15 374.05 409.15 374.66Q409.15 377.23 407.07 380.25Q406.43 381.19 404.60 383.39Q402.76 385.63 401.99 387.02Q399.70 391.08 399.70 397.61Q399.70 398.26 399.24 398.73Q398.78 399.17 398.18 399.17Q397.58 399.17 397.12 398.73Q396.66 398.29 396.66 397.61Q396.66 390.23 399.34 385.46Q400.16 384.07 401.99 381.74Q403.86 379.37 404.46 378.49Q405.30 377.13 405.62 376.45L405.69 376.22L393.81 376.22Q393.17 376.22 392.68 375.78ZM424.83 399.27L424.68 399.27Q422.60 399.24 421.05 398.59Q419.50 397.98 418.58 397.00Q417.67 395.99 417.14 394.40Q416.57 392.81 416.40 391.18Q416.22 389.59 416.22 387.42Q416.22 385.49 416.26 384.14Q416.33 382.75 416.54 381.16Q416.75 379.54 417.10 378.45Q417.49 377.33 418.13 376.22Q418.76 375.13 419.64 374.49Q420.52 373.85 421.79 373.44Q423.06 373.04 424.68 373.04Q426.27 373.04 427.54 373.44Q428.81 373.85 429.69 374.49Q430.57 375.13 431.24 376.22Q431.88 377.33 432.23 378.45Q432.62 379.57 432.83 381.16Q433.04 382.75 433.08 384.14Q433.15 385.53 433.15 387.42Q433.15 388.78 433.08 389.89Q433.01 390.98 432.76 392.26Q432.55 393.55 432.20 394.53Q431.84 395.48 431.17 396.39Q430.50 397.31 429.66 397.92Q428.81 398.53 427.58 398.90Q426.34 399.27 424.83 399.27M419.40 384.65L419.40 387.42Q419.40 388.95 419.47 390.03Q419.57 391.11 419.89 392.37Q420.17 393.62 420.74 394.40Q421.30 395.21 422.29 395.75Q423.27 396.26 424.68 396.26L425.42 396.26Q426.41 396.26 427.19 395.89Q427.96 395.48 428.42 394.73Q428.92 394.02 429.23 393.21Q429.55 392.37 429.69 391.32Q429.87 390.23 429.90 389.35Q429.97 388.47 429.97 387.42L429.97 385.87Q429.97 384.82 429.94 384.21Q429.94 383.56 429.90 382.62Q429.87 381.63 429.76 381.09Q429.66 380.52 429.48 379.74Q429.30 378.96 429.02 378.49Q428.74 378.01 428.35 377.50Q427.93 377.00 427.43 376.73Q426.91 376.42 426.20 376.25Q425.53 376.08 424.68 376.08Q423.80 376.08 423.10 376.29Q422.43 376.45 421.90 376.79Q421.37 377.13 420.95 377.64Q420.56 378.11 420.28 378.72Q419.99 379.30 419.82 380.01Q419.64 380.69 419.57 381.46Q419.50 382.21 419.43 383.02Q419.40 383.80 419.40 384.65ZM440.68 392.84Q440.22 392.40 440.22 391.76L440.22 390.30Q440.22 390.03 440.40 389.66L447.91 373.98Q448.05 373.61 448.44 373.37Q448.83 373.10 449.25 373.10Q449.88 373.10 450.34 373.58Q450.80 374.02 450.80 374.63Q450.80 374.97 450.62 375.27L443.57 390.23L450.45 390.23L450.45 386.14Q450.45 385.53 450.91 385.09Q451.36 384.61 451.96 384.61Q452.56 384.61 453.02 385.09Q453.52 385.53 453.52 386.14L453.52 390.23L455.56 390.23Q456.23 390.23 456.69 390.71Q457.15 391.15 457.15 391.76Q457.15 392.37 456.65 392.84Q456.20 393.28 455.56 393.28L453.52 393.28L453.52 397.65Q453.52 398.26 453.02 398.70Q452.56 399.17 451.96 399.17Q451.36 399.17 450.91 398.73Q450.45 398.26 450.45 397.65L450.45 393.28L441.81 393.28Q441.17 393.28 440.68 392.84ZM468.95 377.71Q467.40 379.33 467.40 381.60Q467.40 383.80 468.88 385.19Q470.29 386.54 472.68 386.54Q476.88 386.54 477.62 384.07Q477.97 382.95 477.97 381.60Q477.97 379.06 476.49 377.57Q475.05 376.05 472.68 376.05Q470.46 376.05 468.95 377.71M466.62 387.29Q464.22 385.02 464.22 381.60Q464.22 378.08 466.76 375.54Q469.23 373.00 472.68 373.00Q476.25 373.00 478.68 375.37Q481.15 377.74 481.15 381.60Q481.15 384.00 480.41 385.93Q479.67 387.86 478.33 390.10Q475.40 395.01 471.17 398.76Q470.71 399.17 470.18 399.17Q469.58 399.17 469.12 398.73Q468.66 398.29 468.66 397.65Q468.66 397.00 469.16 396.53Q472.51 393.45 474.91 389.72L475.08 389.39L474.73 389.45Q473.81 389.59 472.68 389.59Q468.95 389.59 466.62 387.29ZM489.28 377.37Q488.82 376.89 488.82 376.32Q488.82 375.47 489.49 375.03Q492.70 373.00 496.68 373.00Q499.89 373.00 502.04 374.97Q504.23 376.89 504.23 380.04Q504.23 381.30 503.77 382.45Q503.31 383.63 502.71 384.38Q502.15 385.12 501.02 386.03Q499.89 386.95 499.29 387.36Q498.73 387.76 497.50 388.54Q496.16 389.39 495.56 389.83Q494.96 390.27 494.11 391.15Q493.26 391.99 492.88 393.08Q492.49 394.13 492.42 395.58L492.42 395.75L502.86 395.75Q503.53 395.75 503.98 396.22Q504.44 396.66 504.44 397.27Q504.44 397.88 503.95 398.36Q503.49 398.80 502.86 398.80L490.80 398.80Q490.16 398.80 489.67 398.36Q489.21 397.88 489.21 397.27L489.21 396.56Q489.21 393.92 489.56 392.77Q490.16 390.74 491.82 389.15Q493.48 387.52 495.87 385.97Q499.19 383.83 500.07 382.62Q501.06 381.40 501.06 380.04Q501.06 378.25 499.75 377.13Q498.52 376.05 496.68 376.05Q493.51 376.05 491.32 377.54Q490.94 377.81 490.41 377.81Q489.77 377.81 489.28 377.37ZM512.40 386.61L512.40 385.66Q512.40 385.02 512.86 384.58Q513.31 384.14 513.98 384.14L528.09 384.14Q528.76 384.14 529.22 384.61Q529.68 385.05 529.68 385.66L529.68 386.61Q529.68 387.22 529.22 387.69Q528.76 388.13 528.09 388.13L513.98 388.13Q513.31 388.13 512.86 387.69Q512.40 387.25 512.40 386.61ZM538.77 380.92Q538.31 380.45 538.31 379.84Q538.31 379.13 538.77 378.79L545.23 373.48Q545.68 373.10 546.25 373.10L547.38 373.10Q548.01 373.10 548.47 373.58Q548.96 374.02 548.96 374.63L548.96 397.65Q548.96 398.26 548.47 398.73Q548.01 399.17 547.38 399.17Q546.74 399.17 546.25 398.73Q545.79 398.29 545.79 397.65L545.79 377.03L540.96 380.99Q540.50 381.36 539.90 381.36Q539.23 381.36 538.77 380.92ZM562.68 375.78Q562.22 375.30 562.22 374.66Q562.22 374.02 562.68 373.58Q563.14 373.14 563.81 373.14L577.56 373.14Q578.23 373.14 578.69 373.61Q579.15 374.05 579.15 374.66Q579.15 377.23 577.07 380.25Q576.43 381.19 574.60 383.39Q572.76 385.63 571.99 387.02Q569.70 391.08 569.70 397.61Q569.70 398.26 569.24 398.73Q568.78 399.17 568.18 399.17Q567.58 399.17 567.12 398.73Q566.66 398.29 566.66 397.61Q566.66 390.23 569.34 385.46Q570.16 384.07 571.99 381.74Q573.86 379.37 574.46 378.49Q575.30 377.13 575.62 376.45L575.69 376.22L563.81 376.22Q563.17 376.22 562.68 375.78ZM586.68 392.84Q586.22 392.40 586.22 391.76L586.22 390.30Q586.22 390.03 586.40 389.66L593.91 373.98Q594.05 373.61 594.44 373.37Q594.83 373.10 595.25 373.10Q595.88 373.10 596.34 373.58Q596.80 374.02 596.80 374.63Q596.80 374.97 596.62 375.27L589.57 390.23L596.45 390.23L596.45 386.14Q596.45 385.53 596.91 385.09Q597.36 384.61 597.96 384.61Q598.56 384.61 599.02 385.09Q599.52 385.53 599.52 386.14L599.52 390.23L601.56 390.23Q602.23 390.23 602.69 390.71Q603.15 391.15 603.15 391.76Q603.15 392.37 602.65 392.84Q602.20 393.28 601.56 393.28L599.52 393.28L599.52 397.65Q599.52 398.26 599.02 398.70Q598.56 399.17 597.96 399.17Q597.36 399.17 596.91 398.73Q596.45 398.26 596.45 397.65L596.45 393.28L587.81 393.28Q587.17 393.28 586.68 392.84ZM611.60 398.83Q611.14 398.39 611.14 397.75Q611.14 397.07 611.60 396.63Q612.09 396.19 612.73 396.19Q619.85 396.19 621.93 392.37Q622.56 391.21 622.56 390.16Q622.56 387.69 621.36 386.44Q619.78 384.65 615.79 384.65Q614.70 384.65 613.57 384.75L613.43 384.75Q612.80 384.75 612.30 384.34Q611.84 383.90 611.84 383.29L611.84 383.19L612.34 374.56Q612.41 373.95 612.83 373.54Q613.29 373.14 613.92 373.14L623.94 373.14Q624.61 373.14 625.07 373.61Q625.53 374.05 625.53 374.66Q625.53 375.27 625.03 375.74Q624.57 376.22 623.94 376.22L615.41 376.22L615.12 381.53L615.79 381.53Q620.27 381.53 622.99 383.73Q625.74 385.90 625.74 390.16Q625.74 391.96 624.93 393.52Q624.08 395.11 622.81 396.22Q619.42 399.27 612.73 399.27Q612.09 399.27 611.60 398.83M613.54 384.75Q613.54 384.75 613.57 384.75Q613.57 384.75 613.54 384.75Z" fill="#000000" />
</svg>
