<svg viewBox="0 0 759 431" xmlns="http://www.w3.org/2000/svg">
<rect width="100%" height="100%" fill="#FFFFFF" />
<path stroke="#000000" stroke-width="6" d="M33 371L33 30M66 371L66 30M123 371L123 30M150 371L150 30M174 371L174 30M222 371L222 30M384 371L384 30M405 371L405 30M504 371L504 30M552 371L552 30M600 371L600 30M639 371L639 30M660 371L660 30M669 371L669 30M681 371L681 30M693 371L693 30M726 371L726 30" />
<path stroke="#000000" stroke-width="3" d="M40.50 371L40.50 30M49.50 371L49.50 30M79.50 371L79.50 30M91.50 371L91.50 30M97.50 371L97.50 30M142.50 371L142.50 30M163.50 371L163.50 30M196.50 371L196.50 30M229.50 371L229.50 30M289.50 371L289.50 30M295.50 371L295.50 30M301.50 371L301.50 30M328.50 371L328.50 30M352.50 371L352.50 30M361.50 371L361.50 30M367.50 371L367.50 30M394.50 371L394.50 30M412.50 371L412.50 30M427.50 371L427.50 30M439.50 371L439.50 30M460.50 371L460.50 30M493.50 371L493.50 30M526.50 371L526.50 30M559.50 371L559.50 30M592.50 371L592.50 30M625.50 371L625.50 30M649.50 371L649.50 30M718.50 371L718.50 30" />
<path stroke="#000000" stroke-width="9" d="M106.50 371L106.50 30M133.50 371L133.50 30M184.50 371L184.50 30M208.50 371L208.50 30M238.50 371L238.50 30M280.50 371L280.50 30M484.50 371L484.50 30M514.50 371L514.50 30M538.50 371L538.50 30M568.50 371L568.50 30M610.50 371L610.50 30M709.50 371L709.50 30" />
<path stroke="#000000" stroke-width="12" d="M252 371L252 30M267 371L267 30M318 371L318 30M339 371L339 30M450 371L450 30M471 371L471 30M582 371L582 30" />
<path d="M107.73 398.29Q107.23 397.78 107.23 397.10Q107.23 396.39 107.69 395.89Q108.15 395.41 108.82 395.41L112.20 395.41L112.20 376.59L109.52 376.59Q108.89 376.59 108.43 376.08Q107.94 375.57 107.94 374.90Q107.94 374.22 108.40 373.71Q108.85 373.20 109.52 373.20L117.85 373.20Q118.52 373.20 118.97 373.71Q119.43 374.22 119.43 374.90Q119.43 375.57 118.94 376.08Q118.48 376.59 117.85 376.59L115.17 376.59L115.17 395.41L118.55 395.41Q119.22 395.41 119.68 395.89Q120.14 396.39 120.14 397.10Q120.14 397.78 119.64 398.29Q119.19 398.80 118.55 398.80L108.82 398.80Q108.18 398.80 107.73 398.29ZM130.21 398.86Q129.72 398.36 129.72 397.65L129.72 374.46Q129.72 373.75 130.17 373.27Q130.67 372.76 131.30 372.76L132.61 372.76Q133.03 372.76 133.42 373.04Q133.84 373.27 134.02 373.71L142.48 392.91L142.48 374.39Q142.48 373.71 142.94 373.24Q143.43 372.73 144.07 372.73Q144.70 372.73 145.16 373.24Q145.65 373.71 145.65 374.42L145.65 397.61Q145.65 398.32 145.16 398.83Q144.70 399.34 144.07 399.34L142.73 399.34Q141.74 399.34 141.32 398.42L132.89 379.23L132.89 397.68Q132.89 398.36 132.40 398.86Q131.94 399.37 131.30 399.37Q130.67 399.37 130.21 398.86ZM159.00 398.15L153.19 374.46Q153.19 373.78 153.68 373.31Q154.17 372.80 154.81 372.80Q155.34 372.80 155.76 373.17Q156.22 373.51 156.32 373.98L161.68 395.65L167.01 373.98Q167.22 373.48 167.61 373.14Q168.03 372.80 168.56 372.80Q169.20 372.80 169.69 373.31Q170.18 373.81 170.18 374.46L164.29 398.15Q164.19 398.66 163.76 399.03Q163.34 399.37 162.85 399.37L160.52 399.37Q160.03 399.37 159.57 399Q159.11 398.63 159.00 398.15ZM177.40 386.61L177.40 385.66Q177.40 385.02 177.86 384.58Q178.31 384.14 178.98 384.14L193.09 384.14Q193.76 384.14 194.22 384.61Q194.68 385.05 194.68 385.66L194.68 386.61Q194.68 387.22 194.22 387.69Q193.76 388.13 193.09 388.13L178.98 388.13Q178.31 388.13 177.86 387.69Q177.40 387.25 177.40 386.61ZM203.77 380.92Q203.31 380.45 203.31 379.84Q203.31 379.13 203.77 378.79L210.23 373.48Q210.68 373.10 211.25 373.10L212.38 373.10Q213.01 373.10 213.47 373.58Q213.96 374.02 213.96 374.63L213.96 397.65Q213.96 398.26 213.47 398.73Q213.01 399.17 212.38 399.17Q211.74 399.17 211.25 398.73Q210.79 398.29 210.79 397.65L210.79 377.03L205.96 380.99Q205.50 381.36 204.90 381.36Q204.23 381.36 203.77 380.92ZM227.68 375.78Q227.22 375.30 227.22 374.66Q227.22 374.02 227.68 373.58Q228.14 373.14 228.81 373.14L242.56 373.14Q243.23 373.14 243.69 373.61Q244.15 374.05 244.15 374.66Q244.15 377.23 242.07 380.25Q241.43 381.19 239.60 383.39Q237.76 385.63 236.99 387.02Q234.70 391.08 234.70 397.61Q234.70 398.26 234.24 398.73Q233.78 399.17 233.18 399.17Q232.58 399.17 232.12 398.73Q231.66 398.29 231.66 397.61Q231.66 390.23 234.34 385.46Q235.16 384.07 236.99 381.74Q238.86 379.37 239.46 378.49Q240.30 377.13 240.62 376.45L240.69 376.22L228.81 376.22Q228.17 376.22 227.68 375.78ZM251.68 375.78Q251.22 375.30 251.22 374.66Q251.22 374.02 251.68 373.58Q252.14 373.14 252.81 373.14L266.56 373.14Q267.23 373.14 267.69 373.61Q268.15 374.05 268.15 374.66Q268.15 377.23 266.07 380.25Q265.43 381.19 263.60 383.39Q261.76 385.63 260.99 387.02Q258.70 391.08 258.70 397.61Q258.70 398.26 258.24 398.73Q257.78 399.17 257.18 399.17Q256.58 399.17 256.12 398.73Q255.66 398.29 255.66 397.61Q255.66 390.23 258.34 385.46Q259.16 384.07 260.99 381.74Q262.86 379.37 263.46 378.49Q264.30 377.13 264.62 376.45L264.69 376.22L252.81 376.22Q252.17 376.22 251.68 375.78ZM279.95 377.71Q278.40 379.33 278.40 381.60Q278.40 383.80 279.88 385.19Q281.29 386.54 283.68 386.54Q287.88 386.54 288.62 384.07Q288.97 382.95 288.97 381.60Q288.97 379.06 287.49 377.57Q286.05 376.05 283.68 376.05Q281.46 376.05 279.95 377.71M277.62 387.29Q275.22 385.02 275.22 381.60Q275.22 378.08 277.76 375.54Q280.23 373.00 283.68 373.00Q287.25 373.00 289.68 375.37Q292.15 377.74 292.15 381.60Q292.15 384.00 291.41 385.93Q290.67 387.86 289.33 390.10Q286.40 395.01 282.17 398.76Q281.71 399.17 281.18 399.17Q280.58 399.17 280.12 398.73Q279.66 398.29 279.66 397.65Q279.66 397.00 280.16 396.53Q283.51 393.45 285.91 389.72L286.08 389.39L285.73 389.45Q284.81 389.59 283.68 389.59Q279.95 389.59 277.62 387.29ZM299.96 397.98Q299.22 397.44 299.22 396.63Q299.22 395.99 299.68 395.55Q300.17 395.07 300.81 395.07Q301.02 395.07 301.41 395.21Q303.66 396.19 306.13 396.19Q308.81 396.19 310.65 394.90Q312.52 393.58 312.66 391.08L312.66 390.74Q312.66 389.01 311.53 387.80Q310.47 386.61 308.92 386.10Q307.40 385.63 305.53 385.63Q304.93 385.63 304.48 385.19Q304.02 384.71 304.02 384.07Q304.02 383.46 304.33 383.12L310.82 376.22L300.91 376.22Q300.28 376.22 299.79 375.78Q299.33 375.30 299.33 374.66Q299.33 374.02 299.79 373.58Q300.24 373.14 300.91 373.14L313.36 373.14Q314.00 373.14 314.45 373.61Q314.95 374.05 314.95 374.66L314.95 375.88Q314.95 376.42 314.45 376.89L308.78 382.89L309.06 382.95Q312.06 383.70 313.96 385.70Q315.83 387.69 315.83 390.71L315.83 391.25Q315.65 394.94 312.83 397.10Q310.08 399.27 306.13 399.27Q305.15 399.27 304.16 399.17Q303.17 399.07 301.94 398.83Q300.70 398.56 299.96 397.98ZM328.93 376.73Q327.59 377.40 327.59 378.69Q327.59 379.54 327.91 380.18Q328.23 380.82 328.97 381.36Q329.67 381.87 330.13 382.14Q330.63 382.41 331.61 382.89L331.68 382.89L331.75 382.89Q332.74 382.45 333.24 382.18Q333.73 381.90 334.43 381.40Q335.14 380.86 335.46 380.21Q335.77 379.54 335.77 378.69Q335.77 377.40 334.43 376.73Q333.13 376.05 331.68 376.05Q330.24 376.05 328.93 376.73M331.68 386.37Q326.36 389.05 326.36 392.23Q326.36 394.13 327.95 395.17Q329.43 396.22 331.68 396.22L332.39 396.22Q334.26 396.22 335.60 395.04Q336.97 393.85 336.97 392.23Q336.97 389.01 331.83 386.37L331.75 386.31L331.68 386.37M325.65 397.31Q323.22 395.34 323.22 392.23Q323.22 388.13 328.23 384.82L328.44 384.68L328.23 384.55Q324.42 382.31 324.42 378.69Q324.42 376.22 326.68 374.63Q328.90 373.00 331.68 373.00Q334.43 373.00 336.69 374.63Q338.95 376.25 338.95 378.69Q338.95 380.69 337.96 382.07Q336.94 383.43 335.14 384.55L334.93 384.68L335.14 384.82Q340.15 388.13 340.15 392.23Q340.15 394.90 338.10 396.97Q336.06 399.03 333.17 399.27L331.68 399.27Q328.05 399.27 325.65 397.31ZM347.96 397.98Q347.22 397.44 347.22 396.63Q347.22 395.99 347.68 395.55Q348.17 395.07 348.81 395.07Q349.02 395.07 349.41 395.21Q351.66 396.19 354.13 396.19Q356.81 396.19 358.65 394.90Q360.52 393.58 360.66 391.08L360.66 390.74Q360.66 389.01 359.53 387.80Q358.47 386.61 356.92 386.10Q355.40 385.63 353.53 385.63Q352.93 385.63 352.48 385.19Q352.02 384.71 352.02 384.07Q352.02 383.46 352.33 383.12L358.82 376.22L348.91 376.22Q348.28 376.22 347.79 375.78Q347.33 375.30 347.33 374.66Q347.33 374.02 347.79 373.58Q348.24 373.14 348.91 373.14L361.36 373.14Q362.00 373.14 362.45 373.61Q362.95 374.05 362.95 374.66L362.95 375.88Q362.95 376.42 362.45 376.89L356.78 382.89L357.06 382.95Q360.06 383.70 361.96 385.70Q363.83 387.69 363.83 390.71L363.83 391.25Q363.65 394.94 360.83 397.10Q358.08 399.27 354.13 399.27Q353.15 399.27 352.16 399.17Q351.17 399.07 349.94 398.83Q348.70 398.56 347.96 397.98ZM373.69 397.07Q371.33 394.87 371.22 391.25L371.22 390.84Q371.22 386.61 373.65 382.75Q374.64 381.16 376.05 379.40Q377.43 377.61 378.38 376.56Q379.33 375.47 381.09 373.54Q381.48 373.10 382.19 373.10Q382.79 373.10 383.25 373.58Q383.70 374.02 383.70 374.63Q383.70 375.20 383.32 375.68Q379.33 380.01 377.46 382.62L377.22 382.95L377.60 382.89Q378.63 382.68 379.68 382.68Q383.53 382.68 385.82 384.99Q388.15 387.32 388.15 391.25Q388.15 394.80 385.75 397.04Q383.35 399.27 379.68 399.27Q376.02 399.27 373.69 397.07M375.81 387.22Q374.40 388.68 374.40 391.25Q374.40 393.55 375.88 394.90Q377.32 396.22 379.68 396.22Q382.01 396.22 383.46 394.87Q384.97 393.52 384.97 391.25Q384.97 388.61 383.60 387.19Q382.26 385.73 379.68 385.73Q377.18 385.73 375.81 387.22ZM395.68 392.84Q395.22 392.40 395.22 391.76L395.22 390.30Q395.22 390.03 395.40 389.66L402.91 373.98Q403.05 373.61 403.44 373.37Q403.83 373.10 404.25 373.10Q404.88 373.10 405.34 373.58Q405.80 374.02 405.80 374.63Q405.80 374.97 405.62 375.27L398.57 390.23L405.45 390.23L405.45 386.14Q405.45 385.53 405.91 385.09Q406.36 384.61 406.96 384.61Q407.56 384.61 408.02 385.09Q408.52 385.53 408.52 386.14L408.52 390.23L410.56 390.23Q411.23 390.23 411.69 390.71Q412.15 391.15 412.15 391.76Q412.15 392.37 411.65 392.84Q411.20 393.28 410.56 393.28L408.52 393.28L408.52 397.65Q408.52 398.26 408.02 398.70Q407.56 399.17 406.96 399.17Q406.36 399.17 405.91 398.73Q405.45 398.26 405.45 397.65L405.45 393.28L396.81 393.28Q396.17 393.28 395.68 392.84ZM419.68 375.78Q419.22 375.30 419.22 374.66Q419.22 374.02 419.68 373.58Q420.14 373.14 420.81 373.14L434.56 373.14Q435.23 373.14 435.69 373.61Q436.15 374.05 436.15 374.66Q436.15 377.23 434.07 380.25Q433.43 381.19 431.60 383.39Q429.76 385.63 428.99 387.02Q426.70 391.08 426.70 397.61Q426.70 398.26 426.24 398.73Q425.78 399.17 425.18 399.17Q424.58 399.17 424.12 398.73Q423.66 398.29 423.66 397.61Q423.66 390.23 426.34 385.46Q427.16 384.07 428.99 381.74Q430.86 379.37 431.46 378.49Q432.30 377.13 432.62 376.45L432.69 376.22L420.81 376.22Q420.17 376.22 419.68 375.78ZM444.77 380.92Q444.31 380.45 444.31 379.84Q444.31 379.13 444.77 378.79L451.23 373.48Q451.68 373.10 452.25 373.10L453.38 373.10Q454.01 373.10 454.47 373.58Q454.96 374.02 454.96 374.63L454.96 397.65Q454.96 398.26 454.47 398.73Q454.01 399.17 453.38 399.17Q452.74 399.17 452.25 398.73Q451.79 398.29 451.79 397.65L451.79 377.03L446.96 380.99Q446.50 381.36 445.90 381.36Q445.23 381.36 444.77 380.92ZM472.95 377.71Q471.40 379.33 471.40 381.60Q471.40 383.80 472.88 385.19Q474.29 386.54 476.68 386.54Q480.88 386.54 481.62 384.07Q481.97 382.95 481.97 381.60Q481.97 379.06 480.49 377.57Q479.05 376.05 476.68 376.05Q474.46 376.05 472.95 377.71M470.62 387.29Q468.22 385.02 468.22 381.60Q468.22 378.08 470.76 375.54Q473.23 373.00 476.68 373.00Q480.25 373.00 482.68 375.37Q485.15 377.74 485.15 381.60Q485.15 384.00 484.41 385.93Q483.67 387.86 482.33 390.10Q479.40 395.01 475.17 398.76Q474.71 399.17 474.18 399.17Q473.58 399.17 473.12 398.73Q472.66 398.29 472.66 397.65Q472.66 397.00 473.16 396.53Q476.51 393.45 478.91 389.72L479.08 389.39L478.73 389.45Q477.81 389.59 476.68 389.59Q472.95 389.59 470.62 387.29ZM492.68 392.84Q492.22 392.40 492.22 391.76L492.22 390.30Q492.22 390.03 492.40 389.66L499.91 373.98Q500.05 373.61 500.44 373.37Q500.83 373.10 501.25 373.10Q501.88 373.10 502.34 373.58Q502.80 374.02 502.80 374.63Q502.80 374.97 502.62 375.27L495.57 390.23L502.45 390.23L502.45 386.14Q502.45 385.53 502.91 385.09Q503.36 384.61 503.96 384.61Q504.56 384.61 505.02 385.09Q505.52 385.53 505.52 386.14L505.52 390.23L507.56 390.23Q508.23 390.23 508.69 390.71Q509.15 391.15 509.15 391.76Q509.15 392.37 508.65 392.84Q508.20 393.28 507.56 393.28L505.52 393.28L505.52 397.65Q505.52 398.26 505.02 398.70Q504.56 399.17 503.96 399.17Q503.36 399.17 502.91 398.73Q502.45 398.26 502.45 397.65L502.45 393.28L493.81 393.28Q493.17 393.28 492.68 392.84ZM516.40 386.61L516.40 385.66Q516.40 385.02 516.86 384.58Q517.31 384.14 517.98 384.14L532.09 384.14Q532.76 384.14 533.22 384.61Q533.68 385.05 533.68 385.66L533.68 386.61Q533.68 387.22 533.22 387.69Q532.76 388.13 532.09 388.13L517.98 388.13Q517.31 388.13 516.86 387.69Q516.40 387.25 516.40 386.61ZM542.77 380.92Q542.31 380.45 542.31 379.84Q542.31 379.13 542.77 378.79L549.23 373.48Q549.68 373.10 550.25 373.10L551.38 373.10Q552.01 373.10 552.47 373.58Q552.96 374.02 552.96 374.63L552.96 397.65Q552.96 398.26 552.47 398.73Q552.01 399.17 551.38 399.17Q550.74 399.17 550.25 398.73Q549.79 398.29 549.79 397.65L549.79 377.03L544.96 380.99Q544.50 381.36 543.90 381.36Q543.23 381.36 542.77 380.92ZM566.68 392.84Q566.22 392.40 566.22 391.76L566.22 390.30Q566.22 390.03 566.40 389.66L573.91 373.98Q574.05 373.61 574.44 373.37Q574.83 373.10 575.25 373.10Q575.88 373.10 576.34 373.58Q576.80 374.02 576.80 374.63Q576.80 374.97 576.62 375.27L569.57 390.23L576.45 390.23L576.45 386.14Q576.45 385.53 576.91 385.09Q577.36 384.61 577.96 384.61Q578.56 384.61 579.02 385.09Q579.52 385.53 579.52 386.14L579.52 390.23L581.56 390.23Q582.23 390.23 582.69 390.71Q583.15 391.15 583.15 391.76Q583.15 392.37 582.65 392.84Q582.20 393.28 581.56 393.28L579.52 393.28L579.52 397.65Q579.52 398.26 579.02 398.70Q578.56 399.17 577.96 399.17Q577.36 399.17 576.91 398.73Q576.45 398.26 576.45 397.65L576.45 393.28L567.81 393.28Q567.17 393.28 566.68 392.84ZM591.28 377.37Q590.82 376.89 590.82 376.32Q590.82 375.47 591.49 375.03Q594.70 373.00 598.68 373.00Q601.89 373.00 604.04 374.97Q606.23 376.89 606.23 380.04Q606.23 381.30 605.77 382.45Q605.31 383.63 604.71 384.38Q604.15 385.12 603.02 386.03Q601.89 386.95 601.29 387.36Q600.73 387.76 599.50 388.54Q598.16 389.39 597.56 389.83Q596.96 390.27 596.11 391.15Q595.26 391.99 594.88 393.08Q594.49 394.13 594.42 395.58L594.42 395.75L604.86 395.75Q605.53 395.75 605.98 396.22Q606.44 396.66 606.44 397.27Q606.44 397.88 605.95 398.36Q605.49 398.80 604.86 398.80L592.80 398.80Q592.16 398.80 591.67 398.36Q591.21 397.88 591.21 397.27L591.21 396.56Q591.21 393.92 591.56 392.77Q592.16 390.74 593.82 389.15Q595.48 387.52 597.87 385.97Q601.19 383.83 602.07 382.62Q603.06 381.40 603.06 380.04Q603.06 378.25 601.75 377.13Q600.52 376.05 598.68 376.05Q595.51 376.05 593.32 377.54Q592.94 377.81 592.41 377.81Q591.77 377.81 591.28 377.37ZM622.83 399.27L622.68 399.27Q620.60 399.24 619.05 398.59Q617.50 397.98 616.58 397.00Q615.67 395.99 615.14 394.40Q614.57 392.81 614.40 391.18Q614.22 389.59 614.22 387.42Q614.22 385.49 614.26 384.14Q614.33 382.75 614.54 381.16Q614.75 379.54 615.10 378.45Q615.49 377.33 616.13 376.22Q616.76 375.13 617.64 374.49Q618.52 373.85 619.79 373.44Q621.06 373.04 622.68 373.04Q624.27 373.04 625.54 373.44Q626.81 373.85 627.69 374.49Q628.57 375.13 629.24 376.22Q629.88 377.33 630.23 378.45Q630.62 379.57 630.83 381.16Q631.04 382.75 631.08 384.14Q631.15 385.53 631.15 387.42Q631.15 388.78 631.08 389.89Q631.01 390.98 630.76 392.26Q630.55 393.55 630.20 394.53Q629.84 395.48 629.17 396.39Q628.50 397.31 627.66 397.92Q626.81 398.53 625.58 398.90Q624.34 399.27 622.83 399.27M617.40 384.65L617.40 387.42Q617.40 388.95 617.47 390.03Q617.57 391.11 617.89 392.37Q618.17 393.62 618.74 394.40Q619.30 395.21 620.29 395.75Q621.27 396.26 622.68 396.26L623.42 396.26Q624.41 396.26 625.19 395.89Q625.96 395.48 626.42 394.73Q626.92 394.02 627.23 393.21Q627.55 392.37 627.69 391.32Q627.87 390.23 627.90 389.35Q627.97 388.47 627.97 387.42L627.97 385.87Q627.97 384.82 627.94 384.21Q627.94 383.56 627.90 382.62Q627.87 381.63 627.76 381.09Q627.66 380.52 627.48 379.74Q627.30 378.96 627.02 378.49Q626.74 378.01 626.35 377.50Q625.93 377.00 625.43 376.73Q624.91 376.42 624.20 376.25Q623.53 376.08 622.68 376.08Q621.80 376.08 621.10 376.29Q620.43 376.45 619.90 376.79Q619.37 377.13 618.95 377.64Q618.56 378.11 618.28 378.72Q617.99 379.30 617.82 380.01Q617.64 380.69 617.57 381.46Q617.50 382.21 617.43 383.02Q617.40 383.80 617.40 384.65ZM643.93 376.73Q642.59 377.40 642.59 378.69Q642.59 379.54 642.91 380.18Q643.23 380.82 643.97 381.36Q644.67 381.87 645.13 382.14Q645.63 382.41 646.61 382.89L646.68 382.89L646.75 382.89Q647.74 382.45 648.24 382.18Q648.73 381.90 649.43 381.40Q650.14 380.86 650.46 380.21Q650.77 379.54 650.77 378.69Q650.77 377.40 649.43 376.73Q648.13 376.05 646.68 376.05Q645.24 376.05 643.93 376.73M646.68 386.37Q641.36 389.05 641.36 392.23Q641.36 394.13 642.95 395.17Q644.43 396.22 646.68 396.22L647.39 396.22Q649.26 396.22 650.60 395.04Q651.97 393.85 651.97 392.23Q651.97 389.01 646.83 386.37L646.75 386.31L646.68 386.37M640.65 397.31Q638.22 395.34 638.22 392.23Q638.22 388.13 643.23 384.82L643.44 384.68L643.23 384.55Q639.42 382.31 639.42 378.69Q639.42 376.22 641.68 374.63Q643.90 373.00 646.68 373.00Q649.43 373.00 651.69 374.63Q653.95 376.25 653.95 378.69Q653.95 380.69 652.96 382.07Q651.94 383.43 650.14 384.55L649.93 384.68L650.14 384.82Q655.15 388.13 655.15 392.23Q655.15 394.90 653.10 396.97Q651.06 399.03 648.17 399.27L646.68 399.27Q643.05 399.27 640.65 397.31Z" fill="#000000" />
</svg>
