<svg viewBox="0 0 726 431" xmlns="http://www.w3.org/2000/svg">
<rect width="100%" height="100%" fill="#FFFFFF" />
<path stroke="#000000" stroke-width="6" d="M33 371L33 30M66 371L66 30M123 371L123 30M150 371L150 30M174 371L174 30M222 371L222 30M387 371L387 30M417 371L417 30M504 371L504 30M549 371L549 30M561 371L561 30M606 371L606 30M627 371L627 30M660 371L660 30M693 371L693 30" />
<path stroke="#000000" stroke-width="3" d="M40.50 371L40.50 30M49.50 371L49.50 30M79.50 371L79.50 30M91.50 371L91.50 30M97.50 371L97.50 30M142.50 371L142.50 30M163.50 371L163.50 30M196.50 371L196.50 30M229.50 371L229.50 30M289.50 371L289.50 30M295.50 371L295.50 30M301.50 371L301.50 30M328.50 371L328.50 30M355.50 371L355.50 30M361.50 371L361.50 30M394.50 371L394.50 30M403.50 371L403.50 30M448.50 371L448.50 30M454.50 371L454.50 30M460.50 371L460.50 30M493.50 371L493.50 30M538.50 371L538.50 30M586.50 371L586.50 30M637.50 371L637.50 30M652.50 371L652.50 30M685.50 371L685.50 30" />
<path stroke="#000000" stroke-width="9" d="M106.50 371L106.50 30M133.50 371L133.50 30M184.50 371L184.50 30M208.50 371L208.50 30M238.50 371L238.50 30M280.50 371L280.50 30M373.50 371L373.50 30M484.50 371L484.50 30M514.50 371L514.50 30M529.50 371L529.50 30M574.50 371L574.50 30M595.50 371L595.50 30M616.50 371L616.50 30M676.50 371L676.50 30" />
<path stroke="#000000" stroke-width="12" d="M252 371L252 30M267 371L267 30M318 371L318 30M339 371L339 30M432 371L432 30M471 371L471 30" />
<path d="M115.73 398.29Q115.23 397.78 115.23 397.10Q115.23 396.39 115.69 395.89Q116.15 395.41 116.82 395.41L120.20 395.41L120.20 376.59L117.52 376.59Q116.89 376.59 116.43 376.08Q115.94 375.57 115.94 374.90Q115.94 374.22 116.40 373.71Q116.85 373.20 117.52 373.20L125.85 373.20Q126.52 373.20 126.97 373.71Q127.43 374.22 127.43 374.90Q127.43 375.57 126.94 376.08Q126.48 376.59 125.85 376.59L123.17 376.59L123.17 395.41L126.55 395.41Q127.22 395.41 127.68 395.89Q128.14 396.39 128.14 397.10Q128.14 397.78 127.64 398.29Q127.19 398.80 126.55 398.80L116.82 398.80Q116.18 398.80 115.73 398.29ZM138.21 398.86Q137.72 398.36 137.72 397.65L137.72 374.46Q137.72 373.75 138.17 373.27Q138.67 372.76 139.30 372.76L140.61 372.76Q141.03 372.76 141.42 373.04Q141.84 373.27 142.02 373.71L150.48 392.91L150.48 374.39Q150.48 373.71 150.94 373.24Q151.43 372.73 152.07 372.73Q152.70 372.73 153.16 373.24Q153.65 373.71 153.65 374.42L153.65 397.61Q153.65 398.32 153.16 398.83Q152.70 399.34 152.07 399.34L150.73 399.34Q149.74 399.34 149.32 398.42L140.89 379.23L140.89 397.68Q140.89 398.36 140.40 398.86Q139.94 399.37 139.30 399.37Q138.67 399.37 138.21 398.86ZM167.00 398.15L161.19 374.46Q161.19 373.78 161.68 373.31Q162.17 372.80 162.81 372.80Q163.34 372.80 163.76 373.17Q164.22 373.51 164.32 373.98L169.68 395.65L175.01 373.98Q175.22 373.48 175.61 373.14Q176.03 372.80 176.56 372.80Q177.20 372.80 177.69 373.31Q178.18 373.81 178.18 374.46L172.29 398.15Q172.19 398.66 171.76 399.03Q171.34 399.37 170.85 399.37L168.52 399.37Q168.03 399.37 167.57 399Q167.11 398.63 167.00 398.15ZM185.40 386.61L185.40 385.66Q185.40 385.02 185.86 384.58Q186.31 384.14 186.98 384.14L201.09 384.14Q201.76 384.14 202.22 384.61Q202.68 385.05 202.68 385.66L202.68 386.61Q202.68 387.22 202.22 387.69Q201.76 388.13 201.09 388.13L186.98 388.13Q186.31 388.13 185.86 387.69Q185.40 387.25 185.40 386.61ZM211.77 380.92Q211.31 380.45 211.31 379.84Q211.31 379.13 211.77 378.79L218.23 373.48Q218.68 373.10 219.25 373.10L220.38 373.10Q221.01 373.10 221.47 373.58Q221.96 374.02 221.96 374.63L221.96 397.65Q221.96 398.26 221.47 398.73Q221.01 399.17 220.38 399.17Q219.74 399.17 219.25 398.73Q218.79 398.29 218.79 397.65L218.79 377.03L213.96 380.99Q213.50 381.36 212.90 381.36Q212.23 381.36 211.77 380.92ZM235.68 375.78Q235.22 375.30 235.22 374.66Q235.22 374.02 235.68 373.58Q236.14 373.14 236.81 373.14L250.56 373.14Q251.23 373.14 251.69 373.61Q252.15 374.05 252.15 374.66Q252.15 377.23 250.07 380.25Q249.43 381.19 247.60 383.39Q245.76 385.63 244.99 387.02Q242.70 391.08 242.70 397.61Q242.70 398.26 242.24 398.73Q241.78 399.17 241.18 399.17Q240.58 399.17 240.12 398.73Q239.66 398.29 239.66 397.61Q239.66 390.23 242.34 385.46Q243.16 384.07 244.99 381.74Q246.86 379.37 247.46 378.49Q248.30 377.13 248.62 376.45L248.69 376.22L236.81 376.22Q236.17 376.22 235.68 375.78ZM259.68 375.78Q259.22 375.30 259.22 374.66Q259.22 374.02 259.68 373.58Q260.14 373.14 260.81 373.14L274.56 373.14Q275.23 373.14 275.69 373.61Q276.15 374.05 276.15 374.66Q276.15 377.23 274.07 380.25Q273.43 381.19 271.60 383.39Q269.76 385.63 268.99 387.02Q266.70 391.08 266.70 397.61Q266.70 398.26 266.24 398.73Q265.78 399.17 265.18 399.17Q264.58 399.17 264.12 398.73Q263.66 398.29 263.66 397.61Q263.66 390.23 266.34 385.46Q267.16 384.07 268.99 381.74Q270.86 379.37 271.46 378.49Q272.30 377.13 272.62 376.45L272.69 376.22L260.81 376.22Q260.17 376.22 259.68 375.78ZM287.95 377.71Q286.40 379.33 286.40 381.60Q286.40 383.80 287.88 385.19Q289.29 386.54 291.68 386.54Q295.88 386.54 296.62 384.07Q296.97 382.95 296.97 381.60Q296.97 379.06 295.49 377.57Q294.05 376.05 291.68 376.05Q289.46 376.05 287.95 377.71M285.62 387.29Q283.22 385.02 283.22 381.60Q283.22 378.08 285.76 375.54Q288.23 373.00 291.68 373.00Q295.25 373.00 297.68 375.37Q300.15 377.74 300.15 381.60Q300.15 384.00 299.41 385.93Q298.67 387.86 297.33 390.10Q294.40 395.01 290.17 398.76Q289.71 399.17 289.18 399.17Q288.58 399.17 288.12 398.73Q287.66 398.29 287.66 397.65Q287.66 397.00 288.16 396.53Q291.51 393.45 293.91 389.72L294.08 389.39L293.73 389.45Q292.81 389.59 291.68 389.59Q287.95 389.59 285.62 387.29ZM307.96 397.98Q307.22 397.44 307.22 396.63Q307.22 395.99 307.68 395.55Q308.17 395.07 308.81 395.07Q309.02 395.07 309.41 395.21Q311.66 396.19 314.13 396.19Q316.81 396.19 318.65 394.90Q320.52 393.58 320.66 391.08L320.66 390.74Q320.66 389.01 319.53 387.80Q318.47 386.61 316.92 386.10Q315.40 385.63 313.53 385.63Q312.93 385.63 312.48 385.19Q312.02 384.71 312.02 384.07Q312.02 383.46 312.33 383.12L318.82 376.22L308.91 376.22Q308.28 376.22 307.79 375.78Q307.33 375.30 307.33 374.66Q307.33 374.02 307.79 373.58Q308.24 373.14 308.91 373.14L321.36 373.14Q322.00 373.14 322.45 373.61Q322.95 374.05 322.95 374.66L322.95 375.88Q322.95 376.42 322.45 376.89L316.78 382.89L317.06 382.95Q320.06 383.70 321.96 385.70Q323.83 387.69 323.83 390.71L323.83 391.25Q323.65 394.94 320.83 397.10Q318.08 399.27 314.13 399.27Q313.15 399.27 312.16 399.17Q311.17 399.07 309.94 398.83Q308.70 398.56 307.96 397.98ZM335.95 377.71Q334.40 379.33 334.40 381.60Q334.40 383.80 335.88 385.19Q337.29 386.54 339.68 386.54Q343.88 386.54 344.62 384.07Q344.97 382.95 344.97 381.60Q344.97 379.06 343.49 377.57Q342.05 376.05 339.68 376.05Q337.46 376.05 335.95 377.71M333.62 387.29Q331.22 385.02 331.22 381.60Q331.22 378.08 333.76 375.54Q336.23 373.00 339.68 373.00Q343.25 373.00 345.68 375.37Q348.15 377.74 348.15 381.60Q348.15 384.00 347.41 385.93Q346.67 387.86 345.33 390.10Q342.40 395.01 338.17 398.76Q337.71 399.17 337.18 399.17Q336.58 399.17 336.12 398.73Q335.66 398.29 335.66 397.65Q335.66 397.00 336.16 396.53Q339.51 393.45 341.91 389.72L342.08 389.39L341.73 389.45Q340.81 389.59 339.68 389.59Q335.95 389.59 333.62 387.29ZM357.69 397.07Q355.33 394.87 355.22 391.25L355.22 390.84Q355.22 386.61 357.65 382.75Q358.64 381.16 360.05 379.40Q361.43 377.61 362.38 376.56Q363.33 375.47 365.09 373.54Q365.48 373.10 366.19 373.10Q366.79 373.10 367.25 373.58Q367.70 374.02 367.70 374.63Q367.70 375.20 367.32 375.68Q363.33 380.01 361.46 382.62L361.22 382.95L361.60 382.89Q362.63 382.68 363.68 382.68Q367.53 382.68 369.82 384.99Q372.15 387.32 372.15 391.25Q372.15 394.80 369.75 397.04Q367.35 399.27 363.68 399.27Q360.02 399.27 357.69 397.07M359.81 387.22Q358.40 388.68 358.40 391.25Q358.40 393.55 359.88 394.90Q361.32 396.22 363.68 396.22Q366.01 396.22 367.46 394.87Q368.97 393.52 368.97 391.25Q368.97 388.61 367.60 387.19Q366.26 385.73 363.68 385.73Q361.18 385.73 359.81 387.22ZM380.77 380.92Q380.31 380.45 380.31 379.84Q380.31 379.13 380.77 378.79L387.23 373.48Q387.68 373.10 388.25 373.10L389.38 373.10Q390.01 373.10 390.47 373.58Q390.96 374.02 390.96 374.63L390.96 397.65Q390.96 398.26 390.47 398.73Q390.01 399.17 389.38 399.17Q388.74 399.17 388.25 398.73Q387.79 398.29 387.79 397.65L387.79 377.03L382.96 380.99Q382.50 381.36 381.90 381.36Q381.23 381.36 380.77 380.92ZM404.68 375.78Q404.22 375.30 404.22 374.66Q404.22 374.02 404.68 373.58Q405.14 373.14 405.81 373.14L419.56 373.14Q420.23 373.14 420.69 373.61Q421.15 374.05 421.15 374.66Q421.15 377.23 419.07 380.25Q418.43 381.19 416.60 383.39Q414.76 385.63 413.99 387.02Q411.70 391.08 411.70 397.61Q411.70 398.26 411.24 398.73Q410.78 399.17 410.18 399.17Q409.58 399.17 409.12 398.73Q408.66 398.29 408.66 397.61Q408.66 390.23 411.34 385.46Q412.16 384.07 413.99 381.74Q415.86 379.37 416.46 378.49Q417.30 377.13 417.62 376.45L417.69 376.22L405.81 376.22Q405.17 376.22 404.68 375.78ZM436.83 399.27L436.68 399.27Q434.60 399.24 433.05 398.59Q431.50 397.98 430.58 397.00Q429.67 395.99 429.14 394.40Q428.57 392.81 428.40 391.18Q428.22 389.59 428.22 387.42Q428.22 385.49 428.26 384.14Q428.33 382.75 428.54 381.16Q428.75 379.54 429.10 378.45Q429.49 377.33 430.13 376.22Q430.76 375.13 431.64 374.49Q432.52 373.85 433.79 373.44Q435.06 373.04 436.68 373.04Q438.27 373.04 439.54 373.44Q440.81 373.85 441.69 374.49Q442.57 375.13 443.24 376.22Q443.88 377.33 444.23 378.45Q444.62 379.57 444.83 381.16Q445.04 382.75 445.08 384.14Q445.15 385.53 445.15 387.42Q445.15 388.78 445.08 389.89Q445.01 390.98 444.76 392.26Q444.55 393.55 444.20 394.53Q443.84 395.48 443.17 396.39Q442.50 397.31 441.66 397.92Q440.81 398.53 439.58 398.90Q438.34 399.27 436.83 399.27M431.40 384.65L431.40 387.42Q431.40 388.95 431.47 390.03Q431.57 391.11 431.89 392.37Q432.17 393.62 432.74 394.40Q433.30 395.21 434.29 395.75Q435.27 396.26 436.68 396.26L437.42 396.26Q438.41 396.26 439.19 395.89Q439.96 395.48 440.42 394.73Q440.92 394.02 441.23 393.21Q441.55 392.37 441.69 391.32Q441.87 390.23 441.90 389.35Q441.97 388.47 441.97 387.42L441.97 385.87Q441.97 384.82 441.94 384.21Q441.94 383.56 441.90 382.62Q441.87 381.63 441.76 381.09Q441.66 380.52 441.48 379.74Q441.30 378.96 441.02 378.49Q440.74 378.01 440.35 377.50Q439.93 377.00 439.43 376.73Q438.91 376.42 438.20 376.25Q437.53 376.08 436.68 376.08Q435.80 376.08 435.10 376.29Q434.43 376.45 433.90 376.79Q433.37 377.13 432.95 377.64Q432.56 378.11 432.28 378.72Q431.99 379.30 431.82 380.01Q431.64 380.69 431.57 381.46Q431.50 382.21 431.43 383.02Q431.40 383.80 431.40 384.65ZM452.68 392.84Q452.22 392.40 452.22 391.76L452.22 390.30Q452.22 390.03 452.40 389.66L459.91 373.98Q460.05 373.61 460.44 373.37Q460.83 373.10 461.25 373.10Q461.88 373.10 462.34 373.58Q462.80 374.02 462.80 374.63Q462.80 374.97 462.62 375.27L455.57 390.23L462.45 390.23L462.45 386.14Q462.45 385.53 462.91 385.09Q463.36 384.61 463.96 384.61Q464.56 384.61 465.02 385.09Q465.52 385.53 465.52 386.14L465.52 390.23L467.56 390.23Q468.23 390.23 468.69 390.71Q469.15 391.15 469.15 391.76Q469.15 392.37 468.65 392.84Q468.20 393.28 467.56 393.28L465.52 393.28L465.52 397.65Q465.52 398.26 465.02 398.70Q464.56 399.17 463.96 399.17Q463.36 399.17 462.91 398.73Q462.45 398.26 462.45 397.65L462.45 393.28L453.81 393.28Q453.17 393.28 452.68 392.84ZM478.69 397.07Q476.33 394.87 476.22 391.25L476.22 390.84Q476.22 386.61 478.65 382.75Q479.64 381.16 481.05 379.40Q482.43 377.61 483.38 376.56Q484.33 375.47 486.09 373.54Q486.48 373.10 487.19 373.10Q487.79 373.10 488.25 373.58Q488.70 374.02 488.70 374.63Q488.70 375.20 488.32 375.68Q484.33 380.01 482.46 382.62L482.22 382.95L482.60 382.89Q483.63 382.68 484.68 382.68Q488.53 382.68 490.82 384.99Q493.15 387.32 493.15 391.25Q493.15 394.80 490.75 397.04Q488.35 399.27 484.68 399.27Q481.02 399.27 478.69 397.07M480.81 387.22Q479.40 388.68 479.40 391.25Q479.40 393.55 480.88 394.90Q482.32 396.22 484.68 396.22Q487.01 396.22 488.46 394.87Q489.97 393.52 489.97 391.25Q489.97 388.61 488.60 387.19Q487.26 385.73 484.68 385.73Q482.18 385.73 480.81 387.22ZM501.28 377.37Q500.82 376.89 500.82 376.32Q500.82 375.47 501.49 375.03Q504.70 373.00 508.68 373.00Q511.89 373.00 514.04 374.97Q516.23 376.89 516.23 380.04Q516.23 381.30 515.77 382.45Q515.31 383.63 514.71 384.38Q514.15 385.12 513.02 386.03Q511.89 386.95 511.29 387.36Q510.73 387.76 509.50 388.54Q508.16 389.39 507.56 389.83Q506.96 390.27 506.11 391.15Q505.26 391.99 504.88 393.08Q504.49 394.13 504.42 395.58L504.42 395.75L514.86 395.75Q515.53 395.75 515.98 396.22Q516.44 396.66 516.44 397.27Q516.44 397.88 515.95 398.36Q515.49 398.80 514.86 398.80L502.80 398.80Q502.16 398.80 501.67 398.36Q501.21 397.88 501.21 397.27L501.21 396.56Q501.21 393.92 501.56 392.77Q502.16 390.74 503.82 389.15Q505.48 387.52 507.87 385.97Q511.19 383.83 512.07 382.62Q513.06 381.40 513.06 380.04Q513.06 378.25 511.75 377.13Q510.52 376.05 508.68 376.05Q505.51 376.05 503.32 377.54Q502.94 377.81 502.41 377.81Q501.77 377.81 501.28 377.37ZM524.40 386.61L524.40 385.66Q524.40 385.02 524.86 384.58Q525.31 384.14 525.98 384.14L540.09 384.14Q540.76 384.14 541.22 384.61Q541.68 385.05 541.68 385.66L541.68 386.61Q541.68 387.22 541.22 387.69Q540.76 388.13 540.09 388.13L525.98 388.13Q525.31 388.13 524.86 387.69Q524.40 387.25 524.40 386.61ZM554.93 376.73Q553.59 377.40 553.59 378.69Q553.59 379.54 553.91 380.18Q554.23 380.82 554.97 381.36Q555.67 381.87 556.13 382.14Q556.63 382.41 557.61 382.89L557.68 382.89L557.75 382.89Q558.74 382.45 559.24 382.18Q559.73 381.90 560.43 381.40Q561.14 380.86 561.46 380.21Q561.77 379.54 561.77 378.69Q561.77 377.40 560.43 376.73Q559.13 376.05 557.68 376.05Q556.24 376.05 554.93 376.73M557.68 386.37Q552.36 389.05 552.36 392.23Q552.36 394.13 553.95 395.17Q555.43 396.22 557.68 396.22L558.39 396.22Q560.26 396.22 561.60 395.04Q562.97 393.85 562.97 392.23Q562.97 389.01 557.83 386.37L557.75 386.31L557.68 386.37M551.65 397.31Q549.22 395.34 549.22 392.23Q549.22 388.13 554.23 384.82L554.44 384.68L554.23 384.55Q550.42 382.31 550.42 378.69Q550.42 376.22 552.68 374.63Q554.90 373.00 557.68 373.00Q560.43 373.00 562.69 374.63Q564.95 376.25 564.95 378.69Q564.95 380.69 563.96 382.07Q562.94 383.43 561.14 384.55L560.93 384.68L561.14 384.82Q566.15 388.13 566.15 392.23Q566.15 394.90 564.10 396.97Q562.06 399.03 559.17 399.27L557.68 399.27Q554.05 399.27 551.65 397.31ZM574.28 377.37Q573.82 376.89 573.82 376.32Q573.82 375.47 574.49 375.03Q577.70 373.00 581.68 373.00Q584.89 373.00 587.04 374.97Q589.23 376.89 589.23 380.04Q589.23 381.30 588.77 382.45Q588.31 383.63 587.71 384.38Q587.15 385.12 586.02 386.03Q584.89 386.95 584.29 387.36Q583.73 387.76 582.50 388.54Q581.16 389.39 580.56 389.83Q579.96 390.27 579.11 391.15Q578.26 391.99 577.88 393.08Q577.49 394.13 577.42 395.58L577.42 395.75L587.86 395.75Q588.53 395.75 588.98 396.22Q589.44 396.66 589.44 397.27Q589.44 397.88 588.95 398.36Q588.49 398.80 587.86 398.80L575.80 398.80Q575.16 398.80 574.67 398.36Q574.21 397.88 574.21 397.27L574.21 396.56Q574.21 393.92 574.56 392.77Q575.16 390.74 576.82 389.15Q578.48 387.52 580.87 385.97Q584.19 383.83 585.07 382.62Q586.06 381.40 586.06 380.04Q586.06 378.25 584.75 377.13Q583.52 376.05 581.68 376.05Q578.51 376.05 576.32 377.54Q575.94 377.81 575.41 377.81Q574.77 377.81 574.28 377.37ZM597.68 375.78Q597.22 375.30 597.22 374.66Q597.22 374.02 597.68 373.58Q598.14 373.14 598.81 373.14L612.56 373.14Q613.23 373.14 613.69 373.61Q614.15 374.05 614.15 374.66Q614.15 377.23 612.07 380.25Q611.43 381.19 609.60 383.39Q607.76 385.63 606.99 387.02Q604.70 391.08 604.70 397.61Q604.70 398.26 604.24 398.73Q603.78 399.17 603.18 399.17Q602.58 399.17 602.12 398.73Q601.66 398.29 601.66 397.61Q601.66 390.23 604.34 385.46Q605.16 384.07 606.99 381.74Q608.86 379.37 609.46 378.49Q610.30 377.13 610.62 376.45L610.69 376.22L598.81 376.22Q598.17 376.22 597.68 375.78Z" fill="#000000" />
</svg>
