<svg viewBox="0 0 759 431" xmlns="http://www.w3.org/2000/svg">
<rect width="100%" height="100%" fill="#FFFFFF" />
<path stroke="#000000" stroke-width="6" d="M33 371L33 30M66 371L66 30M123 371L123 30M150 371L150 30M174 371L174 30M222 371L222 30M345 371L345 30M387 371L387 30M429 371L429 30M504 371L504 30M549 371L549 30M618 371L618 30M636 371L636 30M672 371L672 30M693 371L693 30M726 371L726 30" />
<path stroke="#000000" stroke-width="3" d="M40.50 371L40.50 30M49.50 371L49.50 30M79.50 371L79.50 30M91.50 371L91.50 30M97.50 371L97.50 30M142.50 371L142.50 30M163.50 371L163.50 30M196.50 371L196.50 30M229.50 371L229.50 30M289.50 371L289.50 30M310.50 371L310.50 30M316.50 371L316.50 30M328.50 371L328.50 30M355.50 371L355.50 30M373.50 371L373.50 30M412.50 371L412.50 30M418.50 371L418.50 30M442.50 371L442.50 30M448.50 371L448.50 30M460.50 371L460.50 30M493.50 371L493.50 30M541.50 371L541.50 30M559.50 371L559.50 30M604.50 371L604.50 30M625.50 371L625.50 30M658.50 371L658.50 30M718.50 371L718.50 30" />
<path stroke="#000000" stroke-width="9" d="M106.50 371L106.50 30M133.50 371L133.50 30M184.50 371L184.50 30M208.50 371L208.50 30M238.50 371L238.50 30M280.50 371L280.50 30M364.50 371L364.50 30M484.50 371L484.50 30M514.50 371L514.50 30M529.50 371L529.50 30M568.50 371L568.50 30M595.50 371L595.50 30M649.50 371L649.50 30M682.50 371L682.50 30M709.50 371L709.50 30" />
<path stroke="#000000" stroke-width="12" d="M252 371L252 30M267 371L267 30M300 371L300 30M399 371L399 30M471 371L471 30M582 371L582 30" />
<path d="M107.73 398.29Q107.23 397.78 107.23 397.10Q107.23 396.39 107.69 395.89Q108.15 395.41 108.82 395.41L112.20 395.41L112.20 376.59L109.52 376.59Q108.89 376.59 108.43 376.08Q107.94 375.57 107.94 374.90Q107.94 374.22 108.40 373.71Q108.85 373.20 109.52 373.20L117.85 373.20Q118.52 373.20 118.97 373.71Q119.43 374.22 119.43 374.90Q119.43 375.57 118.94 376.08Q118.48 376.59 117.85 376.59L115.17 376.59L115.17 395.41L118.55 395.41Q119.22 395.41 119.68 395.89Q120.14 396.39 120.14 397.10Q120.14 397.78 119.64 398.29Q119.19 398.80 118.55 398.80L108.82 398.80Q108.18 398.80 107.73 398.29ZM130.21 398.86Q129.72 398.36 129.72 397.65L129.72 374.46Q129.72 373.75 130.17 373.27Q130.67 372.76 131.30 372.76L132.61 372.76Q133.03 372.76 133.42 373.04Q133.84 373.27 134.02 373.71L142.48 392.91L142.48 374.39Q142.48 373.71 142.94 373.24Q143.43 372.73 144.07 372.73Q144.70 372.73 145.16 373.24Q145.65 373.71 145.65 374.42L145.65 397.61Q145.65 398.32 145.16 398.83Q144.70 399.34 144.07 399.34L142.73 399.34Q141.74 399.34 141.32 398.42L132.89 379.23L132.89 397.68Q132.89 398.36 132.40 398.86Q131.94 399.37 131.30 399.37Q130.67 399.37 130.21 398.86ZM159.00 398.15L153.19 374.46Q153.19 373.78 153.68 373.31Q154.17 372.80 154.81 372.80Q155.34 372.80 155.76 373.17Q156.22 373.51 156.32 373.98L161.68 395.65L167.01 373.98Q167.22 373.48 167.61 373.14Q168.03 372.80 168.56 372.80Q169.20 372.80 169.69 373.31Q170.18 373.81 170.18 374.46L164.29 398.15Q164.19 398.66 163.76 399.03Q163.34 399.37 162.85 399.37L160.52 399.37Q160.03 399.37 159.57 399Q159.11 398.63 159.00 398.15ZM177.40 386.61L177.40 385.66Q177.40 385.02 177.86 384.58Q178.31 384.14 178.98 384.14L193.09 384.14Q193.76 384.14 194.22 384.61Q194.68 385.05 194.68 385.66L194.68 386.61Q194.68 387.22 194.22 387.69Q193.76 388.13 193.09 388.13L178.98 388.13Q178.31 388.13 177.86 387.69Q177.40 387.25 177.40 386.61ZM203.77 380.92Q203.31 380.45 203.31 379.84Q203.31 379.13 203.77 378.79L210.23 373.48Q210.68 373.10 211.25 373.10L212.38 373.10Q213.01 373.10 213.47 373.58Q213.96 374.02 213.96 374.63L213.96 397.65Q213.96 398.26 213.47 398.73Q213.01 399.17 212.38 399.17Q211.74 399.17 211.25 398.73Q210.79 398.29 210.79 397.65L210.79 377.03L205.96 380.99Q205.50 381.36 204.90 381.36Q204.23 381.36 203.77 380.92ZM227.68 375.78Q227.22 375.30 227.22 374.66Q227.22 374.02 227.68 373.58Q228.14 373.14 228.81 373.14L242.56 373.14Q243.23 373.14 243.69 373.61Q244.15 374.05 244.15 374.66Q244.15 377.23 242.07 380.25Q241.43 381.19 239.60 383.39Q237.76 385.63 236.99 387.02Q234.70 391.08 234.70 397.61Q234.70 398.26 234.24 398.73Q233.78 399.17 233.18 399.17Q232.58 399.17 232.12 398.73Q231.66 398.29 231.66 397.61Q231.66 390.23 234.34 385.46Q235.16 384.07 236.99 381.74Q238.86 379.37 239.46 378.49Q240.30 377.13 240.62 376.45L240.69 376.22L228.81 376.22Q228.17 376.22 227.68 375.78ZM251.68 375.78Q251.22 375.30 251.22 374.66Q251.22 374.02 251.68 373.58Q252.14 373.14 252.81 373.14L266.56 373.14Q267.23 373.14 267.69 373.61Q268.15 374.05 268.15 374.66Q268.15 377.23 266.07 380.25Q265.43 381.19 263.60 383.39Q261.76 385.63 260.99 387.02Q258.70 391.08 258.70 397.61Q258.70 398.26 258.24 398.73Q257.78 399.17 257.18 399.17Q256.58 399.17 256.12 398.73Q255.66 398.29 255.66 397.61Q255.66 390.23 258.34 385.46Q259.16 384.07 260.99 381.74Q262.86 379.37 263.46 378.49Q264.30 377.13 264.62 376.45L264.69 376.22L252.81 376.22Q252.17 376.22 251.68 375.78ZM279.95 377.71Q278.40 379.33 278.40 381.60Q278.40 383.80 279.88 385.19Q281.29 386.54 283.68 386.54Q287.88 386.54 288.62 384.07Q288.97 382.95 288.97 381.60Q288.97 379.06 287.49 377.57Q286.05 376.05 283.68 376.05Q281.46 376.05 279.95 377.71M277.62 387.29Q275.22 385.02 275.22 381.60Q275.22 378.08 277.76 375.54Q280.23 373.00 283.68 373.00Q287.25 373.00 289.68 375.37Q292.15 377.74 292.15 381.60Q292.15 384.00 291.41 385.93Q290.67 387.86 289.33 390.10Q286.40 395.01 282.17 398.76Q281.71 399.17 281.18 399.17Q280.58 399.17 280.12 398.73Q279.66 398.29 279.66 397.65Q279.66 397.00 280.16 396.53Q283.51 393.45 285.91 389.72L286.08 389.39L285.73 389.45Q284.81 389.59 283.68 389.59Q279.95 389.59 277.62 387.29ZM299.68 375.78Q299.22 375.30 299.22 374.66Q299.22 374.02 299.68 373.58Q300.14 373.14 300.81 373.14L314.56 373.14Q315.23 373.14 315.69 373.61Q316.15 374.05 316.15 374.66Q316.15 377.23 314.07 380.25Q313.43 381.19 311.60 383.39Q309.76 385.63 308.99 387.02Q306.70 391.08 306.70 397.61Q306.70 398.26 306.24 398.73Q305.78 399.17 305.18 399.17Q304.58 399.17 304.12 398.73Q303.66 398.29 303.66 397.61Q303.66 390.23 306.34 385.46Q307.16 384.07 308.99 381.74Q310.86 379.37 311.46 378.49Q312.30 377.13 312.62 376.45L312.69 376.22L300.81 376.22Q300.17 376.22 299.68 375.78ZM323.68 375.78Q323.22 375.30 323.22 374.66Q323.22 374.02 323.68 373.58Q324.14 373.14 324.81 373.14L338.56 373.14Q339.23 373.14 339.69 373.61Q340.15 374.05 340.15 374.66Q340.15 377.23 338.07 380.25Q337.43 381.19 335.60 383.39Q333.76 385.63 332.99 387.02Q330.70 391.08 330.70 397.61Q330.70 398.26 330.24 398.73Q329.78 399.17 329.18 399.17Q328.58 399.17 328.12 398.73Q327.66 398.29 327.66 397.61Q327.66 390.23 330.34 385.46Q331.16 384.07 332.99 381.74Q334.86 379.37 335.46 378.49Q336.30 377.13 336.62 376.45L336.69 376.22L324.81 376.22Q324.17 376.22 323.68 375.78ZM347.68 392.84Q347.22 392.40 347.22 391.76L347.22 390.30Q347.22 390.03 347.40 389.66L354.91 373.98Q355.05 373.61 355.44 373.37Q355.83 373.10 356.25 373.10Q356.88 373.10 357.34 373.58Q357.80 374.02 357.80 374.63Q357.80 374.97 357.62 375.27L350.57 390.23L357.45 390.23L357.45 386.14Q357.45 385.53 357.91 385.09Q358.36 384.61 358.96 384.61Q359.56 384.61 360.02 385.09Q360.52 385.53 360.52 386.14L360.52 390.23L362.56 390.23Q363.23 390.23 363.69 390.71Q364.15 391.15 364.15 391.76Q364.15 392.37 363.65 392.84Q363.20 393.28 362.56 393.28L360.52 393.28L360.52 397.65Q360.52 398.26 360.02 398.70Q359.56 399.17 358.96 399.17Q358.36 399.17 357.91 398.73Q357.45 398.26 357.45 397.65L357.45 393.28L348.81 393.28Q348.17 393.28 347.68 392.84ZM372.60 398.83Q372.14 398.39 372.14 397.75Q372.14 397.07 372.60 396.63Q373.09 396.19 373.73 396.19Q380.85 396.19 382.93 392.37Q383.56 391.21 383.56 390.16Q383.56 387.69 382.36 386.44Q380.78 384.65 376.79 384.65Q375.70 384.65 374.57 384.75L374.43 384.75Q373.80 384.75 373.30 384.34Q372.84 383.90 372.84 383.29L372.84 383.19L373.34 374.56Q373.41 373.95 373.83 373.54Q374.29 373.14 374.92 373.14L384.94 373.14Q385.61 373.14 386.07 373.61Q386.53 374.05 386.53 374.66Q386.53 375.27 386.03 375.74Q385.57 376.22 384.94 376.22L376.41 376.22L376.12 381.53L376.79 381.53Q381.27 381.53 383.99 383.73Q386.74 385.90 386.74 390.16Q386.74 391.96 385.93 393.52Q385.08 395.11 383.81 396.22Q380.42 399.27 373.73 399.27Q373.09 399.27 372.60 398.83M374.54 384.75Q374.54 384.75 374.57 384.75Q374.57 384.75 374.54 384.75ZM396.60 398.83Q396.14 398.39 396.14 397.75Q396.14 397.07 396.60 396.63Q397.09 396.19 397.73 396.19Q404.85 396.19 406.93 392.37Q407.56 391.21 407.56 390.16Q407.56 387.69 406.36 386.44Q404.78 384.65 400.79 384.65Q399.70 384.65 398.57 384.75L398.43 384.75Q397.80 384.75 397.30 384.34Q396.84 383.90 396.84 383.29L396.84 383.19L397.34 374.56Q397.41 373.95 397.83 373.54Q398.29 373.14 398.92 373.14L408.94 373.14Q409.61 373.14 410.07 373.61Q410.53 374.05 410.53 374.66Q410.53 375.27 410.03 375.74Q409.57 376.22 408.94 376.22L400.41 376.22L400.12 381.53L400.79 381.53Q405.27 381.53 407.99 383.73Q410.74 385.90 410.74 390.16Q410.74 391.96 409.93 393.52Q409.08 395.11 407.81 396.22Q404.42 399.27 397.73 399.27Q397.09 399.27 396.60 398.83M398.54 384.75Q398.54 384.75 398.57 384.75Q398.57 384.75 398.54 384.75ZM424.93 376.73Q423.59 377.40 423.59 378.69Q423.59 379.54 423.91 380.18Q424.23 380.82 424.97 381.36Q425.67 381.87 426.13 382.14Q426.63 382.41 427.61 382.89L427.68 382.89L427.75 382.89Q428.74 382.45 429.24 382.18Q429.73 381.90 430.43 381.40Q431.14 380.86 431.46 380.21Q431.77 379.54 431.77 378.69Q431.77 377.40 430.43 376.73Q429.13 376.05 427.68 376.05Q426.24 376.05 424.93 376.73M427.68 386.37Q422.36 389.05 422.36 392.23Q422.36 394.13 423.95 395.17Q425.43 396.22 427.68 396.22L428.39 396.22Q430.26 396.22 431.60 395.04Q432.97 393.85 432.97 392.23Q432.97 389.01 427.83 386.37L427.75 386.31L427.68 386.37M421.65 397.31Q419.22 395.34 419.22 392.23Q419.22 388.13 424.23 384.82L424.44 384.68L424.23 384.55Q420.42 382.31 420.42 378.69Q420.42 376.22 422.68 374.63Q424.90 373.00 427.68 373.00Q430.43 373.00 432.69 374.63Q434.95 376.25 434.95 378.69Q434.95 380.69 433.96 382.07Q432.94 383.43 431.14 384.55L430.93 384.68L431.14 384.82Q436.15 388.13 436.15 392.23Q436.15 394.90 434.10 396.97Q432.06 399.03 429.17 399.27L427.68 399.27Q424.05 399.27 421.65 397.31ZM443.68 375.78Q443.22 375.30 443.22 374.66Q443.22 374.02 443.68 373.58Q444.14 373.14 444.81 373.14L458.56 373.14Q459.23 373.14 459.69 373.61Q460.15 374.05 460.15 374.66Q460.15 377.23 458.07 380.25Q457.43 381.19 455.60 383.39Q453.76 385.63 452.99 387.02Q450.70 391.08 450.70 397.61Q450.70 398.26 450.24 398.73Q449.78 399.17 449.18 399.17Q448.58 399.17 448.12 398.73Q447.66 398.29 447.66 397.61Q447.66 390.23 450.34 385.46Q451.16 384.07 452.99 381.74Q454.86 379.37 455.46 378.49Q456.30 377.13 456.62 376.45L456.69 376.22L444.81 376.22Q444.17 376.22 443.68 375.78ZM467.68 392.84Q467.22 392.40 467.22 391.76L467.22 390.30Q467.22 390.03 467.40 389.66L474.91 373.98Q475.05 373.61 475.44 373.37Q475.83 373.10 476.25 373.10Q476.88 373.10 477.34 373.58Q477.80 374.02 477.80 374.63Q477.80 374.97 477.62 375.27L470.57 390.23L477.45 390.23L477.45 386.14Q477.45 385.53 477.91 385.09Q478.36 384.61 478.96 384.61Q479.56 384.61 480.02 385.09Q480.52 385.53 480.52 386.14L480.52 390.23L482.56 390.23Q483.23 390.23 483.69 390.71Q484.15 391.15 484.15 391.76Q484.15 392.37 483.65 392.84Q483.20 393.28 482.56 393.28L480.52 393.28L480.52 397.65Q480.52 398.26 480.02 398.70Q479.56 399.17 478.96 399.17Q478.36 399.17 477.91 398.73Q477.45 398.26 477.45 397.65L477.45 393.28L468.81 393.28Q468.17 393.28 467.68 392.84ZM499.83 399.27L499.68 399.27Q497.60 399.24 496.05 398.59Q494.50 397.98 493.58 397.00Q492.67 395.99 492.14 394.40Q491.57 392.81 491.40 391.18Q491.22 389.59 491.22 387.42Q491.22 385.49 491.26 384.14Q491.33 382.75 491.54 381.16Q491.75 379.54 492.10 378.45Q492.49 377.33 493.13 376.22Q493.76 375.13 494.64 374.49Q495.52 373.85 496.79 373.44Q498.06 373.04 499.68 373.04Q501.27 373.04 502.54 373.44Q503.81 373.85 504.69 374.49Q505.57 375.13 506.24 376.22Q506.88 377.33 507.23 378.45Q507.62 379.57 507.83 381.16Q508.04 382.75 508.08 384.14Q508.15 385.53 508.15 387.42Q508.15 388.78 508.08 389.89Q508.01 390.98 507.76 392.26Q507.55 393.55 507.20 394.53Q506.84 395.48 506.17 396.39Q505.50 397.31 504.66 397.92Q503.81 398.53 502.58 398.90Q501.34 399.27 499.83 399.27M494.40 384.65L494.40 387.42Q494.40 388.95 494.47 390.03Q494.57 391.11 494.89 392.37Q495.17 393.62 495.74 394.40Q496.30 395.21 497.29 395.75Q498.27 396.26 499.68 396.26L500.42 396.26Q501.41 396.26 502.19 395.89Q502.96 395.48 503.42 394.73Q503.92 394.02 504.23 393.21Q504.55 392.37 504.69 391.32Q504.87 390.23 504.90 389.35Q504.97 388.47 504.97 387.42L504.97 385.87Q504.97 384.82 504.94 384.21Q504.94 383.56 504.90 382.62Q504.87 381.63 504.76 381.09Q504.66 380.52 504.48 379.74Q504.30 378.96 504.02 378.49Q503.74 378.01 503.35 377.50Q502.93 377.00 502.43 376.73Q501.91 376.42 501.20 376.25Q500.53 376.08 499.68 376.08Q498.80 376.08 498.10 376.29Q497.43 376.45 496.90 376.79Q496.37 377.13 495.95 377.64Q495.56 378.11 495.28 378.72Q494.99 379.30 494.82 380.01Q494.64 380.69 494.57 381.46Q494.50 382.21 494.43 383.02Q494.40 383.80 494.40 384.65ZM515.40 386.61L515.40 385.66Q515.40 385.02 515.86 384.58Q516.31 384.14 516.98 384.14L531.09 384.14Q531.76 384.14 532.22 384.61Q532.68 385.05 532.68 385.66L532.68 386.61Q532.68 387.22 532.22 387.69Q531.76 388.13 531.09 388.13L516.98 388.13Q516.31 388.13 515.86 387.69Q515.40 387.25 515.40 386.61ZM544.95 377.71Q543.40 379.33 543.40 381.60Q543.40 383.80 544.88 385.19Q546.29 386.54 548.68 386.54Q552.88 386.54 553.62 384.07Q553.97 382.95 553.97 381.60Q553.97 379.06 552.49 377.57Q551.05 376.05 548.68 376.05Q546.46 376.05 544.95 377.71M542.62 387.29Q540.22 385.02 540.22 381.60Q540.22 378.08 542.76 375.54Q545.23 373.00 548.68 373.00Q552.25 373.00 554.68 375.37Q557.15 377.74 557.15 381.60Q557.15 384.00 556.41 385.93Q555.67 387.86 554.33 390.10Q551.40 395.01 547.17 398.76Q546.71 399.17 546.18 399.17Q545.58 399.17 545.12 398.73Q544.66 398.29 544.66 397.65Q544.66 397.00 545.16 396.53Q548.51 393.45 550.91 389.72L551.08 389.39L550.73 389.45Q549.81 389.59 548.68 389.59Q544.95 389.59 542.62 387.29ZM565.60 398.83Q565.14 398.39 565.14 397.75Q565.14 397.07 565.60 396.63Q566.09 396.19 566.73 396.19Q573.85 396.19 575.93 392.37Q576.56 391.21 576.56 390.16Q576.56 387.69 575.36 386.44Q573.78 384.65 569.79 384.65Q568.70 384.65 567.57 384.75L567.43 384.75Q566.80 384.75 566.30 384.34Q565.84 383.90 565.84 383.29L565.84 383.19L566.34 374.56Q566.41 373.95 566.83 373.54Q567.29 373.14 567.92 373.14L577.94 373.14Q578.61 373.14 579.07 373.61Q579.53 374.05 579.53 374.66Q579.53 375.27 579.03 375.74Q578.57 376.22 577.94 376.22L569.41 376.22L569.12 381.53L569.79 381.53Q574.27 381.53 576.99 383.73Q579.74 385.90 579.74 390.16Q579.74 391.96 578.93 393.52Q578.08 395.11 576.81 396.22Q573.42 399.27 566.73 399.27Q566.09 399.27 565.60 398.83M567.54 384.75Q567.54 384.75 567.57 384.75Q567.57 384.75 567.54 384.75ZM589.60 398.83Q589.14 398.39 589.14 397.75Q589.14 397.07 589.60 396.63Q590.09 396.19 590.73 396.19Q597.85 396.19 599.93 392.37Q600.56 391.21 600.56 390.16Q600.56 387.69 599.36 386.44Q597.78 384.65 593.79 384.65Q592.70 384.65 591.57 384.75L591.43 384.75Q590.80 384.75 590.30 384.34Q589.84 383.90 589.84 383.29L589.84 383.19L590.34 374.56Q590.41 373.95 590.83 373.54Q591.29 373.14 591.92 373.14L601.94 373.14Q602.61 373.14 603.07 373.61Q603.53 374.05 603.53 374.66Q603.53 375.27 603.03 375.74Q602.57 376.22 601.94 376.22L593.41 376.22L593.12 381.53L593.79 381.53Q598.27 381.53 600.99 383.73Q603.74 385.90 603.74 390.16Q603.74 391.96 602.93 393.52Q602.08 395.11 600.81 396.22Q597.42 399.27 590.73 399.27Q590.09 399.27 589.60 398.83M591.54 384.75Q591.54 384.75 591.57 384.75Q591.57 384.75 591.54 384.75ZM613.77 380.92Q613.31 380.45 613.31 379.84Q613.31 379.13 613.77 378.79L620.23 373.48Q620.68 373.10 621.25 373.10L622.38 373.10Q623.01 373.10 623.47 373.58Q623.96 374.02 623.96 374.63L623.96 397.65Q623.96 398.26 623.47 398.73Q623.01 399.17 622.38 399.17Q621.74 399.17 621.25 398.73Q620.79 398.29 620.79 397.65L620.79 377.03L615.96 380.99Q615.50 381.36 614.90 381.36Q614.23 381.36 613.77 380.92ZM637.68 392.84Q637.22 392.40 637.22 391.76L637.22 390.30Q637.22 390.03 637.40 389.66L644.91 373.98Q645.05 373.61 645.44 373.37Q645.83 373.10 646.25 373.10Q646.88 373.10 647.34 373.58Q647.80 374.02 647.80 374.63Q647.80 374.97 647.62 375.27L640.57 390.23L647.45 390.23L647.45 386.14Q647.45 385.53 647.91 385.09Q648.36 384.61 648.96 384.61Q649.56 384.61 650.02 385.09Q650.52 385.53 650.52 386.14L650.52 390.23L652.56 390.23Q653.23 390.23 653.69 390.71Q654.15 391.15 654.15 391.76Q654.15 392.37 653.65 392.84Q653.20 393.28 652.56 393.28L650.52 393.28L650.52 397.65Q650.52 398.26 650.02 398.70Q649.56 399.17 648.96 399.17Q648.36 399.17 647.91 398.73Q647.45 398.26 647.45 397.65L647.45 393.28L638.81 393.28Q638.17 393.28 637.68 392.84Z" fill="#000000" />
</svg>
