<svg viewBox="0 0 759 431" xmlns="http://www.w3.org/2000/svg">
<rect width="100%" height="100%" fill="#FFFFFF" />
<path stroke="#000000" stroke-width="6" d="M33 371L33 30M66 371L66 30M123 371L123 30M150 371L150 30M174 371L174 30M222 371L222 30M375 371L375 30M414 371L414 30M444 371L444 30M453 371L453 30M504 371L504 30M528 371L528 30M615 371L615 30M633 371L633 30M693 371L693 30M726 371L726 30" />
<path stroke="#000000" stroke-width="3" d="M40.50 371L40.50 30M49.50 371L49.50 30M79.50 371L79.50 30M91.50 371L91.50 30M97.50 371L97.50 30M142.50 371L142.50 30M163.50 371L163.50 30M196.50 371L196.50 30M229.50 371L229.50 30M289.50 371L289.50 30M295.50 371L295.50 30M301.50 371L301.50 30M328.50 371L328.50 30M352.50 371L352.50 30M382.50 371L382.50 30M394.50 371L394.50 30M406.50 371L406.50 30M460.50 371L460.50 30M493.50 371L493.50 30M550.50 371L550.50 30M559.50 371L559.50 30M607.50 371L607.50 30M625.50 371L625.50 30M646.50 371L646.50 30M673.50 371L673.50 30M682.50 371L682.50 30M718.50 371L718.50 30" />
<path stroke="#000000" stroke-width="9" d="M106.50 371L106.50 30M133.50 371L133.50 30M184.50 371L184.50 30M208.50 371L208.50 30M238.50 371L238.50 30M280.50 371L280.50 30M364.50 371L364.50 30M484.50 371L484.50 30M514.50 371L514.50 30M541.50 371L541.50 30M568.50 371L568.50 30M595.50 371L595.50 30M709.50 371L709.50 30" />
<path stroke="#000000" stroke-width="12" d="M252 371L252 30M267 371L267 30M318 371L318 30M339 371L339 30M432 371L432 30M471 371L471 30M582 371L582 30M663 371L663 30" />
<path d="M107.73 398.29Q107.23 397.78 107.23 397.10Q107.23 396.39 107.69 395.89Q108.15 395.41 108.82 395.41L112.20 395.41L112.20 376.59L109.52 376.59Q108.89 376.59 108.43 376.08Q107.94 375.57 107.94 374.90Q107.94 374.22 108.40 373.71Q108.85 373.20 109.52 373.20L117.85 373.20Q118.52 373.20 118.97 373.71Q119.43 374.22 119.43 374.90Q119.43 375.57 118.94 376.08Q118.48 376.59 117.85 376.59L115.17 376.59L115.17 395.41L118.55 395.41Q119.22 395.41 119.68 395.89Q120.14 396.39 120.14 397.10Q120.14 397.78 119.64 398.29Q119.19 398.80 118.55 398.80L108.82 398.80Q108.18 398.80 107.73 398.29ZM130.21 398.86Q129.72 398.36 129.72 397.65L129.72 374.46Q129.72 373.75 130.17 373.27Q130.67 372.76 131.30 372.76L132.61 372.76Q133.03 372.76 133.42 373.04Q133.84 373.27 134.02 373.71L142.48 392.91L142.48 374.39Q142.48 373.71 142.94 373.24Q143.43 372.73 144.07 372.73Q144.70 372.73 145.16 373.24Q145.65 373.71 145.65 374.42L145.65 397.61Q145.65 398.32 145.16 398.83Q144.70 399.34 144.07 399.34L142.73 399.34Q141.74 399.34 141.32 398.42L132.89 379.23L132.89 397.68Q132.89 398.36 132.40 398.86Q131.94 399.37 131.30 399.37Q130.67 399.37 130.21 398.86ZM159.00 398.15L153.19 374.46Q153.19 373.78 153.68 373.31Q154.17 372.80 154.81 372.80Q155.34 372.80 155.76 373.17Q156.22 373.51 156.32 373.98L161.68 395.65L167.01 373.98Q167.22 373.48 167.61 373.14Q168.03 372.80 168.56 372.80Q169.20 372.80 169.69 373.31Q170.18 373.81 170.18 374.46L164.29 398.15Q164.19 398.66 163.76 399.03Q163.34 399.37 162.85 399.37L160.52 399.37Q160.03 399.37 159.57 399Q159.11 398.63 159.00 398.15ZM177.40 386.61L177.40 385.66Q177.40 385.02 177.86 384.58Q178.31 384.14 178.98 384.14L193.09 384.14Q193.76 384.14 194.22 384.61Q194.68 385.05 194.68 385.66L194.68 386.61Q194.68 387.22 194.22 387.69Q193.76 388.13 193.09 388.13L178.98 388.13Q178.31 388.13 177.86 387.69Q177.40 387.25 177.40 386.61ZM203.77 380.92Q203.31 380.45 203.31 379.84Q203.31 379.13 203.77 378.79L210.23 373.48Q210.68 373.10 211.25 373.10L212.38 373.10Q213.01 373.10 213.47 373.58Q213.96 374.02 213.96 374.63L213.96 397.65Q213.96 398.26 213.47 398.73Q213.01 399.17 212.38 399.17Q211.74 399.17 211.25 398.73Q210.79 398.29 210.79 397.65L210.79 377.03L205.96 380.99Q205.50 381.36 204.90 381.36Q204.23 381.36 203.77 380.92ZM227.68 375.78Q227.22 375.30 227.22 374.66Q227.22 374.02 227.68 373.58Q228.14 373.14 228.81 373.14L242.56 373.14Q243.23 373.14 243.69 373.61Q244.15 374.05 244.15 374.66Q244.15 377.23 242.07 380.25Q241.43 381.19 239.60 383.39Q237.76 385.63 236.99 387.02Q234.70 391.08 234.70 397.61Q234.70 398.26 234.24 398.73Q233.78 399.17 233.18 399.17Q232.58 399.17 232.12 398.73Q231.66 398.29 231.66 397.61Q231.66 390.23 234.34 385.46Q235.16 384.07 236.99 381.74Q238.86 379.37 239.46 378.49Q240.30 377.13 240.62 376.45L240.69 376.22L228.81 376.22Q228.17 376.22 227.68 375.78ZM251.68 375.78Q251.22 375.30 251.22 374.66Q251.22 374.02 251.68 373.58Q252.14 373.14 252.81 373.14L266.56 373.14Q267.23 373.14 267.69 373.61Q268.15 374.05 268.15 374.66Q268.15 377.23 266.07 380.25Q265.43 381.19 263.60 383.39Q261.76 385.63 260.99 387.02Q258.70 391.08 258.70 397.61Q258.70 398.26 258.24 398.73Q257.78 399.17 257.18 399.17Q256.58 399.17 256.12 398.73Q255.66 398.29 255.66 397.61Q255.66 390.23 258.34 385.46Q259.16 384.07 260.99 381.74Q262.86 379.37 263.46 378.49Q264.30 377.13 264.62 376.45L264.69 376.22L252.81 376.22Q252.17 376.22 251.68 375.78ZM279.95 377.71Q278.40 379.33 278.40 381.60Q278.40 383.80 279.88 385.19Q281.29 386.54 283.68 386.54Q287.88 386.54 288.62 384.07Q288.97 382.95 288.97 381.60Q288.97 379.06 287.49 377.57Q286.05 376.05 283.68 376.05Q281.46 376.05 279.95 377.71M277.62 387.29Q275.22 385.02 275.22 381.60Q275.22 378.08 277.76 375.54Q280.23 373.00 283.68 373.00Q287.25 373.00 289.68 375.37Q292.15 377.74 292.15 381.60Q292.15 384.00 291.41 385.93Q290.67 387.86 289.33 390.10Q286.40 395.01 282.17 398.76Q281.71 399.17 281.18 399.17Q280.58 399.17 280.12 398.73Q279.66 398.29 279.66 397.65Q279.66 397.00 280.16 396.53Q283.51 393.45 285.91 389.72L286.08 389.39L285.73 389.45Q284.81 389.59 283.68 389.59Q279.95 389.59 277.62 387.29ZM299.96 397.98Q299.22 397.44 299.22 396.63Q299.22 395.99 299.68 395.55Q300.17 395.07 300.81 395.07Q301.02 395.07 301.41 395.21Q303.66 396.19 306.13 396.19Q308.81 396.19 310.65 394.90Q312.52 393.58 312.66 391.08L312.66 390.74Q312.66 389.01 311.53 387.80Q310.47 386.61 308.92 386.10Q307.40 385.63 305.53 385.63Q304.93 385.63 304.48 385.19Q304.02 384.71 304.02 384.07Q304.02 383.46 304.33 383.12L310.82 376.22L300.91 376.22Q300.28 376.22 299.79 375.78Q299.33 375.30 299.33 374.66Q299.33 374.02 299.79 373.58Q300.24 373.14 300.91 373.14L313.36 373.14Q314.00 373.14 314.45 373.61Q314.95 374.05 314.95 374.66L314.95 375.88Q314.95 376.42 314.45 376.89L308.78 382.89L309.06 382.95Q312.06 383.70 313.96 385.70Q315.83 387.69 315.83 390.71L315.83 391.25Q315.65 394.94 312.83 397.10Q310.08 399.27 306.13 399.27Q305.15 399.27 304.16 399.17Q303.17 399.07 301.94 398.83Q300.70 398.56 299.96 397.98ZM328.93 376.73Q327.59 377.40 327.59 378.69Q327.59 379.54 327.91 380.18Q328.23 380.82 328.97 381.36Q329.67 381.87 330.13 382.14Q330.63 382.41 331.61 382.89L331.68 382.89L331.75 382.89Q332.74 382.45 333.24 382.18Q333.73 381.90 334.43 381.40Q335.14 380.86 335.46 380.21Q335.77 379.54 335.77 378.69Q335.77 377.40 334.43 376.73Q333.13 376.05 331.68 376.05Q330.24 376.05 328.93 376.73M331.68 386.37Q326.36 389.05 326.36 392.23Q326.36 394.13 327.95 395.17Q329.43 396.22 331.68 396.22L332.39 396.22Q334.26 396.22 335.60 395.04Q336.97 393.85 336.97 392.23Q336.97 389.01 331.83 386.37L331.75 386.31L331.68 386.37M325.65 397.31Q323.22 395.34 323.22 392.23Q323.22 388.13 328.23 384.82L328.44 384.68L328.23 384.55Q324.42 382.31 324.42 378.69Q324.42 376.22 326.68 374.63Q328.90 373.00 331.68 373.00Q334.43 373.00 336.69 374.63Q338.95 376.25 338.95 378.69Q338.95 380.69 337.96 382.07Q336.94 383.43 335.14 384.55L334.93 384.68L335.14 384.82Q340.15 388.13 340.15 392.23Q340.15 394.90 338.10 396.97Q336.06 399.03 333.17 399.27L331.68 399.27Q328.05 399.27 325.65 397.31ZM347.96 397.98Q347.22 397.44 347.22 396.63Q347.22 395.99 347.68 395.55Q348.17 395.07 348.81 395.07Q349.02 395.07 349.41 395.21Q351.66 396.19 354.13 396.19Q356.81 396.19 358.65 394.90Q360.52 393.58 360.66 391.08L360.66 390.74Q360.66 389.01 359.53 387.80Q358.47 386.61 356.92 386.10Q355.40 385.63 353.53 385.63Q352.93 385.63 352.48 385.19Q352.02 384.71 352.02 384.07Q352.02 383.46 352.33 383.12L358.82 376.22L348.91 376.22Q348.28 376.22 347.79 375.78Q347.33 375.30 347.33 374.66Q347.33 374.02 347.79 373.58Q348.24 373.14 348.91 373.14L361.36 373.14Q362.00 373.14 362.45 373.61Q362.95 374.05 362.95 374.66L362.95 375.88Q362.95 376.42 362.45 376.89L356.78 382.89L357.06 382.95Q360.06 383.70 361.96 385.70Q363.83 387.69 363.83 390.71L363.83 391.25Q363.65 394.94 360.83 397.10Q358.08 399.27 354.13 399.27Q353.15 399.27 352.16 399.17Q351.17 399.07 349.94 398.83Q348.70 398.56 347.96 397.98ZM372.60 398.83Q372.14 398.39 372.14 397.75Q372.14 397.07 372.60 396.63Q373.09 396.19 373.73 396.19Q380.85 396.19 382.93 392.37Q383.56 391.21 383.56 390.16Q383.56 387.69 382.36 386.44Q380.78 384.65 376.79 384.65Q375.70 384.65 374.57 384.75L374.43 384.75Q373.80 384.75 373.30 384.34Q372.84 383.90 372.84 383.29L372.84 383.19L373.34 374.56Q373.41 373.95 373.83 373.54Q374.29 373.14 374.92 373.14L384.94 373.14Q385.61 373.14 386.07 373.61Q386.53 374.05 386.53 374.66Q386.53 375.27 386.03 375.74Q385.57 376.22 384.94 376.22L376.41 376.22L376.12 381.53L376.79 381.53Q381.27 381.53 383.99 383.73Q386.74 385.90 386.74 390.16Q386.74 391.96 385.93 393.52Q385.08 395.11 383.81 396.22Q380.42 399.27 373.73 399.27Q373.09 399.27 372.60 398.83M374.54 384.75Q374.54 384.75 374.57 384.75Q374.57 384.75 374.54 384.75ZM395.68 375.78Q395.22 375.30 395.22 374.66Q395.22 374.02 395.68 373.58Q396.14 373.14 396.81 373.14L410.56 373.14Q411.23 373.14 411.69 373.61Q412.15 374.05 412.15 374.66Q412.15 377.23 410.07 380.25Q409.43 381.19 407.60 383.39Q405.76 385.63 404.99 387.02Q402.70 391.08 402.70 397.61Q402.70 398.26 402.24 398.73Q401.78 399.17 401.18 399.17Q400.58 399.17 400.12 398.73Q399.66 398.29 399.66 397.61Q399.66 390.23 402.34 385.46Q403.16 384.07 404.99 381.74Q406.86 379.37 407.46 378.49Q408.30 377.13 408.62 376.45L408.69 376.22L396.81 376.22Q396.17 376.22 395.68 375.78ZM419.96 397.98Q419.22 397.44 419.22 396.63Q419.22 395.99 419.68 395.55Q420.17 395.07 420.81 395.07Q421.02 395.07 421.41 395.21Q423.66 396.19 426.13 396.19Q428.81 396.19 430.65 394.90Q432.52 393.58 432.66 391.08L432.66 390.74Q432.66 389.01 431.53 387.80Q430.47 386.61 428.92 386.10Q427.40 385.63 425.53 385.63Q424.93 385.63 424.48 385.19Q424.02 384.71 424.02 384.07Q424.02 383.46 424.33 383.12L430.82 376.22L420.91 376.22Q420.28 376.22 419.79 375.78Q419.33 375.30 419.33 374.66Q419.33 374.02 419.79 373.58Q420.24 373.14 420.91 373.14L433.36 373.14Q434.00 373.14 434.45 373.61Q434.95 374.05 434.95 374.66L434.95 375.88Q434.95 376.42 434.45 376.89L428.78 382.89L429.06 382.95Q432.06 383.70 433.96 385.70Q435.83 387.69 435.83 390.71L435.83 391.25Q435.65 394.94 432.83 397.10Q430.08 399.27 426.13 399.27Q425.15 399.27 424.16 399.17Q423.17 399.07 421.94 398.83Q420.70 398.56 419.96 397.98ZM443.68 392.84Q443.22 392.40 443.22 391.76L443.22 390.30Q443.22 390.03 443.40 389.66L450.91 373.98Q451.05 373.61 451.44 373.37Q451.83 373.10 452.25 373.10Q452.88 373.10 453.34 373.58Q453.80 374.02 453.80 374.63Q453.80 374.97 453.62 375.27L446.57 390.23L453.45 390.23L453.45 386.14Q453.45 385.53 453.91 385.09Q454.36 384.61 454.96 384.61Q455.56 384.61 456.02 385.09Q456.52 385.53 456.52 386.14L456.52 390.23L458.56 390.23Q459.23 390.23 459.69 390.71Q460.15 391.15 460.15 391.76Q460.15 392.37 459.65 392.84Q459.20 393.28 458.56 393.28L456.52 393.28L456.52 397.65Q456.52 398.26 456.02 398.70Q455.56 399.17 454.96 399.17Q454.36 399.17 453.91 398.73Q453.45 398.26 453.45 397.65L453.45 393.28L444.81 393.28Q444.17 393.28 443.68 392.84ZM471.95 377.71Q470.40 379.33 470.40 381.60Q470.40 383.80 471.88 385.19Q473.29 386.54 475.68 386.54Q479.88 386.54 480.62 384.07Q480.97 382.95 480.97 381.60Q480.97 379.06 479.49 377.57Q478.05 376.05 475.68 376.05Q473.46 376.05 471.95 377.71M469.62 387.29Q467.22 385.02 467.22 381.60Q467.22 378.08 469.76 375.54Q472.23 373.00 475.68 373.00Q479.25 373.00 481.68 375.37Q484.15 377.74 484.15 381.60Q484.15 384.00 483.41 385.93Q482.67 387.86 481.33 390.10Q478.40 395.01 474.17 398.76Q473.71 399.17 473.18 399.17Q472.58 399.17 472.12 398.73Q471.66 398.29 471.66 397.65Q471.66 397.00 472.16 396.53Q475.51 393.45 477.91 389.72L478.08 389.39L477.73 389.45Q476.81 389.59 475.68 389.59Q471.95 389.59 469.62 387.29ZM492.77 380.92Q492.31 380.45 492.31 379.84Q492.31 379.13 492.77 378.79L499.23 373.48Q499.68 373.10 500.25 373.10L501.38 373.10Q502.01 373.10 502.47 373.58Q502.96 374.02 502.96 374.63L502.96 397.65Q502.96 398.26 502.47 398.73Q502.01 399.17 501.38 399.17Q500.74 399.17 500.25 398.73Q499.79 398.29 499.79 397.65L499.79 377.03L494.96 380.99Q494.50 381.36 493.90 381.36Q493.23 381.36 492.77 380.92ZM516.40 386.61L516.40 385.66Q516.40 385.02 516.86 384.58Q517.31 384.14 517.98 384.14L532.09 384.14Q532.76 384.14 533.22 384.61Q533.68 385.05 533.68 385.66L533.68 386.61Q533.68 387.22 533.22 387.69Q532.76 388.13 532.09 388.13L517.98 388.13Q517.31 388.13 516.86 387.69Q516.40 387.25 516.40 386.61ZM543.69 397.07Q541.33 394.87 541.22 391.25L541.22 390.84Q541.22 386.61 543.65 382.75Q544.64 381.16 546.05 379.40Q547.43 377.61 548.38 376.56Q549.33 375.47 551.09 373.54Q551.48 373.10 552.19 373.10Q552.79 373.10 553.25 373.58Q553.70 374.02 553.70 374.63Q553.70 375.20 553.32 375.68Q549.33 380.01 547.46 382.62L547.22 382.95L547.60 382.89Q548.63 382.68 549.68 382.68Q553.53 382.68 555.82 384.99Q558.15 387.32 558.15 391.25Q558.15 394.80 555.75 397.04Q553.35 399.27 549.68 399.27Q546.02 399.27 543.69 397.07M545.81 387.22Q544.40 388.68 544.40 391.25Q544.40 393.55 545.88 394.90Q547.32 396.22 549.68 396.22Q552.01 396.22 553.46 394.87Q554.97 393.52 554.97 391.25Q554.97 388.61 553.60 387.19Q552.26 385.73 549.68 385.73Q547.18 385.73 545.81 387.22ZM566.28 377.37Q565.82 376.89 565.82 376.32Q565.82 375.47 566.49 375.03Q569.70 373.00 573.68 373.00Q576.89 373.00 579.04 374.97Q581.23 376.89 581.23 380.04Q581.23 381.30 580.77 382.45Q580.31 383.63 579.71 384.38Q579.15 385.12 578.02 386.03Q576.89 386.95 576.29 387.36Q575.73 387.76 574.50 388.54Q573.16 389.39 572.56 389.83Q571.96 390.27 571.11 391.15Q570.26 391.99 569.88 393.08Q569.49 394.13 569.42 395.58L569.42 395.75L579.86 395.75Q580.53 395.75 580.98 396.22Q581.44 396.66 581.44 397.27Q581.44 397.88 580.95 398.36Q580.49 398.80 579.86 398.80L567.80 398.80Q567.16 398.80 566.67 398.36Q566.21 397.88 566.21 397.27L566.21 396.56Q566.21 393.92 566.56 392.77Q567.16 390.74 568.82 389.15Q570.48 387.52 572.87 385.97Q576.19 383.83 577.07 382.62Q578.06 381.40 578.06 380.04Q578.06 378.25 576.75 377.13Q575.52 376.05 573.68 376.05Q570.51 376.05 568.32 377.54Q567.94 377.81 567.41 377.81Q566.77 377.81 566.28 377.37ZM590.60 398.83Q590.14 398.39 590.14 397.75Q590.14 397.07 590.60 396.63Q591.09 396.19 591.73 396.19Q598.85 396.19 600.93 392.37Q601.56 391.21 601.56 390.16Q601.56 387.69 600.36 386.44Q598.78 384.65 594.79 384.65Q593.70 384.65 592.57 384.75L592.43 384.75Q591.80 384.75 591.30 384.34Q590.84 383.90 590.84 383.29L590.84 383.19L591.34 374.56Q591.41 373.95 591.83 373.54Q592.29 373.14 592.92 373.14L602.94 373.14Q603.61 373.14 604.07 373.61Q604.53 374.05 604.53 374.66Q604.53 375.27 604.03 375.74Q603.57 376.22 602.94 376.22L594.41 376.22L594.12 381.53L594.79 381.53Q599.27 381.53 601.99 383.73Q604.74 385.90 604.74 390.16Q604.74 391.96 603.93 393.52Q603.08 395.11 601.81 396.22Q598.42 399.27 591.73 399.27Q591.09 399.27 590.60 398.83M592.54 384.75Q592.54 384.75 592.57 384.75Q592.57 384.75 592.54 384.75ZM613.96 397.98Q613.22 397.44 613.22 396.63Q613.22 395.99 613.68 395.55Q614.17 395.07 614.81 395.07Q615.02 395.07 615.41 395.21Q617.66 396.19 620.13 396.19Q622.81 396.19 624.65 394.90Q626.52 393.58 626.66 391.08L626.66 390.74Q626.66 389.01 625.53 387.80Q624.47 386.61 622.92 386.10Q621.40 385.63 619.53 385.63Q618.93 385.63 618.48 385.19Q618.02 384.71 618.02 384.07Q618.02 383.46 618.33 383.12L624.82 376.22L614.91 376.22Q614.28 376.22 613.79 375.78Q613.33 375.30 613.33 374.66Q613.33 374.02 613.79 373.58Q614.24 373.14 614.91 373.14L627.36 373.14Q628.00 373.14 628.45 373.61Q628.95 374.05 628.95 374.66L628.95 375.88Q628.95 376.42 628.45 376.89L622.78 382.89L623.06 382.95Q626.06 383.70 627.96 385.70Q629.83 387.69 629.83 390.71L629.83 391.25Q629.65 394.94 626.83 397.10Q624.08 399.27 620.13 399.27Q619.15 399.27 618.16 399.17Q617.17 399.07 615.94 398.83Q614.70 398.56 613.96 397.98ZM639.69 397.07Q637.33 394.87 637.22 391.25L637.22 390.84Q637.22 386.61 639.65 382.75Q640.64 381.16 642.05 379.40Q643.43 377.61 644.38 376.56Q645.33 375.47 647.09 373.54Q647.48 373.10 648.19 373.10Q648.79 373.10 649.25 373.58Q649.70 374.02 649.70 374.63Q649.70 375.20 649.32 375.68Q645.33 380.01 643.46 382.62L643.22 382.95L643.60 382.89Q644.63 382.68 645.68 382.68Q649.53 382.68 651.82 384.99Q654.15 387.32 654.15 391.25Q654.15 394.80 651.75 397.04Q649.35 399.27 645.68 399.27Q642.02 399.27 639.69 397.07M641.81 387.22Q640.40 388.68 640.40 391.25Q640.40 393.55 641.88 394.90Q643.32 396.22 645.68 396.22Q648.01 396.22 649.46 394.87Q650.97 393.52 650.97 391.25Q650.97 388.61 649.60 387.19Q648.26 385.73 645.68 385.73Q643.18 385.73 641.81 387.22Z" fill="#000000" />
</svg>
