<svg viewBox="0 0 759 431" xmlns="http://www.w3.org/2000/svg">
<rect width="100%" height="100%" fill="#FFFFFF" />
<path stroke="#000000" stroke-width="6" d="M33 371L33 30M66 371L66 30M123 371L123 30M150 371L150 30M174 371L174 30M222 371L222 30M396 371L396 30M453 371L453 30M504 371L504 30M549 371L549 30M594 371L594 30M639 371L639 30M693 371L693 30M726 371L726 30" />
<path stroke="#000000" stroke-width="3" d="M40.50 371L40.50 30M49.50 371L49.50 30M79.50 371L79.50 30M91.50 371L91.50 30M97.50 371L97.50 30M142.50 371L142.50 30M163.50 371L163.50 30M196.50 371L196.50 30M229.50 371L229.50 30M289.50 371L289.50 30M295.50 371L295.50 30M301.50 371L301.50 30M328.50 371L328.50 30M352.50 371L352.50 30M361.50 371L361.50 30M370.50 371L370.50 30M403.50 371L403.50 30M415.50 371L415.50 30M427.50 371L427.50 30M460.50 371L460.50 30M493.50 371L493.50 30M541.50 371L541.50 30M559.50 371L559.50 30M607.50 371L607.50 30M646.50 371L646.50 30M658.50 371L658.50 30M667.50 371L667.50 30M718.50 371L718.50 30" />
<path stroke="#000000" stroke-width="9" d="M106.50 371L106.50 30M133.50 371L133.50 30M184.50 371L184.50 30M208.50 371L208.50 30M238.50 371L238.50 30M280.50 371L280.50 30M436.50 371L436.50 30M484.50 371L484.50 30M514.50 371L514.50 30M529.50 371L529.50 30M568.50 371L568.50 30M616.50 371L616.50 30M628.50 371L628.50 30M709.50 371L709.50 30" />
<path stroke="#000000" stroke-width="12" d="M252 371L252 30M267 371L267 30M318 371L318 30M339 371L339 30M384 371L384 30M471 371L471 30M582 371L582 30M678 371L678 30" />
<path d="M107.73 398.29Q107.23 397.78 107.23 397.10Q107.23 396.39 107.69 395.89Q108.15 395.41 108.82 395.41L112.20 395.41L112.20 376.59L109.52 376.59Q108.89 376.59 108.43 376.08Q107.94 375.57 107.94 374.90Q107.94 374.22 108.40 373.71Q108.85 373.20 109.52 373.20L117.85 373.20Q118.52 373.20 118.97 373.71Q119.43 374.22 119.43 374.90Q119.43 375.57 118.94 376.08Q118.48 376.59 117.85 376.59L115.17 376.59L115.17 395.41L118.55 395.41Q119.22 395.41 119.68 395.89Q120.14 396.39 120.14 397.10Q120.14 397.78 119.64 398.29Q119.19 398.80 118.55 398.80L108.82 398.80Q108.18 398.80 107.73 398.29ZM130.21 398.86Q129.72 398.36 129.72 397.65L129.72 374.46Q129.72 373.75 130.17 373.27Q130.67 372.76 131.30 372.76L132.61 372.76Q133.03 372.76 133.42 373.04Q133.84 373.27 134.02 373.71L142.48 392.91L142.48 374.39Q142.48 373.71 142.94 373.24Q143.43 372.73 144.07 372.73Q144.70 372.73 145.16 373.24Q145.65 373.71 145.65 374.42L145.65 397.61Q145.65 398.32 145.16 398.83Q144.70 399.34 144.07 399.34L142.73 399.34Q141.74 399.34 141.32 398.42L132.89 379.23L132.89 397.68Q132.89 398.36 132.40 398.86Q131.94 399.37 131.30 399.37Q130.67 399.37 130.21 398.86ZM159.00 398.15L153.19 374.46Q153.19 373.78 153.68 373.31Q154.17 372.80 154.81 372.80Q155.34 372.80 155.76 373.17Q156.22 373.51 156.32 373.98L161.68 395.65L167.01 373.98Q167.22 373.48 167.61 373.14Q168.03 372.80 168.56 372.80Q169.20 372.80 169.69 373.31Q170.18 373.81 170.18 374.46L164.29 398.15Q164.19 398.66 163.76 399.03Q163.34 399.37 162.85 399.37L160.52 399.37Q160.03 399.37 159.57 399Q159.11 398.63 159.00 398.15ZM177.40 386.61L177.40 385.66Q177.40 385.02 177.86 384.58Q178.31 384.14 178.98 384.14L193.09 384.14Q193.76 384.14 194.22 384.61Q194.68 385.05 194.68 385.66L194.68 386.61Q194.68 387.22 194.22 387.69Q193.76 388.13 193.09 388.13L178.98 388.13Q178.31 388.13 177.86 387.69Q177.40 387.25 177.40 386.61ZM203.77 380.92Q203.31 380.45 203.31 379.84Q203.31 379.13 203.77 378.79L210.23 373.48Q210.68 373.10 211.25 373.10L212.38 373.10Q213.01 373.10 213.47 373.58Q213.96 374.02 213.96 374.63L213.96 397.65Q213.96 398.26 213.47 398.73Q213.01 399.17 212.38 399.17Q211.74 399.17 211.25 398.73Q210.79 398.29 210.79 397.65L210.79 377.03L205.96 380.99Q205.50 381.36 204.90 381.36Q204.23 381.36 203.77 380.92ZM227.68 375.78Q227.22 375.30 227.22 374.66Q227.22 374.02 227.68 373.58Q228.14 373.14 228.81 373.14L242.56 373.14Q243.23 373.14 243.69 373.61Q244.15 374.05 244.15 374.66Q244.15 377.23 242.07 380.25Q241.43 381.19 239.60 383.39Q237.76 385.63 236.99 387.02Q234.70 391.08 234.70 397.61Q234.70 398.26 234.24 398.73Q233.78 399.17 233.18 399.17Q232.58 399.17 232.12 398.73Q231.66 398.29 231.66 397.61Q231.66 390.23 234.34 385.46Q235.16 384.07 236.99 381.74Q238.86 379.37 239.46 378.49Q240.30 377.13 240.62 376.45L240.69 376.22L228.81 376.22Q228.17 376.22 227.68 375.78ZM251.68 375.78Q251.22 375.30 251.22 374.66Q251.22 374.02 251.68 373.58Q252.14 373.14 252.81 373.14L266.56 373.14Q267.23 373.14 267.69 373.61Q268.15 374.05 268.15 374.66Q268.15 377.23 266.07 380.25Q265.43 381.19 263.60 383.39Q261.76 385.63 260.99 387.02Q258.70 391.08 258.70 397.61Q258.70 398.26 258.24 398.73Q257.78 399.17 257.18 399.17Q256.58 399.17 256.12 398.73Q255.66 398.29 255.66 397.61Q255.66 390.23 258.34 385.46Q259.16 384.07 260.99 381.74Q262.86 379.37 263.46 378.49Q264.30 377.13 264.62 376.45L264.69 376.22L252.81 376.22Q252.17 376.22 251.68 375.78ZM279.95 377.71Q278.40 379.33 278.40 381.60Q278.40 383.80 279.88 385.19Q281.29 386.54 283.68 386.54Q287.88 386.54 288.62 384.07Q288.97 382.95 288.97 381.60Q288.97 379.06 287.49 377.57Q286.05 376.05 283.68 376.05Q281.46 376.05 279.95 377.71M277.62 387.29Q275.22 385.02 275.22 381.60Q275.22 378.08 277.76 375.54Q280.23 373.00 283.68 373.00Q287.25 373.00 289.68 375.37Q292.15 377.74 292.15 381.60Q292.15 384.00 291.41 385.93Q290.67 387.86 289.33 390.10Q286.40 395.01 282.17 398.76Q281.71 399.17 281.18 399.17Q280.58 399.17 280.12 398.73Q279.66 398.29 279.66 397.65Q279.66 397.00 280.16 396.53Q283.51 393.45 285.91 389.72L286.08 389.39L285.73 389.45Q284.81 389.59 283.68 389.59Q279.95 389.59 277.62 387.29ZM299.96 397.98Q299.22 397.44 299.22 396.63Q299.22 395.99 299.68 395.55Q300.17 395.07 300.81 395.07Q301.02 395.07 301.41 395.21Q303.66 396.19 306.13 396.19Q308.81 396.19 310.65 394.90Q312.52 393.58 312.66 391.08L312.66 390.74Q312.66 389.01 311.53 387.80Q310.47 386.61 308.92 386.10Q307.40 385.63 305.53 385.63Q304.93 385.63 304.48 385.19Q304.02 384.71 304.02 384.07Q304.02 383.46 304.33 383.12L310.82 376.22L300.91 376.22Q300.28 376.22 299.79 375.78Q299.33 375.30 299.33 374.66Q299.33 374.02 299.79 373.58Q300.24 373.14 300.91 373.14L313.36 373.14Q314.00 373.14 314.45 373.61Q314.95 374.05 314.95 374.66L314.95 375.88Q314.95 376.42 314.45 376.89L308.78 382.89L309.06 382.95Q312.06 383.70 313.96 385.70Q315.83 387.69 315.83 390.71L315.83 391.25Q315.65 394.94 312.83 397.10Q310.08 399.27 306.13 399.27Q305.15 399.27 304.16 399.17Q303.17 399.07 301.94 398.83Q300.70 398.56 299.96 397.98ZM328.93 376.73Q327.59 377.40 327.59 378.69Q327.59 379.54 327.91 380.18Q328.23 380.82 328.97 381.36Q329.67 381.87 330.13 382.14Q330.63 382.41 331.61 382.89L331.68 382.89L331.75 382.89Q332.74 382.45 333.24 382.18Q333.73 381.90 334.43 381.40Q335.14 380.86 335.46 380.21Q335.77 379.54 335.77 378.69Q335.77 377.40 334.43 376.73Q333.13 376.05 331.68 376.05Q330.24 376.05 328.93 376.73M331.68 386.37Q326.36 389.05 326.36 392.23Q326.36 394.13 327.95 395.17Q329.43 396.22 331.68 396.22L332.39 396.22Q334.26 396.22 335.60 395.04Q336.97 393.85 336.97 392.23Q336.97 389.01 331.83 386.37L331.75 386.31L331.68 386.37M325.65 397.31Q323.22 395.34 323.22 392.23Q323.22 388.13 328.23 384.82L328.44 384.68L328.23 384.55Q324.42 382.31 324.42 378.69Q324.42 376.22 326.68 374.63Q328.90 373.00 331.68 373.00Q334.43 373.00 336.69 374.63Q338.95 376.25 338.95 378.69Q338.95 380.69 337.96 382.07Q336.94 383.43 335.14 384.55L334.93 384.68L335.14 384.82Q340.15 388.13 340.15 392.23Q340.15 394.90 338.10 396.97Q336.06 399.03 333.17 399.27L331.68 399.27Q328.05 399.27 325.65 397.31ZM347.96 397.98Q347.22 397.44 347.22 396.63Q347.22 395.99 347.68 395.55Q348.17 395.07 348.81 395.07Q349.02 395.07 349.41 395.21Q351.66 396.19 354.13 396.19Q356.81 396.19 358.65 394.90Q360.52 393.58 360.66 391.08L360.66 390.74Q360.66 389.01 359.53 387.80Q358.47 386.61 356.92 386.10Q355.40 385.63 353.53 385.63Q352.93 385.63 352.48 385.19Q352.02 384.71 352.02 384.07Q352.02 383.46 352.33 383.12L358.82 376.22L348.91 376.22Q348.28 376.22 347.79 375.78Q347.33 375.30 347.33 374.66Q347.33 374.02 347.79 373.58Q348.24 373.14 348.91 373.14L361.36 373.14Q362.00 373.14 362.45 373.61Q362.95 374.05 362.95 374.66L362.95 375.88Q362.95 376.42 362.45 376.89L356.78 382.89L357.06 382.95Q360.06 383.70 361.96 385.70Q363.83 387.69 363.83 390.71L363.83 391.25Q363.65 394.94 360.83 397.10Q358.08 399.27 354.13 399.27Q353.15 399.27 352.16 399.17Q351.17 399.07 349.94 398.83Q348.70 398.56 347.96 397.98ZM376.93 376.73Q375.59 377.40 375.59 378.69Q375.59 379.54 375.91 380.18Q376.23 380.82 376.97 381.36Q377.67 381.87 378.13 382.14Q378.63 382.41 379.61 382.89L379.68 382.89L379.75 382.89Q380.74 382.45 381.24 382.18Q381.73 381.90 382.43 381.40Q383.14 380.86 383.46 380.21Q383.77 379.54 383.77 378.69Q383.77 377.40 382.43 376.73Q381.13 376.05 379.68 376.05Q378.24 376.05 376.93 376.73M379.68 386.37Q374.36 389.05 374.36 392.23Q374.36 394.13 375.95 395.17Q377.43 396.22 379.68 396.22L380.39 396.22Q382.26 396.22 383.60 395.04Q384.97 393.85 384.97 392.23Q384.97 389.01 379.83 386.37L379.75 386.31L379.68 386.37M373.65 397.31Q371.22 395.34 371.22 392.23Q371.22 388.13 376.23 384.82L376.44 384.68L376.23 384.55Q372.42 382.31 372.42 378.69Q372.42 376.22 374.68 374.63Q376.90 373.00 379.68 373.00Q382.43 373.00 384.69 374.63Q386.95 376.25 386.95 378.69Q386.95 380.69 385.96 382.07Q384.94 383.43 383.14 384.55L382.93 384.68L383.14 384.82Q388.15 388.13 388.15 392.23Q388.15 394.90 386.10 396.97Q384.06 399.03 381.17 399.27L379.68 399.27Q376.05 399.27 373.65 397.31ZM396.28 377.37Q395.82 376.89 395.82 376.32Q395.82 375.47 396.49 375.03Q399.70 373.00 403.68 373.00Q406.89 373.00 409.04 374.97Q411.23 376.89 411.23 380.04Q411.23 381.30 410.77 382.45Q410.31 383.63 409.71 384.38Q409.15 385.12 408.02 386.03Q406.89 386.95 406.29 387.36Q405.73 387.76 404.50 388.54Q403.16 389.39 402.56 389.83Q401.96 390.27 401.11 391.15Q400.26 391.99 399.88 393.08Q399.49 394.13 399.42 395.58L399.42 395.75L409.86 395.75Q410.53 395.75 410.98 396.22Q411.44 396.66 411.44 397.27Q411.44 397.88 410.95 398.36Q410.49 398.80 409.86 398.80L397.80 398.80Q397.16 398.80 396.67 398.36Q396.21 397.88 396.21 397.27L396.21 396.56Q396.21 393.92 396.56 392.77Q397.16 390.74 398.82 389.15Q400.48 387.52 402.87 385.97Q406.19 383.83 407.07 382.62Q408.06 381.40 408.06 380.04Q408.06 378.25 406.75 377.13Q405.52 376.05 403.68 376.05Q400.51 376.05 398.32 377.54Q397.94 377.81 397.41 377.81Q396.77 377.81 396.28 377.37ZM419.96 397.98Q419.22 397.44 419.22 396.63Q419.22 395.99 419.68 395.55Q420.17 395.07 420.81 395.07Q421.02 395.07 421.41 395.21Q423.66 396.19 426.13 396.19Q428.81 396.19 430.65 394.90Q432.52 393.58 432.66 391.08L432.66 390.74Q432.66 389.01 431.53 387.80Q430.47 386.61 428.92 386.10Q427.40 385.63 425.53 385.63Q424.93 385.63 424.48 385.19Q424.02 384.71 424.02 384.07Q424.02 383.46 424.33 383.12L430.82 376.22L420.91 376.22Q420.28 376.22 419.79 375.78Q419.33 375.30 419.33 374.66Q419.33 374.02 419.79 373.58Q420.24 373.14 420.91 373.14L433.36 373.14Q434.00 373.14 434.45 373.61Q434.95 374.05 434.95 374.66L434.95 375.88Q434.95 376.42 434.45 376.89L428.78 382.89L429.06 382.95Q432.06 383.70 433.96 385.70Q435.83 387.69 435.83 390.71L435.83 391.25Q435.65 394.94 432.83 397.10Q430.08 399.27 426.13 399.27Q425.15 399.27 424.16 399.17Q423.17 399.07 421.94 398.83Q420.70 398.56 419.96 397.98ZM447.95 377.71Q446.40 379.33 446.40 381.60Q446.40 383.80 447.88 385.19Q449.29 386.54 451.68 386.54Q455.88 386.54 456.62 384.07Q456.97 382.95 456.97 381.60Q456.97 379.06 455.49 377.57Q454.05 376.05 451.68 376.05Q449.46 376.05 447.95 377.71M445.62 387.29Q443.22 385.02 443.22 381.60Q443.22 378.08 445.76 375.54Q448.23 373.00 451.68 373.00Q455.25 373.00 457.68 375.37Q460.15 377.74 460.15 381.60Q460.15 384.00 459.41 385.93Q458.67 387.86 457.33 390.10Q454.40 395.01 450.17 398.76Q449.71 399.17 449.18 399.17Q448.58 399.17 448.12 398.73Q447.66 398.29 447.66 397.65Q447.66 397.00 448.16 396.53Q451.51 393.45 453.91 389.72L454.08 389.39L453.73 389.45Q452.81 389.59 451.68 389.59Q447.95 389.59 445.62 387.29ZM467.68 392.84Q467.22 392.40 467.22 391.76L467.22 390.30Q467.22 390.03 467.40 389.66L474.91 373.98Q475.05 373.61 475.44 373.37Q475.83 373.10 476.25 373.10Q476.88 373.10 477.34 373.58Q477.80 374.02 477.80 374.63Q477.80 374.97 477.62 375.27L470.57 390.23L477.45 390.23L477.45 386.14Q477.45 385.53 477.91 385.09Q478.36 384.61 478.96 384.61Q479.56 384.61 480.02 385.09Q480.52 385.53 480.52 386.14L480.52 390.23L482.56 390.23Q483.23 390.23 483.69 390.71Q484.15 391.15 484.15 391.76Q484.15 392.37 483.65 392.84Q483.20 393.28 482.56 393.28L480.52 393.28L480.52 397.65Q480.52 398.26 480.02 398.70Q479.56 399.17 478.96 399.17Q478.36 399.17 477.91 398.73Q477.45 398.26 477.45 397.65L477.45 393.28L468.81 393.28Q468.17 393.28 467.68 392.84ZM493.69 397.07Q491.33 394.87 491.22 391.25L491.22 390.84Q491.22 386.61 493.65 382.75Q494.64 381.16 496.05 379.40Q497.43 377.61 498.38 376.56Q499.33 375.47 501.09 373.54Q501.48 373.10 502.19 373.10Q502.79 373.10 503.25 373.58Q503.70 374.02 503.70 374.63Q503.70 375.20 503.32 375.68Q499.33 380.01 497.46 382.62L497.22 382.95L497.60 382.89Q498.63 382.68 499.68 382.68Q503.53 382.68 505.82 384.99Q508.15 387.32 508.15 391.25Q508.15 394.80 505.75 397.04Q503.35 399.27 499.68 399.27Q496.02 399.27 493.69 397.07M495.81 387.22Q494.40 388.68 494.40 391.25Q494.40 393.55 495.88 394.90Q497.32 396.22 499.68 396.22Q502.01 396.22 503.46 394.87Q504.97 393.52 504.97 391.25Q504.97 388.61 503.60 387.19Q502.26 385.73 499.68 385.73Q497.18 385.73 495.81 387.22ZM515.40 386.61L515.40 385.66Q515.40 385.02 515.86 384.58Q516.31 384.14 516.98 384.14L531.09 384.14Q531.76 384.14 532.22 384.61Q532.68 385.05 532.68 385.66L532.68 386.61Q532.68 387.22 532.22 387.69Q531.76 388.13 531.09 388.13L516.98 388.13Q516.31 388.13 515.86 387.69Q515.40 387.25 515.40 386.61ZM544.95 377.71Q543.40 379.33 543.40 381.60Q543.40 383.80 544.88 385.19Q546.29 386.54 548.68 386.54Q552.88 386.54 553.62 384.07Q553.97 382.95 553.97 381.60Q553.97 379.06 552.49 377.57Q551.05 376.05 548.68 376.05Q546.46 376.05 544.95 377.71M542.62 387.29Q540.22 385.02 540.22 381.60Q540.22 378.08 542.76 375.54Q545.23 373.00 548.68 373.00Q552.25 373.00 554.68 375.37Q557.15 377.74 557.15 381.60Q557.15 384.00 556.41 385.93Q555.67 387.86 554.33 390.10Q551.40 395.01 547.17 398.76Q546.71 399.17 546.18 399.17Q545.58 399.17 545.12 398.73Q544.66 398.29 544.66 397.65Q544.66 397.00 545.16 396.53Q548.51 393.45 550.91 389.72L551.08 389.39L550.73 389.45Q549.81 389.59 548.68 389.59Q544.95 389.59 542.62 387.29ZM565.60 398.83Q565.14 398.39 565.14 397.75Q565.14 397.07 565.60 396.63Q566.09 396.19 566.73 396.19Q573.85 396.19 575.93 392.37Q576.56 391.21 576.56 390.16Q576.56 387.69 575.36 386.44Q573.78 384.65 569.79 384.65Q568.70 384.65 567.57 384.75L567.43 384.75Q566.80 384.75 566.30 384.34Q565.84 383.90 565.84 383.29L565.84 383.19L566.34 374.56Q566.41 373.95 566.83 373.54Q567.29 373.14 567.92 373.14L577.94 373.14Q578.61 373.14 579.07 373.61Q579.53 374.05 579.53 374.66Q579.53 375.27 579.03 375.74Q578.57 376.22 577.94 376.22L569.41 376.22L569.12 381.53L569.79 381.53Q574.27 381.53 576.99 383.73Q579.74 385.90 579.74 390.16Q579.74 391.96 578.93 393.52Q578.08 395.11 576.81 396.22Q573.42 399.27 566.73 399.27Q566.09 399.27 565.60 398.83M567.54 384.75Q567.54 384.75 567.57 384.75Q567.57 384.75 567.54 384.75ZM596.83 399.27L596.68 399.27Q594.60 399.24 593.05 398.59Q591.50 397.98 590.58 397.00Q589.67 395.99 589.14 394.40Q588.57 392.81 588.40 391.18Q588.22 389.59 588.22 387.42Q588.22 385.49 588.26 384.14Q588.33 382.75 588.54 381.16Q588.75 379.54 589.10 378.45Q589.49 377.33 590.13 376.22Q590.76 375.13 591.64 374.49Q592.52 373.85 593.79 373.44Q595.06 373.04 596.68 373.04Q598.27 373.04 599.54 373.44Q600.81 373.85 601.69 374.49Q602.57 375.13 603.24 376.22Q603.88 377.33 604.23 378.45Q604.62 379.57 604.83 381.16Q605.04 382.75 605.08 384.14Q605.15 385.53 605.15 387.42Q605.15 388.78 605.08 389.89Q605.01 390.98 604.76 392.26Q604.55 393.55 604.20 394.53Q603.84 395.48 603.17 396.39Q602.50 397.31 601.66 397.92Q600.81 398.53 599.58 398.90Q598.34 399.27 596.83 399.27M591.40 384.65L591.40 387.42Q591.40 388.95 591.47 390.03Q591.57 391.11 591.89 392.37Q592.17 393.62 592.74 394.40Q593.30 395.21 594.29 395.75Q595.27 396.26 596.68 396.26L597.42 396.26Q598.41 396.26 599.19 395.89Q599.96 395.48 600.42 394.73Q600.92 394.02 601.23 393.21Q601.55 392.37 601.69 391.32Q601.87 390.23 601.90 389.35Q601.97 388.47 601.97 387.42L601.97 385.87Q601.97 384.82 601.94 384.21Q601.94 383.56 601.90 382.62Q601.87 381.63 601.76 381.09Q601.66 380.52 601.48 379.74Q601.30 378.96 601.02 378.49Q600.74 378.01 600.35 377.50Q599.93 377.00 599.43 376.73Q598.91 376.42 598.20 376.25Q597.53 376.08 596.68 376.08Q595.80 376.08 595.10 376.29Q594.43 376.45 593.90 376.79Q593.37 377.13 592.95 377.64Q592.56 378.11 592.28 378.72Q591.99 379.30 591.82 380.01Q591.64 380.69 591.57 381.46Q591.50 382.21 591.43 383.02Q591.40 383.80 591.40 384.65ZM613.60 398.83Q613.14 398.39 613.14 397.75Q613.14 397.07 613.60 396.63Q614.09 396.19 614.73 396.19Q621.85 396.19 623.93 392.37Q624.56 391.21 624.56 390.16Q624.56 387.69 623.36 386.44Q621.78 384.65 617.79 384.65Q616.70 384.65 615.57 384.75L615.43 384.75Q614.80 384.75 614.30 384.34Q613.84 383.90 613.84 383.29L613.84 383.19L614.34 374.56Q614.41 373.95 614.83 373.54Q615.29 373.14 615.92 373.14L625.94 373.14Q626.61 373.14 627.07 373.61Q627.53 374.05 627.53 374.66Q627.53 375.27 627.03 375.74Q626.57 376.22 625.94 376.22L617.41 376.22L617.12 381.53L617.79 381.53Q622.27 381.53 624.99 383.73Q627.74 385.90 627.74 390.16Q627.74 391.96 626.93 393.52Q626.08 395.11 624.81 396.22Q621.42 399.27 614.73 399.27Q614.09 399.27 613.60 398.83M615.54 384.75Q615.54 384.75 615.57 384.75Q615.57 384.75 615.54 384.75ZM636.68 375.78Q636.22 375.30 636.22 374.66Q636.22 374.02 636.68 373.58Q637.14 373.14 637.81 373.14L651.56 373.14Q652.23 373.14 652.69 373.61Q653.15 374.05 653.15 374.66Q653.15 377.23 651.07 380.25Q650.43 381.19 648.60 383.39Q646.76 385.63 645.99 387.02Q643.70 391.08 643.70 397.61Q643.70 398.26 643.24 398.73Q642.78 399.17 642.18 399.17Q641.58 399.17 641.12 398.73Q640.66 398.29 640.66 397.61Q640.66 390.23 643.34 385.46Q644.16 384.07 645.99 381.74Q647.86 379.37 648.46 378.49Q649.30 377.13 649.62 376.45L649.69 376.22L637.81 376.22Q637.17 376.22 636.68 375.78Z" fill="#000000" />
</svg>
