<svg viewBox="0 0 759 431" xmlns="http://www.w3.org/2000/svg">
<rect width="100%" height="100%" fill="#FFFFFF" />
<path stroke="#000000" stroke-width="6" d="M33 371L33 30M66 371L66 30M123 371L123 30M150 371L150 30M174 371L174 30M222 371L222 30M339 371L339 30M396 371L396 30M405 371L405 30M420 371L420 30M435 371L435 30M504 371L504 30M552 371L552 30M606 371L606 30M660 371L660 30M669 371L669 30M693 371L693 30M726 371L726 30" />
<path stroke="#000000" stroke-width="3" d="M40.50 371L40.50 30M49.50 371L49.50 30M79.50 371L79.50 30M91.50 371L91.50 30M97.50 371L97.50 30M142.50 371L142.50 30M163.50 371L163.50 30M196.50 371L196.50 30M229.50 371L229.50 30M289.50 371L289.50 30M310.50 371L310.50 30M316.50 371L316.50 30M328.50 371L328.50 30M355.50 371L355.50 30M361.50 371L361.50 30M370.50 371L370.50 30M427.50 371L427.50 30M448.50 371L448.50 30M460.50 371L460.50 30M493.50 371L493.50 30M526.50 371L526.50 30M559.50 371L559.50 30M625.50 371L625.50 30M634.50 371L634.50 30M718.50 371L718.50 30" />
<path stroke="#000000" stroke-width="9" d="M106.50 371L106.50 30M133.50 371L133.50 30M184.50 371L184.50 30M208.50 371L208.50 30M238.50 371L238.50 30M280.50 371L280.50 30M484.50 371L484.50 30M514.50 371L514.50 30M538.50 371L538.50 30M568.50 371L568.50 30M595.50 371L595.50 30M616.50 371L616.50 30M709.50 371L709.50 30" />
<path stroke="#000000" stroke-width="12" d="M252 371L252 30M267 371L267 30M300 371L300 30M384 371L384 30M471 371L471 30M582 371L582 30M648 371L648 30M681 371L681 30" />
<path d="M107.73 398.29Q107.23 397.78 107.23 397.10Q107.23 396.39 107.69 395.89Q108.15 395.41 108.82 395.41L112.20 395.41L112.20 376.59L109.52 376.59Q108.89 376.59 108.43 376.08Q107.94 375.57 107.94 374.90Q107.94 374.22 108.40 373.71Q108.85 373.20 109.52 373.20L117.85 373.20Q118.52 373.20 118.97 373.71Q119.43 374.22 119.43 374.90Q119.43 375.57 118.94 376.08Q118.48 376.59 117.85 376.59L115.17 376.59L115.17 395.41L118.55 395.41Q119.22 395.41 119.68 395.89Q120.14 396.39 120.14 397.10Q120.14 397.78 119.64 398.29Q119.19 398.80 118.55 398.80L108.82 398.80Q108.18 398.80 107.73 398.29ZM130.21 398.86Q129.72 398.36 129.72 397.65L129.72 374.46Q129.72 373.75 130.17 373.27Q130.67 372.76 131.30 372.76L132.61 372.76Q133.03 372.76 133.42 373.04Q133.84 373.27 134.02 373.71L142.48 392.91L142.48 374.39Q142.48 373.71 142.94 373.24Q143.43 372.73 144.07 372.73Q144.70 372.73 145.16 373.24Q145.65 373.71 145.65 374.42L145.65 397.61Q145.65 398.32 145.16 398.83Q144.70 399.34 144.07 399.34L142.73 399.34Q141.74 399.34 141.32 398.42L132.89 379.23L132.89 397.68Q132.89 398.36 132.40 398.86Q131.94 399.37 131.30 399.37Q130.67 399.37 130.21 398.86ZM159.00 398.15L153.19 374.46Q153.19 373.78 153.68 373.31Q154.17 372.80 154.81 372.80Q155.34 372.80 155.76 373.17Q156.22 373.51 156.32 373.98L161.68 395.65L167.01 373.98Q167.22 373.48 167.61 373.14Q168.03 372.80 168.56 372.80Q169.20 372.80 169.69 373.31Q170.18 373.81 170.18 374.46L164.29 398.15Q164.19 398.66 163.76 399.03Q163.34 399.37 162.85 399.37L160.52 399.37Q160.03 399.37 159.57 399Q159.11 398.63 159.00 398.15ZM177.40 386.61L177.40 385.66Q177.40 385.02 177.86 384.58Q178.31 384.14 178.98 384.14L193.09 384.14Q193.76 384.14 194.22 384.61Q194.68 385.05 194.68 385.66L194.68 386.61Q194.68 387.22 194.22 387.69Q193.76 388.13 193.09 388.13L178.98 388.13Q178.31 388.13 177.86 387.69Q177.40 387.25 177.40 386.61ZM203.77 380.92Q203.31 380.45 203.31 379.84Q203.31 379.13 203.77 378.79L210.23 373.48Q210.68 373.10 211.25 373.10L212.38 373.10Q213.01 373.10 213.47 373.58Q213.96 374.02 213.96 374.63L213.96 397.65Q213.96 398.26 213.47 398.73Q213.01 399.17 212.38 399.17Q211.74 399.17 211.25 398.73Q210.79 398.29 210.79 397.65L210.79 377.03L205.96 380.99Q205.50 381.36 204.90 381.36Q204.23 381.36 203.77 380.92ZM227.68 375.78Q227.22 375.30 227.22 374.66Q227.22 374.02 227.68 373.58Q228.14 373.14 228.81 373.14L242.56 373.14Q243.23 373.14 243.69 373.61Q244.15 374.05 244.15 374.66Q244.15 377.23 242.07 380.25Q241.43 381.19 239.60 383.39Q237.76 385.63 236.99 387.02Q234.70 391.08 234.70 397.61Q234.70 398.26 234.24 398.73Q233.78 399.17 233.18 399.17Q232.58 399.17 232.12 398.73Q231.66 398.29 231.66 397.61Q231.66 390.23 234.34 385.46Q235.16 384.07 236.99 381.74Q238.86 379.37 239.46 378.49Q240.30 377.13 240.62 376.45L240.69 376.22L228.81 376.22Q228.17 376.22 227.68 375.78ZM251.68 375.78Q251.22 375.30 251.22 374.66Q251.22 374.02 251.68 373.58Q252.14 373.14 252.81 373.14L266.56 373.14Q267.23 373.14 267.69 373.61Q268.15 374.05 268.15 374.66Q268.15 377.23 266.07 380.25Q265.43 381.19 263.60 383.39Q261.76 385.63 260.99 387.02Q258.70 391.08 258.70 397.61Q258.70 398.26 258.24 398.73Q257.78 399.17 257.18 399.17Q256.58 399.17 256.12 398.73Q255.66 398.29 255.66 397.61Q255.66 390.23 258.34 385.46Q259.16 384.07 260.99 381.74Q262.86 379.37 263.46 378.49Q264.30 377.13 264.62 376.45L264.69 376.22L252.81 376.22Q252.17 376.22 251.68 375.78ZM279.95 377.71Q278.40 379.33 278.40 381.60Q278.40 383.80 279.88 385.19Q281.29 386.54 283.68 386.54Q287.88 386.54 288.62 384.07Q288.97 382.95 288.97 381.60Q288.97 379.06 287.49 377.57Q286.05 376.05 283.68 376.05Q281.46 376.05 279.95 377.71M277.62 387.29Q275.22 385.02 275.22 381.60Q275.22 378.08 277.76 375.54Q280.23 373.00 283.68 373.00Q287.25 373.00 289.68 375.37Q292.15 377.74 292.15 381.60Q292.15 384.00 291.41 385.93Q290.67 387.86 289.33 390.10Q286.40 395.01 282.17 398.76Q281.71 399.17 281.18 399.17Q280.58 399.17 280.12 398.73Q279.66 398.29 279.66 397.65Q279.66 397.00 280.16 396.53Q283.51 393.45 285.91 389.72L286.08 389.39L285.73 389.45Q284.81 389.59 283.68 389.59Q279.95 389.59 277.62 387.29ZM299.68 375.78Q299.22 375.30 299.22 374.66Q299.22 374.02 299.68 373.58Q300.14 373.14 300.81 373.14L314.56 373.14Q315.23 373.14 315.69 373.61Q316.15 374.05 316.15 374.66Q316.15 377.23 314.07 380.25Q313.43 381.19 311.60 383.39Q309.76 385.63 308.99 387.02Q306.70 391.08 306.70 397.61Q306.70 398.26 306.24 398.73Q305.78 399.17 305.18 399.17Q304.58 399.17 304.12 398.73Q303.66 398.29 303.66 397.61Q303.66 390.23 306.34 385.46Q307.16 384.07 308.99 381.74Q310.86 379.37 311.46 378.49Q312.30 377.13 312.62 376.45L312.69 376.22L300.81 376.22Q300.17 376.22 299.68 375.78ZM323.68 375.78Q323.22 375.30 323.22 374.66Q323.22 374.02 323.68 373.58Q324.14 373.14 324.81 373.14L338.56 373.14Q339.23 373.14 339.69 373.61Q340.15 374.05 340.15 374.66Q340.15 377.23 338.07 380.25Q337.43 381.19 335.60 383.39Q333.76 385.63 332.99 387.02Q330.70 391.08 330.70 397.61Q330.70 398.26 330.24 398.73Q329.78 399.17 329.18 399.17Q328.58 399.17 328.12 398.73Q327.66 398.29 327.66 397.61Q327.66 390.23 330.34 385.46Q331.16 384.07 332.99 381.74Q334.86 379.37 335.46 378.49Q336.30 377.13 336.62 376.45L336.69 376.22L324.81 376.22Q324.17 376.22 323.68 375.78ZM348.28 377.37Q347.82 376.89 347.82 376.32Q347.82 375.47 348.49 375.03Q351.70 373.00 355.68 373.00Q358.89 373.00 361.04 374.97Q363.23 376.89 363.23 380.04Q363.23 381.30 362.77 382.45Q362.31 383.63 361.71 384.38Q361.15 385.12 360.02 386.03Q358.89 386.95 358.29 387.36Q357.73 387.76 356.50 388.54Q355.16 389.39 354.56 389.83Q353.96 390.27 353.11 391.15Q352.26 391.99 351.88 393.08Q351.49 394.13 351.42 395.58L351.42 395.75L361.86 395.75Q362.53 395.75 362.98 396.22Q363.44 396.66 363.44 397.27Q363.44 397.88 362.95 398.36Q362.49 398.80 361.86 398.80L349.80 398.80Q349.16 398.80 348.67 398.36Q348.21 397.88 348.21 397.27L348.21 396.56Q348.21 393.92 348.56 392.77Q349.16 390.74 350.82 389.15Q352.48 387.52 354.87 385.97Q358.19 383.83 359.07 382.62Q360.06 381.40 360.06 380.04Q360.06 378.25 358.75 377.13Q357.52 376.05 355.68 376.05Q352.51 376.05 350.32 377.54Q349.94 377.81 349.41 377.81Q348.77 377.81 348.28 377.37ZM376.93 376.73Q375.59 377.40 375.59 378.69Q375.59 379.54 375.91 380.18Q376.23 380.82 376.97 381.36Q377.67 381.87 378.13 382.14Q378.63 382.41 379.61 382.89L379.68 382.89L379.75 382.89Q380.74 382.45 381.24 382.18Q381.73 381.90 382.43 381.40Q383.14 380.86 383.46 380.21Q383.77 379.54 383.77 378.69Q383.77 377.40 382.43 376.73Q381.13 376.05 379.68 376.05Q378.24 376.05 376.93 376.73M379.68 386.37Q374.36 389.05 374.36 392.23Q374.36 394.13 375.95 395.17Q377.43 396.22 379.68 396.22L380.39 396.22Q382.26 396.22 383.60 395.04Q384.97 393.85 384.97 392.23Q384.97 389.01 379.83 386.37L379.75 386.31L379.68 386.37M373.65 397.31Q371.22 395.34 371.22 392.23Q371.22 388.13 376.23 384.82L376.44 384.68L376.23 384.55Q372.42 382.31 372.42 378.69Q372.42 376.22 374.68 374.63Q376.90 373.00 379.68 373.00Q382.43 373.00 384.69 374.63Q386.95 376.25 386.95 378.69Q386.95 380.69 385.96 382.07Q384.94 383.43 383.14 384.55L382.93 384.68L383.14 384.82Q388.15 388.13 388.15 392.23Q388.15 394.90 386.10 396.97Q384.06 399.03 381.17 399.27L379.68 399.27Q376.05 399.27 373.65 397.31ZM396.28 377.37Q395.82 376.89 395.82 376.32Q395.82 375.47 396.49 375.03Q399.70 373.00 403.68 373.00Q406.89 373.00 409.04 374.97Q411.23 376.89 411.23 380.04Q411.23 381.30 410.77 382.45Q410.31 383.63 409.71 384.38Q409.15 385.12 408.02 386.03Q406.89 386.95 406.29 387.36Q405.73 387.76 404.50 388.54Q403.16 389.39 402.56 389.83Q401.96 390.27 401.11 391.15Q400.26 391.99 399.88 393.08Q399.49 394.13 399.42 395.58L399.42 395.75L409.86 395.75Q410.53 395.75 410.98 396.22Q411.44 396.66 411.44 397.27Q411.44 397.88 410.95 398.36Q410.49 398.80 409.86 398.80L397.80 398.80Q397.16 398.80 396.67 398.36Q396.21 397.88 396.21 397.27L396.21 396.56Q396.21 393.92 396.56 392.77Q397.16 390.74 398.82 389.15Q400.48 387.52 402.87 385.97Q406.19 383.83 407.07 382.62Q408.06 381.40 408.06 380.04Q408.06 378.25 406.75 377.13Q405.52 376.05 403.68 376.05Q400.51 376.05 398.32 377.54Q397.94 377.81 397.41 377.81Q396.77 377.81 396.28 377.37ZM419.96 397.98Q419.22 397.44 419.22 396.63Q419.22 395.99 419.68 395.55Q420.17 395.07 420.81 395.07Q421.02 395.07 421.41 395.21Q423.66 396.19 426.13 396.19Q428.81 396.19 430.65 394.90Q432.52 393.58 432.66 391.08L432.66 390.74Q432.66 389.01 431.53 387.80Q430.47 386.61 428.92 386.10Q427.40 385.63 425.53 385.63Q424.93 385.63 424.48 385.19Q424.02 384.71 424.02 384.07Q424.02 383.46 424.33 383.12L430.82 376.22L420.91 376.22Q420.28 376.22 419.79 375.78Q419.33 375.30 419.33 374.66Q419.33 374.02 419.79 373.58Q420.24 373.14 420.91 373.14L433.36 373.14Q434.00 373.14 434.45 373.61Q434.95 374.05 434.95 374.66L434.95 375.88Q434.95 376.42 434.45 376.89L428.78 382.89L429.06 382.95Q432.06 383.70 433.96 385.70Q435.83 387.69 435.83 390.71L435.83 391.25Q435.65 394.94 432.83 397.10Q430.08 399.27 426.13 399.27Q425.15 399.27 424.16 399.17Q423.17 399.07 421.94 398.83Q420.70 398.56 419.96 397.98ZM444.77 380.92Q444.31 380.45 444.31 379.84Q444.31 379.13 444.77 378.79L451.23 373.48Q451.68 373.10 452.25 373.10L453.38 373.10Q454.01 373.10 454.47 373.58Q454.96 374.02 454.96 374.63L454.96 397.65Q454.96 398.26 454.47 398.73Q454.01 399.17 453.38 399.17Q452.74 399.17 452.25 398.73Q451.79 398.29 451.79 397.65L451.79 377.03L446.96 380.99Q446.50 381.36 445.90 381.36Q445.23 381.36 444.77 380.92ZM468.96 397.98Q468.22 397.44 468.22 396.63Q468.22 395.99 468.68 395.55Q469.17 395.07 469.81 395.07Q470.02 395.07 470.41 395.21Q472.66 396.19 475.13 396.19Q477.81 396.19 479.65 394.90Q481.52 393.58 481.66 391.08L481.66 390.74Q481.66 389.01 480.53 387.80Q479.47 386.61 477.92 386.10Q476.40 385.63 474.53 385.63Q473.93 385.63 473.48 385.19Q473.02 384.71 473.02 384.07Q473.02 383.46 473.33 383.12L479.82 376.22L469.91 376.22Q469.28 376.22 468.79 375.78Q468.33 375.30 468.33 374.66Q468.33 374.02 468.79 373.58Q469.24 373.14 469.91 373.14L482.36 373.14Q483.00 373.14 483.45 373.61Q483.95 374.05 483.95 374.66L483.95 375.88Q483.95 376.42 483.45 376.89L477.78 382.89L478.06 382.95Q481.06 383.70 482.96 385.70Q484.83 387.69 484.83 390.71L484.83 391.25Q484.65 394.94 481.83 397.10Q479.08 399.27 475.13 399.27Q474.15 399.27 473.16 399.17Q472.17 399.07 470.94 398.83Q469.70 398.56 468.96 397.98ZM494.69 397.07Q492.33 394.87 492.22 391.25L492.22 390.84Q492.22 386.61 494.65 382.75Q495.64 381.16 497.05 379.40Q498.43 377.61 499.38 376.56Q500.33 375.47 502.09 373.54Q502.48 373.10 503.19 373.10Q503.79 373.10 504.25 373.58Q504.70 374.02 504.70 374.63Q504.70 375.20 504.32 375.68Q500.33 380.01 498.46 382.62L498.22 382.95L498.60 382.89Q499.63 382.68 500.68 382.68Q504.53 382.68 506.82 384.99Q509.15 387.32 509.15 391.25Q509.15 394.80 506.75 397.04Q504.35 399.27 500.68 399.27Q497.02 399.27 494.69 397.07M496.81 387.22Q495.40 388.68 495.40 391.25Q495.40 393.55 496.88 394.90Q498.32 396.22 500.68 396.22Q503.01 396.22 504.46 394.87Q505.97 393.52 505.97 391.25Q505.97 388.61 504.60 387.19Q503.26 385.73 500.68 385.73Q498.18 385.73 496.81 387.22ZM516.40 386.61L516.40 385.66Q516.40 385.02 516.86 384.58Q517.31 384.14 517.98 384.14L532.09 384.14Q532.76 384.14 533.22 384.61Q533.68 385.05 533.68 385.66L533.68 386.61Q533.68 387.22 533.22 387.69Q532.76 388.13 532.09 388.13L517.98 388.13Q517.31 388.13 516.86 387.69Q516.40 387.25 516.40 386.61ZM542.77 380.92Q542.31 380.45 542.31 379.84Q542.31 379.13 542.77 378.79L549.23 373.48Q549.68 373.10 550.25 373.10L551.38 373.10Q552.01 373.10 552.47 373.58Q552.96 374.02 552.96 374.63L552.96 397.65Q552.96 398.26 552.47 398.73Q552.01 399.17 551.38 399.17Q550.74 399.17 550.25 398.73Q549.79 398.29 549.79 397.65L549.79 377.03L544.96 380.99Q544.50 381.36 543.90 381.36Q543.23 381.36 542.77 380.92ZM567.28 377.37Q566.82 376.89 566.82 376.32Q566.82 375.47 567.49 375.03Q570.70 373.00 574.68 373.00Q577.89 373.00 580.04 374.97Q582.23 376.89 582.23 380.04Q582.23 381.30 581.77 382.45Q581.31 383.63 580.71 384.38Q580.15 385.12 579.02 386.03Q577.89 386.95 577.29 387.36Q576.73 387.76 575.50 388.54Q574.16 389.39 573.56 389.83Q572.96 390.27 572.11 391.15Q571.26 391.99 570.88 393.08Q570.49 394.13 570.42 395.58L570.42 395.75L580.86 395.75Q581.53 395.75 581.98 396.22Q582.44 396.66 582.44 397.27Q582.44 397.88 581.95 398.36Q581.49 398.80 580.86 398.80L568.80 398.80Q568.16 398.80 567.67 398.36Q567.21 397.88 567.21 397.27L567.21 396.56Q567.21 393.92 567.56 392.77Q568.16 390.74 569.82 389.15Q571.48 387.52 573.87 385.97Q577.19 383.83 578.07 382.62Q579.06 381.40 579.06 380.04Q579.06 378.25 577.75 377.13Q576.52 376.05 574.68 376.05Q571.51 376.05 569.32 377.54Q568.94 377.81 568.41 377.81Q567.77 377.81 567.28 377.37ZM590.96 397.98Q590.22 397.44 590.22 396.63Q590.22 395.99 590.68 395.55Q591.17 395.07 591.81 395.07Q592.02 395.07 592.41 395.21Q594.66 396.19 597.13 396.19Q599.81 396.19 601.65 394.90Q603.52 393.58 603.66 391.08L603.66 390.74Q603.66 389.01 602.53 387.80Q601.47 386.61 599.92 386.10Q598.40 385.63 596.53 385.63Q595.93 385.63 595.48 385.19Q595.02 384.71 595.02 384.07Q595.02 383.46 595.33 383.12L601.82 376.22L591.91 376.22Q591.28 376.22 590.79 375.78Q590.33 375.30 590.33 374.66Q590.33 374.02 590.79 373.58Q591.24 373.14 591.91 373.14L604.36 373.14Q605.00 373.14 605.45 373.61Q605.95 374.05 605.95 374.66L605.95 375.88Q605.95 376.42 605.45 376.89L599.78 382.89L600.06 382.95Q603.06 383.70 604.96 385.70Q606.83 387.69 606.83 390.71L606.83 391.25Q606.65 394.94 603.83 397.10Q601.08 399.27 597.13 399.27Q596.15 399.27 595.16 399.17Q594.17 399.07 592.94 398.83Q591.70 398.56 590.96 397.98ZM619.93 376.73Q618.59 377.40 618.59 378.69Q618.59 379.54 618.91 380.18Q619.23 380.82 619.97 381.36Q620.67 381.87 621.13 382.14Q621.63 382.41 622.61 382.89L622.68 382.89L622.75 382.89Q623.74 382.45 624.24 382.18Q624.73 381.90 625.43 381.40Q626.14 380.86 626.46 380.21Q626.77 379.54 626.77 378.69Q626.77 377.40 625.43 376.73Q624.13 376.05 622.68 376.05Q621.24 376.05 619.93 376.73M622.68 386.37Q617.36 389.05 617.36 392.23Q617.36 394.13 618.95 395.17Q620.43 396.22 622.68 396.22L623.39 396.22Q625.26 396.22 626.60 395.04Q627.97 393.85 627.97 392.23Q627.97 389.01 622.83 386.37L622.75 386.31L622.68 386.37M616.65 397.31Q614.22 395.34 614.22 392.23Q614.22 388.13 619.23 384.82L619.44 384.68L619.23 384.55Q615.42 382.31 615.42 378.69Q615.42 376.22 617.68 374.63Q619.90 373.00 622.68 373.00Q625.43 373.00 627.69 374.63Q629.95 376.25 629.95 378.69Q629.95 380.69 628.96 382.07Q627.94 383.43 626.14 384.55L625.93 384.68L626.14 384.82Q631.15 388.13 631.15 392.23Q631.15 394.90 629.10 396.97Q627.06 399.03 624.17 399.27L622.68 399.27Q619.05 399.27 616.65 397.31ZM639.28 377.37Q638.82 376.89 638.82 376.32Q638.82 375.47 639.49 375.03Q642.70 373.00 646.68 373.00Q649.89 373.00 652.04 374.97Q654.23 376.89 654.23 380.04Q654.23 381.30 653.77 382.45Q653.31 383.63 652.71 384.38Q652.15 385.12 651.02 386.03Q649.89 386.95 649.29 387.36Q648.73 387.76 647.50 388.54Q646.16 389.39 645.56 389.83Q644.96 390.27 644.11 391.15Q643.26 391.99 642.88 393.08Q642.49 394.13 642.42 395.58L642.42 395.75L652.86 395.75Q653.53 395.75 653.98 396.22Q654.44 396.66 654.44 397.27Q654.44 397.88 653.95 398.36Q653.49 398.80 652.86 398.80L640.80 398.80Q640.16 398.80 639.67 398.36Q639.21 397.88 639.21 397.27L639.21 396.56Q639.21 393.92 639.56 392.77Q640.16 390.74 641.82 389.15Q643.48 387.52 645.87 385.97Q649.19 383.83 650.07 382.62Q651.06 381.40 651.06 380.04Q651.06 378.25 649.75 377.13Q648.52 376.05 646.68 376.05Q643.51 376.05 641.32 377.54Q640.94 377.81 640.41 377.81Q639.77 377.81 639.28 377.37Z" fill="#000000" />
</svg>
