<svg viewBox="0 0 759 431" xmlns="http://www.w3.org/2000/svg">
<rect width="100%" height="100%" fill="#FFFFFF" />
<path stroke="#000000" stroke-width="6" d="M33 371L33 30M66 371L66 30M123 371L123 30M150 371L150 30M174 371L174 30M222 371L222 30M384 371L384 30M453 371L453 30M504 371L504 30M549 371L549 30M606 371L606 30M627 371L627 30M681 371L681 30M693 371L693 30M726 371L726 30" />
<path stroke="#000000" stroke-width="3" d="M40.50 371L40.50 30M49.50 371L49.50 30M79.50 371L79.50 30M91.50 371L91.50 30M97.50 371L97.50 30M142.50 371L142.50 30M163.50 371L163.50 30M196.50 371L196.50 30M229.50 371L229.50 30M289.50 371L289.50 30M295.50 371L295.50 30M301.50 371L301.50 30M328.50 371L328.50 30M349.50 371L349.50 30M376.50 371L376.50 30M394.50 371L394.50 30M403.50 371L403.50 30M427.50 371L427.50 30M442.50 371L442.50 30M460.50 371L460.50 30M493.50 371L493.50 30M538.50 371L538.50 30M559.50 371L559.50 30M592.50 371L592.50 30M616.50 371L616.50 30M640.50 371L640.50 30M658.50 371L658.50 30M670.50 371L670.50 30M718.50 371L718.50 30" />
<path stroke="#000000" stroke-width="9" d="M106.50 371L106.50 30M133.50 371L133.50 30M184.50 371L184.50 30M208.50 371L208.50 30M238.50 371L238.50 30M280.50 371L280.50 30M364.50 371L364.50 30M484.50 371L484.50 30M514.50 371L514.50 30M529.50 371L529.50 30M568.50 371L568.50 30M649.50 371L649.50 30M709.50 371L709.50 30" />
<path stroke="#000000" stroke-width="12" d="M252 371L252 30M267 371L267 30M318 371L318 30M339 371L339 30M414 371L414 30M471 371L471 30M582 371L582 30" />
<path d="M107.73 398.29Q107.23 397.78 107.23 397.10Q107.23 396.39 107.69 395.89Q108.15 395.41 108.82 395.41L112.20 395.41L112.20 376.59L109.52 376.59Q108.89 376.59 108.43 376.08Q107.94 375.57 107.94 374.90Q107.94 374.22 108.40 373.71Q108.85 373.20 109.52 373.20L117.85 373.20Q118.52 373.20 118.97 373.71Q119.43 374.22 119.43 374.90Q119.43 375.57 118.94 376.08Q118.48 376.59 117.85 376.59L115.17 376.59L115.17 395.41L118.55 395.41Q119.22 395.41 119.68 395.89Q120.14 396.39 120.14 397.10Q120.14 397.78 119.64 398.29Q119.19 398.80 118.55 398.80L108.82 398.80Q108.18 398.80 107.73 398.29ZM130.21 398.86Q129.72 398.36 129.72 397.65L129.72 374.46Q129.72 373.75 130.17 373.27Q130.67 372.76 131.30 372.76L132.61 372.76Q133.03 372.76 133.42 373.04Q133.84 373.27 134.02 373.71L142.48 392.91L142.48 374.39Q142.48 373.71 142.94 373.24Q143.43 372.73 144.07 372.73Q144.70 372.73 145.16 373.24Q145.65 373.71 145.65 374.42L145.65 397.61Q145.65 398.32 145.16 398.83Q144.70 399.34 144.07 399.34L142.73 399.34Q141.74 399.34 141.32 398.42L132.89 379.23L132.89 397.68Q132.89 398.36 132.40 398.86Q131.94 399.37 131.30 399.37Q130.67 399.37 130.21 398.86ZM159.00 398.15L153.19 374.46Q153.19 373.78 153.68 373.31Q154.17 372.80 154.81 372.80Q155.34 372.80 155.76 373.17Q156.22 373.51 156.32 373.98L161.68 395.65L167.01 373.98Q167.22 373.48 167.61 373.14Q168.03 372.80 168.56 372.80Q169.20 372.80 169.69 373.31Q170.18 373.81 170.18 374.46L164.29 398.15Q164.19 398.66 163.76 399.03Q163.34 399.37 162.85 399.37L160.52 399.37Q160.03 399.37 159.57 399Q159.11 398.63 159.00 398.15ZM177.40 386.61L177.40 385.66Q177.40 385.02 177.86 384.58Q178.31 384.14 178.98 384.14L193.09 384.14Q193.76 384.14 194.22 384.61Q194.68 385.05 194.68 385.66L194.68 386.61Q194.68 387.22 194.22 387.69Q193.76 388.13 193.09 388.13L178.98 388.13Q178.31 388.13 177.86 387.69Q177.40 387.25 177.40 386.61ZM203.77 380.92Q203.31 380.45 203.31 379.84Q203.31 379.13 203.77 378.79L210.23 373.48Q210.68 373.10 211.25 373.10L212.38 373.10Q213.01 373.10 213.47 373.58Q213.96 374.02 213.96 374.63L213.96 397.65Q213.96 398.26 213.47 398.73Q213.01 399.17 212.38 399.17Q211.74 399.17 211.25 398.73Q210.79 398.29 210.79 397.65L210.79 377.03L205.96 380.99Q205.50 381.36 204.90 381.36Q204.23 381.36 203.77 380.92ZM227.68 375.78Q227.22 375.30 227.22 374.66Q227.22 374.02 227.68 373.58Q228.14 373.14 228.81 373.14L242.56 373.14Q243.23 373.14 243.69 373.61Q244.15 374.05 244.15 374.66Q244.15 377.23 242.07 380.25Q241.43 381.19 239.60 383.39Q237.76 385.63 236.99 387.02Q234.70 391.08 234.70 397.61Q234.70 398.26 234.24 398.73Q233.78 399.17 233.18 399.17Q232.58 399.17 232.12 398.73Q231.66 398.29 231.66 397.61Q231.66 390.23 234.34 385.46Q235.16 384.07 236.99 381.74Q238.86 379.37 239.46 378.49Q240.30 377.13 240.62 376.45L240.69 376.22L228.81 376.22Q228.17 376.22 227.68 375.78ZM251.68 375.78Q251.22 375.30 251.22 374.66Q251.22 374.02 251.68 373.58Q252.14 373.14 252.81 373.14L266.56 373.14Q267.23 373.14 267.69 373.61Q268.15 374.05 268.15 374.66Q268.15 377.23 266.07 380.25Q265.43 381.19 263.60 383.39Q261.76 385.63 260.99 387.02Q258.70 391.08 258.70 397.61Q258.70 398.26 258.24 398.73Q257.78 399.17 257.18 399.17Q256.58 399.17 256.12 398.73Q255.66 398.29 255.66 397.61Q255.66 390.23 258.34 385.46Q259.16 384.07 260.99 381.74Q262.86 379.37 263.46 378.49Q264.30 377.13 264.62 376.45L264.69 376.22L252.81 376.22Q252.17 376.22 251.68 375.78ZM279.95 377.71Q278.40 379.33 278.40 381.60Q278.40 383.80 279.88 385.19Q281.29 386.54 283.68 386.54Q287.88 386.54 288.62 384.07Q288.97 382.95 288.97 381.60Q288.97 379.06 287.49 377.57Q286.05 376.05 283.68 376.05Q281.46 376.05 279.95 377.71M277.62 387.29Q275.22 385.02 275.22 381.60Q275.22 378.08 277.76 375.54Q280.23 373.00 283.68 373.00Q287.25 373.00 289.68 375.37Q292.15 377.74 292.15 381.60Q292.15 384.00 291.41 385.93Q290.67 387.86 289.33 390.10Q286.40 395.01 282.17 398.76Q281.71 399.17 281.18 399.17Q280.58 399.17 280.12 398.73Q279.66 398.29 279.66 397.65Q279.66 397.00 280.16 396.53Q283.51 393.45 285.91 389.72L286.08 389.39L285.73 389.45Q284.81 389.59 283.68 389.59Q279.95 389.59 277.62 387.29ZM299.96 397.98Q299.22 397.44 299.22 396.63Q299.22 395.99 299.68 395.55Q300.17 395.07 300.81 395.07Q301.02 395.07 301.41 395.21Q303.66 396.19 306.13 396.19Q308.81 396.19 310.65 394.90Q312.52 393.58 312.66 391.08L312.66 390.74Q312.66 389.01 311.53 387.80Q310.47 386.61 308.92 386.10Q307.40 385.63 305.53 385.63Q304.93 385.63 304.48 385.19Q304.02 384.71 304.02 384.07Q304.02 383.46 304.33 383.12L310.82 376.22L300.91 376.22Q300.28 376.22 299.79 375.78Q299.33 375.30 299.33 374.66Q299.33 374.02 299.79 373.58Q300.24 373.14 300.91 373.14L313.36 373.14Q314.00 373.14 314.45 373.61Q314.95 374.05 314.95 374.66L314.95 375.88Q314.95 376.42 314.45 376.89L308.78 382.89L309.06 382.95Q312.06 383.70 313.96 385.70Q315.83 387.69 315.83 390.71L315.83 391.25Q315.65 394.94 312.83 397.10Q310.08 399.27 306.13 399.27Q305.15 399.27 304.16 399.17Q303.17 399.07 301.94 398.83Q300.70 398.56 299.96 397.98ZM327.95 377.71Q326.40 379.33 326.40 381.60Q326.40 383.80 327.88 385.19Q329.29 386.54 331.68 386.54Q335.88 386.54 336.62 384.07Q336.97 382.95 336.97 381.60Q336.97 379.06 335.49 377.57Q334.05 376.05 331.68 376.05Q329.46 376.05 327.95 377.71M325.62 387.29Q323.22 385.02 323.22 381.60Q323.22 378.08 325.76 375.54Q328.23 373.00 331.68 373.00Q335.25 373.00 337.68 375.37Q340.15 377.74 340.15 381.60Q340.15 384.00 339.41 385.93Q338.67 387.86 337.33 390.10Q334.40 395.01 330.17 398.76Q329.71 399.17 329.18 399.17Q328.58 399.17 328.12 398.73Q327.66 398.29 327.66 397.65Q327.66 397.00 328.16 396.53Q331.51 393.45 333.91 389.72L334.08 389.39L333.73 389.45Q332.81 389.59 331.68 389.59Q327.95 389.59 325.62 387.29ZM348.60 398.83Q348.14 398.39 348.14 397.75Q348.14 397.07 348.60 396.63Q349.09 396.19 349.73 396.19Q356.85 396.19 358.93 392.37Q359.56 391.21 359.56 390.16Q359.56 387.69 358.36 386.44Q356.78 384.65 352.79 384.65Q351.70 384.65 350.57 384.75L350.43 384.75Q349.80 384.75 349.30 384.34Q348.84 383.90 348.84 383.29L348.84 383.19L349.34 374.56Q349.41 373.95 349.83 373.54Q350.29 373.14 350.92 373.14L360.94 373.14Q361.61 373.14 362.07 373.61Q362.53 374.05 362.53 374.66Q362.53 375.27 362.03 375.74Q361.57 376.22 360.94 376.22L352.41 376.22L352.12 381.53L352.79 381.53Q357.27 381.53 359.99 383.73Q362.74 385.90 362.74 390.16Q362.74 391.96 361.93 393.52Q361.08 395.11 359.81 396.22Q356.42 399.27 349.73 399.27Q349.09 399.27 348.60 398.83M350.54 384.75Q350.54 384.75 350.57 384.75Q350.57 384.75 350.54 384.75ZM372.28 377.37Q371.82 376.89 371.82 376.32Q371.82 375.47 372.49 375.03Q375.70 373.00 379.68 373.00Q382.89 373.00 385.04 374.97Q387.23 376.89 387.23 380.04Q387.23 381.30 386.77 382.45Q386.31 383.63 385.71 384.38Q385.15 385.12 384.02 386.03Q382.89 386.95 382.29 387.36Q381.73 387.76 380.50 388.54Q379.16 389.39 378.56 389.83Q377.96 390.27 377.11 391.15Q376.26 391.99 375.88 393.08Q375.49 394.13 375.42 395.58L375.42 395.75L385.86 395.75Q386.53 395.75 386.98 396.22Q387.44 396.66 387.44 397.27Q387.44 397.88 386.95 398.36Q386.49 398.80 385.86 398.80L373.80 398.80Q373.16 398.80 372.67 398.36Q372.21 397.88 372.21 397.27L372.21 396.56Q372.21 393.92 372.56 392.77Q373.16 390.74 374.82 389.15Q376.48 387.52 378.87 385.97Q382.19 383.83 383.07 382.62Q384.06 381.40 384.06 380.04Q384.06 378.25 382.75 377.13Q381.52 376.05 379.68 376.05Q376.51 376.05 374.32 377.54Q373.94 377.81 373.41 377.81Q372.77 377.81 372.28 377.37ZM396.60 398.83Q396.14 398.39 396.14 397.75Q396.14 397.07 396.60 396.63Q397.09 396.19 397.73 396.19Q404.85 396.19 406.93 392.37Q407.56 391.21 407.56 390.16Q407.56 387.69 406.36 386.44Q404.78 384.65 400.79 384.65Q399.70 384.65 398.57 384.75L398.43 384.75Q397.80 384.75 397.30 384.34Q396.84 383.90 396.84 383.29L396.84 383.19L397.34 374.56Q397.41 373.95 397.83 373.54Q398.29 373.14 398.92 373.14L408.94 373.14Q409.61 373.14 410.07 373.61Q410.53 374.05 410.53 374.66Q410.53 375.27 410.03 375.74Q409.57 376.22 408.94 376.22L400.41 376.22L400.12 381.53L400.79 381.53Q405.27 381.53 407.99 383.73Q410.74 385.90 410.74 390.16Q410.74 391.96 409.93 393.52Q409.08 395.11 407.81 396.22Q404.42 399.27 397.73 399.27Q397.09 399.27 396.60 398.83M398.54 384.75Q398.54 384.75 398.57 384.75Q398.57 384.75 398.54 384.75ZM424.93 376.73Q423.59 377.40 423.59 378.69Q423.59 379.54 423.91 380.18Q424.23 380.82 424.97 381.36Q425.67 381.87 426.13 382.14Q426.63 382.41 427.61 382.89L427.68 382.89L427.75 382.89Q428.74 382.45 429.24 382.18Q429.73 381.90 430.43 381.40Q431.14 380.86 431.46 380.21Q431.77 379.54 431.77 378.69Q431.77 377.40 430.43 376.73Q429.13 376.05 427.68 376.05Q426.24 376.05 424.93 376.73M427.68 386.37Q422.36 389.05 422.36 392.23Q422.36 394.13 423.95 395.17Q425.43 396.22 427.68 396.22L428.39 396.22Q430.26 396.22 431.60 395.04Q432.97 393.85 432.97 392.23Q432.97 389.01 427.83 386.37L427.75 386.31L427.68 386.37M421.65 397.31Q419.22 395.34 419.22 392.23Q419.22 388.13 424.23 384.82L424.44 384.68L424.23 384.55Q420.42 382.31 420.42 378.69Q420.42 376.22 422.68 374.63Q424.90 373.00 427.68 373.00Q430.43 373.00 432.69 374.63Q434.95 376.25 434.95 378.69Q434.95 380.69 433.96 382.07Q432.94 383.43 431.14 384.55L430.93 384.68L431.14 384.82Q436.15 388.13 436.15 392.23Q436.15 394.90 434.10 396.97Q432.06 399.03 429.17 399.27L427.68 399.27Q424.05 399.27 421.65 397.31ZM444.77 380.92Q444.31 380.45 444.31 379.84Q444.31 379.13 444.77 378.79L451.23 373.48Q451.68 373.10 452.25 373.10L453.38 373.10Q454.01 373.10 454.47 373.58Q454.96 374.02 454.96 374.63L454.96 397.65Q454.96 398.26 454.47 398.73Q454.01 399.17 453.38 399.17Q452.74 399.17 452.25 398.73Q451.79 398.29 451.79 397.65L451.79 377.03L446.96 380.99Q446.50 381.36 445.90 381.36Q445.23 381.36 444.77 380.92ZM470.69 397.07Q468.33 394.87 468.22 391.25L468.22 390.84Q468.22 386.61 470.65 382.75Q471.64 381.16 473.05 379.40Q474.43 377.61 475.38 376.56Q476.33 375.47 478.09 373.54Q478.48 373.10 479.19 373.10Q479.79 373.10 480.25 373.58Q480.70 374.02 480.70 374.63Q480.70 375.20 480.32 375.68Q476.33 380.01 474.46 382.62L474.22 382.95L474.60 382.89Q475.63 382.68 476.68 382.68Q480.53 382.68 482.82 384.99Q485.15 387.32 485.15 391.25Q485.15 394.80 482.75 397.04Q480.35 399.27 476.68 399.27Q473.02 399.27 470.69 397.07M472.81 387.22Q471.40 388.68 471.40 391.25Q471.40 393.55 472.88 394.90Q474.32 396.22 476.68 396.22Q479.01 396.22 480.46 394.87Q481.97 393.52 481.97 391.25Q481.97 388.61 480.60 387.19Q479.26 385.73 476.68 385.73Q474.18 385.73 472.81 387.22ZM497.93 376.73Q496.59 377.40 496.59 378.69Q496.59 379.54 496.91 380.18Q497.23 380.82 497.97 381.36Q498.67 381.87 499.13 382.14Q499.63 382.41 500.61 382.89L500.68 382.89L500.75 382.89Q501.74 382.45 502.24 382.18Q502.73 381.90 503.43 381.40Q504.14 380.86 504.46 380.21Q504.77 379.54 504.77 378.69Q504.77 377.40 503.43 376.73Q502.13 376.05 500.68 376.05Q499.24 376.05 497.93 376.73M500.68 386.37Q495.36 389.05 495.36 392.23Q495.36 394.13 496.95 395.17Q498.43 396.22 500.68 396.22L501.39 396.22Q503.26 396.22 504.60 395.04Q505.97 393.85 505.97 392.23Q505.97 389.01 500.83 386.37L500.75 386.31L500.68 386.37M494.65 397.31Q492.22 395.34 492.22 392.23Q492.22 388.13 497.23 384.82L497.44 384.68L497.23 384.55Q493.42 382.31 493.42 378.69Q493.42 376.22 495.68 374.63Q497.90 373.00 500.68 373.00Q503.43 373.00 505.69 374.63Q507.95 376.25 507.95 378.69Q507.95 380.69 506.96 382.07Q505.94 383.43 504.14 384.55L503.93 384.68L504.14 384.82Q509.15 388.13 509.15 392.23Q509.15 394.90 507.10 396.97Q505.06 399.03 502.17 399.27L500.68 399.27Q497.05 399.27 494.65 397.31ZM516.40 386.61L516.40 385.66Q516.40 385.02 516.86 384.58Q517.31 384.14 517.98 384.14L532.09 384.14Q532.76 384.14 533.22 384.61Q533.68 385.05 533.68 385.66L533.68 386.61Q533.68 387.22 533.22 387.69Q532.76 388.13 532.09 388.13L517.98 388.13Q517.31 388.13 516.86 387.69Q516.40 387.25 516.40 386.61ZM546.93 376.73Q545.59 377.40 545.59 378.69Q545.59 379.54 545.91 380.18Q546.23 380.82 546.97 381.36Q547.67 381.87 548.13 382.14Q548.63 382.41 549.61 382.89L549.68 382.89L549.75 382.89Q550.74 382.45 551.24 382.18Q551.73 381.90 552.43 381.40Q553.14 380.86 553.46 380.21Q553.77 379.54 553.77 378.69Q553.77 377.40 552.43 376.73Q551.13 376.05 549.68 376.05Q548.24 376.05 546.93 376.73M549.68 386.37Q544.36 389.05 544.36 392.23Q544.36 394.13 545.95 395.17Q547.43 396.22 549.68 396.22L550.39 396.22Q552.26 396.22 553.60 395.04Q554.97 393.85 554.97 392.23Q554.97 389.01 549.83 386.37L549.75 386.31L549.68 386.37M543.65 397.31Q541.22 395.34 541.22 392.23Q541.22 388.13 546.23 384.82L546.44 384.68L546.23 384.55Q542.42 382.31 542.42 378.69Q542.42 376.22 544.68 374.63Q546.90 373.00 549.68 373.00Q552.43 373.00 554.69 374.63Q556.95 376.25 556.95 378.69Q556.95 380.69 555.96 382.07Q554.94 383.43 553.14 384.55L552.93 384.68L553.14 384.82Q558.15 388.13 558.15 392.23Q558.15 394.90 556.10 396.97Q554.06 399.03 551.17 399.27L549.68 399.27Q546.05 399.27 543.65 397.31ZM573.83 399.27L573.68 399.27Q571.60 399.24 570.05 398.59Q568.50 397.98 567.58 397.00Q566.67 395.99 566.14 394.40Q565.57 392.81 565.40 391.18Q565.22 389.59 565.22 387.42Q565.22 385.49 565.26 384.14Q565.33 382.75 565.54 381.16Q565.75 379.54 566.10 378.45Q566.49 377.33 567.13 376.22Q567.76 375.13 568.64 374.49Q569.52 373.85 570.79 373.44Q572.06 373.04 573.68 373.04Q575.27 373.04 576.54 373.44Q577.81 373.85 578.69 374.49Q579.57 375.13 580.24 376.22Q580.88 377.33 581.23 378.45Q581.62 379.57 581.83 381.16Q582.04 382.75 582.08 384.14Q582.15 385.53 582.15 387.42Q582.15 388.78 582.08 389.89Q582.01 390.98 581.76 392.26Q581.55 393.55 581.20 394.53Q580.84 395.48 580.17 396.39Q579.50 397.31 578.66 397.92Q577.81 398.53 576.58 398.90Q575.34 399.27 573.83 399.27M568.40 384.65L568.40 387.42Q568.40 388.95 568.47 390.03Q568.57 391.11 568.89 392.37Q569.17 393.62 569.74 394.40Q570.30 395.21 571.29 395.75Q572.27 396.26 573.68 396.26L574.42 396.26Q575.41 396.26 576.19 395.89Q576.96 395.48 577.42 394.73Q577.92 394.02 578.23 393.21Q578.55 392.37 578.69 391.32Q578.87 390.23 578.90 389.35Q578.97 388.47 578.97 387.42L578.97 385.87Q578.97 384.82 578.94 384.21Q578.94 383.56 578.90 382.62Q578.87 381.63 578.76 381.09Q578.66 380.52 578.48 379.74Q578.30 378.96 578.02 378.49Q577.74 378.01 577.35 377.50Q576.93 377.00 576.43 376.73Q575.91 376.42 575.20 376.25Q574.53 376.08 573.68 376.08Q572.80 376.08 572.10 376.29Q571.43 376.45 570.90 376.79Q570.37 377.13 569.95 377.64Q569.56 378.11 569.28 378.72Q568.99 379.30 568.82 380.01Q568.64 380.69 568.57 381.46Q568.50 382.21 568.43 383.02Q568.40 383.80 568.40 384.65ZM594.93 376.73Q593.59 377.40 593.59 378.69Q593.59 379.54 593.91 380.18Q594.23 380.82 594.97 381.36Q595.67 381.87 596.13 382.14Q596.63 382.41 597.61 382.89L597.68 382.89L597.75 382.89Q598.74 382.45 599.24 382.18Q599.73 381.90 600.43 381.40Q601.14 380.86 601.46 380.21Q601.77 379.54 601.77 378.69Q601.77 377.40 600.43 376.73Q599.13 376.05 597.68 376.05Q596.24 376.05 594.93 376.73M597.68 386.37Q592.36 389.05 592.36 392.23Q592.36 394.13 593.95 395.17Q595.43 396.22 597.68 396.22L598.39 396.22Q600.26 396.22 601.60 395.04Q602.97 393.85 602.97 392.23Q602.97 389.01 597.83 386.37L597.75 386.31L597.68 386.37M591.65 397.31Q589.22 395.34 589.22 392.23Q589.22 388.13 594.23 384.82L594.44 384.68L594.23 384.55Q590.42 382.31 590.42 378.69Q590.42 376.22 592.68 374.63Q594.90 373.00 597.68 373.00Q600.43 373.00 602.69 374.63Q604.95 376.25 604.95 378.69Q604.95 380.69 603.96 382.07Q602.94 383.43 601.14 384.55L600.93 384.68L601.14 384.82Q606.15 388.13 606.15 392.23Q606.15 394.90 604.10 396.97Q602.06 399.03 599.17 399.27L597.68 399.27Q594.05 399.27 591.65 397.31ZM614.60 398.83Q614.14 398.39 614.14 397.75Q614.14 397.07 614.60 396.63Q615.09 396.19 615.73 396.19Q622.85 396.19 624.93 392.37Q625.56 391.21 625.56 390.16Q625.56 387.69 624.36 386.44Q622.78 384.65 618.79 384.65Q617.70 384.65 616.57 384.75L616.43 384.75Q615.80 384.75 615.30 384.34Q614.84 383.90 614.84 383.29L614.84 383.19L615.34 374.56Q615.41 373.95 615.83 373.54Q616.29 373.14 616.92 373.14L626.94 373.14Q627.61 373.14 628.07 373.61Q628.53 374.05 628.53 374.66Q628.53 375.27 628.03 375.74Q627.57 376.22 626.94 376.22L618.41 376.22L618.12 381.53L618.79 381.53Q623.27 381.53 625.99 383.73Q628.74 385.90 628.74 390.16Q628.74 391.96 627.93 393.52Q627.08 395.11 625.81 396.22Q622.42 399.27 615.73 399.27Q615.09 399.27 614.60 398.83M616.54 384.75Q616.54 384.75 616.57 384.75Q616.57 384.75 616.54 384.75ZM645.83 399.27L645.68 399.27Q643.60 399.24 642.05 398.59Q640.50 397.98 639.58 397.00Q638.67 395.99 638.14 394.40Q637.57 392.81 637.40 391.18Q637.22 389.59 637.22 387.42Q637.22 385.49 637.26 384.14Q637.33 382.75 637.54 381.16Q637.75 379.54 638.10 378.45Q638.49 377.33 639.13 376.22Q639.76 375.13 640.64 374.49Q641.52 373.85 642.79 373.44Q644.06 373.04 645.68 373.04Q647.27 373.04 648.54 373.44Q649.81 373.85 650.69 374.49Q651.57 375.13 652.24 376.22Q652.88 377.33 653.23 378.45Q653.62 379.57 653.83 381.16Q654.04 382.75 654.08 384.14Q654.15 385.53 654.15 387.42Q654.15 388.78 654.08 389.89Q654.01 390.98 653.76 392.26Q653.55 393.55 653.20 394.53Q652.84 395.48 652.17 396.39Q651.50 397.31 650.66 397.92Q649.81 398.53 648.58 398.90Q647.34 399.27 645.83 399.27M640.40 384.65L640.40 387.42Q640.40 388.95 640.47 390.03Q640.57 391.11 640.89 392.37Q641.17 393.62 641.74 394.40Q642.30 395.21 643.29 395.75Q644.27 396.26 645.68 396.26L646.42 396.26Q647.41 396.26 648.19 395.89Q648.96 395.48 649.42 394.73Q649.92 394.02 650.23 393.21Q650.55 392.37 650.69 391.32Q650.87 390.23 650.90 389.35Q650.97 388.47 650.97 387.42L650.97 385.87Q650.97 384.82 650.94 384.21Q650.94 383.56 650.90 382.62Q650.87 381.63 650.76 381.09Q650.66 380.52 650.48 379.74Q650.30 378.96 650.02 378.49Q649.74 378.01 649.35 377.50Q648.93 377.00 648.43 376.73Q647.91 376.42 647.20 376.25Q646.53 376.08 645.68 376.08Q644.80 376.08 644.10 376.29Q643.43 376.45 642.90 376.79Q642.37 377.13 641.95 377.64Q641.56 378.11 641.28 378.72Q640.99 379.30 640.82 380.01Q640.64 380.69 640.57 381.46Q640.50 382.21 640.43 383.02Q640.40 383.80 640.40 384.65Z" fill="#000000" />
</svg>
