<svg viewBox="0 0 759 431" xmlns="http://www.w3.org/2000/svg">
<rect width="100%" height="100%" fill="#FFFFFF" />
<path stroke="#000000" stroke-width="6" d="M33 371L33 30M66 371L66 30M123 371L123 30M150 371L150 30M174 371L174 30M222 371L222 30M330 371L330 30M381 371L381 30M396 371L396 30M504 371L504 30M540 371L540 30M600 371L600 30M627 371L627 30M636 371L636 30M651 371L651 30M660 371L660 30M669 371L669 30M678 371L678 30M693 371L693 30M726 371L726 30" />
<path stroke="#000000" stroke-width="3" d="M40.50 371L40.50 30M49.50 371L49.50 30M79.50 371L79.50 30M91.50 371L91.50 30M97.50 371L97.50 30M142.50 371L142.50 30M163.50 371L163.50 30M196.50 371L196.50 30M229.50 371L229.50 30M289.50 371L289.50 30M295.50 371L295.50 30M301.50 371L301.50 30M355.50 371L355.50 30M388.50 371L388.50 30M403.50 371L403.50 30M415.50 371L415.50 30M454.50 371L454.50 30M460.50 371L460.50 30M493.50 371L493.50 30M559.50 371L559.50 30M592.50 371L592.50 30M718.50 371L718.50 30" />
<path stroke="#000000" stroke-width="9" d="M106.50 371L106.50 30M133.50 371L133.50 30M184.50 371L184.50 30M208.50 371L208.50 30M238.50 371L238.50 30M280.50 371L280.50 30M340.50 371L340.50 30M364.50 371L364.50 30M430.50 371L430.50 30M484.50 371L484.50 30M514.50 371L514.50 30M529.50 371L529.50 30M550.50 371L550.50 30M568.50 371L568.50 30M613.50 371L613.50 30M709.50 371L709.50 30" />
<path stroke="#000000" stroke-width="12" d="M252 371L252 30M267 371L267 30M312 371L312 30M444 371L444 30M471 371L471 30M582 371L582 30" />
<path d="M110.73 398.29Q110.23 397.78 110.23 397.10Q110.23 396.39 110.69 395.89Q111.15 395.41 111.82 395.41L115.20 395.41L115.20 376.59L112.52 376.59Q111.89 376.59 111.43 376.08Q110.94 375.57 110.94 374.90Q110.94 374.22 111.40 373.71Q111.85 373.20 112.52 373.20L120.85 373.20Q121.52 373.20 121.97 373.71Q122.43 374.22 122.43 374.90Q122.43 375.57 121.94 376.08Q121.48 376.59 120.85 376.59L118.17 376.59L118.17 395.41L121.55 395.41Q122.22 395.41 122.68 395.89Q123.14 396.39 123.14 397.10Q123.14 397.78 122.64 398.29Q122.19 398.80 121.55 398.80L111.82 398.80Q111.18 398.80 110.73 398.29ZM133.21 398.86Q132.72 398.36 132.72 397.65L132.72 374.46Q132.72 373.75 133.17 373.27Q133.67 372.76 134.30 372.76L135.61 372.76Q136.03 372.76 136.42 373.04Q136.84 373.27 137.02 373.71L145.48 392.91L145.48 374.39Q145.48 373.71 145.94 373.24Q146.43 372.73 147.07 372.73Q147.70 372.73 148.16 373.24Q148.65 373.71 148.65 374.42L148.65 397.61Q148.65 398.32 148.16 398.83Q147.70 399.34 147.07 399.34L145.73 399.34Q144.74 399.34 144.32 398.42L135.89 379.23L135.89 397.68Q135.89 398.36 135.40 398.86Q134.94 399.37 134.30 399.37Q133.67 399.37 133.21 398.86ZM162.00 398.15L156.19 374.46Q156.19 373.78 156.68 373.31Q157.17 372.80 157.81 372.80Q158.34 372.80 158.76 373.17Q159.22 373.51 159.32 373.98L164.68 395.65L170.01 373.98Q170.22 373.48 170.61 373.14Q171.03 372.80 171.56 372.80Q172.20 372.80 172.69 373.31Q173.18 373.81 173.18 374.46L167.29 398.15Q167.19 398.66 166.76 399.03Q166.34 399.37 165.85 399.37L163.52 399.37Q163.03 399.37 162.57 399Q162.11 398.63 162.00 398.15ZM180.40 386.61L180.40 385.66Q180.40 385.02 180.86 384.58Q181.31 384.14 181.98 384.14L196.09 384.14Q196.76 384.14 197.22 384.61Q197.68 385.05 197.68 385.66L197.68 386.61Q197.68 387.22 197.22 387.69Q196.76 388.13 196.09 388.13L181.98 388.13Q181.31 388.13 180.86 387.69Q180.40 387.25 180.40 386.61ZM206.77 380.92Q206.31 380.45 206.31 379.84Q206.31 379.13 206.77 378.79L213.23 373.48Q213.68 373.10 214.25 373.10L215.38 373.10Q216.01 373.10 216.47 373.58Q216.96 374.02 216.96 374.63L216.96 397.65Q216.96 398.26 216.47 398.73Q216.01 399.17 215.38 399.17Q214.74 399.17 214.25 398.73Q213.79 398.29 213.79 397.65L213.79 377.03L208.96 380.99Q208.50 381.36 207.90 381.36Q207.23 381.36 206.77 380.92ZM230.68 375.78Q230.22 375.30 230.22 374.66Q230.22 374.02 230.68 373.58Q231.14 373.14 231.81 373.14L245.56 373.14Q246.23 373.14 246.69 373.61Q247.15 374.05 247.15 374.66Q247.15 377.23 245.07 380.25Q244.43 381.19 242.60 383.39Q240.76 385.63 239.99 387.02Q237.70 391.08 237.70 397.61Q237.70 398.26 237.24 398.73Q236.78 399.17 236.18 399.17Q235.58 399.17 235.12 398.73Q234.66 398.29 234.66 397.61Q234.66 390.23 237.34 385.46Q238.16 384.07 239.99 381.74Q241.86 379.37 242.46 378.49Q243.30 377.13 243.62 376.45L243.69 376.22L231.81 376.22Q231.17 376.22 230.68 375.78ZM254.68 375.78Q254.22 375.30 254.22 374.66Q254.22 374.02 254.68 373.58Q255.14 373.14 255.81 373.14L269.56 373.14Q270.23 373.14 270.69 373.61Q271.15 374.05 271.15 374.66Q271.15 377.23 269.07 380.25Q268.43 381.19 266.60 383.39Q264.76 385.63 263.99 387.02Q261.70 391.08 261.70 397.61Q261.70 398.26 261.24 398.73Q260.78 399.17 260.18 399.17Q259.58 399.17 259.12 398.73Q258.66 398.29 258.66 397.61Q258.66 390.23 261.34 385.46Q262.16 384.07 263.99 381.74Q265.86 379.37 266.46 378.49Q267.30 377.13 267.62 376.45L267.69 376.22L255.81 376.22Q255.17 376.22 254.68 375.78ZM282.95 377.71Q281.40 379.33 281.40 381.60Q281.40 383.80 282.88 385.19Q284.29 386.54 286.68 386.54Q290.88 386.54 291.62 384.07Q291.97 382.95 291.97 381.60Q291.97 379.06 290.49 377.57Q289.05 376.05 286.68 376.05Q284.46 376.05 282.95 377.71M280.62 387.29Q278.22 385.02 278.22 381.60Q278.22 378.08 280.76 375.54Q283.23 373.00 286.68 373.00Q290.25 373.00 292.68 375.37Q295.15 377.74 295.15 381.60Q295.15 384.00 294.41 385.93Q293.67 387.86 292.33 390.10Q289.40 395.01 285.17 398.76Q284.71 399.17 284.18 399.17Q283.58 399.17 283.12 398.73Q282.66 398.29 282.66 397.65Q282.66 397.00 283.16 396.53Q286.51 393.45 288.91 389.72L289.08 389.39L288.73 389.45Q287.81 389.59 286.68 389.59Q282.95 389.59 280.62 387.29ZM303.28 377.37Q302.82 376.89 302.82 376.32Q302.82 375.47 303.49 375.03Q306.70 373.00 310.68 373.00Q313.89 373.00 316.04 374.97Q318.23 376.89 318.23 380.04Q318.23 381.30 317.77 382.45Q317.31 383.63 316.71 384.38Q316.15 385.12 315.02 386.03Q313.89 386.95 313.29 387.36Q312.73 387.76 311.50 388.54Q310.16 389.39 309.56 389.83Q308.96 390.27 308.11 391.15Q307.26 391.99 306.88 393.08Q306.49 394.13 306.42 395.58L306.42 395.75L316.86 395.75Q317.53 395.75 317.98 396.22Q318.44 396.66 318.44 397.27Q318.44 397.88 317.95 398.36Q317.49 398.80 316.86 398.80L304.80 398.80Q304.16 398.80 303.67 398.36Q303.21 397.88 303.21 397.27L303.21 396.56Q303.21 393.92 303.56 392.77Q304.16 390.74 305.82 389.15Q307.48 387.52 309.87 385.97Q313.19 383.83 314.07 382.62Q315.06 381.40 315.06 380.04Q315.06 378.25 313.75 377.13Q312.52 376.05 310.68 376.05Q307.51 376.05 305.32 377.54Q304.94 377.81 304.41 377.81Q303.77 377.81 303.28 377.37ZM327.60 398.83Q327.14 398.39 327.14 397.75Q327.14 397.07 327.60 396.63Q328.09 396.19 328.73 396.19Q335.85 396.19 337.93 392.37Q338.56 391.21 338.56 390.16Q338.56 387.69 337.36 386.44Q335.78 384.65 331.79 384.65Q330.70 384.65 329.57 384.75L329.43 384.75Q328.80 384.75 328.30 384.34Q327.84 383.90 327.84 383.29L327.84 383.19L328.34 374.56Q328.41 373.95 328.83 373.54Q329.29 373.14 329.92 373.14L339.94 373.14Q340.61 373.14 341.07 373.61Q341.53 374.05 341.53 374.66Q341.53 375.27 341.03 375.74Q340.57 376.22 339.94 376.22L331.41 376.22L331.12 381.53L331.79 381.53Q336.27 381.53 338.99 383.73Q341.74 385.90 341.74 390.16Q341.74 391.96 340.93 393.52Q340.08 395.11 338.81 396.22Q335.42 399.27 328.73 399.27Q328.09 399.27 327.60 398.83M329.54 384.75Q329.54 384.75 329.57 384.75Q329.57 384.75 329.54 384.75ZM351.28 377.37Q350.82 376.89 350.82 376.32Q350.82 375.47 351.49 375.03Q354.70 373.00 358.68 373.00Q361.89 373.00 364.04 374.97Q366.23 376.89 366.23 380.04Q366.23 381.30 365.77 382.45Q365.31 383.63 364.71 384.38Q364.15 385.12 363.02 386.03Q361.89 386.95 361.29 387.36Q360.73 387.76 359.50 388.54Q358.16 389.39 357.56 389.83Q356.96 390.27 356.11 391.15Q355.26 391.99 354.88 393.08Q354.49 394.13 354.42 395.58L354.42 395.75L364.86 395.75Q365.53 395.75 365.98 396.22Q366.44 396.66 366.44 397.27Q366.44 397.88 365.95 398.36Q365.49 398.80 364.86 398.80L352.80 398.80Q352.16 398.80 351.67 398.36Q351.21 397.88 351.21 397.27L351.21 396.56Q351.21 393.92 351.56 392.77Q352.16 390.74 353.82 389.15Q355.48 387.52 357.87 385.97Q361.19 383.83 362.07 382.62Q363.06 381.40 363.06 380.04Q363.06 378.25 361.75 377.13Q360.52 376.05 358.68 376.05Q355.51 376.05 353.32 377.54Q352.94 377.81 352.41 377.81Q351.77 377.81 351.28 377.37ZM375.60 398.83Q375.14 398.39 375.14 397.75Q375.14 397.07 375.60 396.63Q376.09 396.19 376.73 396.19Q383.85 396.19 385.93 392.37Q386.56 391.21 386.56 390.16Q386.56 387.69 385.36 386.44Q383.78 384.65 379.79 384.65Q378.70 384.65 377.57 384.75L377.43 384.75Q376.80 384.75 376.30 384.34Q375.84 383.90 375.84 383.29L375.84 383.19L376.34 374.56Q376.41 373.95 376.83 373.54Q377.29 373.14 377.92 373.14L387.94 373.14Q388.61 373.14 389.07 373.61Q389.53 374.05 389.53 374.66Q389.53 375.27 389.03 375.74Q388.57 376.22 387.94 376.22L379.41 376.22L379.12 381.53L379.79 381.53Q384.27 381.53 386.99 383.73Q389.74 385.90 389.74 390.16Q389.74 391.96 388.93 393.52Q388.08 395.11 386.81 396.22Q383.42 399.27 376.73 399.27Q376.09 399.27 375.60 398.83M377.54 384.75Q377.54 384.75 377.57 384.75Q377.57 384.75 377.54 384.75ZM402.95 377.71Q401.40 379.33 401.40 381.60Q401.40 383.80 402.88 385.19Q404.29 386.54 406.68 386.54Q410.88 386.54 411.62 384.07Q411.97 382.95 411.97 381.60Q411.97 379.06 410.49 377.57Q409.05 376.05 406.68 376.05Q404.46 376.05 402.95 377.71M400.62 387.29Q398.22 385.02 398.22 381.60Q398.22 378.08 400.76 375.54Q403.23 373.00 406.68 373.00Q410.25 373.00 412.68 375.37Q415.15 377.74 415.15 381.60Q415.15 384.00 414.41 385.93Q413.67 387.86 412.33 390.10Q409.40 395.01 405.17 398.76Q404.71 399.17 404.18 399.17Q403.58 399.17 403.12 398.73Q402.66 398.29 402.66 397.65Q402.66 397.00 403.16 396.53Q406.51 393.45 408.91 389.72L409.08 389.39L408.73 389.45Q407.81 389.59 406.68 389.59Q402.95 389.59 400.62 387.29ZM422.96 397.98Q422.22 397.44 422.22 396.63Q422.22 395.99 422.68 395.55Q423.17 395.07 423.81 395.07Q424.02 395.07 424.41 395.21Q426.66 396.19 429.13 396.19Q431.81 396.19 433.65 394.90Q435.52 393.58 435.66 391.08L435.66 390.74Q435.66 389.01 434.53 387.80Q433.47 386.61 431.92 386.10Q430.40 385.63 428.53 385.63Q427.93 385.63 427.48 385.19Q427.02 384.71 427.02 384.07Q427.02 383.46 427.33 383.12L433.82 376.22L423.91 376.22Q423.28 376.22 422.79 375.78Q422.33 375.30 422.33 374.66Q422.33 374.02 422.79 373.58Q423.24 373.14 423.91 373.14L436.36 373.14Q437.00 373.14 437.45 373.61Q437.95 374.05 437.95 374.66L437.95 375.88Q437.95 376.42 437.45 376.89L431.78 382.89L432.06 382.95Q435.06 383.70 436.96 385.70Q438.83 387.69 438.83 390.71L438.83 391.25Q438.65 394.94 435.83 397.10Q433.08 399.27 429.13 399.27Q428.15 399.27 427.16 399.17Q426.17 399.07 424.94 398.83Q423.70 398.56 422.96 397.98ZM450.95 377.71Q449.40 379.33 449.40 381.60Q449.40 383.80 450.88 385.19Q452.29 386.54 454.68 386.54Q458.88 386.54 459.62 384.07Q459.97 382.95 459.97 381.60Q459.97 379.06 458.49 377.57Q457.05 376.05 454.68 376.05Q452.46 376.05 450.95 377.71M448.62 387.29Q446.22 385.02 446.22 381.60Q446.22 378.08 448.76 375.54Q451.23 373.00 454.68 373.00Q458.25 373.00 460.68 375.37Q463.15 377.74 463.15 381.60Q463.15 384.00 462.41 385.93Q461.67 387.86 460.33 390.10Q457.40 395.01 453.17 398.76Q452.71 399.17 452.18 399.17Q451.58 399.17 451.12 398.73Q450.66 398.29 450.66 397.65Q450.66 397.00 451.16 396.53Q454.51 393.45 456.91 389.72L457.08 389.39L456.73 389.45Q455.81 389.59 454.68 389.59Q450.95 389.59 448.62 387.29ZM472.69 397.07Q470.33 394.87 470.22 391.25L470.22 390.84Q470.22 386.61 472.65 382.75Q473.64 381.16 475.05 379.40Q476.43 377.61 477.38 376.56Q478.33 375.47 480.09 373.54Q480.48 373.10 481.19 373.10Q481.79 373.10 482.25 373.58Q482.70 374.02 482.70 374.63Q482.70 375.20 482.32 375.68Q478.33 380.01 476.46 382.62L476.22 382.95L476.60 382.89Q477.63 382.68 478.68 382.68Q482.53 382.68 484.82 384.99Q487.15 387.32 487.15 391.25Q487.15 394.80 484.75 397.04Q482.35 399.27 478.68 399.27Q475.02 399.27 472.69 397.07M474.81 387.22Q473.40 388.68 473.40 391.25Q473.40 393.55 474.88 394.90Q476.32 396.22 478.68 396.22Q481.01 396.22 482.46 394.87Q483.97 393.52 483.97 391.25Q483.97 388.61 482.60 387.19Q481.26 385.73 478.68 385.73Q476.18 385.73 474.81 387.22ZM502.83 399.27L502.68 399.27Q500.60 399.24 499.05 398.59Q497.50 397.98 496.58 397.00Q495.67 395.99 495.14 394.40Q494.57 392.81 494.40 391.18Q494.22 389.59 494.22 387.42Q494.22 385.49 494.26 384.14Q494.33 382.75 494.54 381.16Q494.75 379.54 495.10 378.45Q495.49 377.33 496.13 376.22Q496.76 375.13 497.64 374.49Q498.52 373.85 499.79 373.44Q501.06 373.04 502.68 373.04Q504.27 373.04 505.54 373.44Q506.81 373.85 507.69 374.49Q508.57 375.13 509.24 376.22Q509.88 377.33 510.23 378.45Q510.62 379.57 510.83 381.16Q511.04 382.75 511.08 384.14Q511.15 385.53 511.15 387.42Q511.15 388.78 511.08 389.89Q511.01 390.98 510.76 392.26Q510.55 393.55 510.20 394.53Q509.84 395.48 509.17 396.39Q508.50 397.31 507.66 397.92Q506.81 398.53 505.58 398.90Q504.34 399.27 502.83 399.27M497.40 384.65L497.40 387.42Q497.40 388.95 497.47 390.03Q497.57 391.11 497.89 392.37Q498.17 393.62 498.74 394.40Q499.30 395.21 500.29 395.75Q501.27 396.26 502.68 396.26L503.42 396.26Q504.41 396.26 505.19 395.89Q505.96 395.48 506.42 394.73Q506.92 394.02 507.23 393.21Q507.55 392.37 507.69 391.32Q507.87 390.23 507.90 389.35Q507.97 388.47 507.97 387.42L507.97 385.87Q507.97 384.82 507.94 384.21Q507.94 383.56 507.90 382.62Q507.87 381.63 507.76 381.09Q507.66 380.52 507.48 379.74Q507.30 378.96 507.02 378.49Q506.74 378.01 506.35 377.50Q505.93 377.00 505.43 376.73Q504.91 376.42 504.20 376.25Q503.53 376.08 502.68 376.08Q501.80 376.08 501.10 376.29Q500.43 376.45 499.90 376.79Q499.37 377.13 498.95 377.64Q498.56 378.11 498.28 378.72Q497.99 379.30 497.82 380.01Q497.64 380.69 497.57 381.46Q497.50 382.21 497.43 383.02Q497.40 383.80 497.40 384.65ZM518.40 386.61L518.40 385.66Q518.40 385.02 518.86 384.58Q519.31 384.14 519.98 384.14L534.09 384.14Q534.76 384.14 535.22 384.61Q535.68 385.05 535.68 385.66L535.68 386.61Q535.68 387.22 535.22 387.69Q534.76 388.13 534.09 388.13L519.98 388.13Q519.31 388.13 518.86 387.69Q518.40 387.25 518.40 386.61ZM543.68 375.78Q543.22 375.30 543.22 374.66Q543.22 374.02 543.68 373.58Q544.14 373.14 544.81 373.14L558.56 373.14Q559.23 373.14 559.69 373.61Q560.15 374.05 560.15 374.66Q560.15 377.23 558.07 380.25Q557.43 381.19 555.60 383.39Q553.76 385.63 552.99 387.02Q550.70 391.08 550.70 397.61Q550.70 398.26 550.24 398.73Q549.78 399.17 549.18 399.17Q548.58 399.17 548.12 398.73Q547.66 398.29 547.66 397.61Q547.66 390.23 550.34 385.46Q551.16 384.07 552.99 381.74Q554.86 379.37 555.46 378.49Q556.30 377.13 556.62 376.45L556.69 376.22L544.81 376.22Q544.17 376.22 543.68 375.78ZM568.77 380.92Q568.31 380.45 568.31 379.84Q568.31 379.13 568.77 378.79L575.23 373.48Q575.68 373.10 576.25 373.10L577.38 373.10Q578.01 373.10 578.47 373.58Q578.96 374.02 578.96 374.63L578.96 397.65Q578.96 398.26 578.47 398.73Q578.01 399.17 577.38 399.17Q576.74 399.17 576.25 398.73Q575.79 398.29 575.79 397.65L575.79 377.03L570.96 380.99Q570.50 381.36 569.90 381.36Q569.23 381.36 568.77 380.92ZM593.28 377.37Q592.82 376.89 592.82 376.32Q592.82 375.47 593.49 375.03Q596.70 373.00 600.68 373.00Q603.89 373.00 606.04 374.97Q608.23 376.89 608.23 380.04Q608.23 381.30 607.77 382.45Q607.31 383.63 606.71 384.38Q606.15 385.12 605.02 386.03Q603.89 386.95 603.29 387.36Q602.73 387.76 601.50 388.54Q600.16 389.39 599.56 389.83Q598.96 390.27 598.11 391.15Q597.26 391.99 596.88 393.08Q596.49 394.13 596.42 395.58L596.42 395.75L606.86 395.75Q607.53 395.75 607.98 396.22Q608.44 396.66 608.44 397.27Q608.44 397.88 607.95 398.36Q607.49 398.80 606.86 398.80L594.80 398.80Q594.16 398.80 593.67 398.36Q593.21 397.88 593.21 397.27L593.21 396.56Q593.21 393.92 593.56 392.77Q594.16 390.74 595.82 389.15Q597.48 387.52 599.87 385.97Q603.19 383.83 604.07 382.62Q605.06 381.40 605.06 380.04Q605.06 378.25 603.75 377.13Q602.52 376.05 600.68 376.05Q597.51 376.05 595.32 377.54Q594.94 377.81 594.41 377.81Q593.77 377.81 593.28 377.37ZM616.96 397.98Q616.22 397.44 616.22 396.63Q616.22 395.99 616.68 395.55Q617.17 395.07 617.81 395.07Q618.02 395.07 618.41 395.21Q620.66 396.19 623.13 396.19Q625.81 396.19 627.65 394.90Q629.52 393.58 629.66 391.08L629.66 390.74Q629.66 389.01 628.53 387.80Q627.47 386.61 625.92 386.10Q624.40 385.63 622.53 385.63Q621.93 385.63 621.48 385.19Q621.02 384.71 621.02 384.07Q621.02 383.46 621.33 383.12L627.82 376.22L617.91 376.22Q617.28 376.22 616.79 375.78Q616.33 375.30 616.33 374.66Q616.33 374.02 616.79 373.58Q617.24 373.14 617.91 373.14L630.36 373.14Q631.00 373.14 631.45 373.61Q631.95 374.05 631.95 374.66L631.95 375.88Q631.95 376.42 631.45 376.89L625.78 382.89L626.06 382.95Q629.06 383.70 630.96 385.70Q632.83 387.69 632.83 390.71L632.83 391.25Q632.65 394.94 629.83 397.10Q627.08 399.27 623.13 399.27Q622.15 399.27 621.16 399.17Q620.17 399.07 618.94 398.83Q617.70 398.56 616.96 397.98ZM641.77 380.92Q641.31 380.45 641.31 379.84Q641.31 379.13 641.77 378.79L648.23 373.48Q648.68 373.10 649.25 373.10L650.38 373.10Q651.01 373.10 651.47 373.58Q651.96 374.02 651.96 374.63L651.96 397.65Q651.96 398.26 651.47 398.73Q651.01 399.17 650.38 399.17Q649.74 399.17 649.25 398.73Q648.79 398.29 648.79 397.65L648.79 377.03L643.96 380.99Q643.50 381.36 642.90 381.36Q642.23 381.36 641.77 380.92Z" fill="#000000" />
</svg>
