<svg viewBox="0 0 759 431" xmlns="http://www.w3.org/2000/svg">
<rect width="100%" height="100%" fill="#FFFFFF" />
<path stroke="#000000" stroke-width="6" d="M33 371L33 30M66 371L66 30M123 371L123 30M150 371L150 30M174 371L174 30M222 371L222 30M336 371L336 30M396 371L396 30M405 371L405 30M414 371L414 30M429 371L429 30M444 371L444 30M453 371L453 30M504 371L504 30M528 371L528 30M594 371L594 30M633 371L633 30M693 371L693 30M726 371L726 30" />
<path stroke="#000000" stroke-width="3" d="M40.50 371L40.50 30M49.50 371L49.50 30M79.50 371L79.50 30M91.50 371L91.50 30M97.50 371L97.50 30M142.50 371L142.50 30M163.50 371L163.50 30M196.50 371L196.50 30M229.50 371L229.50 30M289.50 371L289.50 30M310.50 371L310.50 30M316.50 371L316.50 30M328.50 371L328.50 30M352.50 371L352.50 30M379.50 371L379.50 30M385.50 371L385.50 30M460.50 371L460.50 30M493.50 371L493.50 30M550.50 371L550.50 30M559.50 371L559.50 30M616.50 371L616.50 30M625.50 371L625.50 30M646.50 371L646.50 30M670.50 371L670.50 30M718.50 371L718.50 30" />
<path stroke="#000000" stroke-width="9" d="M106.50 371L106.50 30M133.50 371L133.50 30M184.50 371L184.50 30M208.50 371L208.50 30M238.50 371L238.50 30M280.50 371L280.50 30M484.50 371L484.50 30M514.50 371L514.50 30M538.50 371L538.50 30M568.50 371L568.50 30M607.50 371L607.50 30M661.50 371L661.50 30M709.50 371L709.50 30" />
<path stroke="#000000" stroke-width="12" d="M252 371L252 30M267 371L267 30M300 371L300 30M366 371L366 30M471 371L471 30M582 371L582 30M681 371L681 30" />
<path d="M107.73 398.29Q107.23 397.78 107.23 397.10Q107.23 396.39 107.69 395.89Q108.15 395.41 108.82 395.41L112.20 395.41L112.20 376.59L109.52 376.59Q108.89 376.59 108.43 376.08Q107.94 375.57 107.94 374.90Q107.94 374.22 108.40 373.71Q108.85 373.20 109.52 373.20L117.85 373.20Q118.52 373.20 118.97 373.71Q119.43 374.22 119.43 374.90Q119.43 375.57 118.94 376.08Q118.48 376.59 117.85 376.59L115.17 376.59L115.17 395.41L118.55 395.41Q119.22 395.41 119.68 395.89Q120.14 396.39 120.14 397.10Q120.14 397.78 119.64 398.29Q119.19 398.80 118.55 398.80L108.82 398.80Q108.18 398.80 107.73 398.29ZM130.21 398.86Q129.72 398.36 129.72 397.65L129.72 374.46Q129.72 373.75 130.17 373.27Q130.67 372.76 131.30 372.76L132.61 372.76Q133.03 372.76 133.42 373.04Q133.84 373.27 134.02 373.71L142.48 392.91L142.48 374.39Q142.48 373.71 142.94 373.24Q143.43 372.73 144.07 372.73Q144.70 372.73 145.16 373.24Q145.65 373.71 145.65 374.42L145.65 397.61Q145.65 398.32 145.16 398.83Q144.70 399.34 144.07 399.34L142.73 399.34Q141.74 399.34 141.32 398.42L132.89 379.23L132.89 397.68Q132.89 398.36 132.40 398.86Q131.94 399.37 131.30 399.37Q130.67 399.37 130.21 398.86ZM159.00 398.15L153.19 374.46Q153.19 373.78 153.68 373.31Q154.17 372.80 154.81 372.80Q155.34 372.80 155.76 373.17Q156.22 373.51 156.32 373.98L161.68 395.65L167.01 373.98Q167.22 373.48 167.61 373.14Q168.03 372.80 168.56 372.80Q169.20 372.80 169.69 373.31Q170.18 373.81 170.18 374.46L164.29 398.15Q164.19 398.66 163.76 399.03Q163.34 399.37 162.85 399.37L160.52 399.37Q160.03 399.37 159.57 399Q159.11 398.63 159.00 398.15ZM177.40 386.61L177.40 385.66Q177.40 385.02 177.86 384.58Q178.31 384.14 178.98 384.14L193.09 384.14Q193.76 384.14 194.22 384.61Q194.68 385.05 194.68 385.66L194.68 386.61Q194.68 387.22 194.22 387.69Q193.76 388.13 193.09 388.13L178.98 388.13Q178.31 388.13 177.86 387.69Q177.40 387.25 177.40 386.61ZM203.77 380.92Q203.31 380.45 203.31 379.84Q203.31 379.13 203.77 378.79L210.23 373.48Q210.68 373.10 211.25 373.10L212.38 373.10Q213.01 373.10 213.47 373.58Q213.96 374.02 213.96 374.63L213.96 397.65Q213.96 398.26 213.47 398.73Q213.01 399.17 212.38 399.17Q211.74 399.17 211.25 398.73Q210.79 398.29 210.79 397.65L210.79 377.03L205.96 380.99Q205.50 381.36 204.90 381.36Q204.23 381.36 203.77 380.92ZM227.68 375.78Q227.22 375.30 227.22 374.66Q227.22 374.02 227.68 373.58Q228.14 373.14 228.81 373.14L242.56 373.14Q243.23 373.14 243.69 373.61Q244.15 374.05 244.15 374.66Q244.15 377.23 242.07 380.25Q241.43 381.19 239.60 383.39Q237.76 385.63 236.99 387.02Q234.70 391.08 234.70 397.61Q234.70 398.26 234.24 398.73Q233.78 399.17 233.18 399.17Q232.58 399.17 232.12 398.73Q231.66 398.29 231.66 397.61Q231.66 390.23 234.34 385.46Q235.16 384.07 236.99 381.74Q238.86 379.37 239.46 378.49Q240.30 377.13 240.62 376.45L240.69 376.22L228.81 376.22Q228.17 376.22 227.68 375.78ZM251.68 375.78Q251.22 375.30 251.22 374.66Q251.22 374.02 251.68 373.58Q252.14 373.14 252.81 373.14L266.56 373.14Q267.23 373.14 267.69 373.61Q268.15 374.05 268.15 374.66Q268.15 377.23 266.07 380.25Q265.43 381.19 263.60 383.39Q261.76 385.63 260.99 387.02Q258.70 391.08 258.70 397.61Q258.70 398.26 258.24 398.73Q257.78 399.17 257.18 399.17Q256.58 399.17 256.12 398.73Q255.66 398.29 255.66 397.61Q255.66 390.23 258.34 385.46Q259.16 384.07 260.99 381.74Q262.86 379.37 263.46 378.49Q264.30 377.13 264.62 376.45L264.69 376.22L252.81 376.22Q252.17 376.22 251.68 375.78ZM279.95 377.71Q278.40 379.33 278.40 381.60Q278.40 383.80 279.88 385.19Q281.29 386.54 283.68 386.54Q287.88 386.54 288.62 384.07Q288.97 382.95 288.97 381.60Q288.97 379.06 287.49 377.57Q286.05 376.05 283.68 376.05Q281.46 376.05 279.95 377.71M277.62 387.29Q275.22 385.02 275.22 381.60Q275.22 378.08 277.76 375.54Q280.23 373.00 283.68 373.00Q287.25 373.00 289.68 375.37Q292.15 377.74 292.15 381.60Q292.15 384.00 291.41 385.93Q290.67 387.86 289.33 390.10Q286.40 395.01 282.17 398.76Q281.71 399.17 281.18 399.17Q280.58 399.17 280.12 398.73Q279.66 398.29 279.66 397.65Q279.66 397.00 280.16 396.53Q283.51 393.45 285.91 389.72L286.08 389.39L285.73 389.45Q284.81 389.59 283.68 389.59Q279.95 389.59 277.62 387.29ZM299.68 375.78Q299.22 375.30 299.22 374.66Q299.22 374.02 299.68 373.58Q300.14 373.14 300.81 373.14L314.56 373.14Q315.23 373.14 315.69 373.61Q316.15 374.05 316.15 374.66Q316.15 377.23 314.07 380.25Q313.43 381.19 311.60 383.39Q309.76 385.63 308.99 387.02Q306.70 391.08 306.70 397.61Q306.70 398.26 306.24 398.73Q305.78 399.17 305.18 399.17Q304.58 399.17 304.12 398.73Q303.66 398.29 303.66 397.61Q303.66 390.23 306.34 385.46Q307.16 384.07 308.99 381.74Q310.86 379.37 311.46 378.49Q312.30 377.13 312.62 376.45L312.69 376.22L300.81 376.22Q300.17 376.22 299.68 375.78ZM323.68 375.78Q323.22 375.30 323.22 374.66Q323.22 374.02 323.68 373.58Q324.14 373.14 324.81 373.14L338.56 373.14Q339.23 373.14 339.69 373.61Q340.15 374.05 340.15 374.66Q340.15 377.23 338.07 380.25Q337.43 381.19 335.60 383.39Q333.76 385.63 332.99 387.02Q330.70 391.08 330.70 397.61Q330.70 398.26 330.24 398.73Q329.78 399.17 329.18 399.17Q328.58 399.17 328.12 398.73Q327.66 398.29 327.66 397.61Q327.66 390.23 330.34 385.46Q331.16 384.07 332.99 381.74Q334.86 379.37 335.46 378.49Q336.30 377.13 336.62 376.45L336.69 376.22L324.81 376.22Q324.17 376.22 323.68 375.78ZM355.83 399.27L355.68 399.27Q353.60 399.24 352.05 398.59Q350.50 397.98 349.58 397.00Q348.67 395.99 348.14 394.40Q347.57 392.81 347.40 391.18Q347.22 389.59 347.22 387.42Q347.22 385.49 347.26 384.14Q347.33 382.75 347.54 381.16Q347.75 379.54 348.10 378.45Q348.49 377.33 349.13 376.22Q349.76 375.13 350.64 374.49Q351.52 373.85 352.79 373.44Q354.06 373.04 355.68 373.04Q357.27 373.04 358.54 373.44Q359.81 373.85 360.69 374.49Q361.57 375.13 362.24 376.22Q362.88 377.33 363.23 378.45Q363.62 379.57 363.83 381.16Q364.04 382.75 364.08 384.14Q364.15 385.53 364.15 387.42Q364.15 388.78 364.08 389.89Q364.01 390.98 363.76 392.26Q363.55 393.55 363.20 394.53Q362.84 395.48 362.17 396.39Q361.50 397.31 360.66 397.92Q359.81 398.53 358.58 398.90Q357.34 399.27 355.83 399.27M350.40 384.65L350.40 387.42Q350.40 388.95 350.47 390.03Q350.57 391.11 350.89 392.37Q351.17 393.62 351.74 394.40Q352.30 395.21 353.29 395.75Q354.27 396.26 355.68 396.26L356.42 396.26Q357.41 396.26 358.19 395.89Q358.96 395.48 359.42 394.73Q359.92 394.02 360.23 393.21Q360.55 392.37 360.69 391.32Q360.87 390.23 360.90 389.35Q360.97 388.47 360.97 387.42L360.97 385.87Q360.97 384.82 360.94 384.21Q360.94 383.56 360.90 382.62Q360.87 381.63 360.76 381.09Q360.66 380.52 360.48 379.74Q360.30 378.96 360.02 378.49Q359.74 378.01 359.35 377.50Q358.93 377.00 358.43 376.73Q357.91 376.42 357.20 376.25Q356.53 376.08 355.68 376.08Q354.80 376.08 354.10 376.29Q353.43 376.45 352.90 376.79Q352.37 377.13 351.95 377.64Q351.56 378.11 351.28 378.72Q350.99 379.30 350.82 380.01Q350.64 380.69 350.57 381.46Q350.50 382.21 350.43 383.02Q350.40 383.80 350.40 384.65ZM376.93 376.73Q375.59 377.40 375.59 378.69Q375.59 379.54 375.91 380.18Q376.23 380.82 376.97 381.36Q377.67 381.87 378.13 382.14Q378.63 382.41 379.61 382.89L379.68 382.89L379.75 382.89Q380.74 382.45 381.24 382.18Q381.73 381.90 382.43 381.40Q383.14 380.86 383.46 380.21Q383.77 379.54 383.77 378.69Q383.77 377.40 382.43 376.73Q381.13 376.05 379.68 376.05Q378.24 376.05 376.93 376.73M379.68 386.37Q374.36 389.05 374.36 392.23Q374.36 394.13 375.95 395.17Q377.43 396.22 379.68 396.22L380.39 396.22Q382.26 396.22 383.60 395.04Q384.97 393.85 384.97 392.23Q384.97 389.01 379.83 386.37L379.75 386.31L379.68 386.37M373.65 397.31Q371.22 395.34 371.22 392.23Q371.22 388.13 376.23 384.82L376.44 384.68L376.23 384.55Q372.42 382.31 372.42 378.69Q372.42 376.22 374.68 374.63Q376.90 373.00 379.68 373.00Q382.43 373.00 384.69 374.63Q386.95 376.25 386.95 378.69Q386.95 380.69 385.96 382.07Q384.94 383.43 383.14 384.55L382.93 384.68L383.14 384.82Q388.15 388.13 388.15 392.23Q388.15 394.90 386.10 396.97Q384.06 399.03 381.17 399.27L379.68 399.27Q376.05 399.27 373.65 397.31ZM395.68 375.78Q395.22 375.30 395.22 374.66Q395.22 374.02 395.68 373.58Q396.14 373.14 396.81 373.14L410.56 373.14Q411.23 373.14 411.69 373.61Q412.15 374.05 412.15 374.66Q412.15 377.23 410.07 380.25Q409.43 381.19 407.60 383.39Q405.76 385.63 404.99 387.02Q402.70 391.08 402.70 397.61Q402.70 398.26 402.24 398.73Q401.78 399.17 401.18 399.17Q400.58 399.17 400.12 398.73Q399.66 398.29 399.66 397.61Q399.66 390.23 402.34 385.46Q403.16 384.07 404.99 381.74Q406.86 379.37 407.46 378.49Q408.30 377.13 408.62 376.45L408.69 376.22L396.81 376.22Q396.17 376.22 395.68 375.78ZM419.96 397.98Q419.22 397.44 419.22 396.63Q419.22 395.99 419.68 395.55Q420.17 395.07 420.81 395.07Q421.02 395.07 421.41 395.21Q423.66 396.19 426.13 396.19Q428.81 396.19 430.65 394.90Q432.52 393.58 432.66 391.08L432.66 390.74Q432.66 389.01 431.53 387.80Q430.47 386.61 428.92 386.10Q427.40 385.63 425.53 385.63Q424.93 385.63 424.48 385.19Q424.02 384.71 424.02 384.07Q424.02 383.46 424.33 383.12L430.82 376.22L420.91 376.22Q420.28 376.22 419.79 375.78Q419.33 375.30 419.33 374.66Q419.33 374.02 419.79 373.58Q420.24 373.14 420.91 373.14L433.36 373.14Q434.00 373.14 434.45 373.61Q434.95 374.05 434.95 374.66L434.95 375.88Q434.95 376.42 434.45 376.89L428.78 382.89L429.06 382.95Q432.06 383.70 433.96 385.70Q435.83 387.69 435.83 390.71L435.83 391.25Q435.65 394.94 432.83 397.10Q430.08 399.27 426.13 399.27Q425.15 399.27 424.16 399.17Q423.17 399.07 421.94 398.83Q420.70 398.56 419.96 397.98ZM451.83 399.27L451.68 399.27Q449.60 399.24 448.05 398.59Q446.50 397.98 445.58 397.00Q444.67 395.99 444.14 394.40Q443.57 392.81 443.40 391.18Q443.22 389.59 443.22 387.42Q443.22 385.49 443.26 384.14Q443.33 382.75 443.54 381.16Q443.75 379.54 444.10 378.45Q444.49 377.33 445.13 376.22Q445.76 375.13 446.64 374.49Q447.52 373.85 448.79 373.44Q450.06 373.04 451.68 373.04Q453.27 373.04 454.54 373.44Q455.81 373.85 456.69 374.49Q457.57 375.13 458.24 376.22Q458.88 377.33 459.23 378.45Q459.62 379.57 459.83 381.16Q460.04 382.75 460.08 384.14Q460.15 385.53 460.15 387.42Q460.15 388.78 460.08 389.89Q460.01 390.98 459.76 392.26Q459.55 393.55 459.20 394.53Q458.84 395.48 458.17 396.39Q457.50 397.31 456.66 397.92Q455.81 398.53 454.58 398.90Q453.34 399.27 451.83 399.27M446.40 384.65L446.40 387.42Q446.40 388.95 446.47 390.03Q446.57 391.11 446.89 392.37Q447.17 393.62 447.74 394.40Q448.30 395.21 449.29 395.75Q450.27 396.26 451.68 396.26L452.42 396.26Q453.41 396.26 454.19 395.89Q454.96 395.48 455.42 394.73Q455.92 394.02 456.23 393.21Q456.55 392.37 456.69 391.32Q456.87 390.23 456.90 389.35Q456.97 388.47 456.97 387.42L456.97 385.87Q456.97 384.82 456.94 384.21Q456.94 383.56 456.90 382.62Q456.87 381.63 456.76 381.09Q456.66 380.52 456.48 379.74Q456.30 378.96 456.02 378.49Q455.74 378.01 455.35 377.50Q454.93 377.00 454.43 376.73Q453.91 376.42 453.20 376.25Q452.53 376.08 451.68 376.08Q450.80 376.08 450.10 376.29Q449.43 376.45 448.90 376.79Q448.37 377.13 447.95 377.64Q447.56 378.11 447.28 378.72Q446.99 379.30 446.82 380.01Q446.64 380.69 446.57 381.46Q446.50 382.21 446.43 383.02Q446.40 383.80 446.40 384.65ZM467.96 397.98Q467.22 397.44 467.22 396.63Q467.22 395.99 467.68 395.55Q468.17 395.07 468.81 395.07Q469.02 395.07 469.41 395.21Q471.66 396.19 474.13 396.19Q476.81 396.19 478.65 394.90Q480.52 393.58 480.66 391.08L480.66 390.74Q480.66 389.01 479.53 387.80Q478.47 386.61 476.92 386.10Q475.40 385.63 473.53 385.63Q472.93 385.63 472.48 385.19Q472.02 384.71 472.02 384.07Q472.02 383.46 472.33 383.12L478.82 376.22L468.91 376.22Q468.28 376.22 467.79 375.78Q467.33 375.30 467.33 374.66Q467.33 374.02 467.79 373.58Q468.24 373.14 468.91 373.14L481.36 373.14Q482.00 373.14 482.45 373.61Q482.95 374.05 482.95 374.66L482.95 375.88Q482.95 376.42 482.45 376.89L476.78 382.89L477.06 382.95Q480.06 383.70 481.96 385.70Q483.83 387.69 483.83 390.71L483.83 391.25Q483.65 394.94 480.83 397.10Q478.08 399.27 474.13 399.27Q473.15 399.27 472.16 399.17Q471.17 399.07 469.94 398.83Q468.70 398.56 467.96 397.98ZM492.28 377.37Q491.82 376.89 491.82 376.32Q491.82 375.47 492.49 375.03Q495.70 373.00 499.68 373.00Q502.89 373.00 505.04 374.97Q507.23 376.89 507.23 380.04Q507.23 381.30 506.77 382.45Q506.31 383.63 505.71 384.38Q505.15 385.12 504.02 386.03Q502.89 386.95 502.29 387.36Q501.73 387.76 500.50 388.54Q499.16 389.39 498.56 389.83Q497.96 390.27 497.11 391.15Q496.26 391.99 495.88 393.08Q495.49 394.13 495.42 395.58L495.42 395.75L505.86 395.75Q506.53 395.75 506.98 396.22Q507.44 396.66 507.44 397.27Q507.44 397.88 506.95 398.36Q506.49 398.80 505.86 398.80L493.80 398.80Q493.16 398.80 492.67 398.36Q492.21 397.88 492.21 397.27L492.21 396.56Q492.21 393.92 492.56 392.77Q493.16 390.74 494.82 389.15Q496.48 387.52 498.87 385.97Q502.19 383.83 503.07 382.62Q504.06 381.40 504.06 380.04Q504.06 378.25 502.75 377.13Q501.52 376.05 499.68 376.05Q496.51 376.05 494.32 377.54Q493.94 377.81 493.41 377.81Q492.77 377.81 492.28 377.37ZM515.40 386.61L515.40 385.66Q515.40 385.02 515.86 384.58Q516.31 384.14 516.98 384.14L531.09 384.14Q531.76 384.14 532.22 384.61Q532.68 385.05 532.68 385.66L532.68 386.61Q532.68 387.22 532.22 387.69Q531.76 388.13 531.09 388.13L516.98 388.13Q516.31 388.13 515.86 387.69Q515.40 387.25 515.40 386.61ZM541.60 398.83Q541.14 398.39 541.14 397.75Q541.14 397.07 541.60 396.63Q542.09 396.19 542.73 396.19Q549.85 396.19 551.93 392.37Q552.56 391.21 552.56 390.16Q552.56 387.69 551.36 386.44Q549.78 384.65 545.79 384.65Q544.70 384.65 543.57 384.75L543.43 384.75Q542.80 384.75 542.30 384.34Q541.84 383.90 541.84 383.29L541.84 383.19L542.34 374.56Q542.41 373.95 542.83 373.54Q543.29 373.14 543.92 373.14L553.94 373.14Q554.61 373.14 555.07 373.61Q555.53 374.05 555.53 374.66Q555.53 375.27 555.03 375.74Q554.57 376.22 553.94 376.22L545.41 376.22L545.12 381.53L545.79 381.53Q550.27 381.53 552.99 383.73Q555.74 385.90 555.74 390.16Q555.74 391.96 554.93 393.52Q554.08 395.11 552.81 396.22Q549.42 399.27 542.73 399.27Q542.09 399.27 541.60 398.83M543.54 384.75Q543.54 384.75 543.57 384.75Q543.57 384.75 543.54 384.75ZM565.28 377.37Q564.82 376.89 564.82 376.32Q564.82 375.47 565.49 375.03Q568.70 373.00 572.68 373.00Q575.89 373.00 578.04 374.97Q580.23 376.89 580.23 380.04Q580.23 381.30 579.77 382.45Q579.31 383.63 578.71 384.38Q578.15 385.12 577.02 386.03Q575.89 386.95 575.29 387.36Q574.73 387.76 573.50 388.54Q572.16 389.39 571.56 389.83Q570.96 390.27 570.11 391.15Q569.26 391.99 568.88 393.08Q568.49 394.13 568.42 395.58L568.42 395.75L578.86 395.75Q579.53 395.75 579.98 396.22Q580.44 396.66 580.44 397.27Q580.44 397.88 579.95 398.36Q579.49 398.80 578.86 398.80L566.80 398.80Q566.16 398.80 565.67 398.36Q565.21 397.88 565.21 397.27L565.21 396.56Q565.21 393.92 565.56 392.77Q566.16 390.74 567.82 389.15Q569.48 387.52 571.87 385.97Q575.19 383.83 576.07 382.62Q577.06 381.40 577.06 380.04Q577.06 378.25 575.75 377.13Q574.52 376.05 572.68 376.05Q569.51 376.05 567.32 377.54Q566.94 377.81 566.41 377.81Q565.77 377.81 565.28 377.37ZM589.28 377.37Q588.82 376.89 588.82 376.32Q588.82 375.47 589.49 375.03Q592.70 373.00 596.68 373.00Q599.89 373.00 602.04 374.97Q604.23 376.89 604.23 380.04Q604.23 381.30 603.77 382.45Q603.31 383.63 602.71 384.38Q602.15 385.12 601.02 386.03Q599.89 386.95 599.29 387.36Q598.73 387.76 597.50 388.54Q596.16 389.39 595.56 389.83Q594.96 390.27 594.11 391.15Q593.26 391.99 592.88 393.08Q592.49 394.13 592.42 395.58L592.42 395.75L602.86 395.75Q603.53 395.75 603.98 396.22Q604.44 396.66 604.44 397.27Q604.44 397.88 603.95 398.36Q603.49 398.80 602.86 398.80L590.80 398.80Q590.16 398.80 589.67 398.36Q589.21 397.88 589.21 397.27L589.21 396.56Q589.21 393.92 589.56 392.77Q590.16 390.74 591.82 389.15Q593.48 387.52 595.87 385.97Q599.19 383.83 600.07 382.62Q601.06 381.40 601.06 380.04Q601.06 378.25 599.75 377.13Q598.52 376.05 596.68 376.05Q593.51 376.05 591.32 377.54Q590.94 377.81 590.41 377.81Q589.77 377.81 589.28 377.37ZM612.96 397.98Q612.22 397.44 612.22 396.63Q612.22 395.99 612.68 395.55Q613.17 395.07 613.81 395.07Q614.02 395.07 614.41 395.21Q616.66 396.19 619.13 396.19Q621.81 396.19 623.65 394.90Q625.52 393.58 625.66 391.08L625.66 390.74Q625.66 389.01 624.53 387.80Q623.47 386.61 621.92 386.10Q620.40 385.63 618.53 385.63Q617.93 385.63 617.48 385.19Q617.02 384.71 617.02 384.07Q617.02 383.46 617.33 383.12L623.82 376.22L613.91 376.22Q613.28 376.22 612.79 375.78Q612.33 375.30 612.33 374.66Q612.33 374.02 612.79 373.58Q613.24 373.14 613.91 373.14L626.36 373.14Q627.00 373.14 627.45 373.61Q627.95 374.05 627.95 374.66L627.95 375.88Q627.95 376.42 627.45 376.89L621.78 382.89L622.06 382.95Q625.06 383.70 626.96 385.70Q628.83 387.69 628.83 390.71L628.83 391.25Q628.65 394.94 625.83 397.10Q623.08 399.27 619.13 399.27Q618.15 399.27 617.16 399.17Q616.17 399.07 614.94 398.83Q613.70 398.56 612.96 397.98ZM638.69 397.07Q636.33 394.87 636.22 391.25L636.22 390.84Q636.22 386.61 638.65 382.75Q639.64 381.16 641.05 379.40Q642.43 377.61 643.38 376.56Q644.33 375.47 646.09 373.54Q646.48 373.10 647.19 373.10Q647.79 373.10 648.25 373.58Q648.70 374.02 648.70 374.63Q648.70 375.20 648.32 375.68Q644.33 380.01 642.46 382.62L642.22 382.95L642.60 382.89Q643.63 382.68 644.68 382.68Q648.53 382.68 650.82 384.99Q653.15 387.32 653.15 391.25Q653.15 394.80 650.75 397.04Q648.35 399.27 644.68 399.27Q641.02 399.27 638.69 397.07M640.81 387.22Q639.40 388.68 639.40 391.25Q639.40 393.55 640.88 394.90Q642.32 396.22 644.68 396.22Q647.01 396.22 648.46 394.87Q649.97 393.52 649.97 391.25Q649.97 388.61 648.60 387.19Q647.26 385.73 644.68 385.73Q642.18 385.73 640.81 387.22Z" fill="#000000" />
</svg>
