<svg viewBox="0 0 759 431" xmlns="http://www.w3.org/2000/svg">
<rect width="100%" height="100%" fill="#FFFFFF" />
<path stroke="#000000" stroke-width="6" d="M33 371L33 30M66 371L66 30M123 371L123 30M150 371L150 30M174 371L174 30M222 371L222 30M384 371L384 30M504 371L504 30M528 371L528 30M594 371L594 30M648 371L648 30M672 371L672 30M693 371L693 30M726 371L726 30" />
<path stroke="#000000" stroke-width="3" d="M40.50 371L40.50 30M49.50 371L49.50 30M79.50 371L79.50 30M91.50 371L91.50 30M97.50 371L97.50 30M142.50 371L142.50 30M163.50 371L163.50 30M196.50 371L196.50 30M229.50 371L229.50 30M289.50 371L289.50 30M295.50 371L295.50 30M301.50 371L301.50 30M328.50 371L328.50 30M349.50 371L349.50 30M376.50 371L376.50 30M394.50 371L394.50 30M418.50 371L418.50 30M427.50 371L427.50 30M433.50 371L433.50 30M460.50 371L460.50 30M493.50 371L493.50 30M538.50 371L538.50 30M559.50 371L559.50 30M616.50 371L616.50 30M625.50 371L625.50 30M637.50 371L637.50 30M658.50 371L658.50 30M679.50 371L679.50 30M718.50 371L718.50 30" />
<path stroke="#000000" stroke-width="9" d="M106.50 371L106.50 30M133.50 371L133.50 30M184.50 371L184.50 30M208.50 371L208.50 30M238.50 371L238.50 30M280.50 371L280.50 30M364.50 371L364.50 30M484.50 371L484.50 30M514.50 371L514.50 30M550.50 371L550.50 30M568.50 371L568.50 30M604.50 371L604.50 30M709.50 371L709.50 30" />
<path stroke="#000000" stroke-width="12" d="M252 371L252 30M267 371L267 30M318 371L318 30M339 371L339 30M405 371L405 30M447 371L447 30M471 371L471 30M582 371L582 30" />
<path d="M108.73 398.29Q108.23 397.78 108.23 397.10Q108.23 396.39 108.69 395.89Q109.15 395.41 109.82 395.41L113.20 395.41L113.20 376.59L110.52 376.59Q109.89 376.59 109.43 376.08Q108.94 375.57 108.94 374.90Q108.94 374.22 109.40 373.71Q109.85 373.20 110.52 373.20L118.85 373.20Q119.52 373.20 119.97 373.71Q120.43 374.22 120.43 374.90Q120.43 375.57 119.94 376.08Q119.48 376.59 118.85 376.59L116.17 376.59L116.17 395.41L119.55 395.41Q120.22 395.41 120.68 395.89Q121.14 396.39 121.14 397.10Q121.14 397.78 120.64 398.29Q120.19 398.80 119.55 398.80L109.82 398.80Q109.18 398.80 108.73 398.29ZM131.21 398.86Q130.72 398.36 130.72 397.65L130.72 374.46Q130.72 373.75 131.17 373.27Q131.67 372.76 132.30 372.76L133.61 372.76Q134.03 372.76 134.42 373.04Q134.84 373.27 135.02 373.71L143.48 392.91L143.48 374.39Q143.48 373.71 143.94 373.24Q144.43 372.73 145.07 372.73Q145.70 372.73 146.16 373.24Q146.65 373.71 146.65 374.42L146.65 397.61Q146.65 398.32 146.16 398.83Q145.70 399.34 145.07 399.34L143.73 399.34Q142.74 399.34 142.32 398.42L133.89 379.23L133.89 397.68Q133.89 398.36 133.40 398.86Q132.94 399.37 132.30 399.37Q131.67 399.37 131.21 398.86ZM160.00 398.15L154.19 374.46Q154.19 373.78 154.68 373.31Q155.17 372.80 155.81 372.80Q156.34 372.80 156.76 373.17Q157.22 373.51 157.32 373.98L162.68 395.65L168.01 373.98Q168.22 373.48 168.61 373.14Q169.03 372.80 169.56 372.80Q170.20 372.80 170.69 373.31Q171.18 373.81 171.18 374.46L165.29 398.15Q165.19 398.66 164.76 399.03Q164.34 399.37 163.85 399.37L161.52 399.37Q161.03 399.37 160.57 399Q160.11 398.63 160.00 398.15ZM178.40 386.61L178.40 385.66Q178.40 385.02 178.86 384.58Q179.31 384.14 179.98 384.14L194.09 384.14Q194.76 384.14 195.22 384.61Q195.68 385.05 195.68 385.66L195.68 386.61Q195.68 387.22 195.22 387.69Q194.76 388.13 194.09 388.13L179.98 388.13Q179.31 388.13 178.86 387.69Q178.40 387.25 178.40 386.61ZM204.77 380.92Q204.31 380.45 204.31 379.84Q204.31 379.13 204.77 378.79L211.23 373.48Q211.68 373.10 212.25 373.10L213.38 373.10Q214.01 373.10 214.47 373.58Q214.96 374.02 214.96 374.63L214.96 397.65Q214.96 398.26 214.47 398.73Q214.01 399.17 213.38 399.17Q212.74 399.17 212.25 398.73Q211.79 398.29 211.79 397.65L211.79 377.03L206.96 380.99Q206.50 381.36 205.90 381.36Q205.23 381.36 204.77 380.92ZM228.68 375.78Q228.22 375.30 228.22 374.66Q228.22 374.02 228.68 373.58Q229.14 373.14 229.81 373.14L243.56 373.14Q244.23 373.14 244.69 373.61Q245.15 374.05 245.15 374.66Q245.15 377.23 243.07 380.25Q242.43 381.19 240.60 383.39Q238.76 385.63 237.99 387.02Q235.70 391.08 235.70 397.61Q235.70 398.26 235.24 398.73Q234.78 399.17 234.18 399.17Q233.58 399.17 233.12 398.73Q232.66 398.29 232.66 397.61Q232.66 390.23 235.34 385.46Q236.16 384.07 237.99 381.74Q239.86 379.37 240.46 378.49Q241.30 377.13 241.62 376.45L241.69 376.22L229.81 376.22Q229.17 376.22 228.68 375.78ZM252.68 375.78Q252.22 375.30 252.22 374.66Q252.22 374.02 252.68 373.58Q253.14 373.14 253.81 373.14L267.56 373.14Q268.23 373.14 268.69 373.61Q269.15 374.05 269.15 374.66Q269.15 377.23 267.07 380.25Q266.43 381.19 264.60 383.39Q262.76 385.63 261.99 387.02Q259.70 391.08 259.70 397.61Q259.70 398.26 259.24 398.73Q258.78 399.17 258.18 399.17Q257.58 399.17 257.12 398.73Q256.66 398.29 256.66 397.61Q256.66 390.23 259.34 385.46Q260.16 384.07 261.99 381.74Q263.86 379.37 264.46 378.49Q265.30 377.13 265.62 376.45L265.69 376.22L253.81 376.22Q253.17 376.22 252.68 375.78ZM280.95 377.71Q279.40 379.33 279.40 381.60Q279.40 383.80 280.88 385.19Q282.29 386.54 284.68 386.54Q288.88 386.54 289.62 384.07Q289.97 382.95 289.97 381.60Q289.97 379.06 288.49 377.57Q287.05 376.05 284.68 376.05Q282.46 376.05 280.95 377.71M278.62 387.29Q276.22 385.02 276.22 381.60Q276.22 378.08 278.76 375.54Q281.23 373.00 284.68 373.00Q288.25 373.00 290.68 375.37Q293.15 377.74 293.15 381.60Q293.15 384.00 292.41 385.93Q291.67 387.86 290.33 390.10Q287.40 395.01 283.17 398.76Q282.71 399.17 282.18 399.17Q281.58 399.17 281.12 398.73Q280.66 398.29 280.66 397.65Q280.66 397.00 281.16 396.53Q284.51 393.45 286.91 389.72L287.08 389.39L286.73 389.45Q285.81 389.59 284.68 389.59Q280.95 389.59 278.62 387.29ZM300.96 397.98Q300.22 397.44 300.22 396.63Q300.22 395.99 300.68 395.55Q301.17 395.07 301.81 395.07Q302.02 395.07 302.41 395.21Q304.66 396.19 307.13 396.19Q309.81 396.19 311.65 394.90Q313.52 393.58 313.66 391.08L313.66 390.74Q313.66 389.01 312.53 387.80Q311.47 386.61 309.92 386.10Q308.40 385.63 306.53 385.63Q305.93 385.63 305.48 385.19Q305.02 384.71 305.02 384.07Q305.02 383.46 305.33 383.12L311.82 376.22L301.91 376.22Q301.28 376.22 300.79 375.78Q300.33 375.30 300.33 374.66Q300.33 374.02 300.79 373.58Q301.24 373.14 301.91 373.14L314.36 373.14Q315.00 373.14 315.45 373.61Q315.95 374.05 315.95 374.66L315.95 375.88Q315.95 376.42 315.45 376.89L309.78 382.89L310.06 382.95Q313.06 383.70 314.96 385.70Q316.83 387.69 316.83 390.71L316.83 391.25Q316.65 394.94 313.83 397.10Q311.08 399.27 307.13 399.27Q306.15 399.27 305.16 399.17Q304.17 399.07 302.94 398.83Q301.70 398.56 300.96 397.98ZM328.95 377.71Q327.40 379.33 327.40 381.60Q327.40 383.80 328.88 385.19Q330.29 386.54 332.68 386.54Q336.88 386.54 337.62 384.07Q337.97 382.95 337.97 381.60Q337.97 379.06 336.49 377.57Q335.05 376.05 332.68 376.05Q330.46 376.05 328.95 377.71M326.62 387.29Q324.22 385.02 324.22 381.60Q324.22 378.08 326.76 375.54Q329.23 373.00 332.68 373.00Q336.25 373.00 338.68 375.37Q341.15 377.74 341.15 381.60Q341.15 384.00 340.41 385.93Q339.67 387.86 338.33 390.10Q335.40 395.01 331.17 398.76Q330.71 399.17 330.18 399.17Q329.58 399.17 329.12 398.73Q328.66 398.29 328.66 397.65Q328.66 397.00 329.16 396.53Q332.51 393.45 334.91 389.72L335.08 389.39L334.73 389.45Q333.81 389.59 332.68 389.59Q328.95 389.59 326.62 387.29ZM349.60 398.83Q349.14 398.39 349.14 397.75Q349.14 397.07 349.60 396.63Q350.09 396.19 350.73 396.19Q357.85 396.19 359.93 392.37Q360.56 391.21 360.56 390.16Q360.56 387.69 359.36 386.44Q357.78 384.65 353.79 384.65Q352.70 384.65 351.57 384.75L351.43 384.75Q350.80 384.75 350.30 384.34Q349.84 383.90 349.84 383.29L349.84 383.19L350.34 374.56Q350.41 373.95 350.83 373.54Q351.29 373.14 351.92 373.14L361.94 373.14Q362.61 373.14 363.07 373.61Q363.53 374.05 363.53 374.66Q363.53 375.27 363.03 375.74Q362.57 376.22 361.94 376.22L353.41 376.22L353.12 381.53L353.79 381.53Q358.27 381.53 360.99 383.73Q363.74 385.90 363.74 390.16Q363.74 391.96 362.93 393.52Q362.08 395.11 360.81 396.22Q357.42 399.27 350.73 399.27Q350.09 399.27 349.60 398.83M351.54 384.75Q351.54 384.75 351.57 384.75Q351.57 384.75 351.54 384.75ZM373.28 377.37Q372.82 376.89 372.82 376.32Q372.82 375.47 373.49 375.03Q376.70 373.00 380.68 373.00Q383.89 373.00 386.04 374.97Q388.23 376.89 388.23 380.04Q388.23 381.30 387.77 382.45Q387.31 383.63 386.71 384.38Q386.15 385.12 385.02 386.03Q383.89 386.95 383.29 387.36Q382.73 387.76 381.50 388.54Q380.16 389.39 379.56 389.83Q378.96 390.27 378.11 391.15Q377.26 391.99 376.88 393.08Q376.49 394.13 376.42 395.58L376.42 395.75L386.86 395.75Q387.53 395.75 387.98 396.22Q388.44 396.66 388.44 397.27Q388.44 397.88 387.95 398.36Q387.49 398.80 386.86 398.80L374.80 398.80Q374.16 398.80 373.67 398.36Q373.21 397.88 373.21 397.27L373.21 396.56Q373.21 393.92 373.56 392.77Q374.16 390.74 375.82 389.15Q377.48 387.52 379.87 385.97Q383.19 383.83 384.07 382.62Q385.06 381.40 385.06 380.04Q385.06 378.25 383.75 377.13Q382.52 376.05 380.68 376.05Q377.51 376.05 375.32 377.54Q374.94 377.81 374.41 377.81Q373.77 377.81 373.28 377.37ZM397.60 398.83Q397.14 398.39 397.14 397.75Q397.14 397.07 397.60 396.63Q398.09 396.19 398.73 396.19Q405.85 396.19 407.93 392.37Q408.56 391.21 408.56 390.16Q408.56 387.69 407.36 386.44Q405.78 384.65 401.79 384.65Q400.70 384.65 399.57 384.75L399.43 384.75Q398.80 384.75 398.30 384.34Q397.84 383.90 397.84 383.29L397.84 383.19L398.34 374.56Q398.41 373.95 398.83 373.54Q399.29 373.14 399.92 373.14L409.94 373.14Q410.61 373.14 411.07 373.61Q411.53 374.05 411.53 374.66Q411.53 375.27 411.03 375.74Q410.57 376.22 409.94 376.22L401.41 376.22L401.12 381.53L401.79 381.53Q406.27 381.53 408.99 383.73Q411.74 385.90 411.74 390.16Q411.74 391.96 410.93 393.52Q410.08 395.11 408.81 396.22Q405.42 399.27 398.73 399.27Q398.09 399.27 397.60 398.83M399.54 384.75Q399.54 384.75 399.57 384.75Q399.57 384.75 399.54 384.75ZM425.93 376.73Q424.59 377.40 424.59 378.69Q424.59 379.54 424.91 380.18Q425.23 380.82 425.97 381.36Q426.67 381.87 427.13 382.14Q427.63 382.41 428.61 382.89L428.68 382.89L428.75 382.89Q429.74 382.45 430.24 382.18Q430.73 381.90 431.43 381.40Q432.14 380.86 432.46 380.21Q432.77 379.54 432.77 378.69Q432.77 377.40 431.43 376.73Q430.13 376.05 428.68 376.05Q427.24 376.05 425.93 376.73M428.68 386.37Q423.36 389.05 423.36 392.23Q423.36 394.13 424.95 395.17Q426.43 396.22 428.68 396.22L429.39 396.22Q431.26 396.22 432.60 395.04Q433.97 393.85 433.97 392.23Q433.97 389.01 428.83 386.37L428.75 386.31L428.68 386.37M422.65 397.31Q420.22 395.34 420.22 392.23Q420.22 388.13 425.23 384.82L425.44 384.68L425.23 384.55Q421.42 382.31 421.42 378.69Q421.42 376.22 423.68 374.63Q425.90 373.00 428.68 373.00Q431.43 373.00 433.69 374.63Q435.95 376.25 435.95 378.69Q435.95 380.69 434.96 382.07Q433.94 383.43 432.14 384.55L431.93 384.68L432.14 384.82Q437.15 388.13 437.15 392.23Q437.15 394.90 435.10 396.97Q433.06 399.03 430.17 399.27L428.68 399.27Q425.05 399.27 422.65 397.31ZM444.96 397.98Q444.22 397.44 444.22 396.63Q444.22 395.99 444.68 395.55Q445.17 395.07 445.81 395.07Q446.02 395.07 446.41 395.21Q448.66 396.19 451.13 396.19Q453.81 396.19 455.65 394.90Q457.52 393.58 457.66 391.08L457.66 390.74Q457.66 389.01 456.53 387.80Q455.47 386.61 453.92 386.10Q452.40 385.63 450.53 385.63Q449.93 385.63 449.48 385.19Q449.02 384.71 449.02 384.07Q449.02 383.46 449.33 383.12L455.82 376.22L445.91 376.22Q445.28 376.22 444.79 375.78Q444.33 375.30 444.33 374.66Q444.33 374.02 444.79 373.58Q445.24 373.14 445.91 373.14L458.36 373.14Q459.00 373.14 459.45 373.61Q459.95 374.05 459.95 374.66L459.95 375.88Q459.95 376.42 459.45 376.89L453.78 382.89L454.06 382.95Q457.06 383.70 458.96 385.70Q460.83 387.69 460.83 390.71L460.83 391.25Q460.65 394.94 457.83 397.10Q455.08 399.27 451.13 399.27Q450.15 399.27 449.16 399.17Q448.17 399.07 446.94 398.83Q445.70 398.56 444.96 397.98ZM473.93 376.73Q472.59 377.40 472.59 378.69Q472.59 379.54 472.91 380.18Q473.23 380.82 473.97 381.36Q474.67 381.87 475.13 382.14Q475.63 382.41 476.61 382.89L476.68 382.89L476.75 382.89Q477.74 382.45 478.24 382.18Q478.73 381.90 479.43 381.40Q480.14 380.86 480.46 380.21Q480.77 379.54 480.77 378.69Q480.77 377.40 479.43 376.73Q478.13 376.05 476.68 376.05Q475.24 376.05 473.93 376.73M476.68 386.37Q471.36 389.05 471.36 392.23Q471.36 394.13 472.95 395.17Q474.43 396.22 476.68 396.22L477.39 396.22Q479.26 396.22 480.60 395.04Q481.97 393.85 481.97 392.23Q481.97 389.01 476.83 386.37L476.75 386.31L476.68 386.37M470.65 397.31Q468.22 395.34 468.22 392.23Q468.22 388.13 473.23 384.82L473.44 384.68L473.23 384.55Q469.42 382.31 469.42 378.69Q469.42 376.22 471.68 374.63Q473.90 373.00 476.68 373.00Q479.43 373.00 481.69 374.63Q483.95 376.25 483.95 378.69Q483.95 380.69 482.96 382.07Q481.94 383.43 480.14 384.55L479.93 384.68L480.14 384.82Q485.15 388.13 485.15 392.23Q485.15 394.90 483.10 396.97Q481.06 399.03 478.17 399.27L476.68 399.27Q473.05 399.27 470.65 397.31ZM500.83 399.27L500.68 399.27Q498.60 399.24 497.05 398.59Q495.50 397.98 494.58 397.00Q493.67 395.99 493.14 394.40Q492.57 392.81 492.40 391.18Q492.22 389.59 492.22 387.42Q492.22 385.49 492.26 384.14Q492.33 382.75 492.54 381.16Q492.75 379.54 493.10 378.45Q493.49 377.33 494.13 376.22Q494.76 375.13 495.64 374.49Q496.52 373.85 497.79 373.44Q499.06 373.04 500.68 373.04Q502.27 373.04 503.54 373.44Q504.81 373.85 505.69 374.49Q506.57 375.13 507.24 376.22Q507.88 377.33 508.23 378.45Q508.62 379.57 508.83 381.16Q509.04 382.75 509.08 384.14Q509.15 385.53 509.15 387.42Q509.15 388.78 509.08 389.89Q509.01 390.98 508.76 392.26Q508.55 393.55 508.20 394.53Q507.84 395.48 507.17 396.39Q506.50 397.31 505.66 397.92Q504.81 398.53 503.58 398.90Q502.34 399.27 500.83 399.27M495.40 384.65L495.40 387.42Q495.40 388.95 495.47 390.03Q495.57 391.11 495.89 392.37Q496.17 393.62 496.74 394.40Q497.30 395.21 498.29 395.75Q499.27 396.26 500.68 396.26L501.42 396.26Q502.41 396.26 503.19 395.89Q503.96 395.48 504.42 394.73Q504.92 394.02 505.23 393.21Q505.55 392.37 505.69 391.32Q505.87 390.23 505.90 389.35Q505.97 388.47 505.97 387.42L505.97 385.87Q505.97 384.82 505.94 384.21Q505.94 383.56 505.90 382.62Q505.87 381.63 505.76 381.09Q505.66 380.52 505.48 379.74Q505.30 378.96 505.02 378.49Q504.74 378.01 504.35 377.50Q503.93 377.00 503.43 376.73Q502.91 376.42 502.20 376.25Q501.53 376.08 500.68 376.08Q499.80 376.08 499.10 376.29Q498.43 376.45 497.90 376.79Q497.37 377.13 496.95 377.64Q496.56 378.11 496.28 378.72Q495.99 379.30 495.82 380.01Q495.64 380.69 495.57 381.46Q495.50 382.21 495.43 383.02Q495.40 383.80 495.40 384.65ZM516.40 386.61L516.40 385.66Q516.40 385.02 516.86 384.58Q517.31 384.14 517.98 384.14L532.09 384.14Q532.76 384.14 533.22 384.61Q533.68 385.05 533.68 385.66L533.68 386.61Q533.68 387.22 533.22 387.69Q532.76 388.13 532.09 388.13L517.98 388.13Q517.31 388.13 516.86 387.69Q516.40 387.25 516.40 386.61ZM541.68 392.84Q541.22 392.40 541.22 391.76L541.22 390.30Q541.22 390.03 541.40 389.66L548.91 373.98Q549.05 373.61 549.44 373.37Q549.83 373.10 550.25 373.10Q550.88 373.10 551.34 373.58Q551.80 374.02 551.80 374.63Q551.80 374.97 551.62 375.27L544.57 390.23L551.45 390.23L551.45 386.14Q551.45 385.53 551.91 385.09Q552.36 384.61 552.96 384.61Q553.56 384.61 554.02 385.09Q554.52 385.53 554.52 386.14L554.52 390.23L556.56 390.23Q557.23 390.23 557.69 390.71Q558.15 391.15 558.15 391.76Q558.15 392.37 557.65 392.84Q557.20 393.28 556.56 393.28L554.52 393.28L554.52 397.65Q554.52 398.26 554.02 398.70Q553.56 399.17 552.96 399.17Q552.36 399.17 551.91 398.73Q551.45 398.26 551.45 397.65L551.45 393.28L542.81 393.28Q542.17 393.28 541.68 392.84ZM566.28 377.37Q565.82 376.89 565.82 376.32Q565.82 375.47 566.49 375.03Q569.70 373.00 573.68 373.00Q576.89 373.00 579.04 374.97Q581.23 376.89 581.23 380.04Q581.23 381.30 580.77 382.45Q580.31 383.63 579.71 384.38Q579.15 385.12 578.02 386.03Q576.89 386.95 576.29 387.36Q575.73 387.76 574.50 388.54Q573.16 389.39 572.56 389.83Q571.96 390.27 571.11 391.15Q570.26 391.99 569.88 393.08Q569.49 394.13 569.42 395.58L569.42 395.75L579.86 395.75Q580.53 395.75 580.98 396.22Q581.44 396.66 581.44 397.27Q581.44 397.88 580.95 398.36Q580.49 398.80 579.86 398.80L567.80 398.80Q567.16 398.80 566.67 398.36Q566.21 397.88 566.21 397.27L566.21 396.56Q566.21 393.92 566.56 392.77Q567.16 390.74 568.82 389.15Q570.48 387.52 572.87 385.97Q576.19 383.83 577.07 382.62Q578.06 381.40 578.06 380.04Q578.06 378.25 576.75 377.13Q575.52 376.05 573.68 376.05Q570.51 376.05 568.32 377.54Q567.94 377.81 567.41 377.81Q566.77 377.81 566.28 377.37ZM590.77 380.92Q590.31 380.45 590.31 379.84Q590.31 379.13 590.77 378.79L597.23 373.48Q597.68 373.10 598.25 373.10L599.38 373.10Q600.01 373.10 600.47 373.58Q600.96 374.02 600.96 374.63L600.96 397.65Q600.96 398.26 600.47 398.73Q600.01 399.17 599.38 399.17Q598.74 399.17 598.25 398.73Q597.79 398.29 597.79 397.65L597.79 377.03L592.96 380.99Q592.50 381.36 591.90 381.36Q591.23 381.36 590.77 380.92ZM622.83 399.27L622.68 399.27Q620.60 399.24 619.05 398.59Q617.50 397.98 616.58 397.00Q615.67 395.99 615.14 394.40Q614.57 392.81 614.40 391.18Q614.22 389.59 614.22 387.42Q614.22 385.49 614.26 384.14Q614.33 382.75 614.54 381.16Q614.75 379.54 615.10 378.45Q615.49 377.33 616.13 376.22Q616.76 375.13 617.64 374.49Q618.52 373.85 619.79 373.44Q621.06 373.04 622.68 373.04Q624.27 373.04 625.54 373.44Q626.81 373.85 627.69 374.49Q628.57 375.13 629.24 376.22Q629.88 377.33 630.23 378.45Q630.62 379.57 630.83 381.16Q631.04 382.75 631.08 384.14Q631.15 385.53 631.15 387.42Q631.15 388.78 631.08 389.89Q631.01 390.98 630.76 392.26Q630.55 393.55 630.20 394.53Q629.84 395.48 629.17 396.39Q628.50 397.31 627.66 397.92Q626.81 398.53 625.58 398.90Q624.34 399.27 622.83 399.27M617.40 384.65L617.40 387.42Q617.40 388.95 617.47 390.03Q617.57 391.11 617.89 392.37Q618.17 393.62 618.74 394.40Q619.30 395.21 620.29 395.75Q621.27 396.26 622.68 396.26L623.42 396.26Q624.41 396.26 625.19 395.89Q625.96 395.48 626.42 394.73Q626.92 394.02 627.23 393.21Q627.55 392.37 627.69 391.32Q627.87 390.23 627.90 389.35Q627.97 388.47 627.97 387.42L627.97 385.87Q627.97 384.82 627.94 384.21Q627.94 383.56 627.90 382.62Q627.87 381.63 627.76 381.09Q627.66 380.52 627.48 379.74Q627.30 378.96 627.02 378.49Q626.74 378.01 626.35 377.50Q625.93 377.00 625.43 376.73Q624.91 376.42 624.20 376.25Q623.53 376.08 622.68 376.08Q621.80 376.08 621.10 376.29Q620.43 376.45 619.90 376.79Q619.37 377.13 618.95 377.64Q618.56 378.11 618.28 378.72Q617.99 379.30 617.82 380.01Q617.64 380.69 617.57 381.46Q617.50 382.21 617.43 383.02Q617.40 383.80 617.40 384.65ZM639.60 398.83Q639.14 398.39 639.14 397.75Q639.14 397.07 639.60 396.63Q640.09 396.19 640.73 396.19Q647.85 396.19 649.93 392.37Q650.56 391.21 650.56 390.16Q650.56 387.69 649.36 386.44Q647.78 384.65 643.79 384.65Q642.70 384.65 641.57 384.75L641.43 384.75Q640.80 384.75 640.30 384.34Q639.84 383.90 639.84 383.29L639.84 383.19L640.34 374.56Q640.41 373.95 640.83 373.54Q641.29 373.14 641.92 373.14L651.94 373.14Q652.61 373.14 653.07 373.61Q653.53 374.05 653.53 374.66Q653.53 375.27 653.03 375.74Q652.57 376.22 651.94 376.22L643.41 376.22L643.12 381.53L643.79 381.53Q648.27 381.53 650.99 383.73Q653.74 385.90 653.74 390.16Q653.74 391.96 652.93 393.52Q652.08 395.11 650.81 396.22Q647.42 399.27 640.73 399.27Q640.09 399.27 639.60 398.83M641.54 384.75Q641.54 384.75 641.57 384.75Q641.57 384.75 641.54 384.75Z" fill="#000000" />
</svg>
